%TF.GenerationSoftware,KiCad,Pcbnew,9.0.7*%
%TF.CreationDate,2026-04-13T18:33:56-04:00*%
%TF.ProjectId,BNN,424e4e2e-6b69-4636-9164-5f7063625858,rev?*%
%TF.SameCoordinates,Original*%
%TF.FileFunction,Copper,L2,Bot*%
%TF.FilePolarity,Positive*%
%FSLAX46Y46*%
G04 Gerber Fmt 4.6, Leading zero omitted, Abs format (unit mm)*
G04 Created by KiCad (PCBNEW 9.0.7) date 2026-04-13 18:33:56*
%MOMM*%
%LPD*%
G01*
G04 APERTURE LIST*
%TA.AperFunction,ComponentPad*%
%ADD10R,1.700000X1.700000*%
%TD*%
%TA.AperFunction,ComponentPad*%
%ADD11C,1.700000*%
%TD*%
%TA.AperFunction,ViaPad*%
%ADD12C,0.600000*%
%TD*%
%TA.AperFunction,ViaPad*%
%ADD13C,0.609600*%
%TD*%
%TA.AperFunction,Conductor*%
%ADD14C,0.152400*%
%TD*%
%TA.AperFunction,Conductor*%
%ADD15C,0.508000*%
%TD*%
%TA.AperFunction,Conductor*%
%ADD16C,0.254000*%
%TD*%
%TA.AperFunction,Conductor*%
%ADD17C,0.203200*%
%TD*%
G04 APERTURE END LIST*
D10*
%TO.P,J4,1,Pin_1*%
%TO.N,/IO/FPGA_IO34*%
X134061200Y-120091200D03*
D11*
%TO.P,J4,2,Pin_2*%
%TO.N,/IO/FPGA_IO36*%
X136601200Y-120091200D03*
%TO.P,J4,3,Pin_3*%
%TO.N,/IO/FPGA_IO37*%
X139141200Y-120091200D03*
%TO.P,J4,4,Pin_4*%
%TO.N,/IO/FPGA_IO38*%
X141681200Y-120091200D03*
%TO.P,J4,5,Pin_5*%
%TO.N,/IO/FPGA_IO42*%
X144221200Y-120091200D03*
%TO.P,J4,6,Pin_6*%
%TO.N,/IO/FPGA_IO43*%
X146761200Y-120091200D03*
%TO.P,J4,7,Pin_7*%
%TO.N,/IO/FPGA_IO44*%
X149301200Y-120091200D03*
%TO.P,J4,8,Pin_8*%
%TO.N,/IO/FPGA_IO45*%
X151841200Y-120091200D03*
%TO.P,J4,9,Pin_9*%
%TO.N,/IO/FPGA_IO46*%
X154381200Y-120091200D03*
%TO.P,J4,10,Pin_10*%
%TO.N,/IO/FPGA_IO47*%
X156921200Y-120091200D03*
%TO.P,J4,11,Pin_11*%
%TO.N,/IO/FPGA_IO48*%
X159461200Y-120091200D03*
%TO.P,J4,12,Pin_12*%
%TO.N,GND*%
X162001200Y-120091200D03*
%TD*%
D10*
%TO.P,J5,1,Pin_1*%
%TO.N,GND*%
X176022000Y-71831200D03*
D11*
%TO.P,J5,2,Pin_2*%
%TO.N,/IO/FPGA_IO32*%
X176022000Y-74371200D03*
%TO.P,J5,3,Pin_3*%
%TO.N,/IO/FPGA_IO31*%
X176022000Y-76911200D03*
%TO.P,J5,4,Pin_4*%
%TO.N,/IO/FPGA_IO28*%
X176022000Y-79451200D03*
%TO.P,J5,5,Pin_5*%
%TO.N,/IO/FPGA_IO23*%
X176022000Y-81991200D03*
%TO.P,J5,6,Pin_6*%
%TO.N,/IO/FPGA_IO21*%
X176022000Y-84531200D03*
%TO.P,J5,7,Pin_7*%
%TO.N,/IO/FPGA_IO20*%
X176022000Y-87071200D03*
%TO.P,J5,8,Pin_8*%
%TO.N,/IO/FPGA_IO19*%
X176022000Y-89611200D03*
%TO.P,J5,9,Pin_9*%
%TO.N,/IO/FPGA_IO18*%
X176022000Y-92151200D03*
%TO.P,J5,10,Pin_10*%
%TO.N,/IO/FPGA_IO13*%
X176022000Y-94691200D03*
%TO.P,J5,11,Pin_11*%
%TO.N,/IO/FPGA_IO12*%
X176022000Y-97231200D03*
%TO.P,J5,12,Pin_12*%
%TO.N,/IO/FPGA_IO11*%
X176022000Y-99771200D03*
%TO.P,J5,13,Pin_13*%
%TO.N,/IO/FPGA_IO10*%
X176022000Y-102311200D03*
%TO.P,J5,14,Pin_14*%
%TO.N,/IO/FPGA_IO9*%
X176022000Y-104851200D03*
%TO.P,J5,15,Pin_15*%
%TO.N,/IO/FPGA_IO6*%
X176022000Y-107391200D03*
%TO.P,J5,16,Pin_16*%
%TO.N,/IO/FPGA_IO4*%
X176022000Y-109931200D03*
%TO.P,J5,17,Pin_17*%
%TO.N,/IO/FPGA_IO3*%
X176022000Y-112471200D03*
%TO.P,J5,18,Pin_18*%
%TO.N,/IO/FPGA_IO2*%
X176022000Y-115011200D03*
%TO.P,J5,19,Pin_19*%
%TO.N,+3V3*%
X176022000Y-117551200D03*
%TO.P,J5,20,Pin_20*%
%TO.N,GND*%
X176022000Y-120091200D03*
%TD*%
D10*
%TO.P,J2,1,Pin_1*%
%TO.N,/RP2040/SWCLK*%
X127863600Y-84988400D03*
D11*
%TO.P,J2,2,Pin_2*%
%TO.N,GND*%
X127863600Y-87528400D03*
%TO.P,J2,3,Pin_3*%
%TO.N,/RP2040/SWDIO*%
X127863600Y-90068400D03*
%TD*%
D10*
%TO.P,J3,1,Pin_1*%
%TO.N,GND*%
X120091200Y-71831200D03*
D11*
%TO.P,J3,2,Pin_2*%
%TO.N,+5V*%
X120091200Y-74371200D03*
%TO.P,J3,3,Pin_3*%
%TO.N,/IO/GPIO14*%
X120091200Y-76911200D03*
%TO.P,J3,4,Pin_4*%
%TO.N,/IO/GPIO15*%
X120091200Y-79451200D03*
%TO.P,J3,5,Pin_5*%
%TO.N,/IO/GPIO16*%
X120091200Y-81991200D03*
%TO.P,J3,6,Pin_6*%
%TO.N,/IO/GPIO17*%
X120091200Y-84531200D03*
%TO.P,J3,7,Pin_7*%
%TO.N,/IO/GPIO18*%
X120091200Y-87071200D03*
%TO.P,J3,8,Pin_8*%
%TO.N,/IO/GPIO19*%
X120091200Y-89611200D03*
%TO.P,J3,9,Pin_9*%
%TO.N,/IO/GPIO20*%
X120091200Y-92151200D03*
%TO.P,J3,10,Pin_10*%
%TO.N,/IO/GPIO21*%
X120091200Y-94691200D03*
%TO.P,J3,11,Pin_11*%
%TO.N,/IO/GPIO22*%
X120091200Y-97231200D03*
%TO.P,J3,12,Pin_12*%
%TO.N,/IO/GPIO23*%
X120091200Y-99771200D03*
%TO.P,J3,13,Pin_13*%
%TO.N,/IO/GPIO24*%
X120091200Y-102311200D03*
%TO.P,J3,14,Pin_14*%
%TO.N,/IO/GPIO25*%
X120091200Y-104851200D03*
%TO.P,J3,15,Pin_15*%
%TO.N,/IO/GPIO26*%
X120091200Y-107391200D03*
%TO.P,J3,16,Pin_16*%
%TO.N,/IO/GPIO27*%
X120091200Y-109931200D03*
%TO.P,J3,17,Pin_17*%
%TO.N,/IO/GPIO28*%
X120091200Y-112471200D03*
%TO.P,J3,18,Pin_18*%
%TO.N,/IO/GPIO29*%
X120091200Y-115011200D03*
%TO.P,J3,19,Pin_19*%
%TO.N,+3V3*%
X120091200Y-117551200D03*
%TO.P,J3,20,Pin_20*%
%TO.N,GND*%
X120091200Y-120091200D03*
%TD*%
D12*
%TO.N,/iCE40UP5K/SPI_SS*%
X156057600Y-95521400D03*
%TO.N,+3V3*%
X156362400Y-104698800D03*
X150831564Y-95510364D03*
X152419871Y-97111800D03*
X154229041Y-104698559D03*
%TO.N,GND*%
X170066320Y-102151297D03*
X128016000Y-99669600D03*
X140208000Y-110490000D03*
X156874657Y-111099600D03*
X156057600Y-96926400D03*
X169468800Y-110490000D03*
X144170400Y-79552800D03*
X138833704Y-99204400D03*
X150571200Y-94640400D03*
X150571200Y-106375200D03*
D13*
X162610800Y-99822000D03*
X153162000Y-82835750D03*
D12*
X152247600Y-102717600D03*
X133177515Y-110469915D03*
X131368800Y-110490000D03*
X137617200Y-110490000D03*
D13*
X154228800Y-88774250D03*
D12*
X145694400Y-113842800D03*
X148132800Y-95707200D03*
X147675600Y-85801200D03*
X155295600Y-78486000D03*
X140512800Y-78638400D03*
X136245600Y-89458800D03*
X151028400Y-82905600D03*
X166116000Y-92811600D03*
X169011600Y-108051600D03*
X165049200Y-112623600D03*
X137773600Y-92000729D03*
X148768835Y-103201235D03*
X127863600Y-105460800D03*
X145542000Y-99517200D03*
D13*
X159867600Y-99822000D03*
D12*
X127890035Y-104725235D03*
X133772053Y-92376199D03*
X136295123Y-92168599D03*
X155295600Y-82810350D03*
X160782000Y-88392000D03*
X137624064Y-98633717D03*
X162306000Y-112623600D03*
X170094365Y-104378035D03*
D13*
X162610800Y-102565200D03*
X161239200Y-101193600D03*
D12*
X152247600Y-99060000D03*
X127224200Y-93878400D03*
X152247600Y-100888800D03*
D13*
X159867600Y-102565200D03*
D12*
X151638000Y-79705200D03*
X162306000Y-110337600D03*
X136093200Y-110490000D03*
X145389600Y-105918000D03*
%TO.N,/RP2040/VREG_VOUT*%
X137039841Y-103738549D03*
X134780147Y-99317474D03*
X135635974Y-103586038D03*
X136054442Y-98625967D03*
%TO.N,/Power/USB_DN*%
X147066085Y-76976719D03*
X148219485Y-76962000D03*
%TO.N,/IO/GPIO27*%
X125695600Y-103122885D03*
X124189800Y-103098018D03*
%TO.N,/IO/GPIO22*%
X124189800Y-99098003D03*
X125695599Y-99122871D03*
%TO.N,/IO/GPIO14*%
X145600722Y-82442548D03*
X144456457Y-81362857D03*
%TO.N,/IO/GPIO15*%
X145035035Y-83008235D03*
X143890770Y-81928544D03*
%TO.N,/IO/GPIO25*%
X125695600Y-101522879D03*
X124189800Y-101498012D03*
%TO.N,/IO/GPIO19*%
X125695600Y-96674469D03*
X124189800Y-96659603D03*
%TO.N,/IO/GPIO28*%
X124189800Y-103898021D03*
X125695600Y-103922888D03*
%TO.N,/IO/GPIO18*%
X125695600Y-95859600D03*
X124189800Y-95859600D03*
%TO.N,/IO/GPIO17*%
X125730102Y-92051974D03*
X124189800Y-92087603D03*
%TO.N,/IO/GPIO21*%
X124189800Y-98298000D03*
X125714483Y-98323091D03*
%TO.N,/IO/GPIO26*%
X125695600Y-102322882D03*
X124189800Y-102298015D03*
%TO.N,/IO/GPIO23*%
X124189800Y-99898006D03*
X125695600Y-99922873D03*
%TO.N,/IO/GPIO29*%
X125695600Y-104722891D03*
X124181874Y-104697984D03*
%TO.N,/IO/GPIO24*%
X124189800Y-100698009D03*
X125695600Y-100722876D03*
%TO.N,/IO/GPIO20*%
X125695600Y-97489338D03*
X124189800Y-97459606D03*
%TO.N,/IO/GPIO16*%
X124189800Y-91287600D03*
X125695600Y-91252716D03*
%TO.N,/IO/FPGA_IO45*%
X162528029Y-105974201D03*
X160810088Y-115451799D03*
X161439155Y-108200800D03*
X161450872Y-113943799D03*
%TO.N,/IO/FPGA_IO34*%
X154926209Y-115451799D03*
X154982800Y-113943799D03*
X155949113Y-103066313D03*
X155753041Y-106222559D03*
%TO.N,/IO/FPGA_IO44*%
X160629600Y-108209568D03*
X159938315Y-115451799D03*
X161718427Y-105974200D03*
X160650869Y-113943799D03*
%TO.N,/IO/FPGA_IO36*%
X155726212Y-115451799D03*
X157734000Y-104546400D03*
X156329241Y-106798758D03*
X155782803Y-113943799D03*
%TO.N,/IO/FPGA_IO48*%
X164942419Y-105979000D03*
D13*
X168706800Y-116735200D03*
X168706800Y-114452400D03*
D12*
X164982406Y-108200800D03*
D13*
%TO.N,/IO/FPGA_IO46*%
X167030400Y-116735200D03*
D12*
X163337631Y-105974200D03*
X163363368Y-108212474D03*
D13*
X167046250Y-114452400D03*
D12*
%TO.N,/IO/FPGA_IO47*%
X164172803Y-108196000D03*
X164142416Y-105979000D03*
D13*
X167853899Y-114508600D03*
X167840003Y-116735200D03*
D12*
%TO.N,/IO/FPGA_IO43*%
X160666270Y-105974200D03*
X159810381Y-108207079D03*
X159850866Y-113943799D03*
X159068838Y-115451799D03*
%TO.N,/IO/FPGA_IO42*%
X159000803Y-108200800D03*
X158189135Y-115451799D03*
X159856667Y-105974200D03*
X159050863Y-113943799D03*
%TO.N,/IO/FPGA_IO38*%
X158191200Y-108200800D03*
X158250860Y-113943799D03*
X159047064Y-105974200D03*
X157326218Y-115451799D03*
%TO.N,/IO/FPGA_IO37*%
X156905441Y-107374957D03*
X156526215Y-115451799D03*
X157450857Y-113943799D03*
X158331741Y-105595035D03*
D13*
%TO.N,/IO/FPGA_IO31*%
X169031599Y-91087597D03*
D12*
X156244107Y-101367402D03*
D13*
X171999192Y-91087597D03*
D12*
X163579427Y-90778886D03*
%TO.N,/IO/FPGA_IO11*%
X169036399Y-98215320D03*
D13*
X171999192Y-98507594D03*
%TO.N,/IO/FPGA_IO6*%
X171142000Y-106623328D03*
X170799565Y-102942399D03*
D12*
%TO.N,/IO/FPGA_IO19*%
X164065400Y-95959131D03*
D13*
X171999192Y-95269182D03*
D12*
X161413001Y-96083595D03*
X168041899Y-95250242D03*
%TO.N,/IO/FPGA_IO32*%
X155600090Y-101842000D03*
X163903713Y-90047558D03*
D13*
X171999192Y-90277994D03*
X169031599Y-90277994D03*
D12*
%TO.N,/IO/FPGA_IO10*%
X168961840Y-99011839D03*
D13*
X171999192Y-99317197D03*
D12*
%TO.N,/IO/FPGA_IO2*%
X166670198Y-104109199D03*
D13*
X171142000Y-109061206D03*
%TO.N,/IO/FPGA_IO21*%
X171999192Y-93649976D03*
D12*
X161185900Y-94527482D03*
%TO.N,/IO/FPGA_IO23*%
X161185900Y-93727479D03*
X158343600Y-96621600D03*
D13*
X171999192Y-92840373D03*
D12*
X159413001Y-95884842D03*
D13*
%TO.N,/IO/FPGA_IO12*%
X171999192Y-97697991D03*
D12*
X169036399Y-97415317D03*
%TO.N,/IO/FPGA_IO20*%
X161153556Y-95326830D03*
D13*
X171999192Y-94459579D03*
D12*
%TO.N,/IO/FPGA_IO28*%
X156633800Y-99669600D03*
D13*
X169031599Y-91897200D03*
X171999192Y-91897200D03*
D12*
X163571735Y-91586064D03*
%TO.N,/IO/FPGA_IO4*%
X166573200Y-102565200D03*
D13*
X171142000Y-107442000D03*
D12*
%TO.N,/IO/FPGA_IO13*%
X169036399Y-96615314D03*
D13*
X171999192Y-96888388D03*
D12*
%TO.N,/IO/FPGA_IO18*%
X161413001Y-96883598D03*
X164065401Y-96774000D03*
X168903425Y-95826442D03*
D13*
X171999192Y-96078785D03*
D12*
%TO.N,/IO/FPGA_IO3*%
X167420656Y-103810799D03*
D13*
X171142000Y-108251603D03*
D12*
%TO.N,/IO/FPGA_IO9*%
X167993764Y-98858634D03*
D13*
X171999192Y-100126800D03*
D12*
%TO.N,/RP2040/SQPI_SD1*%
X148127656Y-110342744D03*
X149320454Y-109905800D03*
%TO.N,/RP2040/SQPI_SD2*%
X148050454Y-108635800D03*
X146731370Y-109453030D03*
%TO.N,/RP2040/FPGA_CDONE*%
X149961600Y-92803600D03*
D13*
X151180800Y-91290800D03*
D12*
%TO.N,/RP2040/FPGA_CRESET*%
X166294835Y-99848435D03*
X170485392Y-100701674D03*
X150376501Y-91262332D03*
X149969034Y-93611037D03*
%TO.N,Net-(U5-{slash}HOLD_OR_{slash}RESET(IO3))*%
X165422200Y-88243740D03*
X163576000Y-88290400D03*
%TO.N,/RP2040/FPGA_CLK*%
X156439066Y-103707734D03*
X147432889Y-99884089D03*
X149607035Y-102363035D03*
X150029608Y-103327602D03*
%TO.N,/iCE40UP5K/SPI_SS*%
X161185900Y-92811600D03*
X162338300Y-92811600D03*
X156057600Y-93454600D03*
%TO.N,/iCE40UP5K/SPI_SCK*%
X162338300Y-92011597D03*
X161185900Y-92011597D03*
%TO.N,/RP2040/SPI_CS_FPGA*%
X147527068Y-102766601D03*
X145928482Y-101166600D03*
%TO.N,/iCE40UP5K/SPI_S0*%
X161185900Y-90858197D03*
X163565399Y-92806416D03*
%TD*%
D14*
%TO.N,/iCE40UP5K/SPI_SS*%
X156057600Y-95521400D02*
X156057600Y-93454600D01*
D15*
%TO.N,+3V3*%
X154229041Y-104698559D02*
X156362159Y-104698559D01*
X150831564Y-95523493D02*
X152419871Y-97111800D01*
X150831564Y-95510364D02*
X150831564Y-95523493D01*
D16*
%TO.N,/RP2040/VREG_VOUT*%
X137039841Y-103738549D02*
X135788485Y-103738549D01*
X135362935Y-99317474D02*
X136054442Y-98625967D01*
X134780147Y-99317474D02*
X135362935Y-99317474D01*
D17*
X135788485Y-103738549D02*
X135635974Y-103586038D01*
D14*
%TO.N,/Power/USB_DN*%
X147080804Y-76962000D02*
X147066085Y-76976719D01*
X148219485Y-76962000D02*
X147080804Y-76962000D01*
%TO.N,/IO/GPIO27*%
X124214667Y-103122885D02*
X124189800Y-103098018D01*
X125695600Y-103122885D02*
X124214667Y-103122885D01*
%TO.N,/IO/GPIO22*%
X124214668Y-99122871D02*
X124189800Y-99098003D01*
X125695599Y-99122871D02*
X124214668Y-99122871D01*
%TO.N,/IO/GPIO14*%
X145600722Y-82442548D02*
X144521031Y-81362857D01*
X144521031Y-81362857D02*
X144456457Y-81362857D01*
%TO.N,/IO/GPIO15*%
X143955344Y-81928544D02*
X143890770Y-81928544D01*
X145035035Y-83008235D02*
X143955344Y-81928544D01*
%TO.N,/IO/GPIO25*%
X125695600Y-101522879D02*
X124214667Y-101522879D01*
X124214667Y-101522879D02*
X124189800Y-101498012D01*
%TO.N,/IO/GPIO19*%
X125695600Y-96674469D02*
X125642731Y-96621600D01*
X124227803Y-96621600D02*
X124189800Y-96659603D01*
X125642731Y-96621600D02*
X124227803Y-96621600D01*
%TO.N,/IO/GPIO28*%
X124189800Y-103898021D02*
X124218528Y-103926749D01*
X124218528Y-103926749D02*
X125691739Y-103926749D01*
X125691739Y-103926749D02*
X125695600Y-103922888D01*
%TO.N,/IO/GPIO18*%
X125695600Y-95859600D02*
X124189800Y-95859600D01*
%TO.N,/IO/GPIO17*%
X124225429Y-92051974D02*
X124189800Y-92087603D01*
X125730102Y-92051974D02*
X124225429Y-92051974D01*
%TO.N,/IO/GPIO21*%
X124214891Y-98323091D02*
X124189800Y-98298000D01*
X125714483Y-98323091D02*
X124214891Y-98323091D01*
%TO.N,/IO/GPIO26*%
X124214667Y-102322882D02*
X124189800Y-102298015D01*
X125695600Y-102322882D02*
X124214667Y-102322882D01*
%TO.N,/IO/GPIO23*%
X125695600Y-99922873D02*
X124214667Y-99922873D01*
X124214667Y-99922873D02*
X124189800Y-99898006D01*
%TO.N,/IO/GPIO29*%
X124206781Y-104722891D02*
X124181874Y-104697984D01*
X125695600Y-104722891D02*
X124206781Y-104722891D01*
%TO.N,/IO/GPIO24*%
X125695600Y-100722876D02*
X124214667Y-100722876D01*
X124214667Y-100722876D02*
X124189800Y-100698009D01*
%TO.N,/IO/GPIO20*%
X125695600Y-97489338D02*
X125589862Y-97383600D01*
X125589862Y-97383600D02*
X124265806Y-97383600D01*
X124265806Y-97383600D02*
X124189800Y-97459606D01*
%TO.N,/IO/GPIO16*%
X124224684Y-91252716D02*
X124189800Y-91287600D01*
X125695600Y-91252716D02*
X124224684Y-91252716D01*
%TO.N,/IO/FPGA_IO45*%
X161450872Y-113943799D02*
X161450872Y-114811015D01*
X161439155Y-107089645D02*
X161439155Y-108200800D01*
X162528029Y-105974201D02*
X162528029Y-106000771D01*
X161450872Y-114811015D02*
X160810088Y-115451799D01*
X162528029Y-106000771D02*
X161439155Y-107089645D01*
%TO.N,/IO/FPGA_IO34*%
X157015559Y-103469356D02*
X156677444Y-103131241D01*
X157015559Y-104960041D02*
X157015559Y-103469356D01*
X154982800Y-113943799D02*
X154982800Y-115395208D01*
X156677444Y-103131241D02*
X156014041Y-103131241D01*
X154982800Y-115395208D02*
X154926209Y-115451799D01*
X156000628Y-105974972D02*
X155753041Y-106222559D01*
X154926209Y-115451799D02*
X155099016Y-115451799D01*
X156014041Y-103131241D02*
X155949113Y-103066313D01*
X156000628Y-105974972D02*
X157015559Y-104960041D01*
%TO.N,/IO/FPGA_IO44*%
X160629600Y-107063027D02*
X160629600Y-108209568D01*
X160650869Y-114739245D02*
X159938315Y-115451799D01*
X161718427Y-105974200D02*
X160629600Y-107063027D01*
X160650869Y-113943799D02*
X160650869Y-114739245D01*
%TO.N,/IO/FPGA_IO36*%
X157734000Y-105393999D02*
X156329241Y-106798758D01*
X155726212Y-114000390D02*
X155726212Y-115451799D01*
X157734000Y-104546400D02*
X157734000Y-105393999D01*
X155782803Y-113943799D02*
X155726212Y-114000390D01*
%TO.N,/IO/FPGA_IO48*%
X164982406Y-108200800D02*
X164977606Y-108200800D01*
X164942419Y-108165613D02*
X164942419Y-105979000D01*
X168706800Y-114452400D02*
X168706800Y-116735200D01*
X164977606Y-108200800D02*
X164942419Y-108165613D01*
%TO.N,/IO/FPGA_IO46*%
X167046250Y-116719350D02*
X167030400Y-116735200D01*
X163337631Y-108160831D02*
X163337631Y-105974200D01*
X163363368Y-108186568D02*
X163337631Y-108160831D01*
X167046250Y-114452400D02*
X167046250Y-116719350D01*
X167111178Y-114452400D02*
X167182800Y-114524022D01*
X163338133Y-105974200D02*
X163337631Y-105974200D01*
X163363368Y-108212474D02*
X163363368Y-108186568D01*
%TO.N,/IO/FPGA_IO47*%
X164142416Y-105979000D02*
X164142416Y-108165613D01*
X164142416Y-108165613D02*
X164172803Y-108196000D01*
X167853899Y-116721304D02*
X167840003Y-116735200D01*
X167853899Y-114508600D02*
X167853899Y-116721304D01*
%TO.N,/IO/FPGA_IO43*%
X159810381Y-106889619D02*
X159810381Y-108207079D01*
X159850866Y-114669771D02*
X159068838Y-115451799D01*
X159850866Y-113943799D02*
X159850866Y-114669771D01*
X160666270Y-106033730D02*
X160666270Y-105974200D01*
X159810381Y-106889619D02*
X160666270Y-106033730D01*
%TO.N,/IO/FPGA_IO42*%
X159050863Y-114590071D02*
X158189135Y-115451799D01*
X159000803Y-108200800D02*
X159000803Y-106843534D01*
X159856667Y-105987670D02*
X159856667Y-105974200D01*
X159000803Y-106843534D02*
X159856667Y-105987670D01*
X159050863Y-113943799D02*
X159050863Y-114590071D01*
%TO.N,/IO/FPGA_IO38*%
X158250860Y-114527157D02*
X157326218Y-115451799D01*
X158191200Y-108200800D02*
X158191200Y-106830064D01*
X158191200Y-108200800D02*
X158343600Y-108048400D01*
X158250860Y-113943799D02*
X158250860Y-114527157D01*
X158191200Y-106830064D02*
X159047064Y-105974200D01*
X158856064Y-105974200D02*
X159047064Y-105974200D01*
%TO.N,/IO/FPGA_IO37*%
X158331741Y-105595035D02*
X158290463Y-105636313D01*
X158290463Y-105989935D02*
X156905441Y-107374957D01*
X158290463Y-105636313D02*
X158290463Y-105989935D01*
X156526215Y-114868441D02*
X156526215Y-115451799D01*
X157450857Y-113943799D02*
X156526215Y-114868441D01*
%TO.N,/IO/FPGA_IO31*%
X156056600Y-99365800D02*
X156056600Y-101179895D01*
X169031599Y-91087597D02*
X169079202Y-91135200D01*
X171951589Y-91135200D02*
X171999192Y-91087597D01*
X157075800Y-98346600D02*
X156056600Y-99365800D01*
X157075800Y-93652228D02*
X157075800Y-98346600D01*
X156244107Y-101367402D02*
X156242692Y-101367402D01*
X160800432Y-89927597D02*
X157075800Y-93652228D01*
X169079202Y-91135200D02*
X171951589Y-91135200D01*
X162728138Y-89927597D02*
X163579427Y-90778886D01*
X156056600Y-101179895D02*
X156244107Y-101367402D01*
X160800432Y-89927597D02*
X162728138Y-89927597D01*
%TO.N,/IO/FPGA_IO11*%
X169036399Y-98215320D02*
X169328673Y-98507594D01*
X169328673Y-98507594D02*
X171999192Y-98507594D01*
%TO.N,/IO/FPGA_IO6*%
X170799565Y-106280893D02*
X171142000Y-106623328D01*
X170799565Y-102942399D02*
X170799565Y-106280893D01*
%TO.N,/IO/FPGA_IO19*%
X161413001Y-96083595D02*
X163940936Y-96083595D01*
X168041899Y-95250242D02*
X171980252Y-95250242D01*
X171980252Y-95250242D02*
X171999192Y-95269182D01*
X163940936Y-96083595D02*
X164065400Y-95959131D01*
%TO.N,/IO/FPGA_IO32*%
X163903713Y-90047558D02*
X163430352Y-89574197D01*
X160654049Y-89574197D02*
X156667200Y-93561046D01*
X163430352Y-89574197D02*
X160654049Y-89574197D01*
X155600090Y-101842000D02*
X155483271Y-101842000D01*
X155600090Y-99212710D02*
X155600090Y-101842000D01*
X169031599Y-90277994D02*
X169126805Y-90373200D01*
X156667200Y-93561046D02*
X156667200Y-98145600D01*
X156667200Y-98145600D02*
X155600090Y-99212710D01*
X169126805Y-90373200D02*
X171903986Y-90373200D01*
X171903986Y-90373200D02*
X171999192Y-90277994D01*
%TO.N,/IO/FPGA_IO10*%
X169267198Y-99317197D02*
X171999192Y-99317197D01*
X168961840Y-99011839D02*
X169267198Y-99317197D01*
X168961840Y-99011839D02*
X169048004Y-99098003D01*
%TO.N,/IO/FPGA_IO2*%
X171084806Y-109061206D02*
X171142000Y-109061206D01*
X166670198Y-104646598D02*
X171084806Y-109061206D01*
X166670198Y-104109199D02*
X166670198Y-104646598D01*
%TO.N,/IO/FPGA_IO21*%
X161185900Y-94527482D02*
X167143318Y-94527482D01*
X167143318Y-94527482D02*
X168020824Y-93649976D01*
X168020824Y-93649976D02*
X171999192Y-93649976D01*
%TO.N,/IO/FPGA_IO23*%
X158719561Y-96578282D02*
X159413001Y-95884842D01*
X167030400Y-93727479D02*
X167917506Y-92840373D01*
X158386918Y-96578282D02*
X158719561Y-96578282D01*
X167917506Y-92840373D02*
X171999192Y-92840373D01*
X161185900Y-93727479D02*
X167030400Y-93727479D01*
X158343600Y-96621600D02*
X158386918Y-96578282D01*
%TO.N,/IO/FPGA_IO12*%
X169319073Y-97697991D02*
X171999192Y-97697991D01*
X169036399Y-97415317D02*
X169068116Y-97383600D01*
X169036399Y-97415317D02*
X169319073Y-97697991D01*
%TO.N,/IO/FPGA_IO20*%
X161153556Y-95326830D02*
X167149026Y-95326830D01*
X167149026Y-95326830D02*
X168016277Y-94459579D01*
X168016277Y-94459579D02*
X171999192Y-94459579D01*
%TO.N,/IO/FPGA_IO28*%
X157429200Y-93798612D02*
X157429200Y-98874200D01*
X169031599Y-91897200D02*
X171999192Y-91897200D01*
X160946815Y-90280997D02*
X157429200Y-93798612D01*
X162266668Y-90280997D02*
X163571735Y-91586064D01*
X157429200Y-98874200D02*
X156633800Y-99669600D01*
X160946815Y-90280997D02*
X162266668Y-90280997D01*
%TO.N,/IO/FPGA_IO4*%
X166991342Y-102565200D02*
X170446165Y-106020023D01*
X171137599Y-107442000D02*
X171142000Y-107442000D01*
X170446165Y-106750566D02*
X171137599Y-107442000D01*
X170446165Y-106020023D02*
X170446165Y-106750566D01*
X166573200Y-102565200D02*
X166991342Y-102565200D01*
%TO.N,/IO/FPGA_IO13*%
X169036399Y-96615314D02*
X169068116Y-96583597D01*
X169309473Y-96888388D02*
X171999192Y-96888388D01*
X169036399Y-96615314D02*
X169309473Y-96888388D01*
%TO.N,/IO/FPGA_IO18*%
X161413001Y-96883598D02*
X161522599Y-96774000D01*
X171746849Y-95826442D02*
X171999192Y-96078785D01*
X161522599Y-96774000D02*
X164065401Y-96774000D01*
X168903425Y-95826442D02*
X171746849Y-95826442D01*
%TO.N,/IO/FPGA_IO3*%
X167420656Y-103810799D02*
X167420656Y-103873056D01*
X171128530Y-108251603D02*
X171142000Y-108251603D01*
X167420656Y-104543729D02*
X171128530Y-108251603D01*
X167420656Y-103810799D02*
X167420656Y-104543729D01*
%TO.N,/IO/FPGA_IO9*%
X167993764Y-98858634D02*
X169259604Y-100124474D01*
X169259604Y-100124474D02*
X171996866Y-100124474D01*
X171996866Y-100124474D02*
X171999192Y-100126800D01*
%TO.N,/RP2040/SQPI_SD1*%
X148564600Y-109905800D02*
X149320454Y-109905800D01*
X148127656Y-110342744D02*
X148564600Y-109905800D01*
%TO.N,/RP2040/SQPI_SD2*%
X146734765Y-109449635D02*
X146731370Y-109453030D01*
X146767313Y-109449635D02*
X146734765Y-109449635D01*
X147581148Y-108635800D02*
X146767313Y-109449635D01*
X148050454Y-108635800D02*
X147581148Y-108635800D01*
%TO.N,/RP2040/FPGA_CDONE*%
X151180800Y-91290800D02*
X149961600Y-92510000D01*
X149961600Y-92510000D02*
X149961600Y-92803600D01*
%TO.N,/RP2040/FPGA_CRESET*%
X149969034Y-93611037D02*
X149952752Y-93611037D01*
X149952752Y-93611037D02*
X149384400Y-93042685D01*
X166294835Y-99848435D02*
X167148074Y-100701674D01*
X167148074Y-100701674D02*
X170485392Y-100701674D01*
X149384400Y-93042685D02*
X149384400Y-92254433D01*
X149384400Y-92254433D02*
X150376501Y-91262332D01*
%TO.N,Net-(U5-{slash}HOLD_OR_{slash}RESET(IO3))*%
X163576000Y-88290400D02*
X163622660Y-88243740D01*
X163622660Y-88243740D02*
X165422200Y-88243740D01*
%TO.N,/RP2040/FPGA_CLK*%
X147432889Y-100188889D02*
X147432889Y-99884089D01*
X150409740Y-103707734D02*
X156439066Y-103707734D01*
X150029608Y-103327602D02*
X150409740Y-103707734D01*
X149607035Y-102363035D02*
X147432889Y-100188889D01*
X156392501Y-103754299D02*
X156439066Y-103707734D01*
%TO.N,/iCE40UP5K/SPI_SS*%
X161185900Y-92811600D02*
X162338300Y-92811600D01*
%TO.N,/iCE40UP5K/SPI_SCK*%
X161185900Y-92011597D02*
X162338300Y-92011597D01*
%TO.N,/RP2040/SPI_CS_FPGA*%
X145928482Y-101186191D02*
X145928482Y-101166600D01*
X147527068Y-102766601D02*
X147508892Y-102766601D01*
X147508892Y-102766601D02*
X145928482Y-101186191D01*
%TO.N,/iCE40UP5K/SPI_S0*%
X163565399Y-92394599D02*
X163565399Y-92806416D01*
X161185900Y-90858197D02*
X162028997Y-90858197D01*
X162028997Y-90858197D02*
X163565399Y-92394599D01*
%TD*%
%TA.AperFunction,Conductor*%
%TO.N,GND*%
G36*
X177902939Y-70166985D02*
G01*
X177948694Y-70219789D01*
X177959900Y-70271300D01*
X177959900Y-121752700D01*
X177940215Y-121819739D01*
X177887411Y-121865494D01*
X177835900Y-121876700D01*
X118277300Y-121876700D01*
X118210261Y-121857015D01*
X118164506Y-121804211D01*
X118153300Y-121752700D01*
X118153300Y-74264913D01*
X118740700Y-74264913D01*
X118740700Y-74477486D01*
X118773953Y-74687439D01*
X118839644Y-74889614D01*
X118936151Y-75079020D01*
X119061090Y-75250986D01*
X119211413Y-75401309D01*
X119383382Y-75526250D01*
X119392146Y-75530716D01*
X119442942Y-75578691D01*
X119459736Y-75646512D01*
X119437198Y-75712647D01*
X119392146Y-75751684D01*
X119383382Y-75756149D01*
X119211413Y-75881090D01*
X119061090Y-76031413D01*
X118936151Y-76203379D01*
X118839644Y-76392785D01*
X118773953Y-76594960D01*
X118752803Y-76728498D01*
X118740700Y-76804913D01*
X118740700Y-77017487D01*
X118744400Y-77040846D01*
X118767697Y-77187942D01*
X118773954Y-77227443D01*
X118839273Y-77428474D01*
X118839644Y-77429614D01*
X118936151Y-77619020D01*
X119061090Y-77790986D01*
X119211413Y-77941309D01*
X119383382Y-78066250D01*
X119392146Y-78070716D01*
X119442942Y-78118691D01*
X119459736Y-78186512D01*
X119437198Y-78252647D01*
X119392146Y-78291684D01*
X119383382Y-78296149D01*
X119211413Y-78421090D01*
X119061090Y-78571413D01*
X118936151Y-78743379D01*
X118839644Y-78932785D01*
X118773953Y-79134960D01*
X118740700Y-79344913D01*
X118740700Y-79557486D01*
X118773953Y-79767439D01*
X118839644Y-79969614D01*
X118936151Y-80159020D01*
X119061090Y-80330986D01*
X119211413Y-80481309D01*
X119383382Y-80606250D01*
X119392146Y-80610716D01*
X119442942Y-80658691D01*
X119459736Y-80726512D01*
X119437198Y-80792647D01*
X119392146Y-80831684D01*
X119383382Y-80836149D01*
X119211413Y-80961090D01*
X119061090Y-81111413D01*
X118936151Y-81283379D01*
X118839644Y-81472785D01*
X118773953Y-81674960D01*
X118764737Y-81733150D01*
X118740700Y-81884913D01*
X118740700Y-82097487D01*
X118773954Y-82307443D01*
X118816646Y-82438836D01*
X118839644Y-82509614D01*
X118936151Y-82699020D01*
X119061090Y-82870986D01*
X119211413Y-83021309D01*
X119383382Y-83146250D01*
X119392146Y-83150716D01*
X119442942Y-83198691D01*
X119459736Y-83266512D01*
X119437198Y-83332647D01*
X119392146Y-83371684D01*
X119383382Y-83376149D01*
X119211413Y-83501090D01*
X119061090Y-83651413D01*
X118936151Y-83823379D01*
X118839644Y-84012785D01*
X118773953Y-84214960D01*
X118740700Y-84424913D01*
X118740700Y-84637486D01*
X118773953Y-84847439D01*
X118839644Y-85049614D01*
X118936151Y-85239020D01*
X119061090Y-85410986D01*
X119211413Y-85561309D01*
X119383382Y-85686250D01*
X119392146Y-85690716D01*
X119442942Y-85738691D01*
X119459736Y-85806512D01*
X119437198Y-85872647D01*
X119392146Y-85911684D01*
X119383382Y-85916149D01*
X119211413Y-86041090D01*
X119061090Y-86191413D01*
X118936151Y-86363379D01*
X118839644Y-86552785D01*
X118773953Y-86754960D01*
X118740700Y-86964913D01*
X118740700Y-87177487D01*
X118773954Y-87387443D01*
X118836845Y-87581002D01*
X118839644Y-87589614D01*
X118936151Y-87779020D01*
X119061090Y-87950986D01*
X119211413Y-88101309D01*
X119383382Y-88226250D01*
X119392146Y-88230716D01*
X119442942Y-88278691D01*
X119459736Y-88346512D01*
X119437198Y-88412647D01*
X119392146Y-88451684D01*
X119383382Y-88456149D01*
X119211413Y-88581090D01*
X119061090Y-88731413D01*
X118936151Y-88903379D01*
X118839644Y-89092785D01*
X118773953Y-89294960D01*
X118740700Y-89504913D01*
X118740700Y-89717486D01*
X118769060Y-89896547D01*
X118773954Y-89927443D01*
X118838599Y-90126400D01*
X118839644Y-90129614D01*
X118936151Y-90319020D01*
X119061090Y-90490986D01*
X119211413Y-90641309D01*
X119383382Y-90766250D01*
X119392146Y-90770716D01*
X119442942Y-90818691D01*
X119459736Y-90886512D01*
X119437198Y-90952647D01*
X119392146Y-90991684D01*
X119383382Y-90996149D01*
X119211413Y-91121090D01*
X119061090Y-91271413D01*
X118936151Y-91443379D01*
X118839644Y-91632785D01*
X118839643Y-91632787D01*
X118839643Y-91632788D01*
X118827458Y-91670290D01*
X118773953Y-91834960D01*
X118746427Y-92008756D01*
X118740700Y-92044913D01*
X118740700Y-92257487D01*
X118750734Y-92320844D01*
X118772624Y-92459050D01*
X118773954Y-92467443D01*
X118838142Y-92664993D01*
X118839644Y-92669614D01*
X118936151Y-92859020D01*
X119061090Y-93030986D01*
X119211413Y-93181309D01*
X119383382Y-93306250D01*
X119392146Y-93310716D01*
X119442942Y-93358691D01*
X119459736Y-93426512D01*
X119437198Y-93492647D01*
X119392146Y-93531684D01*
X119383382Y-93536149D01*
X119211413Y-93661090D01*
X119061090Y-93811413D01*
X118936151Y-93983379D01*
X118839644Y-94172785D01*
X118773953Y-94374960D01*
X118740700Y-94584913D01*
X118740700Y-94797486D01*
X118773145Y-95002340D01*
X118773954Y-95007443D01*
X118833227Y-95189867D01*
X118839644Y-95209614D01*
X118936151Y-95399020D01*
X119061090Y-95570986D01*
X119211413Y-95721309D01*
X119383382Y-95846250D01*
X119392146Y-95850716D01*
X119442942Y-95898691D01*
X119459736Y-95966512D01*
X119437198Y-96032647D01*
X119392146Y-96071684D01*
X119383382Y-96076149D01*
X119211413Y-96201090D01*
X119061090Y-96351413D01*
X118936151Y-96523379D01*
X118839644Y-96712785D01*
X118839643Y-96712787D01*
X118839643Y-96712788D01*
X118831305Y-96738449D01*
X118773953Y-96914960D01*
X118754342Y-97038782D01*
X118740700Y-97124913D01*
X118740700Y-97337487D01*
X118748545Y-97387019D01*
X118773366Y-97543735D01*
X118773954Y-97547443D01*
X118821283Y-97693107D01*
X118839644Y-97749614D01*
X118936151Y-97939020D01*
X119061090Y-98110986D01*
X119211413Y-98261309D01*
X119383382Y-98386250D01*
X119392146Y-98390716D01*
X119442942Y-98438691D01*
X119459736Y-98506512D01*
X119437198Y-98572647D01*
X119392146Y-98611684D01*
X119383382Y-98616149D01*
X119211413Y-98741090D01*
X119061090Y-98891413D01*
X118936151Y-99063379D01*
X118839644Y-99252785D01*
X118773953Y-99454960D01*
X118743322Y-99648358D01*
X118740700Y-99664913D01*
X118740700Y-99877487D01*
X118744755Y-99903089D01*
X118773081Y-100081936D01*
X118773954Y-100087443D01*
X118835605Y-100277185D01*
X118839644Y-100289614D01*
X118936151Y-100479020D01*
X119061090Y-100650986D01*
X119211413Y-100801309D01*
X119383382Y-100926250D01*
X119392146Y-100930716D01*
X119442942Y-100978691D01*
X119459736Y-101046512D01*
X119437198Y-101112647D01*
X119392146Y-101151684D01*
X119383382Y-101156149D01*
X119211413Y-101281090D01*
X119061090Y-101431413D01*
X118936151Y-101603379D01*
X118839644Y-101792785D01*
X118839643Y-101792787D01*
X118839643Y-101792788D01*
X118838774Y-101795463D01*
X118773953Y-101994960D01*
X118751434Y-102137139D01*
X118740700Y-102204913D01*
X118740700Y-102417487D01*
X118742599Y-102429474D01*
X118770195Y-102603714D01*
X118773954Y-102627443D01*
X118838098Y-102824858D01*
X118839644Y-102829614D01*
X118936151Y-103019020D01*
X119061090Y-103190986D01*
X119211413Y-103341309D01*
X119383382Y-103466250D01*
X119392146Y-103470716D01*
X119442942Y-103518691D01*
X119459736Y-103586512D01*
X119437198Y-103652647D01*
X119392146Y-103691684D01*
X119383382Y-103696149D01*
X119211413Y-103821090D01*
X119061090Y-103971413D01*
X118936151Y-104143379D01*
X118839644Y-104332785D01*
X118773953Y-104534960D01*
X118740700Y-104744913D01*
X118740700Y-104957486D01*
X118766216Y-105118591D01*
X118773954Y-105167443D01*
X118839184Y-105368200D01*
X118839644Y-105369614D01*
X118936151Y-105559020D01*
X119061090Y-105730986D01*
X119211413Y-105881309D01*
X119383382Y-106006250D01*
X119392146Y-106010716D01*
X119442942Y-106058691D01*
X119459736Y-106126512D01*
X119437198Y-106192647D01*
X119392146Y-106231684D01*
X119383382Y-106236149D01*
X119211413Y-106361090D01*
X119061090Y-106511413D01*
X118936151Y-106683379D01*
X118839644Y-106872785D01*
X118773953Y-107074960D01*
X118740700Y-107284913D01*
X118740700Y-107497486D01*
X118773487Y-107704498D01*
X118773954Y-107707443D01*
X118825493Y-107866064D01*
X118839644Y-107909614D01*
X118936151Y-108099020D01*
X119061090Y-108270986D01*
X119211413Y-108421309D01*
X119383382Y-108546250D01*
X119392146Y-108550716D01*
X119442942Y-108598691D01*
X119459736Y-108666512D01*
X119437198Y-108732647D01*
X119392146Y-108771684D01*
X119383382Y-108776149D01*
X119211413Y-108901090D01*
X119061090Y-109051413D01*
X118936151Y-109223379D01*
X118839644Y-109412785D01*
X118773953Y-109614960D01*
X118740700Y-109824913D01*
X118740700Y-110037486D01*
X118770045Y-110222767D01*
X118773954Y-110247443D01*
X118828750Y-110416088D01*
X118839644Y-110449614D01*
X118936151Y-110639020D01*
X119061090Y-110810986D01*
X119211413Y-110961309D01*
X119383382Y-111086250D01*
X119392146Y-111090716D01*
X119442942Y-111138691D01*
X119459736Y-111206512D01*
X119437198Y-111272647D01*
X119392146Y-111311684D01*
X119383382Y-111316149D01*
X119211413Y-111441090D01*
X119061090Y-111591413D01*
X118936151Y-111763379D01*
X118839644Y-111952785D01*
X118773953Y-112154960D01*
X118740700Y-112364913D01*
X118740700Y-112577486D01*
X118773953Y-112787439D01*
X118839644Y-112989614D01*
X118936151Y-113179020D01*
X119061090Y-113350986D01*
X119211413Y-113501309D01*
X119383382Y-113626250D01*
X119392146Y-113630716D01*
X119442942Y-113678691D01*
X119459736Y-113746512D01*
X119437198Y-113812647D01*
X119392146Y-113851684D01*
X119383382Y-113856149D01*
X119211413Y-113981090D01*
X119061090Y-114131413D01*
X118936151Y-114303379D01*
X118839644Y-114492785D01*
X118839643Y-114492787D01*
X118839643Y-114492788D01*
X118820878Y-114550539D01*
X118773953Y-114694960D01*
X118740700Y-114904913D01*
X118740700Y-115117486D01*
X118773953Y-115327439D01*
X118773953Y-115327441D01*
X118773954Y-115327443D01*
X118835947Y-115518238D01*
X118839644Y-115529614D01*
X118936151Y-115719020D01*
X119061090Y-115890986D01*
X119211413Y-116041309D01*
X119383382Y-116166250D01*
X119392146Y-116170716D01*
X119442942Y-116218691D01*
X119459736Y-116286512D01*
X119437198Y-116352647D01*
X119392146Y-116391684D01*
X119383382Y-116396149D01*
X119211413Y-116521090D01*
X119061090Y-116671413D01*
X118936151Y-116843379D01*
X118839644Y-117032785D01*
X118773953Y-117234960D01*
X118740700Y-117444913D01*
X118740700Y-117657486D01*
X118773953Y-117867439D01*
X118839644Y-118069614D01*
X118936151Y-118259020D01*
X119061090Y-118430986D01*
X119211413Y-118581309D01*
X119383379Y-118706248D01*
X119383381Y-118706249D01*
X119383384Y-118706251D01*
X119392693Y-118710994D01*
X119443490Y-118758966D01*
X119460287Y-118826787D01*
X119437752Y-118892922D01*
X119392705Y-118931960D01*
X119383646Y-118936576D01*
X119383640Y-118936580D01*
X119329482Y-118975927D01*
X119329482Y-118975928D01*
X119961791Y-119608237D01*
X119898207Y-119625275D01*
X119784193Y-119691101D01*
X119691101Y-119784193D01*
X119625275Y-119898207D01*
X119608237Y-119961791D01*
X118975928Y-119329482D01*
X118975927Y-119329482D01*
X118936580Y-119383639D01*
X118840104Y-119572982D01*
X118774442Y-119775069D01*
X118774442Y-119775072D01*
X118741200Y-119984953D01*
X118741200Y-120197446D01*
X118774442Y-120407327D01*
X118774442Y-120407330D01*
X118840104Y-120609417D01*
X118936575Y-120798750D01*
X118975928Y-120852916D01*
X119608237Y-120220608D01*
X119625275Y-120284193D01*
X119691101Y-120398207D01*
X119784193Y-120491299D01*
X119898207Y-120557125D01*
X119961790Y-120574162D01*
X119329482Y-121206469D01*
X119329482Y-121206470D01*
X119383649Y-121245824D01*
X119572982Y-121342295D01*
X119775070Y-121407957D01*
X119984954Y-121441200D01*
X120197446Y-121441200D01*
X120407327Y-121407957D01*
X120407330Y-121407957D01*
X120609417Y-121342295D01*
X120798754Y-121245822D01*
X120852916Y-121206470D01*
X120852917Y-121206470D01*
X120220608Y-120574162D01*
X120284193Y-120557125D01*
X120398207Y-120491299D01*
X120491299Y-120398207D01*
X120557125Y-120284193D01*
X120574162Y-120220609D01*
X121206470Y-120852917D01*
X121206470Y-120852916D01*
X121245822Y-120798754D01*
X121342295Y-120609417D01*
X121407957Y-120407330D01*
X121407957Y-120407327D01*
X121441200Y-120197446D01*
X121441200Y-119984953D01*
X121407957Y-119775072D01*
X121407957Y-119775069D01*
X121342295Y-119572982D01*
X121245824Y-119383649D01*
X121206470Y-119329482D01*
X121206469Y-119329482D01*
X120574162Y-119961790D01*
X120557125Y-119898207D01*
X120491299Y-119784193D01*
X120398207Y-119691101D01*
X120284193Y-119625275D01*
X120220609Y-119608237D01*
X120635510Y-119193335D01*
X132710700Y-119193335D01*
X132710700Y-120989070D01*
X132710701Y-120989076D01*
X132717108Y-121048683D01*
X132767402Y-121183528D01*
X132767406Y-121183535D01*
X132853652Y-121298744D01*
X132853655Y-121298747D01*
X132968864Y-121384993D01*
X132968871Y-121384997D01*
X133103717Y-121435291D01*
X133103716Y-121435291D01*
X133110644Y-121436035D01*
X133163327Y-121441700D01*
X134959072Y-121441699D01*
X135018683Y-121435291D01*
X135153531Y-121384996D01*
X135268746Y-121298746D01*
X135354996Y-121183531D01*
X135404010Y-121052116D01*
X135445881Y-120996184D01*
X135511345Y-120971766D01*
X135579618Y-120986617D01*
X135607873Y-121007769D01*
X135721413Y-121121309D01*
X135893379Y-121246248D01*
X135893381Y-121246249D01*
X135893384Y-121246251D01*
X136082788Y-121342757D01*
X136284957Y-121408446D01*
X136494913Y-121441700D01*
X136494914Y-121441700D01*
X136707486Y-121441700D01*
X136707487Y-121441700D01*
X136917443Y-121408446D01*
X137119612Y-121342757D01*
X137309016Y-121246251D01*
X137395338Y-121183535D01*
X137480986Y-121121309D01*
X137480988Y-121121306D01*
X137480992Y-121121304D01*
X137631304Y-120970992D01*
X137631306Y-120970988D01*
X137631309Y-120970986D01*
X137756248Y-120799020D01*
X137756247Y-120799020D01*
X137756251Y-120799016D01*
X137760714Y-120790254D01*
X137808688Y-120739459D01*
X137876508Y-120722663D01*
X137942644Y-120745199D01*
X137981686Y-120790256D01*
X137986151Y-120799020D01*
X138111090Y-120970986D01*
X138261413Y-121121309D01*
X138433379Y-121246248D01*
X138433381Y-121246249D01*
X138433384Y-121246251D01*
X138622788Y-121342757D01*
X138824957Y-121408446D01*
X139034913Y-121441700D01*
X139034914Y-121441700D01*
X139247486Y-121441700D01*
X139247487Y-121441700D01*
X139457443Y-121408446D01*
X139659612Y-121342757D01*
X139849016Y-121246251D01*
X139935338Y-121183535D01*
X140020986Y-121121309D01*
X140020988Y-121121306D01*
X140020992Y-121121304D01*
X140171304Y-120970992D01*
X140171306Y-120970988D01*
X140171309Y-120970986D01*
X140296248Y-120799020D01*
X140296247Y-120799020D01*
X140296251Y-120799016D01*
X140300714Y-120790254D01*
X140348688Y-120739459D01*
X140416508Y-120722663D01*
X140482644Y-120745199D01*
X140521686Y-120790256D01*
X140526151Y-120799020D01*
X140651090Y-120970986D01*
X140801413Y-121121309D01*
X140973379Y-121246248D01*
X140973381Y-121246249D01*
X140973384Y-121246251D01*
X141162788Y-121342757D01*
X141364957Y-121408446D01*
X141574913Y-121441700D01*
X141574914Y-121441700D01*
X141787486Y-121441700D01*
X141787487Y-121441700D01*
X141997443Y-121408446D01*
X142199612Y-121342757D01*
X142389016Y-121246251D01*
X142475338Y-121183535D01*
X142560986Y-121121309D01*
X142560988Y-121121306D01*
X142560992Y-121121304D01*
X142711304Y-120970992D01*
X142711306Y-120970988D01*
X142711309Y-120970986D01*
X142836248Y-120799020D01*
X142836247Y-120799020D01*
X142836251Y-120799016D01*
X142840714Y-120790254D01*
X142888688Y-120739459D01*
X142956508Y-120722663D01*
X143022644Y-120745199D01*
X143061686Y-120790256D01*
X143066151Y-120799020D01*
X143191090Y-120970986D01*
X143341413Y-121121309D01*
X143513379Y-121246248D01*
X143513381Y-121246249D01*
X143513384Y-121246251D01*
X143702788Y-121342757D01*
X143904957Y-121408446D01*
X144114913Y-121441700D01*
X144114914Y-121441700D01*
X144327486Y-121441700D01*
X144327487Y-121441700D01*
X144537443Y-121408446D01*
X144739612Y-121342757D01*
X144929016Y-121246251D01*
X145015338Y-121183535D01*
X145100986Y-121121309D01*
X145100988Y-121121306D01*
X145100992Y-121121304D01*
X145251304Y-120970992D01*
X145251306Y-120970988D01*
X145251309Y-120970986D01*
X145376248Y-120799020D01*
X145376247Y-120799020D01*
X145376251Y-120799016D01*
X145380714Y-120790254D01*
X145428688Y-120739459D01*
X145496508Y-120722663D01*
X145562644Y-120745199D01*
X145601686Y-120790256D01*
X145606151Y-120799020D01*
X145731090Y-120970986D01*
X145881413Y-121121309D01*
X146053379Y-121246248D01*
X146053381Y-121246249D01*
X146053384Y-121246251D01*
X146242788Y-121342757D01*
X146444957Y-121408446D01*
X146654913Y-121441700D01*
X146654914Y-121441700D01*
X146867486Y-121441700D01*
X146867487Y-121441700D01*
X147077443Y-121408446D01*
X147279612Y-121342757D01*
X147469016Y-121246251D01*
X147555338Y-121183535D01*
X147640986Y-121121309D01*
X147640988Y-121121306D01*
X147640992Y-121121304D01*
X147791304Y-120970992D01*
X147791306Y-120970988D01*
X147791309Y-120970986D01*
X147916248Y-120799020D01*
X147916247Y-120799020D01*
X147916251Y-120799016D01*
X147920714Y-120790254D01*
X147968688Y-120739459D01*
X148036508Y-120722663D01*
X148102644Y-120745199D01*
X148141686Y-120790256D01*
X148146151Y-120799020D01*
X148271090Y-120970986D01*
X148421413Y-121121309D01*
X148593379Y-121246248D01*
X148593381Y-121246249D01*
X148593384Y-121246251D01*
X148782788Y-121342757D01*
X148984957Y-121408446D01*
X149194913Y-121441700D01*
X149194914Y-121441700D01*
X149407486Y-121441700D01*
X149407487Y-121441700D01*
X149617443Y-121408446D01*
X149819612Y-121342757D01*
X150009016Y-121246251D01*
X150095338Y-121183535D01*
X150180986Y-121121309D01*
X150180988Y-121121306D01*
X150180992Y-121121304D01*
X150331304Y-120970992D01*
X150331306Y-120970988D01*
X150331309Y-120970986D01*
X150456248Y-120799020D01*
X150456247Y-120799020D01*
X150456251Y-120799016D01*
X150460714Y-120790254D01*
X150508688Y-120739459D01*
X150576508Y-120722663D01*
X150642644Y-120745199D01*
X150681686Y-120790256D01*
X150686151Y-120799020D01*
X150811090Y-120970986D01*
X150961413Y-121121309D01*
X151133379Y-121246248D01*
X151133381Y-121246249D01*
X151133384Y-121246251D01*
X151322788Y-121342757D01*
X151524957Y-121408446D01*
X151734913Y-121441700D01*
X151734914Y-121441700D01*
X151947486Y-121441700D01*
X151947487Y-121441700D01*
X152157443Y-121408446D01*
X152359612Y-121342757D01*
X152549016Y-121246251D01*
X152635338Y-121183535D01*
X152720986Y-121121309D01*
X152720988Y-121121306D01*
X152720992Y-121121304D01*
X152871304Y-120970992D01*
X152871306Y-120970988D01*
X152871309Y-120970986D01*
X152996248Y-120799020D01*
X152996247Y-120799020D01*
X152996251Y-120799016D01*
X153000714Y-120790254D01*
X153048688Y-120739459D01*
X153116508Y-120722663D01*
X153182644Y-120745199D01*
X153221686Y-120790256D01*
X153226151Y-120799020D01*
X153351090Y-120970986D01*
X153501413Y-121121309D01*
X153673379Y-121246248D01*
X153673381Y-121246249D01*
X153673384Y-121246251D01*
X153862788Y-121342757D01*
X154064957Y-121408446D01*
X154274913Y-121441700D01*
X154274914Y-121441700D01*
X154487486Y-121441700D01*
X154487487Y-121441700D01*
X154697443Y-121408446D01*
X154899612Y-121342757D01*
X155089016Y-121246251D01*
X155175338Y-121183535D01*
X155260986Y-121121309D01*
X155260988Y-121121306D01*
X155260992Y-121121304D01*
X155411304Y-120970992D01*
X155411306Y-120970988D01*
X155411309Y-120970986D01*
X155536248Y-120799020D01*
X155536247Y-120799020D01*
X155536251Y-120799016D01*
X155540714Y-120790254D01*
X155588688Y-120739459D01*
X155656508Y-120722663D01*
X155722644Y-120745199D01*
X155761686Y-120790256D01*
X155766151Y-120799020D01*
X155891090Y-120970986D01*
X156041413Y-121121309D01*
X156213379Y-121246248D01*
X156213381Y-121246249D01*
X156213384Y-121246251D01*
X156402788Y-121342757D01*
X156604957Y-121408446D01*
X156814913Y-121441700D01*
X156814914Y-121441700D01*
X157027486Y-121441700D01*
X157027487Y-121441700D01*
X157237443Y-121408446D01*
X157439612Y-121342757D01*
X157629016Y-121246251D01*
X157715338Y-121183535D01*
X157800986Y-121121309D01*
X157800988Y-121121306D01*
X157800992Y-121121304D01*
X157951304Y-120970992D01*
X157951306Y-120970988D01*
X157951309Y-120970986D01*
X158076248Y-120799020D01*
X158076247Y-120799020D01*
X158076251Y-120799016D01*
X158080714Y-120790254D01*
X158128688Y-120739459D01*
X158196508Y-120722663D01*
X158262644Y-120745199D01*
X158301686Y-120790256D01*
X158306151Y-120799020D01*
X158431090Y-120970986D01*
X158581413Y-121121309D01*
X158753379Y-121246248D01*
X158753381Y-121246249D01*
X158753384Y-121246251D01*
X158942788Y-121342757D01*
X159144957Y-121408446D01*
X159354913Y-121441700D01*
X159354914Y-121441700D01*
X159567486Y-121441700D01*
X159567487Y-121441700D01*
X159777443Y-121408446D01*
X159979612Y-121342757D01*
X160169016Y-121246251D01*
X160255338Y-121183535D01*
X160340986Y-121121309D01*
X160340988Y-121121306D01*
X160340992Y-121121304D01*
X160491304Y-120970992D01*
X160491306Y-120970988D01*
X160491309Y-120970986D01*
X160577090Y-120852917D01*
X160616251Y-120799016D01*
X160620993Y-120789708D01*
X160668963Y-120738911D01*
X160736783Y-120722111D01*
X160802919Y-120744645D01*
X160841963Y-120789700D01*
X160846573Y-120798747D01*
X160885928Y-120852916D01*
X161518236Y-120220607D01*
X161535275Y-120284193D01*
X161601101Y-120398207D01*
X161694193Y-120491299D01*
X161808207Y-120557125D01*
X161871790Y-120574162D01*
X161239482Y-121206469D01*
X161239482Y-121206470D01*
X161293649Y-121245824D01*
X161482982Y-121342295D01*
X161685070Y-121407957D01*
X161894954Y-121441200D01*
X162107446Y-121441200D01*
X162317327Y-121407957D01*
X162317330Y-121407957D01*
X162519417Y-121342295D01*
X162708754Y-121245822D01*
X162762916Y-121206470D01*
X162762917Y-121206470D01*
X162130608Y-120574162D01*
X162194193Y-120557125D01*
X162308207Y-120491299D01*
X162401299Y-120398207D01*
X162467125Y-120284193D01*
X162484162Y-120220608D01*
X163116470Y-120852917D01*
X163116470Y-120852916D01*
X163155822Y-120798754D01*
X163252295Y-120609417D01*
X163317957Y-120407330D01*
X163317957Y-120407327D01*
X163351200Y-120197446D01*
X163351200Y-119984953D01*
X163317957Y-119775072D01*
X163317957Y-119775069D01*
X163252295Y-119572982D01*
X163155824Y-119383649D01*
X163116470Y-119329482D01*
X163116469Y-119329482D01*
X162484162Y-119961790D01*
X162467125Y-119898207D01*
X162401299Y-119784193D01*
X162308207Y-119691101D01*
X162194193Y-119625275D01*
X162130609Y-119608237D01*
X162762916Y-118975928D01*
X162708750Y-118936575D01*
X162519417Y-118840104D01*
X162317329Y-118774442D01*
X162107446Y-118741200D01*
X161894954Y-118741200D01*
X161685072Y-118774442D01*
X161685069Y-118774442D01*
X161482982Y-118840104D01*
X161293639Y-118936580D01*
X161239482Y-118975927D01*
X161239482Y-118975928D01*
X161871791Y-119608237D01*
X161808207Y-119625275D01*
X161694193Y-119691101D01*
X161601101Y-119784193D01*
X161535275Y-119898207D01*
X161518237Y-119961791D01*
X160885928Y-119329482D01*
X160885927Y-119329482D01*
X160846580Y-119383640D01*
X160846576Y-119383646D01*
X160841960Y-119392705D01*
X160793981Y-119443497D01*
X160726159Y-119460287D01*
X160660026Y-119437743D01*
X160620994Y-119392693D01*
X160616251Y-119383384D01*
X160616249Y-119383381D01*
X160616248Y-119383379D01*
X160491309Y-119211413D01*
X160340986Y-119061090D01*
X160169020Y-118936151D01*
X159979614Y-118839644D01*
X159979613Y-118839643D01*
X159979612Y-118839643D01*
X159777443Y-118773954D01*
X159777441Y-118773953D01*
X159777440Y-118773953D01*
X159616157Y-118748408D01*
X159567487Y-118740700D01*
X159354913Y-118740700D01*
X159306242Y-118748408D01*
X159144960Y-118773953D01*
X158942785Y-118839644D01*
X158753379Y-118936151D01*
X158581413Y-119061090D01*
X158431090Y-119211413D01*
X158306149Y-119383382D01*
X158301684Y-119392146D01*
X158253709Y-119442942D01*
X158185888Y-119459736D01*
X158119753Y-119437198D01*
X158080716Y-119392146D01*
X158076250Y-119383382D01*
X157951309Y-119211413D01*
X157800986Y-119061090D01*
X157629020Y-118936151D01*
X157439614Y-118839644D01*
X157439613Y-118839643D01*
X157439612Y-118839643D01*
X157237443Y-118773954D01*
X157237441Y-118773953D01*
X157237440Y-118773953D01*
X157076157Y-118748408D01*
X157027487Y-118740700D01*
X156814913Y-118740700D01*
X156766242Y-118748408D01*
X156604960Y-118773953D01*
X156402785Y-118839644D01*
X156213379Y-118936151D01*
X156041413Y-119061090D01*
X155891090Y-119211413D01*
X155766149Y-119383382D01*
X155761684Y-119392146D01*
X155713709Y-119442942D01*
X155645888Y-119459736D01*
X155579753Y-119437198D01*
X155540716Y-119392146D01*
X155536250Y-119383382D01*
X155411309Y-119211413D01*
X155260986Y-119061090D01*
X155089020Y-118936151D01*
X154899614Y-118839644D01*
X154899613Y-118839643D01*
X154899612Y-118839643D01*
X154697443Y-118773954D01*
X154697441Y-118773953D01*
X154697440Y-118773953D01*
X154536157Y-118748408D01*
X154487487Y-118740700D01*
X154274913Y-118740700D01*
X154226242Y-118748408D01*
X154064960Y-118773953D01*
X153862785Y-118839644D01*
X153673379Y-118936151D01*
X153501413Y-119061090D01*
X153351090Y-119211413D01*
X153226149Y-119383382D01*
X153221684Y-119392146D01*
X153173709Y-119442942D01*
X153105888Y-119459736D01*
X153039753Y-119437198D01*
X153000716Y-119392146D01*
X152996250Y-119383382D01*
X152871309Y-119211413D01*
X152720986Y-119061090D01*
X152549020Y-118936151D01*
X152359614Y-118839644D01*
X152359613Y-118839643D01*
X152359612Y-118839643D01*
X152157443Y-118773954D01*
X152157441Y-118773953D01*
X152157440Y-118773953D01*
X151996157Y-118748408D01*
X151947487Y-118740700D01*
X151734913Y-118740700D01*
X151686242Y-118748408D01*
X151524960Y-118773953D01*
X151322785Y-118839644D01*
X151133379Y-118936151D01*
X150961413Y-119061090D01*
X150811090Y-119211413D01*
X150686149Y-119383382D01*
X150681684Y-119392146D01*
X150633709Y-119442942D01*
X150565888Y-119459736D01*
X150499753Y-119437198D01*
X150460716Y-119392146D01*
X150456250Y-119383382D01*
X150331309Y-119211413D01*
X150180986Y-119061090D01*
X150009020Y-118936151D01*
X149819614Y-118839644D01*
X149819613Y-118839643D01*
X149819612Y-118839643D01*
X149617443Y-118773954D01*
X149617441Y-118773953D01*
X149617440Y-118773953D01*
X149456157Y-118748408D01*
X149407487Y-118740700D01*
X149194913Y-118740700D01*
X149146242Y-118748408D01*
X148984960Y-118773953D01*
X148782785Y-118839644D01*
X148593379Y-118936151D01*
X148421413Y-119061090D01*
X148271090Y-119211413D01*
X148146149Y-119383382D01*
X148141684Y-119392146D01*
X148093709Y-119442942D01*
X148025888Y-119459736D01*
X147959753Y-119437198D01*
X147920716Y-119392146D01*
X147916250Y-119383382D01*
X147791309Y-119211413D01*
X147640986Y-119061090D01*
X147469020Y-118936151D01*
X147279614Y-118839644D01*
X147279613Y-118839643D01*
X147279612Y-118839643D01*
X147077443Y-118773954D01*
X147077441Y-118773953D01*
X147077440Y-118773953D01*
X146916157Y-118748408D01*
X146867487Y-118740700D01*
X146654913Y-118740700D01*
X146606242Y-118748408D01*
X146444960Y-118773953D01*
X146242785Y-118839644D01*
X146053379Y-118936151D01*
X145881413Y-119061090D01*
X145731090Y-119211413D01*
X145606149Y-119383382D01*
X145601684Y-119392146D01*
X145553709Y-119442942D01*
X145485888Y-119459736D01*
X145419753Y-119437198D01*
X145380716Y-119392146D01*
X145376250Y-119383382D01*
X145251309Y-119211413D01*
X145100986Y-119061090D01*
X144929020Y-118936151D01*
X144739614Y-118839644D01*
X144739613Y-118839643D01*
X144739612Y-118839643D01*
X144537443Y-118773954D01*
X144537441Y-118773953D01*
X144537440Y-118773953D01*
X144376157Y-118748408D01*
X144327487Y-118740700D01*
X144114913Y-118740700D01*
X144066242Y-118748408D01*
X143904960Y-118773953D01*
X143702785Y-118839644D01*
X143513379Y-118936151D01*
X143341413Y-119061090D01*
X143191090Y-119211413D01*
X143066149Y-119383382D01*
X143061684Y-119392146D01*
X143013709Y-119442942D01*
X142945888Y-119459736D01*
X142879753Y-119437198D01*
X142840716Y-119392146D01*
X142836250Y-119383382D01*
X142711309Y-119211413D01*
X142560986Y-119061090D01*
X142389020Y-118936151D01*
X142199614Y-118839644D01*
X142199613Y-118839643D01*
X142199612Y-118839643D01*
X141997443Y-118773954D01*
X141997441Y-118773953D01*
X141997440Y-118773953D01*
X141836157Y-118748408D01*
X141787487Y-118740700D01*
X141574913Y-118740700D01*
X141526242Y-118748408D01*
X141364960Y-118773953D01*
X141162785Y-118839644D01*
X140973379Y-118936151D01*
X140801413Y-119061090D01*
X140651090Y-119211413D01*
X140526149Y-119383382D01*
X140521684Y-119392146D01*
X140473709Y-119442942D01*
X140405888Y-119459736D01*
X140339753Y-119437198D01*
X140300716Y-119392146D01*
X140296250Y-119383382D01*
X140171309Y-119211413D01*
X140020986Y-119061090D01*
X139849020Y-118936151D01*
X139659614Y-118839644D01*
X139659613Y-118839643D01*
X139659612Y-118839643D01*
X139457443Y-118773954D01*
X139457441Y-118773953D01*
X139457440Y-118773953D01*
X139296157Y-118748408D01*
X139247487Y-118740700D01*
X139034913Y-118740700D01*
X138986242Y-118748408D01*
X138824960Y-118773953D01*
X138622785Y-118839644D01*
X138433379Y-118936151D01*
X138261413Y-119061090D01*
X138111090Y-119211413D01*
X137986149Y-119383382D01*
X137981684Y-119392146D01*
X137933709Y-119442942D01*
X137865888Y-119459736D01*
X137799753Y-119437198D01*
X137760716Y-119392146D01*
X137756250Y-119383382D01*
X137631309Y-119211413D01*
X137480986Y-119061090D01*
X137309020Y-118936151D01*
X137119614Y-118839644D01*
X137119613Y-118839643D01*
X137119612Y-118839643D01*
X136917443Y-118773954D01*
X136917441Y-118773953D01*
X136917440Y-118773953D01*
X136756157Y-118748408D01*
X136707487Y-118740700D01*
X136494913Y-118740700D01*
X136446242Y-118748408D01*
X136284960Y-118773953D01*
X136082785Y-118839644D01*
X135893379Y-118936151D01*
X135721415Y-119061089D01*
X135607873Y-119174631D01*
X135546550Y-119208115D01*
X135476858Y-119203131D01*
X135420925Y-119161259D01*
X135404010Y-119130282D01*
X135354997Y-118998871D01*
X135354993Y-118998864D01*
X135268747Y-118883655D01*
X135268744Y-118883652D01*
X135153535Y-118797406D01*
X135153528Y-118797402D01*
X135018682Y-118747108D01*
X135018683Y-118747108D01*
X134959083Y-118740701D01*
X134959081Y-118740700D01*
X134959073Y-118740700D01*
X134959064Y-118740700D01*
X133163329Y-118740700D01*
X133163323Y-118740701D01*
X133103716Y-118747108D01*
X132968871Y-118797402D01*
X132968864Y-118797406D01*
X132853655Y-118883652D01*
X132853652Y-118883655D01*
X132767406Y-118998864D01*
X132767402Y-118998871D01*
X132717108Y-119133717D01*
X132710701Y-119193316D01*
X132710700Y-119193335D01*
X120635510Y-119193335D01*
X120726520Y-119102325D01*
X120852916Y-118975928D01*
X120798747Y-118936573D01*
X120798747Y-118936572D01*
X120789700Y-118931963D01*
X120738906Y-118883988D01*
X120722112Y-118816166D01*
X120744651Y-118750032D01*
X120789708Y-118710993D01*
X120799016Y-118706251D01*
X120878207Y-118648715D01*
X120970986Y-118581309D01*
X120970988Y-118581306D01*
X120970992Y-118581304D01*
X121121304Y-118430992D01*
X121121306Y-118430988D01*
X121121309Y-118430986D01*
X121246248Y-118259020D01*
X121246247Y-118259020D01*
X121246251Y-118259016D01*
X121342757Y-118069612D01*
X121408446Y-117867443D01*
X121441700Y-117657487D01*
X121441700Y-117444913D01*
X121408446Y-117234957D01*
X121342757Y-117032788D01*
X121246251Y-116843384D01*
X121230424Y-116821601D01*
X121158554Y-116722678D01*
X121158553Y-116722677D01*
X121121307Y-116671411D01*
X121105776Y-116655880D01*
X166225100Y-116655880D01*
X166225100Y-116814519D01*
X166256044Y-116970089D01*
X166256047Y-116970098D01*
X166316748Y-117116646D01*
X166316755Y-117116659D01*
X166404881Y-117248548D01*
X166404884Y-117248552D01*
X166517047Y-117360715D01*
X166517051Y-117360718D01*
X166648940Y-117448844D01*
X166648953Y-117448851D01*
X166758864Y-117494376D01*
X166795503Y-117509553D01*
X166795505Y-117509553D01*
X166795510Y-117509555D01*
X166951080Y-117540499D01*
X166951084Y-117540500D01*
X166951085Y-117540500D01*
X167109716Y-117540500D01*
X167109717Y-117540499D01*
X167161575Y-117530184D01*
X167265289Y-117509555D01*
X167265292Y-117509553D01*
X167265297Y-117509553D01*
X167387749Y-117458831D01*
X167457218Y-117451363D01*
X167482653Y-117458832D01*
X167559577Y-117490694D01*
X167605106Y-117509553D01*
X167605108Y-117509553D01*
X167605113Y-117509555D01*
X167760683Y-117540499D01*
X167760687Y-117540500D01*
X167760688Y-117540500D01*
X167919319Y-117540500D01*
X167919320Y-117540499D01*
X167971178Y-117530184D01*
X168074892Y-117509555D01*
X168074895Y-117509553D01*
X168074900Y-117509553D01*
X168221456Y-117448848D01*
X168221455Y-117448848D01*
X168225949Y-117446987D01*
X168295418Y-117439518D01*
X168320853Y-117446987D01*
X168430927Y-117492580D01*
X168471903Y-117509553D01*
X168471905Y-117509553D01*
X168471910Y-117509555D01*
X168627480Y-117540499D01*
X168627484Y-117540500D01*
X168627485Y-117540500D01*
X168786116Y-117540500D01*
X168786117Y-117540499D01*
X168837975Y-117530184D01*
X168941689Y-117509555D01*
X168941692Y-117509553D01*
X168941697Y-117509553D01*
X169088253Y-117448848D01*
X169220149Y-117360718D01*
X169332318Y-117248549D01*
X169420448Y-117116653D01*
X169481153Y-116970097D01*
X169512100Y-116814515D01*
X169512100Y-116655885D01*
X169485288Y-116521090D01*
X169481155Y-116500310D01*
X169481152Y-116500301D01*
X169420451Y-116353753D01*
X169420444Y-116353740D01*
X169332318Y-116221851D01*
X169332315Y-116221847D01*
X169319819Y-116209351D01*
X169286334Y-116148028D01*
X169283500Y-116121670D01*
X169283500Y-115065929D01*
X169303185Y-114998890D01*
X169319816Y-114978250D01*
X169332318Y-114965749D01*
X169420448Y-114833853D01*
X169481153Y-114687297D01*
X169512100Y-114531715D01*
X169512100Y-114373085D01*
X169511824Y-114371698D01*
X169481155Y-114217510D01*
X169481152Y-114217501D01*
X169420451Y-114070953D01*
X169420444Y-114070940D01*
X169332318Y-113939051D01*
X169332315Y-113939047D01*
X169220152Y-113826884D01*
X169220148Y-113826881D01*
X169088259Y-113738755D01*
X169088246Y-113738748D01*
X168941698Y-113678047D01*
X168941689Y-113678044D01*
X168786119Y-113647100D01*
X168786115Y-113647100D01*
X168627485Y-113647100D01*
X168627480Y-113647100D01*
X168471910Y-113678044D01*
X168471901Y-113678047D01*
X168325354Y-113738748D01*
X168325340Y-113738756D01*
X168294090Y-113759636D01*
X168227412Y-113780512D01*
X168177752Y-113771093D01*
X168088796Y-113734247D01*
X168088794Y-113734246D01*
X168088793Y-113734246D01*
X168088788Y-113734244D01*
X167933218Y-113703300D01*
X167933214Y-113703300D01*
X167774584Y-113703300D01*
X167774579Y-113703300D01*
X167619009Y-113734244D01*
X167619005Y-113734246D01*
X167619003Y-113734246D01*
X167619002Y-113734247D01*
X167557980Y-113759523D01*
X167488511Y-113766991D01*
X167441636Y-113748062D01*
X167439316Y-113746512D01*
X167427709Y-113738756D01*
X167427705Y-113738753D01*
X167427696Y-113738748D01*
X167281148Y-113678047D01*
X167281139Y-113678044D01*
X167125569Y-113647100D01*
X167125565Y-113647100D01*
X166966935Y-113647100D01*
X166966930Y-113647100D01*
X166811360Y-113678044D01*
X166811351Y-113678047D01*
X166664803Y-113738748D01*
X166664790Y-113738755D01*
X166532901Y-113826881D01*
X166532897Y-113826884D01*
X166420734Y-113939047D01*
X166420731Y-113939051D01*
X166332605Y-114070940D01*
X166332598Y-114070953D01*
X166271897Y-114217501D01*
X166271894Y-114217510D01*
X166240950Y-114373080D01*
X166240950Y-114531719D01*
X166271894Y-114687289D01*
X166271897Y-114687298D01*
X166332598Y-114833846D01*
X166332605Y-114833859D01*
X166420730Y-114965747D01*
X166420731Y-114965748D01*
X166420732Y-114965749D01*
X166433230Y-114978247D01*
X166466715Y-115039567D01*
X166469550Y-115065929D01*
X166469550Y-116105820D01*
X166449865Y-116172859D01*
X166433231Y-116193501D01*
X166404884Y-116221847D01*
X166404881Y-116221851D01*
X166316755Y-116353740D01*
X166316748Y-116353753D01*
X166256047Y-116500301D01*
X166256044Y-116500310D01*
X166225100Y-116655880D01*
X121105776Y-116655880D01*
X120970986Y-116521090D01*
X120799020Y-116396151D01*
X120798315Y-116395791D01*
X120790254Y-116391685D01*
X120739459Y-116343712D01*
X120722663Y-116275892D01*
X120745199Y-116209756D01*
X120790254Y-116170715D01*
X120799016Y-116166251D01*
X120926561Y-116073585D01*
X120970986Y-116041309D01*
X120970988Y-116041306D01*
X120970992Y-116041304D01*
X121121304Y-115890992D01*
X121121306Y-115890988D01*
X121121309Y-115890986D01*
X121246248Y-115719020D01*
X121246247Y-115719020D01*
X121246251Y-115719016D01*
X121342757Y-115529612D01*
X121393659Y-115372952D01*
X154125709Y-115372952D01*
X154125709Y-115530645D01*
X154156470Y-115685288D01*
X154156473Y-115685300D01*
X154216811Y-115830971D01*
X154216818Y-115830984D01*
X154304419Y-115962087D01*
X154304422Y-115962091D01*
X154415916Y-116073585D01*
X154415920Y-116073588D01*
X154547023Y-116161189D01*
X154547036Y-116161196D01*
X154692707Y-116221534D01*
X154692712Y-116221536D01*
X154847362Y-116252298D01*
X154847365Y-116252299D01*
X154847367Y-116252299D01*
X155005053Y-116252299D01*
X155005054Y-116252298D01*
X155159706Y-116221536D01*
X155278759Y-116172222D01*
X155348226Y-116164754D01*
X155373659Y-116172221D01*
X155492715Y-116221536D01*
X155647365Y-116252298D01*
X155647368Y-116252299D01*
X155647370Y-116252299D01*
X155805056Y-116252299D01*
X155805057Y-116252298D01*
X155959709Y-116221536D01*
X156078762Y-116172222D01*
X156148229Y-116164754D01*
X156173662Y-116172221D01*
X156292718Y-116221536D01*
X156447368Y-116252298D01*
X156447371Y-116252299D01*
X156447373Y-116252299D01*
X156605059Y-116252299D01*
X156605060Y-116252298D01*
X156759712Y-116221536D01*
X156878765Y-116172222D01*
X156948232Y-116164754D01*
X156973665Y-116172221D01*
X157092721Y-116221536D01*
X157247371Y-116252298D01*
X157247374Y-116252299D01*
X157247376Y-116252299D01*
X157405062Y-116252299D01*
X157405063Y-116252298D01*
X157559715Y-116221536D01*
X157705397Y-116161193D01*
X157705401Y-116161190D01*
X157710223Y-116159193D01*
X157779692Y-116151724D01*
X157805129Y-116159193D01*
X157809953Y-116161191D01*
X157809956Y-116161193D01*
X157955638Y-116221536D01*
X158110288Y-116252298D01*
X158110291Y-116252299D01*
X158110293Y-116252299D01*
X158267979Y-116252299D01*
X158267980Y-116252298D01*
X158422632Y-116221536D01*
X158568314Y-116161193D01*
X158568324Y-116161186D01*
X158570516Y-116160015D01*
X158571810Y-116159745D01*
X158573943Y-116158862D01*
X158574110Y-116159266D01*
X158638916Y-116145762D01*
X158683976Y-116158992D01*
X158684030Y-116158862D01*
X158685239Y-116159362D01*
X158687450Y-116160012D01*
X158689663Y-116161195D01*
X158835336Y-116221534D01*
X158835341Y-116221536D01*
X158989991Y-116252298D01*
X158989994Y-116252299D01*
X158989996Y-116252299D01*
X159147682Y-116252299D01*
X159147683Y-116252298D01*
X159302335Y-116221536D01*
X159370018Y-116193501D01*
X159453646Y-116158862D01*
X159454449Y-116160802D01*
X159513507Y-116148496D01*
X159552998Y-116160088D01*
X159553507Y-116158862D01*
X159704813Y-116221534D01*
X159704818Y-116221536D01*
X159859468Y-116252298D01*
X159859471Y-116252299D01*
X159859473Y-116252299D01*
X160017159Y-116252299D01*
X160017160Y-116252298D01*
X160171812Y-116221536D01*
X160239495Y-116193501D01*
X160323123Y-116158862D01*
X160323784Y-116160458D01*
X160384128Y-116147882D01*
X160424873Y-116159843D01*
X160425280Y-116158862D01*
X160576586Y-116221534D01*
X160576591Y-116221536D01*
X160731241Y-116252298D01*
X160731244Y-116252299D01*
X160731246Y-116252299D01*
X160888932Y-116252299D01*
X160888933Y-116252298D01*
X161043585Y-116221536D01*
X161156254Y-116174866D01*
X161189260Y-116161196D01*
X161189260Y-116161195D01*
X161189267Y-116161193D01*
X161320377Y-116073588D01*
X161431877Y-115962088D01*
X161519482Y-115830978D01*
X161579825Y-115685296D01*
X161610588Y-115530641D01*
X161610588Y-115518238D01*
X161630273Y-115451199D01*
X161646907Y-115430557D01*
X161750025Y-115327439D01*
X161912347Y-115165117D01*
X161988271Y-115033613D01*
X162027572Y-114886939D01*
X162027572Y-114735091D01*
X162027572Y-114550539D01*
X162047257Y-114483500D01*
X162063889Y-114462859D01*
X162072661Y-114454088D01*
X162160266Y-114322978D01*
X162220609Y-114177296D01*
X162251372Y-114022641D01*
X162251372Y-113864957D01*
X162251372Y-113864954D01*
X162251371Y-113864952D01*
X162240967Y-113812647D01*
X162220609Y-113710302D01*
X162217709Y-113703300D01*
X162160269Y-113564626D01*
X162160262Y-113564613D01*
X162072661Y-113433510D01*
X162072658Y-113433506D01*
X161961164Y-113322012D01*
X161961160Y-113322009D01*
X161830057Y-113234408D01*
X161830044Y-113234401D01*
X161684373Y-113174063D01*
X161684361Y-113174060D01*
X161529717Y-113143299D01*
X161529714Y-113143299D01*
X161372030Y-113143299D01*
X161372027Y-113143299D01*
X161217382Y-113174060D01*
X161217370Y-113174063D01*
X161098322Y-113223374D01*
X161028852Y-113230843D01*
X161003418Y-113223374D01*
X160884370Y-113174063D01*
X160884358Y-113174060D01*
X160729714Y-113143299D01*
X160729711Y-113143299D01*
X160572027Y-113143299D01*
X160572024Y-113143299D01*
X160417379Y-113174060D01*
X160417367Y-113174063D01*
X160298319Y-113223374D01*
X160228849Y-113230843D01*
X160203415Y-113223374D01*
X160084367Y-113174063D01*
X160084355Y-113174060D01*
X159929711Y-113143299D01*
X159929708Y-113143299D01*
X159772024Y-113143299D01*
X159772021Y-113143299D01*
X159617376Y-113174060D01*
X159617364Y-113174063D01*
X159498316Y-113223374D01*
X159428846Y-113230843D01*
X159403412Y-113223374D01*
X159284364Y-113174063D01*
X159284352Y-113174060D01*
X159129708Y-113143299D01*
X159129705Y-113143299D01*
X158972021Y-113143299D01*
X158972018Y-113143299D01*
X158817373Y-113174060D01*
X158817361Y-113174063D01*
X158698313Y-113223374D01*
X158628843Y-113230843D01*
X158603409Y-113223374D01*
X158484361Y-113174063D01*
X158484349Y-113174060D01*
X158329705Y-113143299D01*
X158329702Y-113143299D01*
X158172018Y-113143299D01*
X158172015Y-113143299D01*
X158017370Y-113174060D01*
X158017358Y-113174063D01*
X157898310Y-113223374D01*
X157828840Y-113230843D01*
X157803406Y-113223374D01*
X157684358Y-113174063D01*
X157684346Y-113174060D01*
X157529702Y-113143299D01*
X157529699Y-113143299D01*
X157372015Y-113143299D01*
X157372012Y-113143299D01*
X157217367Y-113174060D01*
X157217355Y-113174063D01*
X157071684Y-113234401D01*
X157071671Y-113234408D01*
X156940568Y-113322009D01*
X156940564Y-113322012D01*
X156829070Y-113433506D01*
X156829067Y-113433510D01*
X156741466Y-113564613D01*
X156741461Y-113564623D01*
X156731391Y-113588935D01*
X156687549Y-113643339D01*
X156621255Y-113665403D01*
X156553556Y-113648123D01*
X156505946Y-113596986D01*
X156502269Y-113588935D01*
X156492198Y-113564623D01*
X156492197Y-113564620D01*
X156492195Y-113564617D01*
X156492193Y-113564613D01*
X156404592Y-113433510D01*
X156404589Y-113433506D01*
X156293095Y-113322012D01*
X156293091Y-113322009D01*
X156161988Y-113234408D01*
X156161975Y-113234401D01*
X156016304Y-113174063D01*
X156016292Y-113174060D01*
X155861648Y-113143299D01*
X155861645Y-113143299D01*
X155703961Y-113143299D01*
X155703958Y-113143299D01*
X155549313Y-113174060D01*
X155549301Y-113174063D01*
X155430253Y-113223374D01*
X155360783Y-113230843D01*
X155335349Y-113223374D01*
X155216301Y-113174063D01*
X155216289Y-113174060D01*
X155061645Y-113143299D01*
X155061642Y-113143299D01*
X154903958Y-113143299D01*
X154903955Y-113143299D01*
X154749310Y-113174060D01*
X154749298Y-113174063D01*
X154603627Y-113234401D01*
X154603614Y-113234408D01*
X154472511Y-113322009D01*
X154472507Y-113322012D01*
X154361013Y-113433506D01*
X154361010Y-113433510D01*
X154273409Y-113564613D01*
X154273402Y-113564626D01*
X154213064Y-113710297D01*
X154213061Y-113710309D01*
X154182300Y-113864952D01*
X154182300Y-114022645D01*
X154213061Y-114177288D01*
X154213064Y-114177300D01*
X154273402Y-114322971D01*
X154273409Y-114322984D01*
X154306886Y-114373085D01*
X154361011Y-114454088D01*
X154369779Y-114462856D01*
X154384486Y-114489788D01*
X154401077Y-114515604D01*
X154401967Y-114521800D01*
X154403265Y-114524176D01*
X154406100Y-114550539D01*
X154406100Y-114788467D01*
X154386415Y-114855506D01*
X154369781Y-114876148D01*
X154304422Y-114941506D01*
X154304419Y-114941510D01*
X154216818Y-115072613D01*
X154216811Y-115072626D01*
X154156473Y-115218297D01*
X154156470Y-115218309D01*
X154125709Y-115372952D01*
X121393659Y-115372952D01*
X121408446Y-115327443D01*
X121441700Y-115117487D01*
X121441700Y-114904913D01*
X121408446Y-114694957D01*
X121342757Y-114492788D01*
X121246251Y-114303384D01*
X121246249Y-114303381D01*
X121246248Y-114303379D01*
X121121309Y-114131413D01*
X120970986Y-113981090D01*
X120799020Y-113856151D01*
X120798315Y-113855791D01*
X120790254Y-113851685D01*
X120739459Y-113803712D01*
X120722663Y-113735892D01*
X120745199Y-113669756D01*
X120790254Y-113630715D01*
X120799016Y-113626251D01*
X120839296Y-113596986D01*
X120970986Y-113501309D01*
X120970988Y-113501306D01*
X120970992Y-113501304D01*
X121121304Y-113350992D01*
X121121306Y-113350988D01*
X121121309Y-113350986D01*
X121246248Y-113179020D01*
X121246247Y-113179020D01*
X121246251Y-113179016D01*
X121342757Y-112989612D01*
X121408446Y-112787443D01*
X121441700Y-112577487D01*
X121441700Y-112364913D01*
X121408446Y-112154957D01*
X121342757Y-111952788D01*
X121246251Y-111763384D01*
X121246249Y-111763381D01*
X121246248Y-111763379D01*
X121121309Y-111591413D01*
X120970986Y-111441090D01*
X120799020Y-111316151D01*
X120798315Y-111315791D01*
X120790254Y-111311685D01*
X120739459Y-111263712D01*
X120722663Y-111195892D01*
X120745199Y-111129756D01*
X120790254Y-111090715D01*
X120799016Y-111086251D01*
X120966548Y-110964533D01*
X120970986Y-110961309D01*
X120970988Y-110961306D01*
X120970992Y-110961304D01*
X121121304Y-110810992D01*
X121121306Y-110810988D01*
X121121309Y-110810986D01*
X121246248Y-110639020D01*
X121246247Y-110639020D01*
X121246251Y-110639016D01*
X121342757Y-110449612D01*
X121408446Y-110247443D01*
X121441700Y-110037487D01*
X121441700Y-109824913D01*
X121408446Y-109614957D01*
X121342757Y-109412788D01*
X121323087Y-109374183D01*
X145930870Y-109374183D01*
X145930870Y-109531876D01*
X145961631Y-109686519D01*
X145961634Y-109686531D01*
X146021972Y-109832202D01*
X146021979Y-109832215D01*
X146109580Y-109963318D01*
X146109583Y-109963322D01*
X146221077Y-110074816D01*
X146221081Y-110074819D01*
X146352184Y-110162420D01*
X146352197Y-110162427D01*
X146432254Y-110195587D01*
X146497873Y-110222767D01*
X146621907Y-110247439D01*
X146652523Y-110253529D01*
X146652526Y-110253530D01*
X146652528Y-110253530D01*
X146810214Y-110253530D01*
X146810215Y-110253529D01*
X146964867Y-110222767D01*
X147110549Y-110162424D01*
X147135119Y-110146006D01*
X147201795Y-110125127D01*
X147269176Y-110143610D01*
X147315867Y-110195587D01*
X147326813Y-110257810D01*
X147327156Y-110257810D01*
X147327156Y-110259761D01*
X147327417Y-110261245D01*
X147327156Y-110263898D01*
X147327156Y-110421590D01*
X147357917Y-110576233D01*
X147357920Y-110576245D01*
X147418258Y-110721916D01*
X147418265Y-110721929D01*
X147505866Y-110853032D01*
X147505869Y-110853036D01*
X147617363Y-110964530D01*
X147617367Y-110964533D01*
X147748470Y-111052134D01*
X147748483Y-111052141D01*
X147841608Y-111090714D01*
X147894159Y-111112481D01*
X148025925Y-111138691D01*
X148048809Y-111143243D01*
X148048812Y-111143244D01*
X148048814Y-111143244D01*
X148206500Y-111143244D01*
X148206501Y-111143243D01*
X148361153Y-111112481D01*
X148506835Y-111052138D01*
X148637945Y-110964533D01*
X148749445Y-110853033D01*
X148837050Y-110721923D01*
X148842594Y-110708538D01*
X148886429Y-110654136D01*
X148952722Y-110632067D01*
X149004607Y-110641427D01*
X149035290Y-110654136D01*
X149086957Y-110675537D01*
X149241607Y-110706299D01*
X149241610Y-110706300D01*
X149241612Y-110706300D01*
X149399298Y-110706300D01*
X149399299Y-110706299D01*
X149553951Y-110675537D01*
X149699633Y-110615194D01*
X149830743Y-110527589D01*
X149942243Y-110416089D01*
X150029848Y-110284979D01*
X150090191Y-110139297D01*
X150120954Y-109984642D01*
X150120954Y-109826958D01*
X150120954Y-109826955D01*
X150120953Y-109826953D01*
X150110589Y-109774850D01*
X150090191Y-109672303D01*
X150049703Y-109574555D01*
X150029851Y-109526627D01*
X150029844Y-109526614D01*
X149942243Y-109395511D01*
X149942240Y-109395507D01*
X149830746Y-109284013D01*
X149830742Y-109284010D01*
X149699639Y-109196409D01*
X149699626Y-109196402D01*
X149553955Y-109136064D01*
X149553943Y-109136061D01*
X149399299Y-109105300D01*
X149399296Y-109105300D01*
X149241612Y-109105300D01*
X149241609Y-109105300D01*
X149086964Y-109136061D01*
X149086952Y-109136064D01*
X148941281Y-109196402D01*
X148941265Y-109196411D01*
X148912843Y-109215402D01*
X148846166Y-109236279D01*
X148778786Y-109217794D01*
X148732096Y-109165814D01*
X148720921Y-109096844D01*
X148740852Y-109043408D01*
X148759848Y-109014979D01*
X148760679Y-109012974D01*
X148775655Y-108976817D01*
X148820191Y-108869297D01*
X148850954Y-108714642D01*
X148850954Y-108556958D01*
X148850954Y-108556955D01*
X148850953Y-108556953D01*
X148828877Y-108445971D01*
X148820191Y-108402303D01*
X148820189Y-108402298D01*
X148759851Y-108256627D01*
X148759844Y-108256614D01*
X148672243Y-108125511D01*
X148672240Y-108125507D01*
X148560746Y-108014013D01*
X148560742Y-108014010D01*
X148429639Y-107926409D01*
X148429626Y-107926402D01*
X148283955Y-107866064D01*
X148283943Y-107866061D01*
X148129299Y-107835300D01*
X148129296Y-107835300D01*
X147971612Y-107835300D01*
X147971609Y-107835300D01*
X147816964Y-107866061D01*
X147816952Y-107866064D01*
X147671281Y-107926402D01*
X147671268Y-107926409D01*
X147540168Y-108014008D01*
X147540166Y-108014010D01*
X147540165Y-108014011D01*
X147514853Y-108039321D01*
X147459270Y-108071412D01*
X147429016Y-108079519D01*
X147358545Y-108098402D01*
X147227049Y-108174322D01*
X147227043Y-108174327D01*
X146785160Y-108616211D01*
X146723837Y-108649696D01*
X146697479Y-108652530D01*
X146652525Y-108652530D01*
X146497880Y-108683291D01*
X146497868Y-108683294D01*
X146352197Y-108743632D01*
X146352184Y-108743639D01*
X146221081Y-108831240D01*
X146221077Y-108831243D01*
X146109583Y-108942737D01*
X146109580Y-108942741D01*
X146021979Y-109073844D01*
X146021972Y-109073857D01*
X145961634Y-109219528D01*
X145961631Y-109219540D01*
X145930870Y-109374183D01*
X121323087Y-109374183D01*
X121246251Y-109223384D01*
X121246249Y-109223381D01*
X121246248Y-109223379D01*
X121121309Y-109051413D01*
X120970986Y-108901090D01*
X120799020Y-108776151D01*
X120798315Y-108775791D01*
X120790254Y-108771685D01*
X120739459Y-108723712D01*
X120722663Y-108655892D01*
X120745199Y-108589756D01*
X120790254Y-108550715D01*
X120799016Y-108546251D01*
X120820989Y-108530286D01*
X120970986Y-108421309D01*
X120970988Y-108421306D01*
X120970992Y-108421304D01*
X121121304Y-108270992D01*
X121121306Y-108270988D01*
X121121309Y-108270986D01*
X121246248Y-108099020D01*
X121246247Y-108099020D01*
X121246251Y-108099016D01*
X121342757Y-107909612D01*
X121408446Y-107707443D01*
X121441700Y-107497487D01*
X121441700Y-107284913D01*
X121408446Y-107074957D01*
X121342757Y-106872788D01*
X121246251Y-106683384D01*
X121246249Y-106683381D01*
X121246248Y-106683379D01*
X121121309Y-106511413D01*
X120970986Y-106361090D01*
X120799020Y-106236151D01*
X120798315Y-106235791D01*
X120790254Y-106231685D01*
X120739459Y-106183712D01*
X120722663Y-106115892D01*
X120745199Y-106049756D01*
X120790254Y-106010715D01*
X120799016Y-106006251D01*
X120822682Y-105989057D01*
X120970986Y-105881309D01*
X120970988Y-105881306D01*
X120970992Y-105881304D01*
X121121304Y-105730992D01*
X121121306Y-105730988D01*
X121121309Y-105730986D01*
X121246248Y-105559020D01*
X121246247Y-105559020D01*
X121246251Y-105559016D01*
X121342757Y-105369612D01*
X121408446Y-105167443D01*
X121441700Y-104957487D01*
X121441700Y-104744913D01*
X121421779Y-104619137D01*
X123381374Y-104619137D01*
X123381374Y-104776830D01*
X123412135Y-104931473D01*
X123412138Y-104931485D01*
X123472476Y-105077156D01*
X123472483Y-105077169D01*
X123560084Y-105208272D01*
X123560087Y-105208276D01*
X123671581Y-105319770D01*
X123671585Y-105319773D01*
X123802688Y-105407374D01*
X123802701Y-105407381D01*
X123935765Y-105462497D01*
X123948377Y-105467721D01*
X124103027Y-105498483D01*
X124103030Y-105498484D01*
X124103032Y-105498484D01*
X124260718Y-105498484D01*
X124260719Y-105498483D01*
X124415371Y-105467721D01*
X124559665Y-105407953D01*
X124561046Y-105407381D01*
X124561046Y-105407380D01*
X124561053Y-105407378D01*
X124654892Y-105344677D01*
X124691092Y-105320489D01*
X124757769Y-105299611D01*
X124759983Y-105299591D01*
X125088859Y-105299591D01*
X125155898Y-105319276D01*
X125176540Y-105335910D01*
X125185307Y-105344677D01*
X125185311Y-105344680D01*
X125316414Y-105432281D01*
X125316427Y-105432288D01*
X125414098Y-105472744D01*
X125462103Y-105492628D01*
X125565349Y-105513165D01*
X125616753Y-105523390D01*
X125616756Y-105523391D01*
X125616758Y-105523391D01*
X125774444Y-105523391D01*
X125774445Y-105523390D01*
X125929097Y-105492628D01*
X126074779Y-105432285D01*
X126205889Y-105344680D01*
X126317389Y-105233180D01*
X126404994Y-105102070D01*
X126465337Y-104956388D01*
X126496100Y-104801733D01*
X126496100Y-104644049D01*
X126496100Y-104644046D01*
X126496099Y-104644044D01*
X126475214Y-104539048D01*
X126465337Y-104489394D01*
X126416023Y-104370340D01*
X126408555Y-104300872D01*
X126416021Y-104275442D01*
X126465337Y-104156385D01*
X126496100Y-104001730D01*
X126496100Y-103844046D01*
X126496100Y-103844043D01*
X126496099Y-103844041D01*
X126482697Y-103776664D01*
X126465337Y-103689391D01*
X126416023Y-103570337D01*
X126412743Y-103539830D01*
X126407295Y-103509633D01*
X126407918Y-103507191D01*
X134835474Y-103507191D01*
X134835474Y-103664884D01*
X134866235Y-103819527D01*
X134866238Y-103819539D01*
X134926576Y-103965210D01*
X134926583Y-103965223D01*
X135014184Y-104096326D01*
X135014187Y-104096330D01*
X135125681Y-104207824D01*
X135125685Y-104207827D01*
X135256788Y-104295428D01*
X135256801Y-104295435D01*
X135354460Y-104335886D01*
X135402477Y-104355775D01*
X135553090Y-104385734D01*
X135557127Y-104386537D01*
X135557130Y-104386538D01*
X135557132Y-104386538D01*
X135714817Y-104386538D01*
X135760677Y-104377415D01*
X135805840Y-104368431D01*
X135830031Y-104366049D01*
X136500484Y-104366049D01*
X136567523Y-104385734D01*
X136569375Y-104386947D01*
X136660655Y-104447939D01*
X136660668Y-104447946D01*
X136760734Y-104489394D01*
X136806344Y-104508286D01*
X136960994Y-104539048D01*
X136960997Y-104539049D01*
X136960999Y-104539049D01*
X137118685Y-104539049D01*
X137118686Y-104539048D01*
X137273338Y-104508286D01*
X137419020Y-104447943D01*
X137550130Y-104360338D01*
X137661630Y-104248838D01*
X137749235Y-104117728D01*
X137809578Y-103972046D01*
X137840341Y-103817391D01*
X137840341Y-103659707D01*
X137840341Y-103659704D01*
X137840340Y-103659702D01*
X137828393Y-103599643D01*
X137809578Y-103505052D01*
X137787010Y-103450567D01*
X137749238Y-103359376D01*
X137749231Y-103359363D01*
X137661630Y-103228260D01*
X137661627Y-103228256D01*
X137550133Y-103116762D01*
X137550129Y-103116759D01*
X137419026Y-103029158D01*
X137419013Y-103029151D01*
X137273342Y-102968813D01*
X137273330Y-102968810D01*
X137118686Y-102938049D01*
X137118683Y-102938049D01*
X136960999Y-102938049D01*
X136960996Y-102938049D01*
X136806351Y-102968810D01*
X136806339Y-102968813D01*
X136660668Y-103029151D01*
X136660655Y-103029158D01*
X136569375Y-103090151D01*
X136551328Y-103095801D01*
X136535419Y-103106026D01*
X136504459Y-103110477D01*
X136502698Y-103111029D01*
X136500484Y-103111049D01*
X136344426Y-103111049D01*
X136277387Y-103091364D01*
X136256745Y-103074730D01*
X136146266Y-102964251D01*
X136146262Y-102964248D01*
X136015159Y-102876647D01*
X136015146Y-102876640D01*
X135869475Y-102816302D01*
X135869463Y-102816299D01*
X135714819Y-102785538D01*
X135714816Y-102785538D01*
X135557132Y-102785538D01*
X135557129Y-102785538D01*
X135402484Y-102816299D01*
X135402472Y-102816302D01*
X135256801Y-102876640D01*
X135256788Y-102876647D01*
X135125685Y-102964248D01*
X135125681Y-102964251D01*
X135014187Y-103075745D01*
X135014184Y-103075749D01*
X134926583Y-103206852D01*
X134926576Y-103206865D01*
X134866238Y-103352536D01*
X134866235Y-103352548D01*
X134835474Y-103507191D01*
X126407918Y-103507191D01*
X126408844Y-103503561D01*
X126408555Y-103500869D01*
X126416020Y-103475443D01*
X126465337Y-103356382D01*
X126496100Y-103201727D01*
X126496100Y-103044043D01*
X126496100Y-103044040D01*
X126496099Y-103044038D01*
X126488738Y-103007034D01*
X126465337Y-102889388D01*
X126416023Y-102770334D01*
X126408555Y-102700866D01*
X126416021Y-102675436D01*
X126465337Y-102556379D01*
X126496100Y-102401724D01*
X126496100Y-102244040D01*
X126496100Y-102244037D01*
X126496099Y-102244035D01*
X126477800Y-102152041D01*
X126465337Y-102089385D01*
X126416023Y-101970331D01*
X126408555Y-101900863D01*
X126416021Y-101875433D01*
X126465337Y-101756376D01*
X126496100Y-101601721D01*
X126496100Y-101444037D01*
X126496100Y-101444034D01*
X126496099Y-101444032D01*
X126489541Y-101411064D01*
X126465337Y-101289382D01*
X126416023Y-101170328D01*
X126412744Y-101139823D01*
X126407295Y-101109622D01*
X126408844Y-101103551D01*
X126408555Y-101100860D01*
X126412404Y-101087753D01*
X145127982Y-101087753D01*
X145127982Y-101245446D01*
X145158743Y-101400089D01*
X145158746Y-101400101D01*
X145219084Y-101545772D01*
X145219091Y-101545785D01*
X145306692Y-101676888D01*
X145306695Y-101676892D01*
X145418189Y-101788386D01*
X145418193Y-101788389D01*
X145549296Y-101875990D01*
X145549309Y-101875997D01*
X145694980Y-101936335D01*
X145694985Y-101936337D01*
X145756340Y-101948541D01*
X145849637Y-101967100D01*
X145854481Y-101967577D01*
X145919269Y-101993735D01*
X145930013Y-102003299D01*
X146690249Y-102763535D01*
X146723734Y-102824858D01*
X146725302Y-102839448D01*
X146725971Y-102839383D01*
X146726568Y-102845447D01*
X146757329Y-103000090D01*
X146757332Y-103000102D01*
X146817670Y-103145773D01*
X146817677Y-103145786D01*
X146905278Y-103276889D01*
X146905281Y-103276893D01*
X147016775Y-103388387D01*
X147016779Y-103388390D01*
X147147882Y-103475991D01*
X147147895Y-103475998D01*
X147277222Y-103529566D01*
X147293571Y-103536338D01*
X147448221Y-103567100D01*
X147448224Y-103567101D01*
X147448226Y-103567101D01*
X147605912Y-103567101D01*
X147605913Y-103567100D01*
X147760565Y-103536338D01*
X147906247Y-103475995D01*
X148037357Y-103388390D01*
X148148857Y-103276890D01*
X148236462Y-103145780D01*
X148296805Y-103000098D01*
X148327568Y-102845443D01*
X148327568Y-102687759D01*
X148327568Y-102687756D01*
X148327567Y-102687754D01*
X148315570Y-102627443D01*
X148296805Y-102533104D01*
X148289521Y-102515519D01*
X148236465Y-102387428D01*
X148236458Y-102387415D01*
X148148857Y-102256312D01*
X148148854Y-102256308D01*
X148037360Y-102144814D01*
X148037356Y-102144811D01*
X147906253Y-102057210D01*
X147906240Y-102057203D01*
X147760569Y-101996865D01*
X147760557Y-101996862D01*
X147605913Y-101966101D01*
X147605910Y-101966101D01*
X147575331Y-101966101D01*
X147508292Y-101946416D01*
X147487650Y-101929782D01*
X146765301Y-101207433D01*
X146731816Y-101146110D01*
X146728982Y-101119752D01*
X146728982Y-101087755D01*
X146728981Y-101087753D01*
X146727610Y-101080859D01*
X146698219Y-100933103D01*
X146697230Y-100930716D01*
X146637879Y-100787427D01*
X146637872Y-100787414D01*
X146550271Y-100656311D01*
X146550268Y-100656307D01*
X146438774Y-100544813D01*
X146438770Y-100544810D01*
X146307667Y-100457209D01*
X146307654Y-100457202D01*
X146161983Y-100396864D01*
X146161971Y-100396861D01*
X146007327Y-100366100D01*
X146007324Y-100366100D01*
X145849640Y-100366100D01*
X145849637Y-100366100D01*
X145694992Y-100396861D01*
X145694980Y-100396864D01*
X145549309Y-100457202D01*
X145549296Y-100457209D01*
X145418193Y-100544810D01*
X145418189Y-100544813D01*
X145306695Y-100656307D01*
X145306692Y-100656311D01*
X145219091Y-100787414D01*
X145219084Y-100787427D01*
X145158746Y-100933098D01*
X145158743Y-100933110D01*
X145127982Y-101087753D01*
X126412404Y-101087753D01*
X126416024Y-101075425D01*
X126424163Y-101055776D01*
X126465337Y-100956373D01*
X126496100Y-100801718D01*
X126496100Y-100644034D01*
X126496100Y-100644031D01*
X126496099Y-100644029D01*
X126490955Y-100618170D01*
X126465337Y-100489379D01*
X126416023Y-100370325D01*
X126408555Y-100300857D01*
X126416021Y-100275427D01*
X126465337Y-100156370D01*
X126496100Y-100001715D01*
X126496100Y-99844031D01*
X126496100Y-99844028D01*
X126496099Y-99844026D01*
X126481293Y-99769593D01*
X126465337Y-99689376D01*
X126455035Y-99664504D01*
X126416024Y-99570322D01*
X126408555Y-99500853D01*
X126416022Y-99475422D01*
X126465336Y-99356368D01*
X126484047Y-99262302D01*
X126488757Y-99238627D01*
X133979647Y-99238627D01*
X133979647Y-99396320D01*
X134010408Y-99550963D01*
X134010411Y-99550975D01*
X134070749Y-99696646D01*
X134070756Y-99696659D01*
X134158357Y-99827762D01*
X134158360Y-99827766D01*
X134269854Y-99939260D01*
X134269858Y-99939263D01*
X134400961Y-100026864D01*
X134400974Y-100026871D01*
X134514316Y-100073818D01*
X134546650Y-100087211D01*
X134637534Y-100105289D01*
X134701300Y-100117973D01*
X134701303Y-100117974D01*
X134701305Y-100117974D01*
X134858991Y-100117974D01*
X134858992Y-100117973D01*
X135013644Y-100087211D01*
X135159326Y-100026868D01*
X135250613Y-99965872D01*
X135317290Y-99944994D01*
X135319504Y-99944974D01*
X135424739Y-99944974D01*
X135424740Y-99944973D01*
X135545970Y-99920860D01*
X135626719Y-99887411D01*
X135660168Y-99873557D01*
X135762409Y-99805242D01*
X146632389Y-99805242D01*
X146632389Y-99962935D01*
X146663150Y-100117578D01*
X146663153Y-100117590D01*
X146723491Y-100263261D01*
X146723498Y-100263274D01*
X146811099Y-100394377D01*
X146811102Y-100394381D01*
X146922597Y-100505876D01*
X146947706Y-100522653D01*
X146966497Y-100538075D01*
X148770216Y-102341793D01*
X148803701Y-102403116D01*
X148806535Y-102429474D01*
X148806535Y-102441881D01*
X148837296Y-102596524D01*
X148837299Y-102596536D01*
X148897637Y-102742207D01*
X148897644Y-102742220D01*
X148985245Y-102873323D01*
X148985248Y-102873327D01*
X149096743Y-102984822D01*
X149096746Y-102984824D01*
X149191030Y-103047823D01*
X149235835Y-103101433D01*
X149244542Y-103170758D01*
X149243756Y-103175115D01*
X149229108Y-103248755D01*
X149229108Y-103406448D01*
X149259869Y-103561091D01*
X149259872Y-103561103D01*
X149320210Y-103706774D01*
X149320217Y-103706787D01*
X149407818Y-103837890D01*
X149407821Y-103837894D01*
X149519315Y-103949388D01*
X149519319Y-103949391D01*
X149650422Y-104036992D01*
X149650435Y-104036999D01*
X149793665Y-104096326D01*
X149796111Y-104097339D01*
X149950761Y-104128101D01*
X149950764Y-104128102D01*
X149950766Y-104128102D01*
X149963169Y-104128102D01*
X150030208Y-104147787D01*
X150050850Y-104164421D01*
X150055638Y-104169209D01*
X150187142Y-104245133D01*
X150333816Y-104284434D01*
X150485664Y-104284434D01*
X153348544Y-104284434D01*
X153415583Y-104304119D01*
X153461338Y-104356923D01*
X153471282Y-104426081D01*
X153463104Y-104455889D01*
X153459304Y-104465061D01*
X153459302Y-104465069D01*
X153428541Y-104619712D01*
X153428541Y-104777405D01*
X153459302Y-104932048D01*
X153459305Y-104932060D01*
X153519643Y-105077731D01*
X153519650Y-105077744D01*
X153607251Y-105208847D01*
X153607254Y-105208851D01*
X153718748Y-105320345D01*
X153718752Y-105320348D01*
X153849855Y-105407949D01*
X153849868Y-105407956D01*
X153908612Y-105432288D01*
X153995544Y-105468296D01*
X154147303Y-105498483D01*
X154150194Y-105499058D01*
X154150197Y-105499059D01*
X154150199Y-105499059D01*
X154307885Y-105499059D01*
X154307886Y-105499058D01*
X154440177Y-105472744D01*
X154462529Y-105468298D01*
X154462530Y-105468297D01*
X154462538Y-105468296D01*
X154476539Y-105462496D01*
X154523988Y-105453059D01*
X155091100Y-105453059D01*
X155158139Y-105472744D01*
X155203894Y-105525548D01*
X155213838Y-105594706D01*
X155184813Y-105658262D01*
X155178781Y-105664740D01*
X155131254Y-105712266D01*
X155131251Y-105712270D01*
X155043650Y-105843373D01*
X155043643Y-105843386D01*
X154983305Y-105989057D01*
X154983302Y-105989069D01*
X154952541Y-106143712D01*
X154952541Y-106301405D01*
X154983302Y-106456048D01*
X154983305Y-106456060D01*
X155043643Y-106601731D01*
X155043650Y-106601744D01*
X155131251Y-106732847D01*
X155131254Y-106732851D01*
X155242748Y-106844345D01*
X155242752Y-106844348D01*
X155373855Y-106931949D01*
X155373868Y-106931956D01*
X155500347Y-106984345D01*
X155554751Y-107028186D01*
X155567456Y-107051454D01*
X155619843Y-107177930D01*
X155619850Y-107177943D01*
X155707451Y-107309046D01*
X155707454Y-107309050D01*
X155818948Y-107420544D01*
X155818952Y-107420547D01*
X155950055Y-107508148D01*
X155950068Y-107508155D01*
X156076547Y-107560544D01*
X156130951Y-107604385D01*
X156143656Y-107627653D01*
X156196043Y-107754129D01*
X156196050Y-107754142D01*
X156283651Y-107885245D01*
X156283654Y-107885249D01*
X156395148Y-107996743D01*
X156395152Y-107996746D01*
X156526255Y-108084347D01*
X156526268Y-108084354D01*
X156671939Y-108144692D01*
X156671944Y-108144694D01*
X156820893Y-108174322D01*
X156826594Y-108175456D01*
X156826597Y-108175457D01*
X156826599Y-108175457D01*
X156984285Y-108175457D01*
X156984286Y-108175456D01*
X157138938Y-108144694D01*
X157193840Y-108121953D01*
X157219248Y-108111429D01*
X157288717Y-108103960D01*
X157351196Y-108135235D01*
X157386848Y-108195324D01*
X157390700Y-108225990D01*
X157390700Y-108279646D01*
X157421461Y-108434289D01*
X157421464Y-108434301D01*
X157481802Y-108579972D01*
X157481809Y-108579985D01*
X157569410Y-108711088D01*
X157569413Y-108711092D01*
X157680907Y-108822586D01*
X157680911Y-108822589D01*
X157812014Y-108910190D01*
X157812027Y-108910197D01*
X157946117Y-108965738D01*
X157957703Y-108970537D01*
X158088222Y-108996499D01*
X158112353Y-109001299D01*
X158112356Y-109001300D01*
X158112358Y-109001300D01*
X158270044Y-109001300D01*
X158270045Y-109001299D01*
X158424697Y-108970537D01*
X158548550Y-108919235D01*
X158618018Y-108911767D01*
X158643453Y-108919236D01*
X158755720Y-108965738D01*
X158767306Y-108970537D01*
X158897825Y-108996499D01*
X158921956Y-109001299D01*
X158921959Y-109001300D01*
X158921961Y-109001300D01*
X159079647Y-109001300D01*
X159079648Y-109001299D01*
X159234300Y-108970537D01*
X159350560Y-108922380D01*
X159420029Y-108914912D01*
X159445464Y-108922381D01*
X159561725Y-108970537D01*
X159576884Y-108976816D01*
X159699968Y-109001299D01*
X159731534Y-109007578D01*
X159731537Y-109007579D01*
X159731539Y-109007579D01*
X159889225Y-109007579D01*
X159889226Y-109007578D01*
X160043878Y-108976816D01*
X160169534Y-108924767D01*
X160239003Y-108917299D01*
X160264435Y-108924767D01*
X160396103Y-108979305D01*
X160482548Y-108996500D01*
X160550753Y-109010067D01*
X160550756Y-109010068D01*
X160550758Y-109010068D01*
X160708444Y-109010068D01*
X160708445Y-109010067D01*
X160863097Y-108979305D01*
X160997509Y-108923629D01*
X161066978Y-108916161D01*
X161092413Y-108923630D01*
X161194072Y-108965738D01*
X161205658Y-108970537D01*
X161336177Y-108996499D01*
X161360308Y-109001299D01*
X161360311Y-109001300D01*
X161360313Y-109001300D01*
X161517999Y-109001300D01*
X161518000Y-109001299D01*
X161672652Y-108970537D01*
X161806944Y-108914912D01*
X161818327Y-108910197D01*
X161818327Y-108910196D01*
X161818334Y-108910194D01*
X161949444Y-108822589D01*
X162060944Y-108711089D01*
X162148549Y-108579979D01*
X162208892Y-108434297D01*
X162239655Y-108279642D01*
X162239655Y-108121958D01*
X162239655Y-108121955D01*
X162239654Y-108121953D01*
X162235092Y-108099020D01*
X162208892Y-107967303D01*
X162191952Y-107926406D01*
X162148552Y-107821627D01*
X162148545Y-107821614D01*
X162060944Y-107690511D01*
X162060941Y-107690507D01*
X162052174Y-107681740D01*
X162037470Y-107654812D01*
X162020878Y-107628994D01*
X162019986Y-107622793D01*
X162018689Y-107620417D01*
X162015855Y-107594059D01*
X162015855Y-107379884D01*
X162035540Y-107312845D01*
X162052174Y-107292203D01*
X162292923Y-107051454D01*
X162534241Y-106810135D01*
X162595562Y-106776652D01*
X162602743Y-106775522D01*
X162606870Y-106774701D01*
X162606871Y-106774701D01*
X162612737Y-106773534D01*
X162682329Y-106779760D01*
X162737507Y-106822622D01*
X162760753Y-106888511D01*
X162760931Y-106895151D01*
X162760931Y-107635607D01*
X162741246Y-107702646D01*
X162740033Y-107704498D01*
X162653977Y-107833288D01*
X162653970Y-107833301D01*
X162593632Y-107978972D01*
X162593629Y-107978984D01*
X162562868Y-108133627D01*
X162562868Y-108291320D01*
X162593629Y-108445963D01*
X162593632Y-108445975D01*
X162653970Y-108591646D01*
X162653977Y-108591659D01*
X162741578Y-108722762D01*
X162741581Y-108722766D01*
X162853075Y-108834260D01*
X162853079Y-108834263D01*
X162984182Y-108921864D01*
X162984195Y-108921871D01*
X163129086Y-108981886D01*
X163129871Y-108982211D01*
X163257399Y-109007578D01*
X163284521Y-109012973D01*
X163284524Y-109012974D01*
X163284526Y-109012974D01*
X163442212Y-109012974D01*
X163442213Y-109012973D01*
X163596865Y-108982211D01*
X163740519Y-108922707D01*
X163809988Y-108915239D01*
X163835423Y-108922708D01*
X163883788Y-108942741D01*
X163939306Y-108965737D01*
X164093956Y-108996499D01*
X164093959Y-108996500D01*
X164093961Y-108996500D01*
X164251647Y-108996500D01*
X164251648Y-108996499D01*
X164406300Y-108965737D01*
X164524358Y-108916835D01*
X164593827Y-108909367D01*
X164619260Y-108916835D01*
X164748909Y-108970537D01*
X164879428Y-108996499D01*
X164903559Y-109001299D01*
X164903562Y-109001300D01*
X164903564Y-109001300D01*
X165061250Y-109001300D01*
X165061251Y-109001299D01*
X165215903Y-108970537D01*
X165350195Y-108914912D01*
X165361578Y-108910197D01*
X165361578Y-108910196D01*
X165361585Y-108910194D01*
X165492695Y-108822589D01*
X165604195Y-108711089D01*
X165691800Y-108579979D01*
X165752143Y-108434297D01*
X165782906Y-108279642D01*
X165782906Y-108121958D01*
X165782906Y-108121955D01*
X165782905Y-108121953D01*
X165778343Y-108099020D01*
X165752143Y-107967303D01*
X165735203Y-107926406D01*
X165691803Y-107821627D01*
X165691796Y-107821614D01*
X165604195Y-107690511D01*
X165604192Y-107690507D01*
X165555438Y-107641753D01*
X165521953Y-107580430D01*
X165519119Y-107554072D01*
X165519119Y-106585740D01*
X165538804Y-106518701D01*
X165555436Y-106498060D01*
X165564208Y-106489289D01*
X165651813Y-106358179D01*
X165712156Y-106212497D01*
X165742919Y-106057842D01*
X165742919Y-105900158D01*
X165742919Y-105900155D01*
X165742918Y-105900153D01*
X165712157Y-105745510D01*
X165712156Y-105745503D01*
X165712154Y-105745498D01*
X165651816Y-105599827D01*
X165651809Y-105599814D01*
X165564208Y-105468711D01*
X165564205Y-105468707D01*
X165452711Y-105357213D01*
X165452707Y-105357210D01*
X165321604Y-105269609D01*
X165321591Y-105269602D01*
X165175920Y-105209264D01*
X165175908Y-105209261D01*
X165021264Y-105178500D01*
X165021261Y-105178500D01*
X164863577Y-105178500D01*
X164863574Y-105178500D01*
X164708929Y-105209261D01*
X164708917Y-105209264D01*
X164589869Y-105258575D01*
X164520399Y-105266044D01*
X164494965Y-105258575D01*
X164375917Y-105209264D01*
X164375905Y-105209261D01*
X164221261Y-105178500D01*
X164221258Y-105178500D01*
X164063574Y-105178500D01*
X164063571Y-105178500D01*
X163908926Y-105209261D01*
X163908919Y-105209263D01*
X163793268Y-105257166D01*
X163723799Y-105264634D01*
X163698365Y-105257165D01*
X163571132Y-105204464D01*
X163571120Y-105204461D01*
X163416476Y-105173700D01*
X163416473Y-105173700D01*
X163258789Y-105173700D01*
X163258786Y-105173700D01*
X163104141Y-105204461D01*
X163104129Y-105204464D01*
X162980280Y-105255764D01*
X162910811Y-105263233D01*
X162885378Y-105255765D01*
X162761526Y-105204464D01*
X162761518Y-105204462D01*
X162606874Y-105173701D01*
X162606871Y-105173701D01*
X162449187Y-105173701D01*
X162449184Y-105173701D01*
X162294539Y-105204462D01*
X162294527Y-105204465D01*
X162170681Y-105255764D01*
X162101212Y-105263233D01*
X162075777Y-105255764D01*
X161951928Y-105204464D01*
X161951916Y-105204461D01*
X161797272Y-105173700D01*
X161797269Y-105173700D01*
X161639585Y-105173700D01*
X161639582Y-105173700D01*
X161484937Y-105204461D01*
X161484925Y-105204464D01*
X161339254Y-105264802D01*
X161339236Y-105264812D01*
X161261238Y-105316929D01*
X161194561Y-105337807D01*
X161127181Y-105319322D01*
X161123457Y-105316929D01*
X161045455Y-105264809D01*
X161045442Y-105264802D01*
X160899771Y-105204464D01*
X160899759Y-105204461D01*
X160745115Y-105173700D01*
X160745112Y-105173700D01*
X160587428Y-105173700D01*
X160587425Y-105173700D01*
X160432780Y-105204461D01*
X160432768Y-105204464D01*
X160308920Y-105255763D01*
X160239450Y-105263232D01*
X160214016Y-105255763D01*
X160090168Y-105204464D01*
X160090156Y-105204461D01*
X159935512Y-105173700D01*
X159935509Y-105173700D01*
X159777825Y-105173700D01*
X159777822Y-105173700D01*
X159623177Y-105204461D01*
X159623165Y-105204464D01*
X159499317Y-105255763D01*
X159429847Y-105263232D01*
X159404413Y-105255763D01*
X159280565Y-105204464D01*
X159280553Y-105204461D01*
X159125909Y-105173700D01*
X159125906Y-105173700D01*
X159079247Y-105173700D01*
X159012208Y-105154015D01*
X158976145Y-105118591D01*
X158953530Y-105084746D01*
X158953527Y-105084742D01*
X158842033Y-104973248D01*
X158842029Y-104973245D01*
X158710926Y-104885644D01*
X158710913Y-104885637D01*
X158594094Y-104837250D01*
X158539690Y-104793409D01*
X158517625Y-104727115D01*
X158519929Y-104698498D01*
X158534499Y-104625246D01*
X158534500Y-104625244D01*
X158534500Y-104467555D01*
X158534499Y-104467553D01*
X158534005Y-104465069D01*
X158503737Y-104312903D01*
X158491945Y-104284434D01*
X158443397Y-104167227D01*
X158443390Y-104167214D01*
X158355789Y-104036111D01*
X158355786Y-104036107D01*
X158244292Y-103924613D01*
X158244288Y-103924610D01*
X158113185Y-103837009D01*
X158113172Y-103837002D01*
X157967501Y-103776664D01*
X157967489Y-103776661D01*
X157812845Y-103745900D01*
X157812842Y-103745900D01*
X157716259Y-103745900D01*
X157649220Y-103726215D01*
X157603465Y-103673411D01*
X157592259Y-103621900D01*
X157592259Y-103393434D01*
X157592259Y-103393432D01*
X157552958Y-103246758D01*
X157529922Y-103206859D01*
X157477036Y-103115257D01*
X157477031Y-103115251D01*
X157031548Y-102669768D01*
X157031542Y-102669763D01*
X156900044Y-102593843D01*
X156900043Y-102593842D01*
X156900042Y-102593842D01*
X156753368Y-102554541D01*
X156753367Y-102554541D01*
X156620781Y-102554541D01*
X156597366Y-102547665D01*
X156573104Y-102545009D01*
X156561220Y-102537051D01*
X156553742Y-102534856D01*
X156542786Y-102526940D01*
X156537715Y-102522837D01*
X156501231Y-102486353D01*
X165772700Y-102486353D01*
X165772700Y-102644046D01*
X165803461Y-102798689D01*
X165803464Y-102798701D01*
X165863802Y-102944372D01*
X165863809Y-102944385D01*
X165951410Y-103075488D01*
X165951413Y-103075492D01*
X166062910Y-103186989D01*
X166181912Y-103266503D01*
X166226717Y-103320115D01*
X166235424Y-103389440D01*
X166205270Y-103452467D01*
X166181914Y-103472706D01*
X166159907Y-103487410D01*
X166048411Y-103598906D01*
X166048408Y-103598910D01*
X165960807Y-103730013D01*
X165960800Y-103730026D01*
X165900462Y-103875697D01*
X165900459Y-103875709D01*
X165869698Y-104030352D01*
X165869698Y-104188045D01*
X165900459Y-104342688D01*
X165900462Y-104342700D01*
X165960800Y-104488371D01*
X165960807Y-104488384D01*
X165994661Y-104539049D01*
X166048409Y-104619488D01*
X166057177Y-104628256D01*
X166090663Y-104689576D01*
X166093498Y-104715939D01*
X166093498Y-104722522D01*
X166124239Y-104837250D01*
X166132800Y-104869198D01*
X166132800Y-104869199D01*
X166208720Y-105000696D01*
X166208725Y-105000702D01*
X170307160Y-109099137D01*
X170340645Y-109160460D01*
X170341096Y-109162626D01*
X170367645Y-109296096D01*
X170367647Y-109296104D01*
X170428348Y-109442652D01*
X170428355Y-109442665D01*
X170516481Y-109574554D01*
X170516484Y-109574558D01*
X170628647Y-109686721D01*
X170628651Y-109686724D01*
X170760540Y-109774850D01*
X170760553Y-109774857D01*
X170870464Y-109820382D01*
X170907103Y-109835559D01*
X170907105Y-109835559D01*
X170907110Y-109835561D01*
X171062680Y-109866505D01*
X171062684Y-109866506D01*
X171062685Y-109866506D01*
X171221316Y-109866506D01*
X171221317Y-109866505D01*
X171273175Y-109856190D01*
X171376889Y-109835561D01*
X171376892Y-109835559D01*
X171376897Y-109835559D01*
X171523453Y-109774854D01*
X171655349Y-109686724D01*
X171767518Y-109574555D01*
X171855648Y-109442659D01*
X171916353Y-109296103D01*
X171916353Y-109296098D01*
X171916355Y-109296095D01*
X171947299Y-109140525D01*
X171947300Y-109140522D01*
X171947300Y-108981890D01*
X171947299Y-108981886D01*
X171916355Y-108826316D01*
X171916352Y-108826307D01*
X171865632Y-108703856D01*
X171858163Y-108634387D01*
X171865632Y-108608952D01*
X171872795Y-108591659D01*
X171916353Y-108486500D01*
X171924417Y-108445963D01*
X171947299Y-108330922D01*
X171947300Y-108330919D01*
X171947300Y-108172287D01*
X171947299Y-108172283D01*
X171916355Y-108016713D01*
X171916352Y-108016704D01*
X171915237Y-108014013D01*
X171878948Y-107926402D01*
X171865632Y-107894253D01*
X171858163Y-107824784D01*
X171865632Y-107799349D01*
X171884360Y-107754136D01*
X171916353Y-107676897D01*
X171925882Y-107628994D01*
X171947299Y-107521319D01*
X171947300Y-107521316D01*
X171947300Y-107362684D01*
X171947299Y-107362680D01*
X171916355Y-107207110D01*
X171916352Y-107207101D01*
X171863754Y-107080116D01*
X171856285Y-107010647D01*
X171863754Y-106985212D01*
X171903808Y-106888511D01*
X171916353Y-106858225D01*
X171919114Y-106844348D01*
X171947299Y-106702647D01*
X171947300Y-106702644D01*
X171947300Y-106544012D01*
X171947299Y-106544008D01*
X171916355Y-106388438D01*
X171916352Y-106388429D01*
X171855651Y-106241881D01*
X171855644Y-106241868D01*
X171767518Y-106109979D01*
X171767515Y-106109975D01*
X171655352Y-105997812D01*
X171655348Y-105997809D01*
X171523459Y-105909683D01*
X171523449Y-105909678D01*
X171452812Y-105880419D01*
X171398409Y-105836578D01*
X171376344Y-105770283D01*
X171376265Y-105765858D01*
X171376265Y-103555928D01*
X171395950Y-103488889D01*
X171412581Y-103468249D01*
X171425083Y-103455748D01*
X171513213Y-103323852D01*
X171573918Y-103177296D01*
X171575219Y-103170758D01*
X171599672Y-103047821D01*
X171604865Y-103021714D01*
X171604865Y-102863084D01*
X171598843Y-102832811D01*
X171573920Y-102707509D01*
X171573917Y-102707500D01*
X171513216Y-102560952D01*
X171513209Y-102560939D01*
X171425083Y-102429050D01*
X171425080Y-102429046D01*
X171312917Y-102316883D01*
X171312913Y-102316880D01*
X171181024Y-102228754D01*
X171181011Y-102228747D01*
X171034463Y-102168046D01*
X171034454Y-102168043D01*
X170878884Y-102137099D01*
X170878880Y-102137099D01*
X170720250Y-102137099D01*
X170720245Y-102137099D01*
X170564675Y-102168043D01*
X170564666Y-102168046D01*
X170418118Y-102228747D01*
X170418105Y-102228754D01*
X170286216Y-102316880D01*
X170286212Y-102316883D01*
X170174049Y-102429046D01*
X170174046Y-102429050D01*
X170085920Y-102560939D01*
X170085913Y-102560952D01*
X170025212Y-102707500D01*
X170025209Y-102707509D01*
X169994265Y-102863079D01*
X169994265Y-103021718D01*
X170025209Y-103177288D01*
X170025212Y-103177297D01*
X170085913Y-103323845D01*
X170085920Y-103323858D01*
X170174045Y-103455746D01*
X170174046Y-103455747D01*
X170174047Y-103455748D01*
X170186545Y-103468246D01*
X170220030Y-103529566D01*
X170222865Y-103555928D01*
X170222865Y-104681784D01*
X170203180Y-104748823D01*
X170150376Y-104794578D01*
X170081218Y-104804522D01*
X170017662Y-104775497D01*
X170011184Y-104769465D01*
X167345446Y-102103727D01*
X167345440Y-102103722D01*
X167213943Y-102027802D01*
X167213938Y-102027800D01*
X167183109Y-102019539D01*
X167127523Y-101987445D01*
X167083492Y-101943413D01*
X167083488Y-101943410D01*
X166952385Y-101855809D01*
X166952372Y-101855802D01*
X166806701Y-101795464D01*
X166806689Y-101795461D01*
X166652045Y-101764700D01*
X166652042Y-101764700D01*
X166494358Y-101764700D01*
X166494355Y-101764700D01*
X166339710Y-101795461D01*
X166339698Y-101795464D01*
X166194027Y-101855802D01*
X166194014Y-101855809D01*
X166062911Y-101943410D01*
X166062907Y-101943413D01*
X165951413Y-102054907D01*
X165951410Y-102054911D01*
X165863809Y-102186014D01*
X165863802Y-102186027D01*
X165803464Y-102331698D01*
X165803461Y-102331710D01*
X165772700Y-102486353D01*
X156501231Y-102486353D01*
X156459402Y-102444524D01*
X156353286Y-102373619D01*
X156348883Y-102370057D01*
X156332103Y-102345788D01*
X156313182Y-102323148D01*
X156312456Y-102317373D01*
X156309147Y-102312587D01*
X156308151Y-102283095D01*
X156304475Y-102253823D01*
X156306986Y-102248573D01*
X156306790Y-102242757D01*
X156321896Y-102217409D01*
X156334630Y-102190795D01*
X156339580Y-102187736D01*
X156342560Y-102182738D01*
X156368971Y-102169581D01*
X156394073Y-102154076D01*
X156402687Y-102152041D01*
X156411254Y-102150336D01*
X156477604Y-102137139D01*
X156623286Y-102076796D01*
X156754396Y-101989191D01*
X156865896Y-101877691D01*
X156953501Y-101746581D01*
X157013844Y-101600899D01*
X157044607Y-101446244D01*
X157044607Y-101288560D01*
X157044607Y-101288557D01*
X157044606Y-101288555D01*
X157013844Y-101133905D01*
X157001271Y-101103551D01*
X156953504Y-100988229D01*
X156953497Y-100988216D01*
X156865896Y-100857113D01*
X156865893Y-100857109D01*
X156754399Y-100745615D01*
X156754395Y-100745612D01*
X156688409Y-100701521D01*
X156683318Y-100695430D01*
X156676097Y-100692132D01*
X156661231Y-100669001D01*
X156643604Y-100647908D01*
X156641652Y-100638534D01*
X156638323Y-100633354D01*
X156633300Y-100598419D01*
X156633300Y-100587646D01*
X156652985Y-100520607D01*
X156705789Y-100474852D01*
X156733109Y-100466029D01*
X156777484Y-100457202D01*
X156867297Y-100439337D01*
X157012979Y-100378994D01*
X157144089Y-100291389D01*
X157255589Y-100179889D01*
X157343194Y-100048779D01*
X157403537Y-99903097D01*
X157434300Y-99748442D01*
X157434300Y-99736039D01*
X157453985Y-99669000D01*
X157470619Y-99648358D01*
X157668425Y-99450552D01*
X157890675Y-99228302D01*
X157966599Y-99096798D01*
X158005900Y-98950125D01*
X158005900Y-98798276D01*
X158005900Y-97521704D01*
X158025585Y-97454665D01*
X158078389Y-97408910D01*
X158147547Y-97398966D01*
X158154092Y-97400087D01*
X158264755Y-97422100D01*
X158264758Y-97422100D01*
X158422444Y-97422100D01*
X158422445Y-97422099D01*
X158577097Y-97391337D01*
X158699489Y-97340641D01*
X158722772Y-97330997D01*
X158722772Y-97330996D01*
X158722779Y-97330994D01*
X158853889Y-97243389D01*
X158965389Y-97131889D01*
X158981546Y-97107706D01*
X159022651Y-97069208D01*
X159033807Y-97062767D01*
X159073663Y-97039757D01*
X159391759Y-96721661D01*
X159453082Y-96688176D01*
X159479440Y-96685342D01*
X159491845Y-96685342D01*
X159491846Y-96685341D01*
X159646498Y-96654579D01*
X159759167Y-96607909D01*
X159792173Y-96594239D01*
X159792173Y-96594238D01*
X159792180Y-96594236D01*
X159923290Y-96506631D01*
X160034790Y-96395131D01*
X160122395Y-96264021D01*
X160132851Y-96238779D01*
X160140730Y-96219756D01*
X160182738Y-96118339D01*
X160213501Y-95963684D01*
X160213501Y-95806000D01*
X160213501Y-95805997D01*
X160207751Y-95777092D01*
X160213978Y-95707501D01*
X160256840Y-95652323D01*
X160322730Y-95629078D01*
X160390727Y-95645145D01*
X160439243Y-95695424D01*
X160443929Y-95705447D01*
X160444160Y-95706005D01*
X160444165Y-95706015D01*
X160531766Y-95837118D01*
X160531769Y-95837122D01*
X160580051Y-95885404D01*
X160613536Y-95946727D01*
X160613989Y-95997270D01*
X160612501Y-96004752D01*
X160612501Y-96162441D01*
X160643262Y-96317084D01*
X160643265Y-96317096D01*
X160692576Y-96436144D01*
X160700045Y-96505613D01*
X160692576Y-96531048D01*
X160643265Y-96650096D01*
X160643262Y-96650108D01*
X160612501Y-96804751D01*
X160612501Y-96962444D01*
X160643262Y-97117087D01*
X160643265Y-97117099D01*
X160703603Y-97262770D01*
X160703610Y-97262783D01*
X160791211Y-97393886D01*
X160791214Y-97393890D01*
X160902708Y-97505384D01*
X160902712Y-97505387D01*
X161033815Y-97592988D01*
X161033828Y-97592995D01*
X161168570Y-97648806D01*
X161179504Y-97653335D01*
X161334154Y-97684097D01*
X161334157Y-97684098D01*
X161334159Y-97684098D01*
X161491845Y-97684098D01*
X161491846Y-97684097D01*
X161646498Y-97653335D01*
X161792180Y-97592992D01*
X161923290Y-97505387D01*
X161974485Y-97454192D01*
X162039098Y-97389580D01*
X162040477Y-97390959D01*
X162090780Y-97356699D01*
X162128881Y-97350700D01*
X163458660Y-97350700D01*
X163525699Y-97370385D01*
X163546341Y-97387019D01*
X163555108Y-97395786D01*
X163555112Y-97395789D01*
X163686215Y-97483390D01*
X163686228Y-97483397D01*
X163778711Y-97521704D01*
X163831904Y-97543737D01*
X163954807Y-97568184D01*
X163986554Y-97574499D01*
X163986557Y-97574500D01*
X163986559Y-97574500D01*
X164144245Y-97574500D01*
X164144246Y-97574499D01*
X164298898Y-97543737D01*
X164444580Y-97483394D01*
X164575690Y-97395789D01*
X164687190Y-97284289D01*
X164774795Y-97153179D01*
X164835138Y-97007497D01*
X164865901Y-96852842D01*
X164865901Y-96695158D01*
X164865901Y-96695155D01*
X164865900Y-96695153D01*
X164856940Y-96650108D01*
X164835138Y-96540503D01*
X164831222Y-96531048D01*
X164782746Y-96414016D01*
X164775277Y-96344547D01*
X164782746Y-96319111D01*
X164783581Y-96317096D01*
X164835137Y-96192628D01*
X164865900Y-96037973D01*
X164865900Y-96027530D01*
X164885585Y-95960491D01*
X164938389Y-95914736D01*
X164989900Y-95903530D01*
X167224948Y-95903530D01*
X167224950Y-95903530D01*
X167371624Y-95864229D01*
X167385703Y-95856099D01*
X167453603Y-95839627D01*
X167519630Y-95862479D01*
X167526675Y-95868439D01*
X167526900Y-95868166D01*
X167531610Y-95872031D01*
X167662713Y-95959632D01*
X167662726Y-95959639D01*
X167808397Y-96019977D01*
X167808402Y-96019979D01*
X167952359Y-96048614D01*
X167963052Y-96050741D01*
X167963055Y-96050742D01*
X168047024Y-96050742D01*
X168060103Y-96054582D01*
X168073703Y-96053646D01*
X168092971Y-96064233D01*
X168114063Y-96070427D01*
X168124293Y-96081444D01*
X168134937Y-96087293D01*
X168148176Y-96107164D01*
X168156013Y-96115604D01*
X168159106Y-96121305D01*
X168194031Y-96205621D01*
X168251636Y-96291833D01*
X168254359Y-96296851D01*
X168260545Y-96325655D01*
X168269350Y-96353775D01*
X168268536Y-96362865D01*
X168269030Y-96365163D01*
X168268112Y-96367603D01*
X168266987Y-96380180D01*
X168235899Y-96536467D01*
X168235899Y-96694160D01*
X168266660Y-96848803D01*
X168266663Y-96848815D01*
X168315974Y-96967863D01*
X168323443Y-97037332D01*
X168315974Y-97062767D01*
X168266663Y-97181815D01*
X168266660Y-97181827D01*
X168235899Y-97336470D01*
X168235899Y-97494163D01*
X168266660Y-97648806D01*
X168266663Y-97648818D01*
X168315974Y-97767866D01*
X168319223Y-97798087D01*
X168324765Y-97827980D01*
X168323132Y-97834442D01*
X168323443Y-97837335D01*
X168316201Y-97862220D01*
X168316069Y-97862541D01*
X168266662Y-97981823D01*
X168266026Y-97985017D01*
X168262539Y-97993553D01*
X168244207Y-98016525D01*
X168228103Y-98041094D01*
X168222670Y-98043515D01*
X168218960Y-98048166D01*
X168191124Y-98057579D01*
X168164288Y-98069543D01*
X168156469Y-98069298D01*
X168152772Y-98070549D01*
X168146528Y-98068987D01*
X168123561Y-98068269D01*
X168072606Y-98058134D01*
X167914922Y-98058134D01*
X167914919Y-98058134D01*
X167760274Y-98088895D01*
X167760262Y-98088898D01*
X167614591Y-98149236D01*
X167614578Y-98149243D01*
X167483475Y-98236844D01*
X167483471Y-98236847D01*
X167371977Y-98348341D01*
X167371974Y-98348345D01*
X167284373Y-98479448D01*
X167284366Y-98479461D01*
X167224028Y-98625132D01*
X167224025Y-98625144D01*
X167193264Y-98779787D01*
X167193264Y-98937480D01*
X167224025Y-99092123D01*
X167224028Y-99092135D01*
X167284366Y-99237806D01*
X167284373Y-99237819D01*
X167371974Y-99368922D01*
X167371977Y-99368926D01*
X167483471Y-99480420D01*
X167483475Y-99480423D01*
X167614578Y-99568024D01*
X167614591Y-99568031D01*
X167760262Y-99628369D01*
X167760267Y-99628371D01*
X167914917Y-99659133D01*
X167914920Y-99659134D01*
X167914922Y-99659134D01*
X167927325Y-99659134D01*
X167994364Y-99678819D01*
X168015006Y-99695453D01*
X168232846Y-99913293D01*
X168266331Y-99974616D01*
X168261347Y-100044308D01*
X168219475Y-100100241D01*
X168154011Y-100124658D01*
X168145165Y-100124974D01*
X167438313Y-100124974D01*
X167371274Y-100105289D01*
X167350632Y-100088655D01*
X167131654Y-99869677D01*
X167098169Y-99808354D01*
X167095335Y-99781996D01*
X167095335Y-99769590D01*
X167095334Y-99769588D01*
X167080825Y-99696646D01*
X167064572Y-99614938D01*
X167045143Y-99568031D01*
X167004232Y-99469262D01*
X167004225Y-99469249D01*
X166916624Y-99338146D01*
X166916621Y-99338142D01*
X166805127Y-99226648D01*
X166805123Y-99226645D01*
X166674020Y-99139044D01*
X166674007Y-99139037D01*
X166528336Y-99078699D01*
X166528324Y-99078696D01*
X166373680Y-99047935D01*
X166373677Y-99047935D01*
X166215993Y-99047935D01*
X166215990Y-99047935D01*
X166061345Y-99078696D01*
X166061333Y-99078699D01*
X165915662Y-99139037D01*
X165915649Y-99139044D01*
X165784546Y-99226645D01*
X165784542Y-99226648D01*
X165673048Y-99338142D01*
X165673045Y-99338146D01*
X165585444Y-99469249D01*
X165585437Y-99469262D01*
X165525099Y-99614933D01*
X165525096Y-99614945D01*
X165494335Y-99769588D01*
X165494335Y-99927281D01*
X165525096Y-100081924D01*
X165525099Y-100081936D01*
X165585437Y-100227607D01*
X165585444Y-100227620D01*
X165673045Y-100358723D01*
X165673048Y-100358727D01*
X165784542Y-100470221D01*
X165784546Y-100470224D01*
X165915649Y-100557825D01*
X165915662Y-100557832D01*
X166061333Y-100618170D01*
X166061338Y-100618172D01*
X166210830Y-100647908D01*
X166215988Y-100648934D01*
X166215991Y-100648935D01*
X166215993Y-100648935D01*
X166228396Y-100648935D01*
X166295435Y-100668620D01*
X166316077Y-100685254D01*
X166686599Y-101055776D01*
X166793972Y-101163149D01*
X166793973Y-101163150D01*
X166793975Y-101163151D01*
X166859724Y-101201111D01*
X166925476Y-101239073D01*
X167072150Y-101278374D01*
X169878651Y-101278374D01*
X169945690Y-101298059D01*
X169966332Y-101314693D01*
X169975099Y-101323460D01*
X169975103Y-101323463D01*
X170106206Y-101411064D01*
X170106219Y-101411071D01*
X170231171Y-101462827D01*
X170251895Y-101471411D01*
X170406545Y-101502173D01*
X170406548Y-101502174D01*
X170406550Y-101502174D01*
X170564236Y-101502174D01*
X170564237Y-101502173D01*
X170718889Y-101471411D01*
X170864571Y-101411068D01*
X170995681Y-101323463D01*
X171107181Y-101211963D01*
X171194786Y-101080853D01*
X171255129Y-100935171D01*
X171273971Y-100840448D01*
X171278486Y-100817750D01*
X171310871Y-100755839D01*
X171371586Y-100721265D01*
X171441356Y-100725004D01*
X171480258Y-100749518D01*
X171481133Y-100748453D01*
X171485843Y-100752318D01*
X171617732Y-100840444D01*
X171617745Y-100840451D01*
X171727656Y-100885976D01*
X171764295Y-100901153D01*
X171764297Y-100901153D01*
X171764302Y-100901155D01*
X171919872Y-100932099D01*
X171919876Y-100932100D01*
X171919877Y-100932100D01*
X172078508Y-100932100D01*
X172078509Y-100932099D01*
X172130367Y-100921784D01*
X172234081Y-100901155D01*
X172234084Y-100901153D01*
X172234089Y-100901153D01*
X172380645Y-100840448D01*
X172512541Y-100752318D01*
X172624710Y-100640149D01*
X172712840Y-100508253D01*
X172773545Y-100361697D01*
X172774137Y-100358724D01*
X172800214Y-100227620D01*
X172804492Y-100206115D01*
X172804492Y-100047485D01*
X172795388Y-100001715D01*
X172773547Y-99891910D01*
X172773544Y-99891901D01*
X172722824Y-99769450D01*
X172715355Y-99699981D01*
X172722824Y-99674546D01*
X172726814Y-99664913D01*
X172773545Y-99552094D01*
X172773769Y-99550971D01*
X172804491Y-99396516D01*
X172804492Y-99396513D01*
X172804492Y-99237881D01*
X172804491Y-99237877D01*
X172773547Y-99082307D01*
X172773544Y-99082298D01*
X172757691Y-99044026D01*
X172722824Y-98959847D01*
X172715355Y-98890378D01*
X172722824Y-98864943D01*
X172725092Y-98859468D01*
X172773545Y-98742491D01*
X172773823Y-98741096D01*
X172798676Y-98616149D01*
X172804492Y-98586909D01*
X172804492Y-98428279D01*
X172799252Y-98401935D01*
X172773547Y-98272704D01*
X172773544Y-98272695D01*
X172761761Y-98244249D01*
X172722824Y-98150244D01*
X172715355Y-98080775D01*
X172722824Y-98055340D01*
X172728725Y-98041094D01*
X172773545Y-97932888D01*
X172774865Y-97926255D01*
X172804491Y-97777310D01*
X172804492Y-97777307D01*
X172804492Y-97618675D01*
X172804491Y-97618671D01*
X172773547Y-97463101D01*
X172773544Y-97463092D01*
X172770053Y-97454665D01*
X172729475Y-97356699D01*
X172722824Y-97340641D01*
X172715355Y-97271172D01*
X172722824Y-97245737D01*
X172761160Y-97153185D01*
X172773545Y-97123285D01*
X172774776Y-97117099D01*
X172796576Y-97007501D01*
X172804492Y-96967703D01*
X172804492Y-96809073D01*
X172793401Y-96753313D01*
X172773547Y-96653498D01*
X172773544Y-96653489D01*
X172722824Y-96531038D01*
X172715355Y-96461569D01*
X172722824Y-96436134D01*
X172726980Y-96426101D01*
X172773545Y-96313682D01*
X172777204Y-96295290D01*
X172797626Y-96192620D01*
X172804492Y-96158100D01*
X172804492Y-95999470D01*
X172791125Y-95932270D01*
X172773547Y-95843895D01*
X172773544Y-95843886D01*
X172773223Y-95843112D01*
X172736681Y-95754889D01*
X172722824Y-95721435D01*
X172715355Y-95651966D01*
X172722824Y-95626531D01*
X172773545Y-95504079D01*
X172778253Y-95480414D01*
X172804491Y-95348501D01*
X172804492Y-95348498D01*
X172804492Y-95189866D01*
X172804491Y-95189862D01*
X172773547Y-95034292D01*
X172773544Y-95034283D01*
X172722824Y-94911832D01*
X172715355Y-94842363D01*
X172722824Y-94816928D01*
X172730877Y-94797486D01*
X172773545Y-94694476D01*
X172804492Y-94538894D01*
X172804492Y-94380264D01*
X172787329Y-94293980D01*
X172773547Y-94224689D01*
X172773544Y-94224680D01*
X172722824Y-94102229D01*
X172715355Y-94032760D01*
X172722824Y-94007325D01*
X172773545Y-93884873D01*
X172781571Y-93844526D01*
X172804491Y-93729295D01*
X172804492Y-93729292D01*
X172804492Y-93570660D01*
X172804491Y-93570656D01*
X172773547Y-93415086D01*
X172773544Y-93415077D01*
X172722824Y-93292626D01*
X172715355Y-93223157D01*
X172722824Y-93197722D01*
X172725703Y-93190772D01*
X172773545Y-93075270D01*
X172779549Y-93045089D01*
X172804491Y-92919692D01*
X172804492Y-92919689D01*
X172804492Y-92761057D01*
X172804491Y-92761053D01*
X172773547Y-92605483D01*
X172773544Y-92605474D01*
X172770403Y-92597892D01*
X172734552Y-92511338D01*
X172712843Y-92458926D01*
X172712833Y-92458908D01*
X172698646Y-92437675D01*
X172677768Y-92370998D01*
X172696253Y-92303618D01*
X172698614Y-92299942D01*
X172712840Y-92278653D01*
X172773545Y-92132097D01*
X172777598Y-92111724D01*
X172804491Y-91976519D01*
X172804492Y-91976516D01*
X172804492Y-91817884D01*
X172804491Y-91817880D01*
X172773547Y-91662310D01*
X172773544Y-91662301D01*
X172764368Y-91640149D01*
X172722824Y-91539850D01*
X172715355Y-91470381D01*
X172722824Y-91444946D01*
X172723473Y-91443379D01*
X172773545Y-91322494D01*
X172782883Y-91275551D01*
X172798727Y-91195893D01*
X172804492Y-91166912D01*
X172804492Y-91008282D01*
X172801191Y-90991686D01*
X172773547Y-90852707D01*
X172773544Y-90852698D01*
X172722824Y-90730247D01*
X172715355Y-90660778D01*
X172722824Y-90635343D01*
X172742926Y-90586812D01*
X172773545Y-90512891D01*
X172777583Y-90492593D01*
X172804491Y-90357313D01*
X172804492Y-90357310D01*
X172804492Y-90198678D01*
X172804491Y-90198674D01*
X172773547Y-90043104D01*
X172773544Y-90043095D01*
X172712843Y-89896547D01*
X172712836Y-89896534D01*
X172624710Y-89764645D01*
X172624707Y-89764641D01*
X172512544Y-89652478D01*
X172512540Y-89652475D01*
X172380651Y-89564349D01*
X172380638Y-89564342D01*
X172234090Y-89503641D01*
X172234081Y-89503638D01*
X172078511Y-89472694D01*
X172078507Y-89472694D01*
X171919877Y-89472694D01*
X171919872Y-89472694D01*
X171764302Y-89503638D01*
X171764293Y-89503641D01*
X171617745Y-89564342D01*
X171617732Y-89564349D01*
X171485843Y-89652475D01*
X171485839Y-89652478D01*
X171378137Y-89760181D01*
X171316814Y-89793666D01*
X171290456Y-89796500D01*
X169740335Y-89796500D01*
X169673296Y-89776815D01*
X169652654Y-89760181D01*
X169544951Y-89652478D01*
X169544947Y-89652475D01*
X169413058Y-89564349D01*
X169413045Y-89564342D01*
X169266497Y-89503641D01*
X169266488Y-89503638D01*
X169110918Y-89472694D01*
X169110914Y-89472694D01*
X168952284Y-89472694D01*
X168952279Y-89472694D01*
X168796709Y-89503638D01*
X168796700Y-89503641D01*
X168650152Y-89564342D01*
X168650139Y-89564349D01*
X168518250Y-89652475D01*
X168518246Y-89652478D01*
X168406083Y-89764641D01*
X168406080Y-89764645D01*
X168317954Y-89896534D01*
X168317947Y-89896547D01*
X168257246Y-90043095D01*
X168257243Y-90043104D01*
X168226299Y-90198674D01*
X168226299Y-90357313D01*
X168257243Y-90512883D01*
X168257246Y-90512892D01*
X168307967Y-90635343D01*
X168315436Y-90704812D01*
X168307967Y-90730247D01*
X168257246Y-90852698D01*
X168257243Y-90852707D01*
X168226299Y-91008277D01*
X168226299Y-91166916D01*
X168257243Y-91322486D01*
X168257246Y-91322495D01*
X168276973Y-91370119D01*
X168303804Y-91434897D01*
X168307967Y-91444946D01*
X168315436Y-91514415D01*
X168307967Y-91539850D01*
X168257246Y-91662301D01*
X168257243Y-91662310D01*
X168226299Y-91817880D01*
X168226299Y-91976518D01*
X168253941Y-92115482D01*
X168247714Y-92185073D01*
X168204851Y-92240251D01*
X168138961Y-92263495D01*
X168132324Y-92263673D01*
X167993430Y-92263673D01*
X167841582Y-92263673D01*
X167694908Y-92302974D01*
X167694907Y-92302974D01*
X167694905Y-92302975D01*
X167694904Y-92302975D01*
X167563407Y-92378895D01*
X167563401Y-92378900D01*
X166827842Y-93114460D01*
X166766519Y-93147945D01*
X166740161Y-93150779D01*
X164464178Y-93150779D01*
X164397139Y-93131094D01*
X164351384Y-93078290D01*
X164341440Y-93009132D01*
X164342561Y-93002588D01*
X164365898Y-92885262D01*
X164365899Y-92885260D01*
X164365899Y-92727571D01*
X164365898Y-92727569D01*
X164354370Y-92669614D01*
X164335136Y-92572919D01*
X164333970Y-92570103D01*
X164274796Y-92427243D01*
X164274789Y-92427230D01*
X164187188Y-92296127D01*
X164187185Y-92296123D01*
X164178150Y-92287088D01*
X164144665Y-92225765D01*
X164149649Y-92156073D01*
X164178150Y-92111726D01*
X164193524Y-92096353D01*
X164281129Y-91965243D01*
X164341472Y-91819561D01*
X164372235Y-91664906D01*
X164372235Y-91507222D01*
X164372235Y-91507219D01*
X164372234Y-91507217D01*
X164359536Y-91443379D01*
X164341472Y-91352567D01*
X164294518Y-91239211D01*
X164287050Y-91169743D01*
X164294517Y-91144312D01*
X164349164Y-91012383D01*
X164379927Y-90857728D01*
X164379927Y-90754784D01*
X164399612Y-90687745D01*
X164416241Y-90667107D01*
X164525502Y-90557847D01*
X164613107Y-90426737D01*
X164673450Y-90281055D01*
X164704213Y-90126400D01*
X164704213Y-89968716D01*
X164704213Y-89968713D01*
X164704212Y-89968711D01*
X164696001Y-89927431D01*
X164673450Y-89814061D01*
X164665002Y-89793666D01*
X164613110Y-89668385D01*
X164613103Y-89668372D01*
X164525502Y-89537269D01*
X164525499Y-89537265D01*
X164414005Y-89425771D01*
X164414001Y-89425768D01*
X164282898Y-89338167D01*
X164282885Y-89338160D01*
X164137214Y-89277822D01*
X164137202Y-89277819D01*
X163982558Y-89247058D01*
X163982555Y-89247058D01*
X163981621Y-89247058D01*
X163981148Y-89246919D01*
X163976495Y-89246461D01*
X163976581Y-89245578D01*
X163914582Y-89227373D01*
X163868827Y-89174569D01*
X163858883Y-89105411D01*
X163887908Y-89041855D01*
X163934169Y-89008497D01*
X163955172Y-88999797D01*
X163955172Y-88999796D01*
X163955179Y-88999794D01*
X164086289Y-88912189D01*
X164141720Y-88856757D01*
X164203041Y-88823274D01*
X164229400Y-88820440D01*
X164815459Y-88820440D01*
X164882498Y-88840125D01*
X164903140Y-88856759D01*
X164911907Y-88865526D01*
X164911911Y-88865529D01*
X165043014Y-88953130D01*
X165043027Y-88953137D01*
X165155659Y-88999790D01*
X165188703Y-89013477D01*
X165305945Y-89036798D01*
X165343353Y-89044239D01*
X165343356Y-89044240D01*
X165343358Y-89044240D01*
X165501044Y-89044240D01*
X165501045Y-89044239D01*
X165655697Y-89013477D01*
X165801379Y-88953134D01*
X165932489Y-88865529D01*
X166043989Y-88754029D01*
X166131594Y-88622919D01*
X166191937Y-88477237D01*
X166222700Y-88322582D01*
X166222700Y-88164898D01*
X166222700Y-88164895D01*
X166222699Y-88164893D01*
X166210050Y-88101304D01*
X166191937Y-88010243D01*
X166150921Y-87911221D01*
X166131597Y-87864567D01*
X166131590Y-87864554D01*
X166043989Y-87733451D01*
X166043986Y-87733447D01*
X165932492Y-87621953D01*
X165932488Y-87621950D01*
X165801385Y-87534349D01*
X165801372Y-87534342D01*
X165655701Y-87474004D01*
X165655689Y-87474001D01*
X165501045Y-87443240D01*
X165501042Y-87443240D01*
X165343358Y-87443240D01*
X165343355Y-87443240D01*
X165188710Y-87474001D01*
X165188698Y-87474004D01*
X165043027Y-87534342D01*
X165043014Y-87534349D01*
X164911911Y-87621950D01*
X164911907Y-87621953D01*
X164903140Y-87630721D01*
X164841817Y-87664206D01*
X164815459Y-87667040D01*
X164121553Y-87667040D01*
X164054514Y-87647355D01*
X164052662Y-87646142D01*
X163955185Y-87581009D01*
X163955172Y-87581002D01*
X163809501Y-87520664D01*
X163809489Y-87520661D01*
X163654845Y-87489900D01*
X163654842Y-87489900D01*
X163497158Y-87489900D01*
X163497155Y-87489900D01*
X163342510Y-87520661D01*
X163342498Y-87520664D01*
X163196827Y-87581002D01*
X163196814Y-87581009D01*
X163065711Y-87668610D01*
X163065707Y-87668613D01*
X162954213Y-87780107D01*
X162954210Y-87780111D01*
X162866609Y-87911214D01*
X162866602Y-87911227D01*
X162806264Y-88056898D01*
X162806261Y-88056910D01*
X162775500Y-88211553D01*
X162775500Y-88369246D01*
X162806261Y-88523889D01*
X162806264Y-88523901D01*
X162866602Y-88669572D01*
X162866609Y-88669585D01*
X162956828Y-88804606D01*
X162977706Y-88871283D01*
X162959222Y-88938664D01*
X162907243Y-88985354D01*
X162853726Y-88997497D01*
X160729973Y-88997497D01*
X160578125Y-88997497D01*
X160431451Y-89036798D01*
X160431450Y-89036798D01*
X160431448Y-89036799D01*
X160431447Y-89036799D01*
X160299950Y-89112719D01*
X160299944Y-89112724D01*
X156647021Y-92765646D01*
X156585698Y-92799131D01*
X156516006Y-92794147D01*
X156490449Y-92781067D01*
X156436784Y-92745209D01*
X156436772Y-92745202D01*
X156291101Y-92684864D01*
X156291089Y-92684861D01*
X156136445Y-92654100D01*
X156136442Y-92654100D01*
X155978758Y-92654100D01*
X155978755Y-92654100D01*
X155824110Y-92684861D01*
X155824098Y-92684864D01*
X155678427Y-92745202D01*
X155678414Y-92745209D01*
X155547311Y-92832810D01*
X155547307Y-92832813D01*
X155435813Y-92944307D01*
X155435810Y-92944311D01*
X155348209Y-93075414D01*
X155348202Y-93075427D01*
X155287864Y-93221098D01*
X155287861Y-93221110D01*
X155257100Y-93375753D01*
X155257100Y-93533446D01*
X155287861Y-93688089D01*
X155287864Y-93688101D01*
X155348202Y-93833772D01*
X155348209Y-93833785D01*
X155433191Y-93960968D01*
X155435811Y-93964889D01*
X155444579Y-93973657D01*
X155478065Y-94034977D01*
X155480900Y-94061340D01*
X155480900Y-94914659D01*
X155461215Y-94981698D01*
X155444581Y-95002340D01*
X155435813Y-95011107D01*
X155435810Y-95011111D01*
X155348209Y-95142214D01*
X155348202Y-95142227D01*
X155287864Y-95287898D01*
X155287861Y-95287910D01*
X155257100Y-95442553D01*
X155257100Y-95600246D01*
X155287861Y-95754889D01*
X155287864Y-95754901D01*
X155348202Y-95900572D01*
X155348209Y-95900585D01*
X155435810Y-96031688D01*
X155435813Y-96031692D01*
X155547307Y-96143186D01*
X155547311Y-96143189D01*
X155678414Y-96230790D01*
X155678427Y-96230797D01*
X155798239Y-96280424D01*
X155824103Y-96291137D01*
X155882367Y-96302726D01*
X155984732Y-96323089D01*
X155984500Y-96324254D01*
X156043427Y-96348038D01*
X156083794Y-96405067D01*
X156090500Y-96445292D01*
X156090500Y-97855361D01*
X156070815Y-97922400D01*
X156054181Y-97943042D01*
X155138617Y-98858605D01*
X155138612Y-98858611D01*
X155062692Y-98990108D01*
X155062692Y-98990109D01*
X155062691Y-98990111D01*
X155062691Y-98990112D01*
X155043059Y-99063379D01*
X155023390Y-99136786D01*
X155023390Y-101235259D01*
X155003705Y-101302298D01*
X154987071Y-101322940D01*
X154978303Y-101331707D01*
X154978300Y-101331711D01*
X154890699Y-101462814D01*
X154890692Y-101462827D01*
X154830354Y-101608498D01*
X154830351Y-101608510D01*
X154799590Y-101763153D01*
X154799590Y-101920846D01*
X154830351Y-102075489D01*
X154830354Y-102075501D01*
X154890692Y-102221172D01*
X154890699Y-102221185D01*
X154978300Y-102352288D01*
X154978303Y-102352292D01*
X155089797Y-102463786D01*
X155089801Y-102463789D01*
X155195065Y-102534125D01*
X155239870Y-102587737D01*
X155248577Y-102657062D01*
X155240735Y-102684679D01*
X155179377Y-102832811D01*
X155179374Y-102832823D01*
X155148613Y-102987466D01*
X155148613Y-103007034D01*
X155128928Y-103074073D01*
X155076124Y-103119828D01*
X155024613Y-103131034D01*
X150897496Y-103131034D01*
X150830457Y-103111349D01*
X150784702Y-103058545D01*
X150782935Y-103054486D01*
X150739005Y-102948429D01*
X150738998Y-102948416D01*
X150651397Y-102817313D01*
X150651394Y-102817309D01*
X150539900Y-102705815D01*
X150539892Y-102705809D01*
X150445613Y-102642814D01*
X150400807Y-102589202D01*
X150392100Y-102519877D01*
X150392880Y-102515551D01*
X150403871Y-102460294D01*
X150407535Y-102441878D01*
X150407535Y-102284190D01*
X150407534Y-102284188D01*
X150395002Y-102221185D01*
X150376772Y-102129538D01*
X150354924Y-102076792D01*
X150316432Y-101983862D01*
X150316425Y-101983849D01*
X150228824Y-101852746D01*
X150228821Y-101852742D01*
X150117327Y-101741248D01*
X150117323Y-101741245D01*
X149986220Y-101653644D01*
X149986207Y-101653637D01*
X149840536Y-101593299D01*
X149840524Y-101593296D01*
X149685880Y-101562535D01*
X149685877Y-101562535D01*
X149673474Y-101562535D01*
X149606435Y-101542850D01*
X149585793Y-101526216D01*
X148245268Y-100185691D01*
X148211783Y-100124368D01*
X148211332Y-100073818D01*
X148233389Y-99962933D01*
X148233389Y-99805244D01*
X148233388Y-99805242D01*
X148226268Y-99769450D01*
X148202626Y-99650592D01*
X148187856Y-99614933D01*
X148142286Y-99504916D01*
X148142279Y-99504903D01*
X148054678Y-99373800D01*
X148054675Y-99373796D01*
X147943181Y-99262302D01*
X147943177Y-99262299D01*
X147812074Y-99174698D01*
X147812061Y-99174691D01*
X147666390Y-99114353D01*
X147666378Y-99114350D01*
X147511734Y-99083589D01*
X147511731Y-99083589D01*
X147354047Y-99083589D01*
X147354044Y-99083589D01*
X147199399Y-99114350D01*
X147199387Y-99114353D01*
X147053716Y-99174691D01*
X147053703Y-99174698D01*
X146922600Y-99262299D01*
X146922596Y-99262302D01*
X146811102Y-99373796D01*
X146811099Y-99373800D01*
X146723498Y-99504903D01*
X146723491Y-99504916D01*
X146663153Y-99650587D01*
X146663150Y-99650599D01*
X146632389Y-99805242D01*
X135762409Y-99805242D01*
X135762943Y-99804885D01*
X135850346Y-99717482D01*
X136116771Y-99451055D01*
X136178090Y-99417573D01*
X136180088Y-99417156D01*
X136287939Y-99395704D01*
X136412276Y-99344202D01*
X136433614Y-99335364D01*
X136433614Y-99335363D01*
X136433621Y-99335361D01*
X136564731Y-99247756D01*
X136676231Y-99136256D01*
X136763836Y-99005146D01*
X136770065Y-98990109D01*
X136786626Y-98950125D01*
X136824179Y-98859464D01*
X136854942Y-98704809D01*
X136854942Y-98547125D01*
X136854942Y-98547122D01*
X136854941Y-98547120D01*
X136849475Y-98519643D01*
X136824179Y-98392470D01*
X136824177Y-98392465D01*
X136763839Y-98246794D01*
X136763832Y-98246781D01*
X136676231Y-98115678D01*
X136676228Y-98115674D01*
X136564734Y-98004180D01*
X136564730Y-98004177D01*
X136433627Y-97916576D01*
X136433614Y-97916569D01*
X136287943Y-97856231D01*
X136287931Y-97856228D01*
X136133287Y-97825467D01*
X136133284Y-97825467D01*
X135975600Y-97825467D01*
X135975597Y-97825467D01*
X135820952Y-97856228D01*
X135820940Y-97856231D01*
X135675269Y-97916569D01*
X135675256Y-97916576D01*
X135544153Y-98004177D01*
X135544149Y-98004180D01*
X135432655Y-98115674D01*
X135432652Y-98115678D01*
X135345051Y-98246781D01*
X135345044Y-98246794D01*
X135284706Y-98392465D01*
X135284703Y-98392475D01*
X135265014Y-98491457D01*
X135232629Y-98553368D01*
X135171913Y-98587942D01*
X135102143Y-98584201D01*
X135095945Y-98581827D01*
X135013644Y-98547737D01*
X135013639Y-98547736D01*
X135013636Y-98547735D01*
X134858992Y-98516974D01*
X134858989Y-98516974D01*
X134701305Y-98516974D01*
X134701302Y-98516974D01*
X134546657Y-98547735D01*
X134546645Y-98547738D01*
X134400974Y-98608076D01*
X134400961Y-98608083D01*
X134269858Y-98695684D01*
X134269854Y-98695687D01*
X134158360Y-98807181D01*
X134158357Y-98807185D01*
X134070756Y-98938288D01*
X134070749Y-98938301D01*
X134010411Y-99083972D01*
X134010408Y-99083984D01*
X133979647Y-99238627D01*
X126488757Y-99238627D01*
X126494780Y-99208348D01*
X126496099Y-99201714D01*
X126496099Y-99044026D01*
X126496098Y-99044024D01*
X126485374Y-98990112D01*
X126465336Y-98889374D01*
X126425510Y-98793226D01*
X126418042Y-98723760D01*
X126425508Y-98698330D01*
X126484220Y-98556588D01*
X126514983Y-98401933D01*
X126514983Y-98244249D01*
X126514983Y-98244246D01*
X126514982Y-98244244D01*
X126496084Y-98149240D01*
X126484220Y-98089594D01*
X126483931Y-98088897D01*
X126423880Y-97943918D01*
X126423291Y-97942816D01*
X126423156Y-97942172D01*
X126421546Y-97938283D01*
X126422283Y-97937977D01*
X126409048Y-97874413D01*
X126418087Y-97836908D01*
X126442774Y-97777307D01*
X126465337Y-97722835D01*
X126496100Y-97568180D01*
X126496100Y-97410496D01*
X126496100Y-97410493D01*
X126496099Y-97410491D01*
X126495785Y-97408910D01*
X126465337Y-97255841D01*
X126412944Y-97129354D01*
X126405476Y-97059886D01*
X126412942Y-97034458D01*
X126465337Y-96907966D01*
X126496100Y-96753311D01*
X126496100Y-96595627D01*
X126496100Y-96595624D01*
X126496099Y-96595622D01*
X126475092Y-96490013D01*
X126465337Y-96440972D01*
X126412944Y-96314485D01*
X126405476Y-96245017D01*
X126412942Y-96219589D01*
X126465337Y-96093097D01*
X126496100Y-95938442D01*
X126496100Y-95780758D01*
X126496100Y-95780755D01*
X126496099Y-95780753D01*
X126481528Y-95707501D01*
X126465337Y-95626103D01*
X126447315Y-95582593D01*
X126404994Y-95480420D01*
X126372318Y-95431517D01*
X150031064Y-95431517D01*
X150031064Y-95589210D01*
X150061825Y-95743853D01*
X150061828Y-95743865D01*
X150122166Y-95889536D01*
X150122173Y-95889549D01*
X150209774Y-96020652D01*
X150209777Y-96020656D01*
X150321271Y-96132150D01*
X150321275Y-96132153D01*
X150452381Y-96219756D01*
X150454241Y-96220750D01*
X150483478Y-96242432D01*
X151677797Y-97436750D01*
X151704676Y-97476976D01*
X151710475Y-97490975D01*
X151710478Y-97490981D01*
X151798078Y-97622084D01*
X151798084Y-97622092D01*
X151909578Y-97733586D01*
X151909582Y-97733589D01*
X152040685Y-97821190D01*
X152040698Y-97821197D01*
X152169175Y-97874413D01*
X152186374Y-97881537D01*
X152283316Y-97900820D01*
X152341024Y-97912299D01*
X152341027Y-97912300D01*
X152341029Y-97912300D01*
X152498715Y-97912300D01*
X152498716Y-97912299D01*
X152653368Y-97881537D01*
X152799050Y-97821194D01*
X152930160Y-97733589D01*
X153041660Y-97622089D01*
X153129265Y-97490979D01*
X153132409Y-97483390D01*
X153167378Y-97398966D01*
X153189608Y-97345297D01*
X153220371Y-97190642D01*
X153220371Y-97032958D01*
X153220371Y-97032955D01*
X153220370Y-97032953D01*
X153206344Y-96962440D01*
X153189608Y-96878303D01*
X153189606Y-96878298D01*
X153129268Y-96732627D01*
X153129261Y-96732614D01*
X153041660Y-96601511D01*
X153041657Y-96601507D01*
X152930163Y-96490013D01*
X152930155Y-96490007D01*
X152799052Y-96402407D01*
X152799046Y-96402404D01*
X152785047Y-96396605D01*
X152744821Y-96369726D01*
X151582919Y-95207823D01*
X151556039Y-95167595D01*
X151540958Y-95131185D01*
X151540954Y-95131178D01*
X151453353Y-95000075D01*
X151453350Y-95000071D01*
X151341856Y-94888577D01*
X151341852Y-94888574D01*
X151210749Y-94800973D01*
X151210736Y-94800966D01*
X151065065Y-94740628D01*
X151065053Y-94740625D01*
X150910409Y-94709864D01*
X150910406Y-94709864D01*
X150752722Y-94709864D01*
X150752719Y-94709864D01*
X150598074Y-94740625D01*
X150598062Y-94740628D01*
X150452391Y-94800966D01*
X150452378Y-94800973D01*
X150321275Y-94888574D01*
X150321271Y-94888577D01*
X150209777Y-95000071D01*
X150209774Y-95000075D01*
X150122173Y-95131178D01*
X150122166Y-95131191D01*
X150061828Y-95276862D01*
X150061825Y-95276874D01*
X150031064Y-95431517D01*
X126372318Y-95431517D01*
X126317389Y-95349311D01*
X126317386Y-95349307D01*
X126205892Y-95237813D01*
X126205888Y-95237810D01*
X126074785Y-95150209D01*
X126074772Y-95150202D01*
X125929101Y-95089864D01*
X125929089Y-95089861D01*
X125774445Y-95059100D01*
X125774442Y-95059100D01*
X125616758Y-95059100D01*
X125616755Y-95059100D01*
X125462110Y-95089861D01*
X125462098Y-95089864D01*
X125316427Y-95150202D01*
X125316414Y-95150209D01*
X125185311Y-95237810D01*
X125185307Y-95237813D01*
X125176540Y-95246581D01*
X125115217Y-95280066D01*
X125088859Y-95282900D01*
X124796541Y-95282900D01*
X124729502Y-95263215D01*
X124708860Y-95246581D01*
X124700092Y-95237813D01*
X124700088Y-95237810D01*
X124568985Y-95150209D01*
X124568972Y-95150202D01*
X124423301Y-95089864D01*
X124423289Y-95089861D01*
X124268645Y-95059100D01*
X124268642Y-95059100D01*
X124110958Y-95059100D01*
X124110955Y-95059100D01*
X123956310Y-95089861D01*
X123956298Y-95089864D01*
X123810627Y-95150202D01*
X123810614Y-95150209D01*
X123679511Y-95237810D01*
X123679507Y-95237813D01*
X123568013Y-95349307D01*
X123568010Y-95349311D01*
X123480409Y-95480414D01*
X123480402Y-95480427D01*
X123420064Y-95626098D01*
X123420061Y-95626110D01*
X123389300Y-95780753D01*
X123389300Y-95938446D01*
X123420061Y-96093089D01*
X123420064Y-96093101D01*
X123469375Y-96212149D01*
X123476844Y-96281618D01*
X123469375Y-96307053D01*
X123420064Y-96426101D01*
X123420061Y-96426113D01*
X123389300Y-96580756D01*
X123389300Y-96738449D01*
X123420061Y-96893092D01*
X123420064Y-96893104D01*
X123469375Y-97012152D01*
X123476844Y-97081621D01*
X123469375Y-97107056D01*
X123420064Y-97226104D01*
X123420061Y-97226116D01*
X123389300Y-97380759D01*
X123389300Y-97538452D01*
X123420061Y-97693095D01*
X123420064Y-97693107D01*
X123477326Y-97831351D01*
X123484795Y-97900820D01*
X123477326Y-97926255D01*
X123420064Y-98064498D01*
X123420061Y-98064510D01*
X123389300Y-98219153D01*
X123389300Y-98376846D01*
X123420061Y-98531489D01*
X123420064Y-98531501D01*
X123469375Y-98650549D01*
X123476844Y-98720018D01*
X123469375Y-98745453D01*
X123420064Y-98864501D01*
X123420061Y-98864513D01*
X123389300Y-99019156D01*
X123389300Y-99176849D01*
X123420061Y-99331492D01*
X123420064Y-99331504D01*
X123469375Y-99450552D01*
X123476844Y-99520021D01*
X123469375Y-99545456D01*
X123420064Y-99664504D01*
X123420061Y-99664516D01*
X123389300Y-99819159D01*
X123389300Y-99976852D01*
X123420061Y-100131495D01*
X123420064Y-100131507D01*
X123469375Y-100250555D01*
X123476844Y-100320024D01*
X123469375Y-100345459D01*
X123420064Y-100464507D01*
X123420061Y-100464519D01*
X123389300Y-100619162D01*
X123389300Y-100776855D01*
X123420061Y-100931498D01*
X123420063Y-100931506D01*
X123421578Y-100935163D01*
X123469375Y-101050558D01*
X123476844Y-101120027D01*
X123469375Y-101145462D01*
X123420064Y-101264510D01*
X123420061Y-101264522D01*
X123389300Y-101419165D01*
X123389300Y-101576858D01*
X123420061Y-101731501D01*
X123420064Y-101731513D01*
X123469375Y-101850561D01*
X123476844Y-101920030D01*
X123469375Y-101945465D01*
X123420064Y-102064513D01*
X123420061Y-102064525D01*
X123389300Y-102219168D01*
X123389300Y-102376861D01*
X123420061Y-102531504D01*
X123420064Y-102531516D01*
X123469375Y-102650564D01*
X123476844Y-102720033D01*
X123469375Y-102745468D01*
X123420064Y-102864516D01*
X123420061Y-102864528D01*
X123389300Y-103019171D01*
X123389300Y-103176864D01*
X123420061Y-103331507D01*
X123420064Y-103331519D01*
X123469375Y-103450567D01*
X123476844Y-103520036D01*
X123469375Y-103545471D01*
X123420064Y-103664519D01*
X123420061Y-103664531D01*
X123389300Y-103819174D01*
X123389300Y-103976867D01*
X123420061Y-104131510D01*
X123420063Y-104131518D01*
X123443475Y-104188041D01*
X123465404Y-104240981D01*
X123472873Y-104310451D01*
X123465404Y-104335886D01*
X123412138Y-104464482D01*
X123412135Y-104464494D01*
X123381374Y-104619137D01*
X121421779Y-104619137D01*
X121408446Y-104534957D01*
X121342757Y-104332788D01*
X121246251Y-104143384D01*
X121246249Y-104143381D01*
X121246248Y-104143379D01*
X121121309Y-103971413D01*
X120970986Y-103821090D01*
X120799020Y-103696151D01*
X120798315Y-103695791D01*
X120790254Y-103691685D01*
X120739459Y-103643712D01*
X120722663Y-103575892D01*
X120745199Y-103509756D01*
X120790254Y-103470715D01*
X120799016Y-103466251D01*
X120820989Y-103450286D01*
X120970986Y-103341309D01*
X120970988Y-103341306D01*
X120970992Y-103341304D01*
X121121304Y-103190992D01*
X121121306Y-103190988D01*
X121121309Y-103190986D01*
X121238885Y-103029155D01*
X121246251Y-103019016D01*
X121342757Y-102829612D01*
X121408446Y-102627443D01*
X121441700Y-102417487D01*
X121441700Y-102204913D01*
X121408446Y-101994957D01*
X121342757Y-101792788D01*
X121246251Y-101603384D01*
X121246249Y-101603381D01*
X121246248Y-101603379D01*
X121121309Y-101431413D01*
X120970986Y-101281090D01*
X120799020Y-101156151D01*
X120798315Y-101155791D01*
X120790254Y-101151685D01*
X120739459Y-101103712D01*
X120722663Y-101035892D01*
X120745199Y-100969756D01*
X120790254Y-100930715D01*
X120799016Y-100926251D01*
X120894177Y-100857113D01*
X120970986Y-100801309D01*
X120970988Y-100801306D01*
X120970992Y-100801304D01*
X121121304Y-100650992D01*
X121121306Y-100650988D01*
X121121309Y-100650986D01*
X121246248Y-100479020D01*
X121246247Y-100479020D01*
X121246251Y-100479016D01*
X121342757Y-100289612D01*
X121408446Y-100087443D01*
X121441700Y-99877487D01*
X121441700Y-99664913D01*
X121408446Y-99454957D01*
X121342757Y-99252788D01*
X121246251Y-99063384D01*
X121246249Y-99063381D01*
X121246248Y-99063379D01*
X121121309Y-98891413D01*
X120970986Y-98741090D01*
X120799020Y-98616151D01*
X120798315Y-98615791D01*
X120790254Y-98611685D01*
X120739459Y-98563712D01*
X120722663Y-98495892D01*
X120745199Y-98429756D01*
X120790254Y-98390715D01*
X120799016Y-98386251D01*
X120820989Y-98370286D01*
X120970986Y-98261309D01*
X120970988Y-98261306D01*
X120970992Y-98261304D01*
X121121304Y-98110992D01*
X121121306Y-98110988D01*
X121121309Y-98110986D01*
X121230286Y-97960989D01*
X121246251Y-97939016D01*
X121342757Y-97749612D01*
X121408446Y-97547443D01*
X121441700Y-97337487D01*
X121441700Y-97124913D01*
X121408446Y-96914957D01*
X121342757Y-96712788D01*
X121246251Y-96523384D01*
X121246249Y-96523381D01*
X121246248Y-96523379D01*
X121121309Y-96351413D01*
X120970986Y-96201090D01*
X120799020Y-96076151D01*
X120798315Y-96075791D01*
X120790254Y-96071685D01*
X120739459Y-96023712D01*
X120722663Y-95955892D01*
X120745199Y-95889756D01*
X120790254Y-95850715D01*
X120799016Y-95846251D01*
X120889160Y-95780758D01*
X120970986Y-95721309D01*
X120970988Y-95721306D01*
X120970992Y-95721304D01*
X121121304Y-95570992D01*
X121121306Y-95570988D01*
X121121309Y-95570986D01*
X121246248Y-95399020D01*
X121246247Y-95399020D01*
X121246251Y-95399016D01*
X121342757Y-95209612D01*
X121408446Y-95007443D01*
X121441700Y-94797487D01*
X121441700Y-94584913D01*
X121408446Y-94374957D01*
X121342757Y-94172788D01*
X121246251Y-93983384D01*
X121246249Y-93983381D01*
X121246248Y-93983379D01*
X121121309Y-93811413D01*
X120970986Y-93661090D01*
X120799020Y-93536151D01*
X120793703Y-93533442D01*
X120790254Y-93531685D01*
X120739459Y-93483712D01*
X120722663Y-93415892D01*
X120745199Y-93349756D01*
X120790254Y-93310715D01*
X120799016Y-93306251D01*
X120915218Y-93221826D01*
X120970986Y-93181309D01*
X120970988Y-93181306D01*
X120970992Y-93181304D01*
X121121304Y-93030992D01*
X121121306Y-93030988D01*
X121121309Y-93030986D01*
X121246248Y-92859020D01*
X121246247Y-92859020D01*
X121246251Y-92859016D01*
X121342757Y-92669612D01*
X121408446Y-92467443D01*
X121441700Y-92257487D01*
X121441700Y-92044913D01*
X121408446Y-91834957D01*
X121342757Y-91632788D01*
X121246251Y-91443384D01*
X121246249Y-91443381D01*
X121246248Y-91443379D01*
X121124317Y-91275554D01*
X121124314Y-91275551D01*
X121121304Y-91271408D01*
X121058649Y-91208753D01*
X123389300Y-91208753D01*
X123389300Y-91366446D01*
X123420061Y-91521089D01*
X123420064Y-91521101D01*
X123469375Y-91640149D01*
X123476844Y-91709618D01*
X123469375Y-91735053D01*
X123420064Y-91854101D01*
X123420061Y-91854113D01*
X123389300Y-92008756D01*
X123389300Y-92166449D01*
X123420061Y-92321092D01*
X123420064Y-92321104D01*
X123480402Y-92466775D01*
X123480409Y-92466788D01*
X123568010Y-92597891D01*
X123568013Y-92597895D01*
X123679507Y-92709389D01*
X123679511Y-92709392D01*
X123810614Y-92796993D01*
X123810627Y-92797000D01*
X123897084Y-92832811D01*
X123956303Y-92857340D01*
X124110953Y-92888102D01*
X124110956Y-92888103D01*
X124110958Y-92888103D01*
X124268644Y-92888103D01*
X124268645Y-92888102D01*
X124423297Y-92857340D01*
X124568979Y-92796997D01*
X124700089Y-92709392D01*
X124744487Y-92664994D01*
X124805810Y-92631508D01*
X124832169Y-92628674D01*
X125123361Y-92628674D01*
X125190400Y-92648359D01*
X125211042Y-92664993D01*
X125219809Y-92673760D01*
X125219813Y-92673763D01*
X125350916Y-92761364D01*
X125350929Y-92761371D01*
X125496600Y-92821709D01*
X125496605Y-92821711D01*
X125651255Y-92852473D01*
X125651258Y-92852474D01*
X125651260Y-92852474D01*
X125808946Y-92852474D01*
X125808947Y-92852473D01*
X125963599Y-92821711D01*
X126109281Y-92761368D01*
X126240391Y-92673763D01*
X126351891Y-92562263D01*
X126439496Y-92431153D01*
X126499839Y-92285471D01*
X126521115Y-92178509D01*
X148807700Y-92178509D01*
X148807700Y-92966761D01*
X148807700Y-93118609D01*
X148835713Y-93223157D01*
X148847002Y-93265285D01*
X148847002Y-93265286D01*
X148922922Y-93396783D01*
X148922927Y-93396789D01*
X149132215Y-93606077D01*
X149165700Y-93667400D01*
X149167470Y-93683864D01*
X149167937Y-93683819D01*
X149168534Y-93689883D01*
X149199295Y-93844526D01*
X149199298Y-93844538D01*
X149259636Y-93990209D01*
X149259643Y-93990222D01*
X149347244Y-94121325D01*
X149347247Y-94121329D01*
X149458741Y-94232823D01*
X149458745Y-94232826D01*
X149589848Y-94320427D01*
X149589861Y-94320434D01*
X149734303Y-94380263D01*
X149735537Y-94380774D01*
X149890187Y-94411536D01*
X149890190Y-94411537D01*
X149890192Y-94411537D01*
X150047878Y-94411537D01*
X150047879Y-94411536D01*
X150202531Y-94380774D01*
X150348213Y-94320431D01*
X150479323Y-94232826D01*
X150590823Y-94121326D01*
X150678428Y-93990216D01*
X150738771Y-93844534D01*
X150769534Y-93689879D01*
X150769534Y-93532195D01*
X150769534Y-93532192D01*
X150769533Y-93532190D01*
X150748512Y-93426512D01*
X150738771Y-93377540D01*
X150684200Y-93245794D01*
X150676732Y-93176329D01*
X150684198Y-93150899D01*
X150731337Y-93037097D01*
X150762100Y-92882442D01*
X150762100Y-92724758D01*
X150762100Y-92724755D01*
X150741901Y-92623211D01*
X150748128Y-92553619D01*
X150775834Y-92511341D01*
X151154758Y-92132419D01*
X151216081Y-92098934D01*
X151242439Y-92096100D01*
X151260116Y-92096100D01*
X151260117Y-92096099D01*
X151311975Y-92085784D01*
X151415689Y-92065155D01*
X151415692Y-92065153D01*
X151415697Y-92065153D01*
X151540780Y-92013342D01*
X151562246Y-92004451D01*
X151562246Y-92004450D01*
X151562253Y-92004448D01*
X151694149Y-91916318D01*
X151806318Y-91804149D01*
X151894448Y-91672253D01*
X151895868Y-91668826D01*
X151939127Y-91564387D01*
X151955153Y-91525697D01*
X151956068Y-91521101D01*
X151986099Y-91370119D01*
X151986100Y-91370116D01*
X151986100Y-91211484D01*
X151986099Y-91211480D01*
X151955155Y-91055910D01*
X151955152Y-91055901D01*
X151894451Y-90909353D01*
X151894444Y-90909340D01*
X151806318Y-90777451D01*
X151806315Y-90777447D01*
X151694152Y-90665284D01*
X151694148Y-90665281D01*
X151562259Y-90577155D01*
X151562246Y-90577148D01*
X151415698Y-90516447D01*
X151415689Y-90516444D01*
X151260119Y-90485500D01*
X151260115Y-90485500D01*
X151101485Y-90485500D01*
X151101480Y-90485500D01*
X150945910Y-90516444D01*
X150945906Y-90516446D01*
X150945904Y-90516446D01*
X150945903Y-90516447D01*
X150898183Y-90536212D01*
X150854193Y-90554434D01*
X150784724Y-90561902D01*
X150759290Y-90554433D01*
X150610002Y-90492596D01*
X150609990Y-90492593D01*
X150455346Y-90461832D01*
X150455343Y-90461832D01*
X150297659Y-90461832D01*
X150297656Y-90461832D01*
X150143011Y-90492593D01*
X150142999Y-90492596D01*
X149997328Y-90552934D01*
X149997315Y-90552941D01*
X149866212Y-90640542D01*
X149866208Y-90640545D01*
X149754714Y-90752039D01*
X149754711Y-90752043D01*
X149667110Y-90883146D01*
X149667103Y-90883159D01*
X149606765Y-91028830D01*
X149606762Y-91028842D01*
X149576001Y-91183485D01*
X149576001Y-91195893D01*
X149556316Y-91262932D01*
X149539682Y-91283574D01*
X148922927Y-91900328D01*
X148922922Y-91900334D01*
X148847002Y-92031831D01*
X148847002Y-92031832D01*
X148847001Y-92031834D01*
X148847001Y-92031835D01*
X148807700Y-92178509D01*
X126521115Y-92178509D01*
X126530602Y-92130816D01*
X126530602Y-91973132D01*
X126530602Y-91973129D01*
X126530601Y-91973127D01*
X126516120Y-91900328D01*
X126499839Y-91818477D01*
X126499592Y-91817880D01*
X126439497Y-91672797D01*
X126438157Y-91670290D01*
X126437852Y-91668826D01*
X126437165Y-91667167D01*
X126437479Y-91667036D01*
X126423917Y-91601887D01*
X126432956Y-91564387D01*
X126465337Y-91486213D01*
X126496100Y-91331558D01*
X126496100Y-91173874D01*
X126496100Y-91173871D01*
X126496099Y-91173869D01*
X126485602Y-91121096D01*
X126465337Y-91019219D01*
X126465335Y-91019214D01*
X126404997Y-90873543D01*
X126404990Y-90873530D01*
X126317389Y-90742427D01*
X126317386Y-90742423D01*
X126205892Y-90630929D01*
X126205888Y-90630926D01*
X126074785Y-90543325D01*
X126074772Y-90543318D01*
X125929101Y-90482980D01*
X125929089Y-90482977D01*
X125774445Y-90452216D01*
X125774442Y-90452216D01*
X125616758Y-90452216D01*
X125616755Y-90452216D01*
X125462110Y-90482977D01*
X125462098Y-90482980D01*
X125316427Y-90543318D01*
X125316414Y-90543325D01*
X125185311Y-90630926D01*
X125185307Y-90630929D01*
X125176540Y-90639697D01*
X125115217Y-90673182D01*
X125088859Y-90676016D01*
X124752977Y-90676016D01*
X124685938Y-90656331D01*
X124684086Y-90655118D01*
X124568985Y-90578209D01*
X124568972Y-90578202D01*
X124423301Y-90517864D01*
X124423289Y-90517861D01*
X124268645Y-90487100D01*
X124268642Y-90487100D01*
X124110958Y-90487100D01*
X124110955Y-90487100D01*
X123956310Y-90517861D01*
X123956298Y-90517864D01*
X123810627Y-90578202D01*
X123810614Y-90578209D01*
X123679511Y-90665810D01*
X123679507Y-90665813D01*
X123568013Y-90777307D01*
X123568010Y-90777311D01*
X123480409Y-90908414D01*
X123480402Y-90908427D01*
X123420064Y-91054098D01*
X123420061Y-91054110D01*
X123389300Y-91208753D01*
X121058649Y-91208753D01*
X120970992Y-91121096D01*
X120970986Y-91121090D01*
X120799020Y-90996151D01*
X120798315Y-90995791D01*
X120790254Y-90991685D01*
X120739459Y-90943712D01*
X120722663Y-90875892D01*
X120745199Y-90809756D01*
X120790254Y-90770715D01*
X120799016Y-90766251D01*
X120890143Y-90700044D01*
X120970986Y-90641309D01*
X120970988Y-90641306D01*
X120970992Y-90641304D01*
X121121304Y-90490992D01*
X121121306Y-90490988D01*
X121121309Y-90490986D01*
X121246248Y-90319020D01*
X121246247Y-90319020D01*
X121246251Y-90319016D01*
X121342757Y-90129612D01*
X121408446Y-89927443D01*
X121441700Y-89717487D01*
X121441700Y-89504913D01*
X121408446Y-89294957D01*
X121342757Y-89092788D01*
X121246251Y-88903384D01*
X121246249Y-88903381D01*
X121246248Y-88903379D01*
X121121309Y-88731413D01*
X120970986Y-88581090D01*
X120799020Y-88456151D01*
X120798315Y-88455791D01*
X120790254Y-88451685D01*
X120739459Y-88403712D01*
X120722663Y-88335892D01*
X120745199Y-88269756D01*
X120790254Y-88230715D01*
X120799016Y-88226251D01*
X120883469Y-88164893D01*
X120970986Y-88101309D01*
X120970988Y-88101306D01*
X120970992Y-88101304D01*
X121121304Y-87950992D01*
X121121306Y-87950988D01*
X121121309Y-87950986D01*
X121246248Y-87779020D01*
X121246247Y-87779020D01*
X121246251Y-87779016D01*
X121342757Y-87589612D01*
X121408446Y-87387443D01*
X121441700Y-87177487D01*
X121441700Y-86964913D01*
X121408446Y-86754957D01*
X121342757Y-86552788D01*
X121246251Y-86363384D01*
X121246249Y-86363381D01*
X121246248Y-86363379D01*
X121121309Y-86191413D01*
X120970986Y-86041090D01*
X120799020Y-85916151D01*
X120798315Y-85915791D01*
X120790254Y-85911685D01*
X120739459Y-85863712D01*
X120722663Y-85795892D01*
X120745199Y-85729756D01*
X120790254Y-85690715D01*
X120799016Y-85686251D01*
X120820989Y-85670286D01*
X120970986Y-85561309D01*
X120970988Y-85561306D01*
X120970992Y-85561304D01*
X121121304Y-85410992D01*
X121121306Y-85410988D01*
X121121309Y-85410986D01*
X121246248Y-85239020D01*
X121246247Y-85239020D01*
X121246251Y-85239016D01*
X121342757Y-85049612D01*
X121408446Y-84847443D01*
X121441700Y-84637487D01*
X121441700Y-84424913D01*
X121408446Y-84214957D01*
X121368019Y-84090535D01*
X126513100Y-84090535D01*
X126513100Y-85886270D01*
X126513101Y-85886276D01*
X126519508Y-85945883D01*
X126569802Y-86080728D01*
X126569806Y-86080735D01*
X126656052Y-86195944D01*
X126656055Y-86195947D01*
X126771264Y-86282193D01*
X126771271Y-86282197D01*
X126816218Y-86298961D01*
X126906117Y-86332491D01*
X126965727Y-86338900D01*
X126976285Y-86338899D01*
X127043323Y-86358579D01*
X127063972Y-86375218D01*
X127734191Y-87045437D01*
X127670607Y-87062475D01*
X127556593Y-87128301D01*
X127463501Y-87221393D01*
X127397675Y-87335407D01*
X127380637Y-87398991D01*
X126748328Y-86766682D01*
X126748327Y-86766682D01*
X126708980Y-86820839D01*
X126612504Y-87010182D01*
X126546842Y-87212269D01*
X126546842Y-87212272D01*
X126513600Y-87422153D01*
X126513600Y-87634646D01*
X126546842Y-87844527D01*
X126546842Y-87844530D01*
X126612504Y-88046617D01*
X126708975Y-88235950D01*
X126748328Y-88290116D01*
X127380637Y-87657808D01*
X127397675Y-87721393D01*
X127463501Y-87835407D01*
X127556593Y-87928499D01*
X127670607Y-87994325D01*
X127734190Y-88011362D01*
X127101882Y-88643669D01*
X127101882Y-88643670D01*
X127156052Y-88683026D01*
X127156051Y-88683026D01*
X127165095Y-88687634D01*
X127215892Y-88735608D01*
X127232687Y-88803429D01*
X127210150Y-88869564D01*
X127165099Y-88908602D01*
X127155782Y-88913349D01*
X126983813Y-89038290D01*
X126833490Y-89188613D01*
X126708551Y-89360579D01*
X126612044Y-89549985D01*
X126546353Y-89752160D01*
X126513100Y-89962113D01*
X126513100Y-90174686D01*
X126542024Y-90357309D01*
X126546354Y-90384643D01*
X126609710Y-90579633D01*
X126612044Y-90586814D01*
X126708551Y-90776220D01*
X126833490Y-90948186D01*
X126983813Y-91098509D01*
X127155779Y-91223448D01*
X127155781Y-91223449D01*
X127155784Y-91223451D01*
X127345188Y-91319957D01*
X127547357Y-91385646D01*
X127757313Y-91418900D01*
X127757314Y-91418900D01*
X127969886Y-91418900D01*
X127969887Y-91418900D01*
X128179843Y-91385646D01*
X128382012Y-91319957D01*
X128571416Y-91223451D01*
X128626425Y-91183485D01*
X128743386Y-91098509D01*
X128743388Y-91098506D01*
X128743392Y-91098504D01*
X128893704Y-90948192D01*
X128893706Y-90948188D01*
X128893709Y-90948186D01*
X129018648Y-90776220D01*
X129018647Y-90776220D01*
X129018651Y-90776216D01*
X129115157Y-90586812D01*
X129180846Y-90384643D01*
X129214100Y-90174687D01*
X129214100Y-89962113D01*
X129180846Y-89752157D01*
X129115157Y-89549988D01*
X129018651Y-89360584D01*
X129018649Y-89360581D01*
X129018648Y-89360579D01*
X128893709Y-89188613D01*
X128743386Y-89038290D01*
X128571417Y-88913349D01*
X128562104Y-88908604D01*
X128511307Y-88860630D01*
X128494512Y-88792809D01*
X128517049Y-88726674D01*
X128562107Y-88687632D01*
X128571155Y-88683022D01*
X128625316Y-88643670D01*
X128625317Y-88643670D01*
X127993008Y-88011362D01*
X128056593Y-87994325D01*
X128170607Y-87928499D01*
X128263699Y-87835407D01*
X128329525Y-87721393D01*
X128346562Y-87657808D01*
X128978870Y-88290117D01*
X128978870Y-88290116D01*
X129018222Y-88235954D01*
X129114695Y-88046617D01*
X129180357Y-87844530D01*
X129180357Y-87844527D01*
X129213600Y-87634646D01*
X129213600Y-87422153D01*
X129180357Y-87212272D01*
X129180357Y-87212269D01*
X129114695Y-87010182D01*
X129018224Y-86820849D01*
X128978870Y-86766682D01*
X128978869Y-86766682D01*
X128346562Y-87398990D01*
X128329525Y-87335407D01*
X128263699Y-87221393D01*
X128170607Y-87128301D01*
X128056593Y-87062475D01*
X127993009Y-87045437D01*
X128663227Y-86375218D01*
X128724550Y-86341733D01*
X128750907Y-86338899D01*
X128761472Y-86338899D01*
X128821083Y-86332491D01*
X128955931Y-86282196D01*
X129071146Y-86195946D01*
X129157396Y-86080731D01*
X129207691Y-85945883D01*
X129214100Y-85886273D01*
X129214099Y-84090528D01*
X129207691Y-84030917D01*
X129200929Y-84012788D01*
X129157397Y-83896071D01*
X129157393Y-83896064D01*
X129071147Y-83780855D01*
X129071144Y-83780852D01*
X128955935Y-83694606D01*
X128955928Y-83694602D01*
X128821082Y-83644308D01*
X128821083Y-83644308D01*
X128761483Y-83637901D01*
X128761481Y-83637900D01*
X128761473Y-83637900D01*
X128761464Y-83637900D01*
X126965729Y-83637900D01*
X126965723Y-83637901D01*
X126906116Y-83644308D01*
X126771271Y-83694602D01*
X126771264Y-83694606D01*
X126656055Y-83780852D01*
X126656052Y-83780855D01*
X126569806Y-83896064D01*
X126569802Y-83896071D01*
X126519508Y-84030917D01*
X126513101Y-84090516D01*
X126513101Y-84090523D01*
X126513100Y-84090535D01*
X121368019Y-84090535D01*
X121342757Y-84012788D01*
X121246251Y-83823384D01*
X121246249Y-83823381D01*
X121246248Y-83823379D01*
X121121309Y-83651413D01*
X120970986Y-83501090D01*
X120799020Y-83376151D01*
X120798315Y-83375791D01*
X120790254Y-83371685D01*
X120739459Y-83323712D01*
X120722663Y-83255892D01*
X120745199Y-83189756D01*
X120790254Y-83150715D01*
X120799016Y-83146251D01*
X120911766Y-83064334D01*
X120970986Y-83021309D01*
X120970988Y-83021306D01*
X120970992Y-83021304D01*
X121121304Y-82870992D01*
X121121306Y-82870988D01*
X121121309Y-82870986D01*
X121246248Y-82699020D01*
X121246247Y-82699020D01*
X121246251Y-82699016D01*
X121342757Y-82509612D01*
X121408446Y-82307443D01*
X121441700Y-82097487D01*
X121441700Y-81884913D01*
X121436122Y-81849697D01*
X143090270Y-81849697D01*
X143090270Y-82007390D01*
X143121031Y-82162033D01*
X143121034Y-82162045D01*
X143181372Y-82307716D01*
X143181379Y-82307729D01*
X143268980Y-82438832D01*
X143268983Y-82438836D01*
X143380477Y-82550330D01*
X143380481Y-82550333D01*
X143511584Y-82637934D01*
X143511597Y-82637941D01*
X143657268Y-82698279D01*
X143657273Y-82698281D01*
X143811923Y-82729043D01*
X143811926Y-82729044D01*
X143811928Y-82729044D01*
X143888905Y-82729044D01*
X143955944Y-82748729D01*
X143976586Y-82765363D01*
X144198216Y-82986993D01*
X144231701Y-83048316D01*
X144234535Y-83074674D01*
X144234535Y-83087081D01*
X144265296Y-83241724D01*
X144265299Y-83241736D01*
X144325637Y-83387407D01*
X144325644Y-83387420D01*
X144413245Y-83518523D01*
X144413248Y-83518527D01*
X144524742Y-83630021D01*
X144524746Y-83630024D01*
X144655849Y-83717625D01*
X144655862Y-83717632D01*
X144801533Y-83777970D01*
X144801538Y-83777972D01*
X144956188Y-83808734D01*
X144956191Y-83808735D01*
X144956193Y-83808735D01*
X145113879Y-83808735D01*
X145113880Y-83808734D01*
X145268532Y-83777972D01*
X145414214Y-83717629D01*
X145545324Y-83630024D01*
X145656824Y-83518524D01*
X145744429Y-83387414D01*
X145744430Y-83387411D01*
X145744432Y-83387408D01*
X145793741Y-83268363D01*
X145837581Y-83213959D01*
X145860850Y-83201254D01*
X145979895Y-83151945D01*
X145979898Y-83151943D01*
X145979901Y-83151942D01*
X146111011Y-83064337D01*
X146222511Y-82952837D01*
X146310116Y-82821727D01*
X146370459Y-82676045D01*
X146401222Y-82521390D01*
X146401222Y-82363706D01*
X146401222Y-82363703D01*
X146401221Y-82363701D01*
X146390085Y-82307716D01*
X146370459Y-82209051D01*
X146324248Y-82097486D01*
X146310119Y-82063375D01*
X146310112Y-82063362D01*
X146222511Y-81932259D01*
X146222508Y-81932255D01*
X146111014Y-81820761D01*
X146111010Y-81820758D01*
X145979907Y-81733157D01*
X145979894Y-81733150D01*
X145834223Y-81672812D01*
X145834211Y-81672809D01*
X145679567Y-81642048D01*
X145679564Y-81642048D01*
X145667161Y-81642048D01*
X145600122Y-81622363D01*
X145579480Y-81605729D01*
X145283353Y-81309602D01*
X145249868Y-81248279D01*
X145249444Y-81246246D01*
X145226194Y-81129360D01*
X145215163Y-81102729D01*
X145165854Y-80983684D01*
X145165847Y-80983671D01*
X145078246Y-80852568D01*
X145078243Y-80852564D01*
X144966749Y-80741070D01*
X144966745Y-80741067D01*
X144835642Y-80653466D01*
X144835629Y-80653459D01*
X144689958Y-80593121D01*
X144689946Y-80593118D01*
X144535302Y-80562357D01*
X144535299Y-80562357D01*
X144377615Y-80562357D01*
X144377612Y-80562357D01*
X144222967Y-80593118D01*
X144222955Y-80593121D01*
X144077284Y-80653459D01*
X144077271Y-80653466D01*
X143946168Y-80741067D01*
X143946164Y-80741070D01*
X143834670Y-80852564D01*
X143834667Y-80852568D01*
X143747066Y-80983671D01*
X143747061Y-80983681D01*
X143697750Y-81102729D01*
X143653909Y-81157132D01*
X143630642Y-81169837D01*
X143511594Y-81219148D01*
X143511584Y-81219153D01*
X143380481Y-81306754D01*
X143380477Y-81306757D01*
X143268983Y-81418251D01*
X143268980Y-81418255D01*
X143181379Y-81549358D01*
X143181372Y-81549371D01*
X143121034Y-81695042D01*
X143121031Y-81695054D01*
X143090270Y-81849697D01*
X121436122Y-81849697D01*
X121408446Y-81674957D01*
X121342757Y-81472788D01*
X121246251Y-81283384D01*
X121246249Y-81283381D01*
X121246248Y-81283379D01*
X121121309Y-81111413D01*
X120970986Y-80961090D01*
X120799020Y-80836151D01*
X120798315Y-80835791D01*
X120790254Y-80831685D01*
X120739459Y-80783712D01*
X120722663Y-80715892D01*
X120745199Y-80649756D01*
X120790254Y-80610715D01*
X120799016Y-80606251D01*
X120820989Y-80590286D01*
X120970986Y-80481309D01*
X120970988Y-80481306D01*
X120970992Y-80481304D01*
X121121304Y-80330992D01*
X121121306Y-80330988D01*
X121121309Y-80330986D01*
X121246248Y-80159020D01*
X121246247Y-80159020D01*
X121246251Y-80159016D01*
X121342757Y-79969612D01*
X121408446Y-79767443D01*
X121441700Y-79557487D01*
X121441700Y-79344913D01*
X121408446Y-79134957D01*
X121342757Y-78932788D01*
X121246251Y-78743384D01*
X121246249Y-78743381D01*
X121246248Y-78743379D01*
X121121309Y-78571413D01*
X120970986Y-78421090D01*
X120799020Y-78296151D01*
X120798315Y-78295791D01*
X120790254Y-78291685D01*
X120739459Y-78243712D01*
X120722663Y-78175892D01*
X120745199Y-78109756D01*
X120790254Y-78070715D01*
X120799016Y-78066251D01*
X120820989Y-78050286D01*
X120970986Y-77941309D01*
X120970988Y-77941306D01*
X120970992Y-77941304D01*
X121121304Y-77790992D01*
X121121306Y-77790988D01*
X121121309Y-77790986D01*
X121246248Y-77619020D01*
X121246247Y-77619020D01*
X121246251Y-77619016D01*
X121342757Y-77429612D01*
X121408446Y-77227443D01*
X121441700Y-77017487D01*
X121441700Y-76887349D01*
X144596384Y-76887349D01*
X144596384Y-77040251D01*
X144626064Y-77151019D01*
X144635958Y-77187943D01*
X144635959Y-77187944D01*
X144712405Y-77320354D01*
X144712407Y-77320357D01*
X144712408Y-77320358D01*
X144820526Y-77428476D01*
X144820527Y-77428477D01*
X144820529Y-77428478D01*
X144822497Y-77429614D01*
X144952942Y-77504926D01*
X145100633Y-77544500D01*
X145100636Y-77544500D01*
X145253532Y-77544500D01*
X145253535Y-77544500D01*
X145401226Y-77504926D01*
X145533642Y-77428476D01*
X145641760Y-77320358D01*
X145718210Y-77187942D01*
X145757784Y-77040251D01*
X145757784Y-76897872D01*
X146265585Y-76897872D01*
X146265585Y-77055565D01*
X146296346Y-77210208D01*
X146296349Y-77210220D01*
X146356687Y-77355891D01*
X146356694Y-77355904D01*
X146444295Y-77487007D01*
X146444298Y-77487011D01*
X146555792Y-77598505D01*
X146555796Y-77598508D01*
X146686899Y-77686109D01*
X146686912Y-77686116D01*
X146797055Y-77731738D01*
X146832588Y-77746456D01*
X146987238Y-77777218D01*
X146987241Y-77777219D01*
X146987243Y-77777219D01*
X147144929Y-77777219D01*
X147144930Y-77777218D01*
X147299582Y-77746456D01*
X147445264Y-77686113D01*
X147576374Y-77598508D01*
X147576373Y-77598508D01*
X147581439Y-77595124D01*
X147582412Y-77596581D01*
X147639059Y-77572507D01*
X147707929Y-77584282D01*
X147722334Y-77592568D01*
X147840299Y-77671390D01*
X147840312Y-77671397D01*
X147985983Y-77731735D01*
X147985988Y-77731737D01*
X148140638Y-77762499D01*
X148140641Y-77762500D01*
X148140643Y-77762500D01*
X148298329Y-77762500D01*
X148298330Y-77762499D01*
X148452982Y-77731737D01*
X148598664Y-77671394D01*
X148729774Y-77583789D01*
X148841274Y-77472289D01*
X148928879Y-77341179D01*
X148989222Y-77195497D01*
X149019985Y-77040842D01*
X149019985Y-76887349D01*
X150376386Y-76887349D01*
X150376386Y-77040251D01*
X150406066Y-77151019D01*
X150415960Y-77187943D01*
X150415961Y-77187944D01*
X150492407Y-77320354D01*
X150492409Y-77320357D01*
X150492410Y-77320358D01*
X150600528Y-77428476D01*
X150600529Y-77428477D01*
X150600531Y-77428478D01*
X150602499Y-77429614D01*
X150732944Y-77504926D01*
X150880635Y-77544500D01*
X150880638Y-77544500D01*
X151033534Y-77544500D01*
X151033537Y-77544500D01*
X151181228Y-77504926D01*
X151313644Y-77428476D01*
X151421762Y-77320358D01*
X151498212Y-77187942D01*
X151537786Y-77040251D01*
X151537786Y-76887349D01*
X151498212Y-76739658D01*
X151421762Y-76607242D01*
X151313644Y-76499124D01*
X151313643Y-76499123D01*
X151313640Y-76499121D01*
X151181230Y-76422675D01*
X151181229Y-76422674D01*
X151144305Y-76412780D01*
X151033537Y-76383100D01*
X150880635Y-76383100D01*
X150792020Y-76406844D01*
X150732942Y-76422674D01*
X150732941Y-76422675D01*
X150600531Y-76499121D01*
X150600526Y-76499125D01*
X150492411Y-76607240D01*
X150492407Y-76607245D01*
X150415961Y-76739655D01*
X150415960Y-76739656D01*
X150415006Y-76743217D01*
X150376386Y-76887349D01*
X149019985Y-76887349D01*
X149019985Y-76883158D01*
X149019985Y-76883155D01*
X149019984Y-76883153D01*
X148992151Y-76743229D01*
X148989222Y-76728503D01*
X148938996Y-76607245D01*
X148928882Y-76582827D01*
X148928875Y-76582814D01*
X148841274Y-76451711D01*
X148841271Y-76451707D01*
X148729777Y-76340213D01*
X148729773Y-76340210D01*
X148598670Y-76252609D01*
X148598657Y-76252602D01*
X148452986Y-76192264D01*
X148452974Y-76192261D01*
X148298330Y-76161500D01*
X148298327Y-76161500D01*
X148140643Y-76161500D01*
X148140640Y-76161500D01*
X147985995Y-76192261D01*
X147985983Y-76192264D01*
X147840312Y-76252602D01*
X147840299Y-76252609D01*
X147704131Y-76343595D01*
X147703161Y-76342144D01*
X147646467Y-76366216D01*
X147577601Y-76354417D01*
X147563235Y-76346150D01*
X147445270Y-76267328D01*
X147445257Y-76267321D01*
X147299586Y-76206983D01*
X147299574Y-76206980D01*
X147144930Y-76176219D01*
X147144927Y-76176219D01*
X146987243Y-76176219D01*
X146987240Y-76176219D01*
X146832595Y-76206980D01*
X146832583Y-76206983D01*
X146686912Y-76267321D01*
X146686899Y-76267328D01*
X146555796Y-76354929D01*
X146555792Y-76354932D01*
X146444298Y-76466426D01*
X146444295Y-76466430D01*
X146356694Y-76597533D01*
X146356687Y-76597546D01*
X146296349Y-76743217D01*
X146296346Y-76743229D01*
X146265585Y-76897872D01*
X145757784Y-76897872D01*
X145757784Y-76887349D01*
X145718210Y-76739658D01*
X145641760Y-76607242D01*
X145533642Y-76499124D01*
X145533641Y-76499123D01*
X145533638Y-76499121D01*
X145401228Y-76422675D01*
X145401227Y-76422674D01*
X145364303Y-76412780D01*
X145253535Y-76383100D01*
X145100633Y-76383100D01*
X145012018Y-76406844D01*
X144952940Y-76422674D01*
X144952939Y-76422675D01*
X144820529Y-76499121D01*
X144820524Y-76499125D01*
X144712409Y-76607240D01*
X144712405Y-76607245D01*
X144635959Y-76739655D01*
X144635958Y-76739656D01*
X144635004Y-76743217D01*
X144596384Y-76887349D01*
X121441700Y-76887349D01*
X121441700Y-76804913D01*
X121408446Y-76594957D01*
X121342757Y-76392788D01*
X121246251Y-76203384D01*
X121246249Y-76203381D01*
X121246248Y-76203379D01*
X121121309Y-76031413D01*
X120970986Y-75881090D01*
X120799020Y-75756151D01*
X120798315Y-75755791D01*
X120790254Y-75751685D01*
X120739459Y-75703712D01*
X120722663Y-75635892D01*
X120745199Y-75569756D01*
X120790254Y-75530715D01*
X120799016Y-75526251D01*
X120820989Y-75510286D01*
X120970986Y-75401309D01*
X120970988Y-75401306D01*
X120970992Y-75401304D01*
X121121304Y-75250992D01*
X121121306Y-75250988D01*
X121121309Y-75250986D01*
X121246248Y-75079020D01*
X121246247Y-75079020D01*
X121246251Y-75079016D01*
X121342757Y-74889612D01*
X121408446Y-74687443D01*
X121441700Y-74477487D01*
X121441700Y-74264913D01*
X174671500Y-74264913D01*
X174671500Y-74477486D01*
X174704753Y-74687439D01*
X174770444Y-74889614D01*
X174866951Y-75079020D01*
X174991890Y-75250986D01*
X175142213Y-75401309D01*
X175314182Y-75526250D01*
X175322946Y-75530716D01*
X175373742Y-75578691D01*
X175390536Y-75646512D01*
X175367998Y-75712647D01*
X175322946Y-75751684D01*
X175314182Y-75756149D01*
X175142213Y-75881090D01*
X174991890Y-76031413D01*
X174866951Y-76203379D01*
X174770444Y-76392785D01*
X174704753Y-76594960D01*
X174683603Y-76728498D01*
X174671500Y-76804913D01*
X174671500Y-77017487D01*
X174675200Y-77040846D01*
X174698497Y-77187942D01*
X174704754Y-77227443D01*
X174770073Y-77428474D01*
X174770444Y-77429614D01*
X174866951Y-77619020D01*
X174991890Y-77790986D01*
X175142213Y-77941309D01*
X175314182Y-78066250D01*
X175322946Y-78070716D01*
X175373742Y-78118691D01*
X175390536Y-78186512D01*
X175367998Y-78252647D01*
X175322946Y-78291684D01*
X175314182Y-78296149D01*
X175142213Y-78421090D01*
X174991890Y-78571413D01*
X174866951Y-78743379D01*
X174770444Y-78932785D01*
X174704753Y-79134960D01*
X174671500Y-79344913D01*
X174671500Y-79557486D01*
X174704753Y-79767439D01*
X174770444Y-79969614D01*
X174866951Y-80159020D01*
X174991890Y-80330986D01*
X175142213Y-80481309D01*
X175314182Y-80606250D01*
X175322946Y-80610716D01*
X175373742Y-80658691D01*
X175390536Y-80726512D01*
X175367998Y-80792647D01*
X175322946Y-80831684D01*
X175314182Y-80836149D01*
X175142213Y-80961090D01*
X174991890Y-81111413D01*
X174866951Y-81283379D01*
X174770444Y-81472785D01*
X174704753Y-81674960D01*
X174695537Y-81733150D01*
X174671500Y-81884913D01*
X174671500Y-82097487D01*
X174704754Y-82307443D01*
X174747446Y-82438836D01*
X174770444Y-82509614D01*
X174866951Y-82699020D01*
X174991890Y-82870986D01*
X175142213Y-83021309D01*
X175314182Y-83146250D01*
X175322946Y-83150716D01*
X175373742Y-83198691D01*
X175390536Y-83266512D01*
X175367998Y-83332647D01*
X175322946Y-83371684D01*
X175314182Y-83376149D01*
X175142213Y-83501090D01*
X174991890Y-83651413D01*
X174866951Y-83823379D01*
X174770444Y-84012785D01*
X174704753Y-84214960D01*
X174671500Y-84424913D01*
X174671500Y-84637486D01*
X174704753Y-84847439D01*
X174770444Y-85049614D01*
X174866951Y-85239020D01*
X174991890Y-85410986D01*
X175142213Y-85561309D01*
X175314182Y-85686250D01*
X175322946Y-85690716D01*
X175373742Y-85738691D01*
X175390536Y-85806512D01*
X175367998Y-85872647D01*
X175322946Y-85911684D01*
X175314182Y-85916149D01*
X175142213Y-86041090D01*
X174991890Y-86191413D01*
X174866951Y-86363379D01*
X174770444Y-86552785D01*
X174704753Y-86754960D01*
X174671500Y-86964913D01*
X174671500Y-87177487D01*
X174704754Y-87387443D01*
X174767645Y-87581002D01*
X174770444Y-87589614D01*
X174866951Y-87779020D01*
X174991890Y-87950986D01*
X175142213Y-88101309D01*
X175314182Y-88226250D01*
X175322946Y-88230716D01*
X175373742Y-88278691D01*
X175390536Y-88346512D01*
X175367998Y-88412647D01*
X175322946Y-88451684D01*
X175314182Y-88456149D01*
X175142213Y-88581090D01*
X174991890Y-88731413D01*
X174866951Y-88903379D01*
X174770444Y-89092785D01*
X174704753Y-89294960D01*
X174671500Y-89504913D01*
X174671500Y-89717486D01*
X174699860Y-89896547D01*
X174704754Y-89927443D01*
X174769399Y-90126400D01*
X174770444Y-90129614D01*
X174866951Y-90319020D01*
X174991890Y-90490986D01*
X175142213Y-90641309D01*
X175314182Y-90766250D01*
X175322946Y-90770716D01*
X175373742Y-90818691D01*
X175390536Y-90886512D01*
X175367998Y-90952647D01*
X175322946Y-90991684D01*
X175314182Y-90996149D01*
X175142213Y-91121090D01*
X174991890Y-91271413D01*
X174866951Y-91443379D01*
X174770444Y-91632785D01*
X174770443Y-91632787D01*
X174770443Y-91632788D01*
X174758258Y-91670290D01*
X174704753Y-91834960D01*
X174677227Y-92008756D01*
X174671500Y-92044913D01*
X174671500Y-92257487D01*
X174681534Y-92320844D01*
X174703424Y-92459050D01*
X174704754Y-92467443D01*
X174768942Y-92664993D01*
X174770444Y-92669614D01*
X174866951Y-92859020D01*
X174991890Y-93030986D01*
X175142213Y-93181309D01*
X175314182Y-93306250D01*
X175322946Y-93310716D01*
X175373742Y-93358691D01*
X175390536Y-93426512D01*
X175367998Y-93492647D01*
X175322946Y-93531684D01*
X175314182Y-93536149D01*
X175142213Y-93661090D01*
X174991890Y-93811413D01*
X174866951Y-93983379D01*
X174770444Y-94172785D01*
X174704753Y-94374960D01*
X174671500Y-94584913D01*
X174671500Y-94797486D01*
X174703945Y-95002340D01*
X174704754Y-95007443D01*
X174764027Y-95189867D01*
X174770444Y-95209614D01*
X174866951Y-95399020D01*
X174991890Y-95570986D01*
X175142213Y-95721309D01*
X175314182Y-95846250D01*
X175322946Y-95850716D01*
X175373742Y-95898691D01*
X175390536Y-95966512D01*
X175367998Y-96032647D01*
X175322946Y-96071684D01*
X175314182Y-96076149D01*
X175142213Y-96201090D01*
X174991890Y-96351413D01*
X174866951Y-96523379D01*
X174770444Y-96712785D01*
X174770443Y-96712787D01*
X174770443Y-96712788D01*
X174762105Y-96738449D01*
X174704753Y-96914960D01*
X174685142Y-97038782D01*
X174671500Y-97124913D01*
X174671500Y-97337487D01*
X174679345Y-97387019D01*
X174704166Y-97543735D01*
X174704754Y-97547443D01*
X174752083Y-97693107D01*
X174770444Y-97749614D01*
X174866951Y-97939020D01*
X174991890Y-98110986D01*
X175142213Y-98261309D01*
X175314182Y-98386250D01*
X175322946Y-98390716D01*
X175373742Y-98438691D01*
X175390536Y-98506512D01*
X175367998Y-98572647D01*
X175322946Y-98611684D01*
X175314182Y-98616149D01*
X175142213Y-98741090D01*
X174991890Y-98891413D01*
X174866951Y-99063379D01*
X174770444Y-99252785D01*
X174704753Y-99454960D01*
X174674122Y-99648358D01*
X174671500Y-99664913D01*
X174671500Y-99877487D01*
X174675555Y-99903089D01*
X174703881Y-100081936D01*
X174704754Y-100087443D01*
X174766405Y-100277185D01*
X174770444Y-100289614D01*
X174866951Y-100479020D01*
X174991890Y-100650986D01*
X175142213Y-100801309D01*
X175314182Y-100926250D01*
X175322946Y-100930716D01*
X175373742Y-100978691D01*
X175390536Y-101046512D01*
X175367998Y-101112647D01*
X175322946Y-101151684D01*
X175314182Y-101156149D01*
X175142213Y-101281090D01*
X174991890Y-101431413D01*
X174866951Y-101603379D01*
X174770444Y-101792785D01*
X174770443Y-101792787D01*
X174770443Y-101792788D01*
X174769574Y-101795463D01*
X174704753Y-101994960D01*
X174682234Y-102137139D01*
X174671500Y-102204913D01*
X174671500Y-102417487D01*
X174673399Y-102429474D01*
X174700995Y-102603714D01*
X174704754Y-102627443D01*
X174768898Y-102824858D01*
X174770444Y-102829614D01*
X174866951Y-103019020D01*
X174991890Y-103190986D01*
X175142213Y-103341309D01*
X175314182Y-103466250D01*
X175322946Y-103470716D01*
X175373742Y-103518691D01*
X175390536Y-103586512D01*
X175367998Y-103652647D01*
X175322946Y-103691684D01*
X175314182Y-103696149D01*
X175142213Y-103821090D01*
X174991890Y-103971413D01*
X174866951Y-104143379D01*
X174770444Y-104332785D01*
X174704753Y-104534960D01*
X174671500Y-104744913D01*
X174671500Y-104957486D01*
X174697016Y-105118591D01*
X174704754Y-105167443D01*
X174769984Y-105368200D01*
X174770444Y-105369614D01*
X174866951Y-105559020D01*
X174991890Y-105730986D01*
X175142213Y-105881309D01*
X175314182Y-106006250D01*
X175322946Y-106010716D01*
X175373742Y-106058691D01*
X175390536Y-106126512D01*
X175367998Y-106192647D01*
X175322946Y-106231684D01*
X175314182Y-106236149D01*
X175142213Y-106361090D01*
X174991890Y-106511413D01*
X174866951Y-106683379D01*
X174770444Y-106872785D01*
X174704753Y-107074960D01*
X174671500Y-107284913D01*
X174671500Y-107497486D01*
X174704287Y-107704498D01*
X174704754Y-107707443D01*
X174756293Y-107866064D01*
X174770444Y-107909614D01*
X174866951Y-108099020D01*
X174991890Y-108270986D01*
X175142213Y-108421309D01*
X175314182Y-108546250D01*
X175322946Y-108550716D01*
X175373742Y-108598691D01*
X175390536Y-108666512D01*
X175367998Y-108732647D01*
X175322946Y-108771684D01*
X175314182Y-108776149D01*
X175142213Y-108901090D01*
X174991890Y-109051413D01*
X174866951Y-109223379D01*
X174770444Y-109412785D01*
X174704753Y-109614960D01*
X174671500Y-109824913D01*
X174671500Y-110037486D01*
X174700845Y-110222767D01*
X174704754Y-110247443D01*
X174759550Y-110416088D01*
X174770444Y-110449614D01*
X174866951Y-110639020D01*
X174991890Y-110810986D01*
X175142213Y-110961309D01*
X175314182Y-111086250D01*
X175322946Y-111090716D01*
X175373742Y-111138691D01*
X175390536Y-111206512D01*
X175367998Y-111272647D01*
X175322946Y-111311684D01*
X175314182Y-111316149D01*
X175142213Y-111441090D01*
X174991890Y-111591413D01*
X174866951Y-111763379D01*
X174770444Y-111952785D01*
X174704753Y-112154960D01*
X174671500Y-112364913D01*
X174671500Y-112577486D01*
X174704753Y-112787439D01*
X174770444Y-112989614D01*
X174866951Y-113179020D01*
X174991890Y-113350986D01*
X175142213Y-113501309D01*
X175314182Y-113626250D01*
X175322946Y-113630716D01*
X175373742Y-113678691D01*
X175390536Y-113746512D01*
X175367998Y-113812647D01*
X175322946Y-113851684D01*
X175314182Y-113856149D01*
X175142213Y-113981090D01*
X174991890Y-114131413D01*
X174866951Y-114303379D01*
X174770444Y-114492785D01*
X174770443Y-114492787D01*
X174770443Y-114492788D01*
X174751678Y-114550539D01*
X174704753Y-114694960D01*
X174671500Y-114904913D01*
X174671500Y-115117486D01*
X174704753Y-115327439D01*
X174704753Y-115327441D01*
X174704754Y-115327443D01*
X174766747Y-115518238D01*
X174770444Y-115529614D01*
X174866951Y-115719020D01*
X174991890Y-115890986D01*
X175142213Y-116041309D01*
X175314182Y-116166250D01*
X175322946Y-116170716D01*
X175373742Y-116218691D01*
X175390536Y-116286512D01*
X175367998Y-116352647D01*
X175322946Y-116391684D01*
X175314182Y-116396149D01*
X175142213Y-116521090D01*
X174991890Y-116671413D01*
X174866951Y-116843379D01*
X174770444Y-117032785D01*
X174704753Y-117234960D01*
X174671500Y-117444913D01*
X174671500Y-117657486D01*
X174704753Y-117867439D01*
X174770444Y-118069614D01*
X174866951Y-118259020D01*
X174991890Y-118430986D01*
X175142213Y-118581309D01*
X175314179Y-118706248D01*
X175314181Y-118706249D01*
X175314184Y-118706251D01*
X175323493Y-118710994D01*
X175374290Y-118758966D01*
X175391087Y-118826787D01*
X175368552Y-118892922D01*
X175323505Y-118931960D01*
X175314446Y-118936576D01*
X175314440Y-118936580D01*
X175260282Y-118975927D01*
X175260282Y-118975928D01*
X175892591Y-119608237D01*
X175829007Y-119625275D01*
X175714993Y-119691101D01*
X175621901Y-119784193D01*
X175556075Y-119898207D01*
X175539037Y-119961791D01*
X174906728Y-119329482D01*
X174906727Y-119329482D01*
X174867380Y-119383639D01*
X174770904Y-119572982D01*
X174705242Y-119775069D01*
X174705242Y-119775072D01*
X174672000Y-119984953D01*
X174672000Y-120197446D01*
X174705242Y-120407327D01*
X174705242Y-120407330D01*
X174770904Y-120609417D01*
X174867375Y-120798750D01*
X174906728Y-120852916D01*
X175539036Y-120220607D01*
X175556075Y-120284193D01*
X175621901Y-120398207D01*
X175714993Y-120491299D01*
X175829007Y-120557125D01*
X175892590Y-120574162D01*
X175260282Y-121206469D01*
X175260282Y-121206470D01*
X175314449Y-121245824D01*
X175503782Y-121342295D01*
X175705870Y-121407957D01*
X175915754Y-121441200D01*
X176128246Y-121441200D01*
X176338127Y-121407957D01*
X176338130Y-121407957D01*
X176540217Y-121342295D01*
X176729554Y-121245822D01*
X176783716Y-121206470D01*
X176783717Y-121206470D01*
X176151408Y-120574162D01*
X176214993Y-120557125D01*
X176329007Y-120491299D01*
X176422099Y-120398207D01*
X176487925Y-120284193D01*
X176504962Y-120220608D01*
X177137270Y-120852917D01*
X177137270Y-120852916D01*
X177176622Y-120798754D01*
X177273095Y-120609417D01*
X177338757Y-120407330D01*
X177338757Y-120407327D01*
X177372000Y-120197446D01*
X177372000Y-119984953D01*
X177338757Y-119775072D01*
X177338757Y-119775069D01*
X177273095Y-119572982D01*
X177176624Y-119383649D01*
X177137270Y-119329482D01*
X177137269Y-119329482D01*
X176504962Y-119961790D01*
X176487925Y-119898207D01*
X176422099Y-119784193D01*
X176329007Y-119691101D01*
X176214993Y-119625275D01*
X176151409Y-119608237D01*
X176783716Y-118975928D01*
X176729547Y-118936573D01*
X176729547Y-118936572D01*
X176720500Y-118931963D01*
X176669706Y-118883988D01*
X176652912Y-118816166D01*
X176675451Y-118750032D01*
X176720508Y-118710993D01*
X176729816Y-118706251D01*
X176809007Y-118648715D01*
X176901786Y-118581309D01*
X176901788Y-118581306D01*
X176901792Y-118581304D01*
X177052104Y-118430992D01*
X177052106Y-118430988D01*
X177052109Y-118430986D01*
X177177048Y-118259020D01*
X177177047Y-118259020D01*
X177177051Y-118259016D01*
X177273557Y-118069612D01*
X177339246Y-117867443D01*
X177372500Y-117657487D01*
X177372500Y-117444913D01*
X177339246Y-117234957D01*
X177273557Y-117032788D01*
X177177051Y-116843384D01*
X177177049Y-116843381D01*
X177177048Y-116843379D01*
X177052109Y-116671413D01*
X176901786Y-116521090D01*
X176729820Y-116396151D01*
X176729115Y-116395791D01*
X176721054Y-116391685D01*
X176670259Y-116343712D01*
X176653463Y-116275892D01*
X176675999Y-116209756D01*
X176721054Y-116170715D01*
X176729816Y-116166251D01*
X176857361Y-116073585D01*
X176901786Y-116041309D01*
X176901788Y-116041306D01*
X176901792Y-116041304D01*
X177052104Y-115890992D01*
X177052106Y-115890988D01*
X177052109Y-115890986D01*
X177177048Y-115719020D01*
X177177047Y-115719020D01*
X177177051Y-115719016D01*
X177273557Y-115529612D01*
X177339246Y-115327443D01*
X177372500Y-115117487D01*
X177372500Y-114904913D01*
X177339246Y-114694957D01*
X177273557Y-114492788D01*
X177177051Y-114303384D01*
X177177049Y-114303381D01*
X177177048Y-114303379D01*
X177052109Y-114131413D01*
X176901786Y-113981090D01*
X176729820Y-113856151D01*
X176729115Y-113855791D01*
X176721054Y-113851685D01*
X176670259Y-113803712D01*
X176653463Y-113735892D01*
X176675999Y-113669756D01*
X176721054Y-113630715D01*
X176729816Y-113626251D01*
X176770096Y-113596986D01*
X176901786Y-113501309D01*
X176901788Y-113501306D01*
X176901792Y-113501304D01*
X177052104Y-113350992D01*
X177052106Y-113350988D01*
X177052109Y-113350986D01*
X177177048Y-113179020D01*
X177177047Y-113179020D01*
X177177051Y-113179016D01*
X177273557Y-112989612D01*
X177339246Y-112787443D01*
X177372500Y-112577487D01*
X177372500Y-112364913D01*
X177339246Y-112154957D01*
X177273557Y-111952788D01*
X177177051Y-111763384D01*
X177177049Y-111763381D01*
X177177048Y-111763379D01*
X177052109Y-111591413D01*
X176901786Y-111441090D01*
X176729820Y-111316151D01*
X176729115Y-111315791D01*
X176721054Y-111311685D01*
X176670259Y-111263712D01*
X176653463Y-111195892D01*
X176675999Y-111129756D01*
X176721054Y-111090715D01*
X176729816Y-111086251D01*
X176897348Y-110964533D01*
X176901786Y-110961309D01*
X176901788Y-110961306D01*
X176901792Y-110961304D01*
X177052104Y-110810992D01*
X177052106Y-110810988D01*
X177052109Y-110810986D01*
X177177048Y-110639020D01*
X177177047Y-110639020D01*
X177177051Y-110639016D01*
X177273557Y-110449612D01*
X177339246Y-110247443D01*
X177372500Y-110037487D01*
X177372500Y-109824913D01*
X177339246Y-109614957D01*
X177273557Y-109412788D01*
X177177051Y-109223384D01*
X177177049Y-109223381D01*
X177177048Y-109223379D01*
X177052109Y-109051413D01*
X176901786Y-108901090D01*
X176729820Y-108776151D01*
X176729115Y-108775791D01*
X176721054Y-108771685D01*
X176670259Y-108723712D01*
X176653463Y-108655892D01*
X176675999Y-108589756D01*
X176721054Y-108550715D01*
X176729816Y-108546251D01*
X176751789Y-108530286D01*
X176901786Y-108421309D01*
X176901788Y-108421306D01*
X176901792Y-108421304D01*
X177052104Y-108270992D01*
X177052106Y-108270988D01*
X177052109Y-108270986D01*
X177177048Y-108099020D01*
X177177047Y-108099020D01*
X177177051Y-108099016D01*
X177273557Y-107909612D01*
X177339246Y-107707443D01*
X177372500Y-107497487D01*
X177372500Y-107284913D01*
X177339246Y-107074957D01*
X177273557Y-106872788D01*
X177177051Y-106683384D01*
X177177049Y-106683381D01*
X177177048Y-106683379D01*
X177052109Y-106511413D01*
X176901786Y-106361090D01*
X176729820Y-106236151D01*
X176729115Y-106235791D01*
X176721054Y-106231685D01*
X176670259Y-106183712D01*
X176653463Y-106115892D01*
X176675999Y-106049756D01*
X176721054Y-106010715D01*
X176729816Y-106006251D01*
X176753482Y-105989057D01*
X176901786Y-105881309D01*
X176901788Y-105881306D01*
X176901792Y-105881304D01*
X177052104Y-105730992D01*
X177052106Y-105730988D01*
X177052109Y-105730986D01*
X177177048Y-105559020D01*
X177177047Y-105559020D01*
X177177051Y-105559016D01*
X177273557Y-105369612D01*
X177339246Y-105167443D01*
X177372500Y-104957487D01*
X177372500Y-104744913D01*
X177339246Y-104534957D01*
X177273557Y-104332788D01*
X177177051Y-104143384D01*
X177177049Y-104143381D01*
X177177048Y-104143379D01*
X177052109Y-103971413D01*
X176901786Y-103821090D01*
X176729820Y-103696151D01*
X176729115Y-103695791D01*
X176721054Y-103691685D01*
X176670259Y-103643712D01*
X176653463Y-103575892D01*
X176675999Y-103509756D01*
X176721054Y-103470715D01*
X176729816Y-103466251D01*
X176751789Y-103450286D01*
X176901786Y-103341309D01*
X176901788Y-103341306D01*
X176901792Y-103341304D01*
X177052104Y-103190992D01*
X177052106Y-103190988D01*
X177052109Y-103190986D01*
X177169685Y-103029155D01*
X177177051Y-103019016D01*
X177273557Y-102829612D01*
X177339246Y-102627443D01*
X177372500Y-102417487D01*
X177372500Y-102204913D01*
X177339246Y-101994957D01*
X177273557Y-101792788D01*
X177177051Y-101603384D01*
X177177049Y-101603381D01*
X177177048Y-101603379D01*
X177052109Y-101431413D01*
X176901786Y-101281090D01*
X176729820Y-101156151D01*
X176729115Y-101155791D01*
X176721054Y-101151685D01*
X176670259Y-101103712D01*
X176653463Y-101035892D01*
X176675999Y-100969756D01*
X176721054Y-100930715D01*
X176729816Y-100926251D01*
X176824977Y-100857113D01*
X176901786Y-100801309D01*
X176901788Y-100801306D01*
X176901792Y-100801304D01*
X177052104Y-100650992D01*
X177052106Y-100650988D01*
X177052109Y-100650986D01*
X177177048Y-100479020D01*
X177177047Y-100479020D01*
X177177051Y-100479016D01*
X177273557Y-100289612D01*
X177339246Y-100087443D01*
X177372500Y-99877487D01*
X177372500Y-99664913D01*
X177339246Y-99454957D01*
X177273557Y-99252788D01*
X177177051Y-99063384D01*
X177177049Y-99063381D01*
X177177048Y-99063379D01*
X177052109Y-98891413D01*
X176901786Y-98741090D01*
X176729820Y-98616151D01*
X176729115Y-98615791D01*
X176721054Y-98611685D01*
X176670259Y-98563712D01*
X176653463Y-98495892D01*
X176675999Y-98429756D01*
X176721054Y-98390715D01*
X176729816Y-98386251D01*
X176751789Y-98370286D01*
X176901786Y-98261309D01*
X176901788Y-98261306D01*
X176901792Y-98261304D01*
X177052104Y-98110992D01*
X177052106Y-98110988D01*
X177052109Y-98110986D01*
X177161086Y-97960989D01*
X177177051Y-97939016D01*
X177273557Y-97749612D01*
X177339246Y-97547443D01*
X177372500Y-97337487D01*
X177372500Y-97124913D01*
X177339246Y-96914957D01*
X177273557Y-96712788D01*
X177177051Y-96523384D01*
X177177049Y-96523381D01*
X177177048Y-96523379D01*
X177052109Y-96351413D01*
X176901786Y-96201090D01*
X176729820Y-96076151D01*
X176729115Y-96075791D01*
X176721054Y-96071685D01*
X176670259Y-96023712D01*
X176653463Y-95955892D01*
X176675999Y-95889756D01*
X176721054Y-95850715D01*
X176729816Y-95846251D01*
X176819960Y-95780758D01*
X176901786Y-95721309D01*
X176901788Y-95721306D01*
X176901792Y-95721304D01*
X177052104Y-95570992D01*
X177052106Y-95570988D01*
X177052109Y-95570986D01*
X177177048Y-95399020D01*
X177177047Y-95399020D01*
X177177051Y-95399016D01*
X177273557Y-95209612D01*
X177339246Y-95007443D01*
X177372500Y-94797487D01*
X177372500Y-94584913D01*
X177339246Y-94374957D01*
X177273557Y-94172788D01*
X177177051Y-93983384D01*
X177177049Y-93983381D01*
X177177048Y-93983379D01*
X177052109Y-93811413D01*
X176901786Y-93661090D01*
X176729820Y-93536151D01*
X176724503Y-93533442D01*
X176721054Y-93531685D01*
X176670259Y-93483712D01*
X176653463Y-93415892D01*
X176675999Y-93349756D01*
X176721054Y-93310715D01*
X176729816Y-93306251D01*
X176846018Y-93221826D01*
X176901786Y-93181309D01*
X176901788Y-93181306D01*
X176901792Y-93181304D01*
X177052104Y-93030992D01*
X177052106Y-93030988D01*
X177052109Y-93030986D01*
X177177048Y-92859020D01*
X177177047Y-92859020D01*
X177177051Y-92859016D01*
X177273557Y-92669612D01*
X177339246Y-92467443D01*
X177372500Y-92257487D01*
X177372500Y-92044913D01*
X177339246Y-91834957D01*
X177273557Y-91632788D01*
X177177051Y-91443384D01*
X177177049Y-91443381D01*
X177177048Y-91443379D01*
X177052109Y-91271413D01*
X176901786Y-91121090D01*
X176729820Y-90996151D01*
X176729115Y-90995791D01*
X176721054Y-90991685D01*
X176670259Y-90943712D01*
X176653463Y-90875892D01*
X176675999Y-90809756D01*
X176721054Y-90770715D01*
X176729816Y-90766251D01*
X176820943Y-90700044D01*
X176901786Y-90641309D01*
X176901788Y-90641306D01*
X176901792Y-90641304D01*
X177052104Y-90490992D01*
X177052106Y-90490988D01*
X177052109Y-90490986D01*
X177177048Y-90319020D01*
X177177047Y-90319020D01*
X177177051Y-90319016D01*
X177273557Y-90129612D01*
X177339246Y-89927443D01*
X177372500Y-89717487D01*
X177372500Y-89504913D01*
X177339246Y-89294957D01*
X177273557Y-89092788D01*
X177177051Y-88903384D01*
X177177049Y-88903381D01*
X177177048Y-88903379D01*
X177052109Y-88731413D01*
X176901786Y-88581090D01*
X176729820Y-88456151D01*
X176729115Y-88455791D01*
X176721054Y-88451685D01*
X176670259Y-88403712D01*
X176653463Y-88335892D01*
X176675999Y-88269756D01*
X176721054Y-88230715D01*
X176729816Y-88226251D01*
X176814269Y-88164893D01*
X176901786Y-88101309D01*
X176901788Y-88101306D01*
X176901792Y-88101304D01*
X177052104Y-87950992D01*
X177052106Y-87950988D01*
X177052109Y-87950986D01*
X177177048Y-87779020D01*
X177177047Y-87779020D01*
X177177051Y-87779016D01*
X177273557Y-87589612D01*
X177339246Y-87387443D01*
X177372500Y-87177487D01*
X177372500Y-86964913D01*
X177339246Y-86754957D01*
X177273557Y-86552788D01*
X177177051Y-86363384D01*
X177177049Y-86363381D01*
X177177048Y-86363379D01*
X177052109Y-86191413D01*
X176901786Y-86041090D01*
X176729820Y-85916151D01*
X176729115Y-85915791D01*
X176721054Y-85911685D01*
X176670259Y-85863712D01*
X176653463Y-85795892D01*
X176675999Y-85729756D01*
X176721054Y-85690715D01*
X176729816Y-85686251D01*
X176751789Y-85670286D01*
X176901786Y-85561309D01*
X176901788Y-85561306D01*
X176901792Y-85561304D01*
X177052104Y-85410992D01*
X177052106Y-85410988D01*
X177052109Y-85410986D01*
X177177048Y-85239020D01*
X177177047Y-85239020D01*
X177177051Y-85239016D01*
X177273557Y-85049612D01*
X177339246Y-84847443D01*
X177372500Y-84637487D01*
X177372500Y-84424913D01*
X177339246Y-84214957D01*
X177273557Y-84012788D01*
X177177051Y-83823384D01*
X177177049Y-83823381D01*
X177177048Y-83823379D01*
X177052109Y-83651413D01*
X176901786Y-83501090D01*
X176729820Y-83376151D01*
X176729115Y-83375791D01*
X176721054Y-83371685D01*
X176670259Y-83323712D01*
X176653463Y-83255892D01*
X176675999Y-83189756D01*
X176721054Y-83150715D01*
X176729816Y-83146251D01*
X176842566Y-83064334D01*
X176901786Y-83021309D01*
X176901788Y-83021306D01*
X176901792Y-83021304D01*
X177052104Y-82870992D01*
X177052106Y-82870988D01*
X177052109Y-82870986D01*
X177177048Y-82699020D01*
X177177047Y-82699020D01*
X177177051Y-82699016D01*
X177273557Y-82509612D01*
X177339246Y-82307443D01*
X177372500Y-82097487D01*
X177372500Y-81884913D01*
X177339246Y-81674957D01*
X177273557Y-81472788D01*
X177177051Y-81283384D01*
X177177049Y-81283381D01*
X177177048Y-81283379D01*
X177052109Y-81111413D01*
X176901786Y-80961090D01*
X176729820Y-80836151D01*
X176729115Y-80835791D01*
X176721054Y-80831685D01*
X176670259Y-80783712D01*
X176653463Y-80715892D01*
X176675999Y-80649756D01*
X176721054Y-80610715D01*
X176729816Y-80606251D01*
X176751789Y-80590286D01*
X176901786Y-80481309D01*
X176901788Y-80481306D01*
X176901792Y-80481304D01*
X177052104Y-80330992D01*
X177052106Y-80330988D01*
X177052109Y-80330986D01*
X177177048Y-80159020D01*
X177177047Y-80159020D01*
X177177051Y-80159016D01*
X177273557Y-79969612D01*
X177339246Y-79767443D01*
X177372500Y-79557487D01*
X177372500Y-79344913D01*
X177339246Y-79134957D01*
X177273557Y-78932788D01*
X177177051Y-78743384D01*
X177177049Y-78743381D01*
X177177048Y-78743379D01*
X177052109Y-78571413D01*
X176901786Y-78421090D01*
X176729820Y-78296151D01*
X176729115Y-78295791D01*
X176721054Y-78291685D01*
X176670259Y-78243712D01*
X176653463Y-78175892D01*
X176675999Y-78109756D01*
X176721054Y-78070715D01*
X176729816Y-78066251D01*
X176751789Y-78050286D01*
X176901786Y-77941309D01*
X176901788Y-77941306D01*
X176901792Y-77941304D01*
X177052104Y-77790992D01*
X177052106Y-77790988D01*
X177052109Y-77790986D01*
X177177048Y-77619020D01*
X177177047Y-77619020D01*
X177177051Y-77619016D01*
X177273557Y-77429612D01*
X177339246Y-77227443D01*
X177372500Y-77017487D01*
X177372500Y-76804913D01*
X177339246Y-76594957D01*
X177273557Y-76392788D01*
X177177051Y-76203384D01*
X177177049Y-76203381D01*
X177177048Y-76203379D01*
X177052109Y-76031413D01*
X176901786Y-75881090D01*
X176729820Y-75756151D01*
X176729115Y-75755791D01*
X176721054Y-75751685D01*
X176670259Y-75703712D01*
X176653463Y-75635892D01*
X176675999Y-75569756D01*
X176721054Y-75530715D01*
X176729816Y-75526251D01*
X176751789Y-75510286D01*
X176901786Y-75401309D01*
X176901788Y-75401306D01*
X176901792Y-75401304D01*
X177052104Y-75250992D01*
X177052106Y-75250988D01*
X177052109Y-75250986D01*
X177177048Y-75079020D01*
X177177047Y-75079020D01*
X177177051Y-75079016D01*
X177273557Y-74889612D01*
X177339246Y-74687443D01*
X177372500Y-74477487D01*
X177372500Y-74264913D01*
X177339246Y-74054957D01*
X177273557Y-73852788D01*
X177177051Y-73663384D01*
X177177049Y-73663381D01*
X177177048Y-73663379D01*
X177052109Y-73491413D01*
X176938181Y-73377485D01*
X176904696Y-73316162D01*
X176909680Y-73246470D01*
X176951552Y-73190537D01*
X176982529Y-73173622D01*
X177114086Y-73124554D01*
X177114093Y-73124550D01*
X177229187Y-73038390D01*
X177229190Y-73038387D01*
X177315350Y-72923293D01*
X177315354Y-72923286D01*
X177365596Y-72788579D01*
X177365598Y-72788572D01*
X177371999Y-72729044D01*
X177372000Y-72729027D01*
X177372000Y-72081200D01*
X176455012Y-72081200D01*
X176487925Y-72024193D01*
X176522000Y-71897026D01*
X176522000Y-71765374D01*
X176487925Y-71638207D01*
X176455012Y-71581200D01*
X177372000Y-71581200D01*
X177372000Y-70933372D01*
X177371999Y-70933355D01*
X177365598Y-70873827D01*
X177365596Y-70873820D01*
X177315354Y-70739113D01*
X177315350Y-70739106D01*
X177229190Y-70624012D01*
X177229187Y-70624009D01*
X177114093Y-70537849D01*
X177114086Y-70537845D01*
X176979379Y-70487603D01*
X176979372Y-70487601D01*
X176919844Y-70481200D01*
X176272000Y-70481200D01*
X176272000Y-71398188D01*
X176214993Y-71365275D01*
X176087826Y-71331200D01*
X175956174Y-71331200D01*
X175829007Y-71365275D01*
X175772000Y-71398188D01*
X175772000Y-70481200D01*
X175124155Y-70481200D01*
X175064627Y-70487601D01*
X175064620Y-70487603D01*
X174929913Y-70537845D01*
X174929906Y-70537849D01*
X174814812Y-70624009D01*
X174814809Y-70624012D01*
X174728649Y-70739106D01*
X174728645Y-70739113D01*
X174678403Y-70873820D01*
X174678401Y-70873827D01*
X174672000Y-70933355D01*
X174672000Y-71581200D01*
X175588988Y-71581200D01*
X175556075Y-71638207D01*
X175522000Y-71765374D01*
X175522000Y-71897026D01*
X175556075Y-72024193D01*
X175588988Y-72081200D01*
X174672000Y-72081200D01*
X174672000Y-72729044D01*
X174678401Y-72788572D01*
X174678403Y-72788579D01*
X174728645Y-72923286D01*
X174728649Y-72923293D01*
X174814809Y-73038387D01*
X174814812Y-73038390D01*
X174929906Y-73124550D01*
X174929913Y-73124554D01*
X175061470Y-73173622D01*
X175117404Y-73215493D01*
X175141821Y-73280958D01*
X175126969Y-73349231D01*
X175105819Y-73377485D01*
X174991889Y-73491415D01*
X174866951Y-73663379D01*
X174770444Y-73852785D01*
X174704753Y-74054960D01*
X174671500Y-74264913D01*
X121441700Y-74264913D01*
X121408446Y-74054957D01*
X121342757Y-73852788D01*
X121246251Y-73663384D01*
X121246249Y-73663381D01*
X121246248Y-73663379D01*
X121121309Y-73491413D01*
X121007381Y-73377485D01*
X120973896Y-73316162D01*
X120978880Y-73246470D01*
X121020752Y-73190537D01*
X121051729Y-73173622D01*
X121183286Y-73124554D01*
X121183293Y-73124550D01*
X121298387Y-73038390D01*
X121298390Y-73038387D01*
X121384550Y-72923293D01*
X121384554Y-72923286D01*
X121434796Y-72788579D01*
X121434798Y-72788572D01*
X121441199Y-72729044D01*
X121441200Y-72729027D01*
X121441200Y-72081200D01*
X120524212Y-72081200D01*
X120557125Y-72024193D01*
X120591200Y-71897026D01*
X120591200Y-71765374D01*
X120557125Y-71638207D01*
X120524212Y-71581200D01*
X121441200Y-71581200D01*
X121441200Y-70933372D01*
X121441199Y-70933355D01*
X121434798Y-70873827D01*
X121434796Y-70873820D01*
X121384554Y-70739113D01*
X121384550Y-70739106D01*
X121298390Y-70624012D01*
X121298387Y-70624009D01*
X121183293Y-70537849D01*
X121183286Y-70537845D01*
X121048579Y-70487603D01*
X121048572Y-70487601D01*
X120989044Y-70481200D01*
X120341200Y-70481200D01*
X120341200Y-71398188D01*
X120284193Y-71365275D01*
X120157026Y-71331200D01*
X120025374Y-71331200D01*
X119898207Y-71365275D01*
X119841200Y-71398188D01*
X119841200Y-70481200D01*
X119193355Y-70481200D01*
X119133827Y-70487601D01*
X119133820Y-70487603D01*
X118999113Y-70537845D01*
X118999106Y-70537849D01*
X118884012Y-70624009D01*
X118884009Y-70624012D01*
X118797849Y-70739106D01*
X118797845Y-70739113D01*
X118747603Y-70873820D01*
X118747601Y-70873827D01*
X118741200Y-70933355D01*
X118741200Y-71581200D01*
X119658188Y-71581200D01*
X119625275Y-71638207D01*
X119591200Y-71765374D01*
X119591200Y-71897026D01*
X119625275Y-72024193D01*
X119658188Y-72081200D01*
X118741200Y-72081200D01*
X118741200Y-72729044D01*
X118747601Y-72788572D01*
X118747603Y-72788579D01*
X118797845Y-72923286D01*
X118797849Y-72923293D01*
X118884009Y-73038387D01*
X118884012Y-73038390D01*
X118999106Y-73124550D01*
X118999113Y-73124554D01*
X119130670Y-73173622D01*
X119186604Y-73215493D01*
X119211021Y-73280958D01*
X119196169Y-73349231D01*
X119175019Y-73377485D01*
X119061089Y-73491415D01*
X118936151Y-73663379D01*
X118839644Y-73852785D01*
X118773953Y-74054960D01*
X118740700Y-74264913D01*
X118153300Y-74264913D01*
X118153300Y-70271300D01*
X118172985Y-70204261D01*
X118225789Y-70158506D01*
X118277300Y-70147300D01*
X177835900Y-70147300D01*
X177902939Y-70166985D01*
G37*
%TD.AperFunction*%
%TD*%
M02*
