M48
; DRILL file {KiCad 9.0.7} date 2026-04-13T18:34:18-0400
; FORMAT={-:-/ absolute / metric / decimal}
; #@! TF.CreationDate,2026-04-13T18:34:18-04:00
; #@! TF.GenerationSoftware,Kicad,Pcbnew,9.0.7
; #@! TF.FileFunction,Plated,1,2,PTH
FMAT,2
METRIC
; #@! TA.AperFunction,Plated,PTH,ViaDrill
T1C0.300
; #@! TA.AperFunction,Plated,PTH,ViaDrill
T2C0.305
; #@! TA.AperFunction,Plated,PTH,ComponentDrill
T3C1.000
%
G90
G05
T1
X124.182Y-104.698
X124.19Y-91.288
X124.19Y-92.088
X124.19Y-95.86
X124.19Y-96.66
X124.19Y-97.46
X124.19Y-98.298
X124.19Y-99.098
X124.19Y-99.898
X124.19Y-100.698
X124.19Y-101.498
X124.19Y-102.298
X124.19Y-103.098
X124.19Y-103.898
X125.696Y-99.123
X125.696Y-91.253
X125.696Y-95.86
X125.696Y-96.674
X125.696Y-97.489
X125.696Y-99.923
X125.696Y-100.723
X125.696Y-101.523
X125.696Y-102.323
X125.696Y-103.123
X125.696Y-103.923
X125.696Y-104.723
X125.714Y-98.323
X125.73Y-92.052
X127.224Y-93.878
X127.864Y-105.461
X127.89Y-104.725
X128.016Y-99.67
X131.369Y-110.49
X133.178Y-110.47
X133.772Y-92.376
X134.78Y-99.317
X135.636Y-103.586
X136.054Y-98.626
X136.093Y-110.49
X136.246Y-89.459
X136.295Y-92.169
X137.04Y-103.739
X137.617Y-110.49
X137.624Y-98.634
X137.774Y-92.001
X138.834Y-99.204
X140.208Y-110.49
X140.513Y-78.638
X143.891Y-81.929
X144.17Y-79.553
X144.456Y-81.363
X145.035Y-83.008
X145.39Y-105.918
X145.542Y-99.517
X145.601Y-82.443
X145.694Y-113.843
X145.928Y-101.167
X146.731Y-109.453
X147.066Y-76.977
X147.433Y-99.884
X147.527Y-102.767
X147.676Y-85.801
X148.05Y-108.636
X148.128Y-110.343
X148.133Y-95.707
X148.219Y-76.962
X148.769Y-103.201
X149.32Y-109.906
X149.607Y-102.363
X149.962Y-92.804
X149.969Y-93.611
X150.03Y-103.328
X150.377Y-91.262
X150.571Y-94.64
X150.571Y-106.375
X150.832Y-95.51
X151.028Y-82.906
X151.638Y-79.705
X152.248Y-99.06
X152.248Y-100.889
X152.248Y-102.718
X152.42Y-97.112
X154.229Y-104.699
X154.926Y-115.452
X154.983Y-113.944
X155.296Y-78.486
X155.296Y-82.81
X155.6Y-101.842
X155.726Y-115.452
X155.753Y-106.223
X155.783Y-113.944
X155.949Y-103.066
X156.058Y-93.455
X156.058Y-95.521
X156.058Y-96.926
X156.244Y-101.367
X156.329Y-106.799
X156.362Y-104.699
X156.439Y-103.708
X156.526Y-115.452
X156.634Y-99.67
X156.875Y-111.1
X156.905Y-107.375
X157.326Y-115.452
X157.451Y-113.944
X157.734Y-104.546
X158.189Y-115.452
X158.191Y-108.201
X158.251Y-113.944
X158.332Y-105.595
X158.344Y-96.622
X159.001Y-108.201
X159.047Y-105.974
X159.051Y-113.944
X159.069Y-115.452
X159.413Y-95.885
X159.81Y-108.207
X159.851Y-113.944
X159.857Y-105.974
X159.938Y-115.452
X160.63Y-108.21
X160.651Y-113.944
X160.666Y-105.974
X160.782Y-88.392
X160.81Y-115.452
X161.154Y-95.327
X161.186Y-90.858
X161.186Y-92.012
X161.186Y-92.812
X161.186Y-93.727
X161.186Y-94.527
X161.413Y-96.084
X161.413Y-96.884
X161.439Y-108.201
X161.451Y-113.944
X161.718Y-105.974
X162.306Y-110.338
X162.306Y-112.624
X162.338Y-92.012
X162.338Y-92.812
X162.528Y-105.974
X163.338Y-105.974
X163.363Y-108.212
X163.565Y-92.806
X163.572Y-91.586
X163.576Y-88.29
X163.579Y-90.779
X163.904Y-90.048
X164.065Y-95.959
X164.065Y-96.774
X164.142Y-105.979
X164.173Y-108.196
X164.942Y-105.979
X164.982Y-108.201
X165.049Y-112.624
X165.422Y-88.244
X166.116Y-92.812
X166.295Y-99.848
X166.573Y-102.565
X166.67Y-104.109
X167.421Y-103.811
X167.994Y-98.859
X168.042Y-95.25
X168.903Y-95.826
X168.962Y-99.012
X169.012Y-108.052
X169.036Y-96.615
X169.036Y-97.415
X169.036Y-98.215
X169.469Y-110.49
X170.066Y-102.151
X170.094Y-104.378
X170.485Y-100.702
T2
X151.181Y-91.291
X153.162Y-82.836
X154.229Y-88.774
X159.868Y-99.822
X159.868Y-102.565
X161.239Y-101.194
X162.611Y-99.822
X162.611Y-102.565
X167.03Y-116.735
X167.046Y-114.452
X167.84Y-116.735
X167.854Y-114.509
X168.707Y-114.452
X168.707Y-116.735
X169.032Y-90.278
X169.032Y-91.088
X169.032Y-91.897
X170.8Y-102.942
X171.142Y-106.623
X171.142Y-107.442
X171.142Y-108.252
X171.142Y-109.061
X171.999Y-90.278
X171.999Y-91.088
X171.999Y-91.897
X171.999Y-92.84
X171.999Y-93.65
X171.999Y-94.46
X171.999Y-95.269
X171.999Y-96.079
X171.999Y-96.888
X171.999Y-97.698
X171.999Y-98.508
X171.999Y-99.317
X171.999Y-100.127
T3
X120.091Y-71.831
X120.091Y-74.371
X120.091Y-76.911
X120.091Y-79.451
X120.091Y-81.991
X120.091Y-84.531
X120.091Y-87.071
X120.091Y-89.611
X120.091Y-92.151
X120.091Y-94.691
X120.091Y-97.231
X120.091Y-99.771
X120.091Y-102.311
X120.091Y-104.851
X120.091Y-107.391
X120.091Y-109.931
X120.091Y-112.471
X120.091Y-115.011
X120.091Y-117.551
X120.091Y-120.091
X127.864Y-84.988
X127.864Y-87.528
X127.864Y-90.068
X134.061Y-120.091
X136.601Y-120.091
X139.141Y-120.091
X141.681Y-120.091
X144.221Y-120.091
X146.761Y-120.091
X149.301Y-120.091
X151.841Y-120.091
X154.381Y-120.091
X156.921Y-120.091
X159.461Y-120.091
X162.001Y-120.091
X176.022Y-71.831
X176.022Y-74.371
X176.022Y-76.911
X176.022Y-79.451
X176.022Y-81.991
X176.022Y-84.531
X176.022Y-87.071
X176.022Y-89.611
X176.022Y-92.151
X176.022Y-94.691
X176.022Y-97.231
X176.022Y-99.771
X176.022Y-102.311
X176.022Y-104.851
X176.022Y-107.391
X176.022Y-109.931
X176.022Y-112.471
X176.022Y-115.011
X176.022Y-117.551
X176.022Y-120.091
M30
