%TF.GenerationSoftware,KiCad,Pcbnew,9.0.7*%
%TF.CreationDate,2026-04-13T18:33:56-04:00*%
%TF.ProjectId,BNN,424e4e2e-6b69-4636-9164-5f7063625858,rev?*%
%TF.SameCoordinates,Original*%
%TF.FileFunction,Legend,Top*%
%TF.FilePolarity,Positive*%
%FSLAX46Y46*%
G04 Gerber Fmt 4.6, Leading zero omitted, Abs format (unit mm)*
G04 Created by KiCad (PCBNEW 9.0.7) date 2026-04-13 18:33:56*
%MOMM*%
%LPD*%
G01*
G04 APERTURE LIST*
%ADD10C,0.127000*%
%ADD11C,0.150000*%
%ADD12C,0.200000*%
%ADD13C,0.152400*%
%ADD14C,0.120000*%
%ADD15C,0.000000*%
G04 APERTURE END LIST*
D10*
X122002342Y-117548279D02*
X122486152Y-117548279D01*
X122244247Y-117853079D02*
X122244247Y-117243479D01*
X122728056Y-117052979D02*
X123121151Y-117052979D01*
X123121151Y-117052979D02*
X122909484Y-117357779D01*
X122909484Y-117357779D02*
X123000199Y-117357779D01*
X123000199Y-117357779D02*
X123060675Y-117395879D01*
X123060675Y-117395879D02*
X123090913Y-117433979D01*
X123090913Y-117433979D02*
X123121151Y-117510179D01*
X123121151Y-117510179D02*
X123121151Y-117700679D01*
X123121151Y-117700679D02*
X123090913Y-117776879D01*
X123090913Y-117776879D02*
X123060675Y-117814979D01*
X123060675Y-117814979D02*
X123000199Y-117853079D01*
X123000199Y-117853079D02*
X122818770Y-117853079D01*
X122818770Y-117853079D02*
X122758294Y-117814979D01*
X122758294Y-117814979D02*
X122728056Y-117776879D01*
X123302580Y-117052979D02*
X123514246Y-117853079D01*
X123514246Y-117853079D02*
X123725913Y-117052979D01*
X123877104Y-117052979D02*
X124270199Y-117052979D01*
X124270199Y-117052979D02*
X124058532Y-117357779D01*
X124058532Y-117357779D02*
X124149247Y-117357779D01*
X124149247Y-117357779D02*
X124209723Y-117395879D01*
X124209723Y-117395879D02*
X124239961Y-117433979D01*
X124239961Y-117433979D02*
X124270199Y-117510179D01*
X124270199Y-117510179D02*
X124270199Y-117700679D01*
X124270199Y-117700679D02*
X124239961Y-117776879D01*
X124239961Y-117776879D02*
X124209723Y-117814979D01*
X124209723Y-117814979D02*
X124149247Y-117853079D01*
X124149247Y-117853079D02*
X123967818Y-117853079D01*
X123967818Y-117853079D02*
X123907342Y-117814979D01*
X123907342Y-117814979D02*
X123877104Y-117776879D01*
X122334961Y-81734279D02*
X122274485Y-81696179D01*
X122274485Y-81696179D02*
X122183771Y-81696179D01*
X122183771Y-81696179D02*
X122093056Y-81734279D01*
X122093056Y-81734279D02*
X122032580Y-81810479D01*
X122032580Y-81810479D02*
X122002342Y-81886679D01*
X122002342Y-81886679D02*
X121972104Y-82039079D01*
X121972104Y-82039079D02*
X121972104Y-82153379D01*
X121972104Y-82153379D02*
X122002342Y-82305779D01*
X122002342Y-82305779D02*
X122032580Y-82381979D01*
X122032580Y-82381979D02*
X122093056Y-82458179D01*
X122093056Y-82458179D02*
X122183771Y-82496279D01*
X122183771Y-82496279D02*
X122244247Y-82496279D01*
X122244247Y-82496279D02*
X122334961Y-82458179D01*
X122334961Y-82458179D02*
X122365199Y-82420079D01*
X122365199Y-82420079D02*
X122365199Y-82153379D01*
X122365199Y-82153379D02*
X122244247Y-82153379D01*
X122637342Y-82496279D02*
X122637342Y-81696179D01*
X122637342Y-81696179D02*
X122879247Y-81696179D01*
X122879247Y-81696179D02*
X122939723Y-81734279D01*
X122939723Y-81734279D02*
X122969961Y-81772379D01*
X122969961Y-81772379D02*
X123000199Y-81848579D01*
X123000199Y-81848579D02*
X123000199Y-81962879D01*
X123000199Y-81962879D02*
X122969961Y-82039079D01*
X122969961Y-82039079D02*
X122939723Y-82077179D01*
X122939723Y-82077179D02*
X122879247Y-82115279D01*
X122879247Y-82115279D02*
X122637342Y-82115279D01*
X123272342Y-82496279D02*
X123272342Y-81696179D01*
X123695675Y-81696179D02*
X123816628Y-81696179D01*
X123816628Y-81696179D02*
X123877104Y-81734279D01*
X123877104Y-81734279D02*
X123937580Y-81810479D01*
X123937580Y-81810479D02*
X123967818Y-81962879D01*
X123967818Y-81962879D02*
X123967818Y-82229579D01*
X123967818Y-82229579D02*
X123937580Y-82381979D01*
X123937580Y-82381979D02*
X123877104Y-82458179D01*
X123877104Y-82458179D02*
X123816628Y-82496279D01*
X123816628Y-82496279D02*
X123695675Y-82496279D01*
X123695675Y-82496279D02*
X123635199Y-82458179D01*
X123635199Y-82458179D02*
X123574723Y-82381979D01*
X123574723Y-82381979D02*
X123544485Y-82229579D01*
X123544485Y-82229579D02*
X123544485Y-81962879D01*
X123544485Y-81962879D02*
X123574723Y-81810479D01*
X123574723Y-81810479D02*
X123635199Y-81734279D01*
X123635199Y-81734279D02*
X123695675Y-81696179D01*
X124572580Y-82496279D02*
X124209723Y-82496279D01*
X124391151Y-82496279D02*
X124391151Y-81696179D01*
X124391151Y-81696179D02*
X124330675Y-81810479D01*
X124330675Y-81810479D02*
X124270199Y-81886679D01*
X124270199Y-81886679D02*
X124209723Y-81924779D01*
X125116866Y-81696179D02*
X124995913Y-81696179D01*
X124995913Y-81696179D02*
X124935437Y-81734279D01*
X124935437Y-81734279D02*
X124905199Y-81772379D01*
X124905199Y-81772379D02*
X124844723Y-81886679D01*
X124844723Y-81886679D02*
X124814485Y-82039079D01*
X124814485Y-82039079D02*
X124814485Y-82343879D01*
X124814485Y-82343879D02*
X124844723Y-82420079D01*
X124844723Y-82420079D02*
X124874961Y-82458179D01*
X124874961Y-82458179D02*
X124935437Y-82496279D01*
X124935437Y-82496279D02*
X125056390Y-82496279D01*
X125056390Y-82496279D02*
X125116866Y-82458179D01*
X125116866Y-82458179D02*
X125147104Y-82420079D01*
X125147104Y-82420079D02*
X125177342Y-82343879D01*
X125177342Y-82343879D02*
X125177342Y-82153379D01*
X125177342Y-82153379D02*
X125147104Y-82077179D01*
X125147104Y-82077179D02*
X125116866Y-82039079D01*
X125116866Y-82039079D02*
X125056390Y-82000979D01*
X125056390Y-82000979D02*
X124935437Y-82000979D01*
X124935437Y-82000979D02*
X124874961Y-82039079D01*
X124874961Y-82039079D02*
X124844723Y-82077179D01*
X124844723Y-82077179D02*
X124814485Y-82153379D01*
D11*
X146289923Y-98962380D02*
X146242304Y-99010000D01*
X146242304Y-99010000D02*
X146099447Y-99057619D01*
X146099447Y-99057619D02*
X146004209Y-99057619D01*
X146004209Y-99057619D02*
X145861352Y-99010000D01*
X145861352Y-99010000D02*
X145766114Y-98914761D01*
X145766114Y-98914761D02*
X145718495Y-98819523D01*
X145718495Y-98819523D02*
X145670876Y-98629047D01*
X145670876Y-98629047D02*
X145670876Y-98486190D01*
X145670876Y-98486190D02*
X145718495Y-98295714D01*
X145718495Y-98295714D02*
X145766114Y-98200476D01*
X145766114Y-98200476D02*
X145861352Y-98105238D01*
X145861352Y-98105238D02*
X146004209Y-98057619D01*
X146004209Y-98057619D02*
X146099447Y-98057619D01*
X146099447Y-98057619D02*
X146242304Y-98105238D01*
X146242304Y-98105238D02*
X146289923Y-98152857D01*
X146718495Y-99057619D02*
X146718495Y-98057619D01*
X146718495Y-98057619D02*
X146956590Y-98057619D01*
X146956590Y-98057619D02*
X147099447Y-98105238D01*
X147099447Y-98105238D02*
X147194685Y-98200476D01*
X147194685Y-98200476D02*
X147242304Y-98295714D01*
X147242304Y-98295714D02*
X147289923Y-98486190D01*
X147289923Y-98486190D02*
X147289923Y-98629047D01*
X147289923Y-98629047D02*
X147242304Y-98819523D01*
X147242304Y-98819523D02*
X147194685Y-98914761D01*
X147194685Y-98914761D02*
X147099447Y-99010000D01*
X147099447Y-99010000D02*
X146956590Y-99057619D01*
X146956590Y-99057619D02*
X146718495Y-99057619D01*
X147908971Y-98057619D02*
X148099447Y-98057619D01*
X148099447Y-98057619D02*
X148194685Y-98105238D01*
X148194685Y-98105238D02*
X148289923Y-98200476D01*
X148289923Y-98200476D02*
X148337542Y-98390952D01*
X148337542Y-98390952D02*
X148337542Y-98724285D01*
X148337542Y-98724285D02*
X148289923Y-98914761D01*
X148289923Y-98914761D02*
X148194685Y-99010000D01*
X148194685Y-99010000D02*
X148099447Y-99057619D01*
X148099447Y-99057619D02*
X147908971Y-99057619D01*
X147908971Y-99057619D02*
X147813733Y-99010000D01*
X147813733Y-99010000D02*
X147718495Y-98914761D01*
X147718495Y-98914761D02*
X147670876Y-98724285D01*
X147670876Y-98724285D02*
X147670876Y-98390952D01*
X147670876Y-98390952D02*
X147718495Y-98200476D01*
X147718495Y-98200476D02*
X147813733Y-98105238D01*
X147813733Y-98105238D02*
X147908971Y-98057619D01*
X148766114Y-99057619D02*
X148766114Y-98057619D01*
X148766114Y-98057619D02*
X149337542Y-99057619D01*
X149337542Y-99057619D02*
X149337542Y-98057619D01*
X149813733Y-98533809D02*
X150147066Y-98533809D01*
X150289923Y-99057619D02*
X149813733Y-99057619D01*
X149813733Y-99057619D02*
X149813733Y-98057619D01*
X149813733Y-98057619D02*
X150289923Y-98057619D01*
D10*
X122334961Y-76552679D02*
X122274485Y-76514579D01*
X122274485Y-76514579D02*
X122183771Y-76514579D01*
X122183771Y-76514579D02*
X122093056Y-76552679D01*
X122093056Y-76552679D02*
X122032580Y-76628879D01*
X122032580Y-76628879D02*
X122002342Y-76705079D01*
X122002342Y-76705079D02*
X121972104Y-76857479D01*
X121972104Y-76857479D02*
X121972104Y-76971779D01*
X121972104Y-76971779D02*
X122002342Y-77124179D01*
X122002342Y-77124179D02*
X122032580Y-77200379D01*
X122032580Y-77200379D02*
X122093056Y-77276579D01*
X122093056Y-77276579D02*
X122183771Y-77314679D01*
X122183771Y-77314679D02*
X122244247Y-77314679D01*
X122244247Y-77314679D02*
X122334961Y-77276579D01*
X122334961Y-77276579D02*
X122365199Y-77238479D01*
X122365199Y-77238479D02*
X122365199Y-76971779D01*
X122365199Y-76971779D02*
X122244247Y-76971779D01*
X122637342Y-77314679D02*
X122637342Y-76514579D01*
X122637342Y-76514579D02*
X122879247Y-76514579D01*
X122879247Y-76514579D02*
X122939723Y-76552679D01*
X122939723Y-76552679D02*
X122969961Y-76590779D01*
X122969961Y-76590779D02*
X123000199Y-76666979D01*
X123000199Y-76666979D02*
X123000199Y-76781279D01*
X123000199Y-76781279D02*
X122969961Y-76857479D01*
X122969961Y-76857479D02*
X122939723Y-76895579D01*
X122939723Y-76895579D02*
X122879247Y-76933679D01*
X122879247Y-76933679D02*
X122637342Y-76933679D01*
X123272342Y-77314679D02*
X123272342Y-76514579D01*
X123695675Y-76514579D02*
X123816628Y-76514579D01*
X123816628Y-76514579D02*
X123877104Y-76552679D01*
X123877104Y-76552679D02*
X123937580Y-76628879D01*
X123937580Y-76628879D02*
X123967818Y-76781279D01*
X123967818Y-76781279D02*
X123967818Y-77047979D01*
X123967818Y-77047979D02*
X123937580Y-77200379D01*
X123937580Y-77200379D02*
X123877104Y-77276579D01*
X123877104Y-77276579D02*
X123816628Y-77314679D01*
X123816628Y-77314679D02*
X123695675Y-77314679D01*
X123695675Y-77314679D02*
X123635199Y-77276579D01*
X123635199Y-77276579D02*
X123574723Y-77200379D01*
X123574723Y-77200379D02*
X123544485Y-77047979D01*
X123544485Y-77047979D02*
X123544485Y-76781279D01*
X123544485Y-76781279D02*
X123574723Y-76628879D01*
X123574723Y-76628879D02*
X123635199Y-76552679D01*
X123635199Y-76552679D02*
X123695675Y-76514579D01*
X124572580Y-77314679D02*
X124209723Y-77314679D01*
X124391151Y-77314679D02*
X124391151Y-76514579D01*
X124391151Y-76514579D02*
X124330675Y-76628879D01*
X124330675Y-76628879D02*
X124270199Y-76705079D01*
X124270199Y-76705079D02*
X124209723Y-76743179D01*
X125116866Y-76781279D02*
X125116866Y-77314679D01*
X124965675Y-76476479D02*
X124814485Y-77047979D01*
X124814485Y-77047979D02*
X125207580Y-77047979D01*
X152295479Y-118332457D02*
X151495379Y-118332457D01*
X151495379Y-117909124D02*
X151495379Y-117788171D01*
X151495379Y-117788171D02*
X151533479Y-117727695D01*
X151533479Y-117727695D02*
X151609679Y-117667219D01*
X151609679Y-117667219D02*
X151762079Y-117636981D01*
X151762079Y-117636981D02*
X152028779Y-117636981D01*
X152028779Y-117636981D02*
X152181179Y-117667219D01*
X152181179Y-117667219D02*
X152257379Y-117727695D01*
X152257379Y-117727695D02*
X152295479Y-117788171D01*
X152295479Y-117788171D02*
X152295479Y-117909124D01*
X152295479Y-117909124D02*
X152257379Y-117969600D01*
X152257379Y-117969600D02*
X152181179Y-118030076D01*
X152181179Y-118030076D02*
X152028779Y-118060314D01*
X152028779Y-118060314D02*
X151762079Y-118060314D01*
X151762079Y-118060314D02*
X151609679Y-118030076D01*
X151609679Y-118030076D02*
X151533479Y-117969600D01*
X151533479Y-117969600D02*
X151495379Y-117909124D01*
X151762079Y-117092695D02*
X152295479Y-117092695D01*
X151457279Y-117243886D02*
X152028779Y-117395076D01*
X152028779Y-117395076D02*
X152028779Y-117001981D01*
X151495379Y-116457695D02*
X151495379Y-116760076D01*
X151495379Y-116760076D02*
X151876379Y-116790314D01*
X151876379Y-116790314D02*
X151838279Y-116760076D01*
X151838279Y-116760076D02*
X151800179Y-116699600D01*
X151800179Y-116699600D02*
X151800179Y-116548409D01*
X151800179Y-116548409D02*
X151838279Y-116487933D01*
X151838279Y-116487933D02*
X151876379Y-116457695D01*
X151876379Y-116457695D02*
X151952579Y-116427457D01*
X151952579Y-116427457D02*
X152143079Y-116427457D01*
X152143079Y-116427457D02*
X152219279Y-116457695D01*
X152219279Y-116457695D02*
X152257379Y-116487933D01*
X152257379Y-116487933D02*
X152295479Y-116548409D01*
X152295479Y-116548409D02*
X152295479Y-116699600D01*
X152295479Y-116699600D02*
X152257379Y-116760076D01*
X152257379Y-116760076D02*
X152219279Y-116790314D01*
X147113879Y-118332457D02*
X146313779Y-118332457D01*
X146313779Y-117909124D02*
X146313779Y-117788171D01*
X146313779Y-117788171D02*
X146351879Y-117727695D01*
X146351879Y-117727695D02*
X146428079Y-117667219D01*
X146428079Y-117667219D02*
X146580479Y-117636981D01*
X146580479Y-117636981D02*
X146847179Y-117636981D01*
X146847179Y-117636981D02*
X146999579Y-117667219D01*
X146999579Y-117667219D02*
X147075779Y-117727695D01*
X147075779Y-117727695D02*
X147113879Y-117788171D01*
X147113879Y-117788171D02*
X147113879Y-117909124D01*
X147113879Y-117909124D02*
X147075779Y-117969600D01*
X147075779Y-117969600D02*
X146999579Y-118030076D01*
X146999579Y-118030076D02*
X146847179Y-118060314D01*
X146847179Y-118060314D02*
X146580479Y-118060314D01*
X146580479Y-118060314D02*
X146428079Y-118030076D01*
X146428079Y-118030076D02*
X146351879Y-117969600D01*
X146351879Y-117969600D02*
X146313779Y-117909124D01*
X146580479Y-117092695D02*
X147113879Y-117092695D01*
X146275679Y-117243886D02*
X146847179Y-117395076D01*
X146847179Y-117395076D02*
X146847179Y-117001981D01*
X146313779Y-116820552D02*
X146313779Y-116427457D01*
X146313779Y-116427457D02*
X146618579Y-116639124D01*
X146618579Y-116639124D02*
X146618579Y-116548409D01*
X146618579Y-116548409D02*
X146656679Y-116487933D01*
X146656679Y-116487933D02*
X146694779Y-116457695D01*
X146694779Y-116457695D02*
X146770979Y-116427457D01*
X146770979Y-116427457D02*
X146961479Y-116427457D01*
X146961479Y-116427457D02*
X147037679Y-116457695D01*
X147037679Y-116457695D02*
X147075779Y-116487933D01*
X147075779Y-116487933D02*
X147113879Y-116548409D01*
X147113879Y-116548409D02*
X147113879Y-116729838D01*
X147113879Y-116729838D02*
X147075779Y-116790314D01*
X147075779Y-116790314D02*
X147037679Y-116820552D01*
X122334961Y-112061879D02*
X122274485Y-112023779D01*
X122274485Y-112023779D02*
X122183771Y-112023779D01*
X122183771Y-112023779D02*
X122093056Y-112061879D01*
X122093056Y-112061879D02*
X122032580Y-112138079D01*
X122032580Y-112138079D02*
X122002342Y-112214279D01*
X122002342Y-112214279D02*
X121972104Y-112366679D01*
X121972104Y-112366679D02*
X121972104Y-112480979D01*
X121972104Y-112480979D02*
X122002342Y-112633379D01*
X122002342Y-112633379D02*
X122032580Y-112709579D01*
X122032580Y-112709579D02*
X122093056Y-112785779D01*
X122093056Y-112785779D02*
X122183771Y-112823879D01*
X122183771Y-112823879D02*
X122244247Y-112823879D01*
X122244247Y-112823879D02*
X122334961Y-112785779D01*
X122334961Y-112785779D02*
X122365199Y-112747679D01*
X122365199Y-112747679D02*
X122365199Y-112480979D01*
X122365199Y-112480979D02*
X122244247Y-112480979D01*
X122637342Y-112823879D02*
X122637342Y-112023779D01*
X122637342Y-112023779D02*
X122879247Y-112023779D01*
X122879247Y-112023779D02*
X122939723Y-112061879D01*
X122939723Y-112061879D02*
X122969961Y-112099979D01*
X122969961Y-112099979D02*
X123000199Y-112176179D01*
X123000199Y-112176179D02*
X123000199Y-112290479D01*
X123000199Y-112290479D02*
X122969961Y-112366679D01*
X122969961Y-112366679D02*
X122939723Y-112404779D01*
X122939723Y-112404779D02*
X122879247Y-112442879D01*
X122879247Y-112442879D02*
X122637342Y-112442879D01*
X123272342Y-112823879D02*
X123272342Y-112023779D01*
X123695675Y-112023779D02*
X123816628Y-112023779D01*
X123816628Y-112023779D02*
X123877104Y-112061879D01*
X123877104Y-112061879D02*
X123937580Y-112138079D01*
X123937580Y-112138079D02*
X123967818Y-112290479D01*
X123967818Y-112290479D02*
X123967818Y-112557179D01*
X123967818Y-112557179D02*
X123937580Y-112709579D01*
X123937580Y-112709579D02*
X123877104Y-112785779D01*
X123877104Y-112785779D02*
X123816628Y-112823879D01*
X123816628Y-112823879D02*
X123695675Y-112823879D01*
X123695675Y-112823879D02*
X123635199Y-112785779D01*
X123635199Y-112785779D02*
X123574723Y-112709579D01*
X123574723Y-112709579D02*
X123544485Y-112557179D01*
X123544485Y-112557179D02*
X123544485Y-112290479D01*
X123544485Y-112290479D02*
X123574723Y-112138079D01*
X123574723Y-112138079D02*
X123635199Y-112061879D01*
X123635199Y-112061879D02*
X123695675Y-112023779D01*
X124209723Y-112099979D02*
X124239961Y-112061879D01*
X124239961Y-112061879D02*
X124300437Y-112023779D01*
X124300437Y-112023779D02*
X124451628Y-112023779D01*
X124451628Y-112023779D02*
X124512104Y-112061879D01*
X124512104Y-112061879D02*
X124542342Y-112099979D01*
X124542342Y-112099979D02*
X124572580Y-112176179D01*
X124572580Y-112176179D02*
X124572580Y-112252379D01*
X124572580Y-112252379D02*
X124542342Y-112366679D01*
X124542342Y-112366679D02*
X124179485Y-112823879D01*
X124179485Y-112823879D02*
X124572580Y-112823879D01*
X124935437Y-112366679D02*
X124874961Y-112328579D01*
X124874961Y-112328579D02*
X124844723Y-112290479D01*
X124844723Y-112290479D02*
X124814485Y-112214279D01*
X124814485Y-112214279D02*
X124814485Y-112176179D01*
X124814485Y-112176179D02*
X124844723Y-112099979D01*
X124844723Y-112099979D02*
X124874961Y-112061879D01*
X124874961Y-112061879D02*
X124935437Y-112023779D01*
X124935437Y-112023779D02*
X125056390Y-112023779D01*
X125056390Y-112023779D02*
X125116866Y-112061879D01*
X125116866Y-112061879D02*
X125147104Y-112099979D01*
X125147104Y-112099979D02*
X125177342Y-112176179D01*
X125177342Y-112176179D02*
X125177342Y-112214279D01*
X125177342Y-112214279D02*
X125147104Y-112290479D01*
X125147104Y-112290479D02*
X125116866Y-112328579D01*
X125116866Y-112328579D02*
X125056390Y-112366679D01*
X125056390Y-112366679D02*
X124935437Y-112366679D01*
X124935437Y-112366679D02*
X124874961Y-112404779D01*
X124874961Y-112404779D02*
X124844723Y-112442879D01*
X124844723Y-112442879D02*
X124814485Y-112519079D01*
X124814485Y-112519079D02*
X124814485Y-112671479D01*
X124814485Y-112671479D02*
X124844723Y-112747679D01*
X124844723Y-112747679D02*
X124874961Y-112785779D01*
X124874961Y-112785779D02*
X124935437Y-112823879D01*
X124935437Y-112823879D02*
X125056390Y-112823879D01*
X125056390Y-112823879D02*
X125116866Y-112785779D01*
X125116866Y-112785779D02*
X125147104Y-112747679D01*
X125147104Y-112747679D02*
X125177342Y-112671479D01*
X125177342Y-112671479D02*
X125177342Y-112519079D01*
X125177342Y-112519079D02*
X125147104Y-112442879D01*
X125147104Y-112442879D02*
X125116866Y-112404779D01*
X125116866Y-112404779D02*
X125056390Y-112366679D01*
X172903942Y-105203879D02*
X172903942Y-104403779D01*
X173327275Y-104403779D02*
X173448228Y-104403779D01*
X173448228Y-104403779D02*
X173508704Y-104441879D01*
X173508704Y-104441879D02*
X173569180Y-104518079D01*
X173569180Y-104518079D02*
X173599418Y-104670479D01*
X173599418Y-104670479D02*
X173599418Y-104937179D01*
X173599418Y-104937179D02*
X173569180Y-105089579D01*
X173569180Y-105089579D02*
X173508704Y-105165779D01*
X173508704Y-105165779D02*
X173448228Y-105203879D01*
X173448228Y-105203879D02*
X173327275Y-105203879D01*
X173327275Y-105203879D02*
X173266799Y-105165779D01*
X173266799Y-105165779D02*
X173206323Y-105089579D01*
X173206323Y-105089579D02*
X173176085Y-104937179D01*
X173176085Y-104937179D02*
X173176085Y-104670479D01*
X173176085Y-104670479D02*
X173206323Y-104518079D01*
X173206323Y-104518079D02*
X173266799Y-104441879D01*
X173266799Y-104441879D02*
X173327275Y-104403779D01*
X173901799Y-105203879D02*
X174022751Y-105203879D01*
X174022751Y-105203879D02*
X174083228Y-105165779D01*
X174083228Y-105165779D02*
X174113466Y-105127679D01*
X174113466Y-105127679D02*
X174173942Y-105013379D01*
X174173942Y-105013379D02*
X174204180Y-104860979D01*
X174204180Y-104860979D02*
X174204180Y-104556179D01*
X174204180Y-104556179D02*
X174173942Y-104479979D01*
X174173942Y-104479979D02*
X174143704Y-104441879D01*
X174143704Y-104441879D02*
X174083228Y-104403779D01*
X174083228Y-104403779D02*
X173962275Y-104403779D01*
X173962275Y-104403779D02*
X173901799Y-104441879D01*
X173901799Y-104441879D02*
X173871561Y-104479979D01*
X173871561Y-104479979D02*
X173841323Y-104556179D01*
X173841323Y-104556179D02*
X173841323Y-104746679D01*
X173841323Y-104746679D02*
X173871561Y-104822879D01*
X173871561Y-104822879D02*
X173901799Y-104860979D01*
X173901799Y-104860979D02*
X173962275Y-104899079D01*
X173962275Y-104899079D02*
X174083228Y-104899079D01*
X174083228Y-104899079D02*
X174143704Y-104860979D01*
X174143704Y-104860979D02*
X174173942Y-104822879D01*
X174173942Y-104822879D02*
X174204180Y-104746679D01*
X134464679Y-118332457D02*
X133664579Y-118332457D01*
X133664579Y-117909124D02*
X133664579Y-117788171D01*
X133664579Y-117788171D02*
X133702679Y-117727695D01*
X133702679Y-117727695D02*
X133778879Y-117667219D01*
X133778879Y-117667219D02*
X133931279Y-117636981D01*
X133931279Y-117636981D02*
X134197979Y-117636981D01*
X134197979Y-117636981D02*
X134350379Y-117667219D01*
X134350379Y-117667219D02*
X134426579Y-117727695D01*
X134426579Y-117727695D02*
X134464679Y-117788171D01*
X134464679Y-117788171D02*
X134464679Y-117909124D01*
X134464679Y-117909124D02*
X134426579Y-117969600D01*
X134426579Y-117969600D02*
X134350379Y-118030076D01*
X134350379Y-118030076D02*
X134197979Y-118060314D01*
X134197979Y-118060314D02*
X133931279Y-118060314D01*
X133931279Y-118060314D02*
X133778879Y-118030076D01*
X133778879Y-118030076D02*
X133702679Y-117969600D01*
X133702679Y-117969600D02*
X133664579Y-117909124D01*
X133664579Y-117425314D02*
X133664579Y-117032219D01*
X133664579Y-117032219D02*
X133969379Y-117243886D01*
X133969379Y-117243886D02*
X133969379Y-117153171D01*
X133969379Y-117153171D02*
X134007479Y-117092695D01*
X134007479Y-117092695D02*
X134045579Y-117062457D01*
X134045579Y-117062457D02*
X134121779Y-117032219D01*
X134121779Y-117032219D02*
X134312279Y-117032219D01*
X134312279Y-117032219D02*
X134388479Y-117062457D01*
X134388479Y-117062457D02*
X134426579Y-117092695D01*
X134426579Y-117092695D02*
X134464679Y-117153171D01*
X134464679Y-117153171D02*
X134464679Y-117334600D01*
X134464679Y-117334600D02*
X134426579Y-117395076D01*
X134426579Y-117395076D02*
X134388479Y-117425314D01*
X133931279Y-116487933D02*
X134464679Y-116487933D01*
X133626479Y-116639124D02*
X134197979Y-116790314D01*
X134197979Y-116790314D02*
X134197979Y-116397219D01*
X172779361Y-119681879D02*
X172718885Y-119643779D01*
X172718885Y-119643779D02*
X172628171Y-119643779D01*
X172628171Y-119643779D02*
X172537456Y-119681879D01*
X172537456Y-119681879D02*
X172476980Y-119758079D01*
X172476980Y-119758079D02*
X172446742Y-119834279D01*
X172446742Y-119834279D02*
X172416504Y-119986679D01*
X172416504Y-119986679D02*
X172416504Y-120100979D01*
X172416504Y-120100979D02*
X172446742Y-120253379D01*
X172446742Y-120253379D02*
X172476980Y-120329579D01*
X172476980Y-120329579D02*
X172537456Y-120405779D01*
X172537456Y-120405779D02*
X172628171Y-120443879D01*
X172628171Y-120443879D02*
X172688647Y-120443879D01*
X172688647Y-120443879D02*
X172779361Y-120405779D01*
X172779361Y-120405779D02*
X172809599Y-120367679D01*
X172809599Y-120367679D02*
X172809599Y-120100979D01*
X172809599Y-120100979D02*
X172688647Y-120100979D01*
X173081742Y-120443879D02*
X173081742Y-119643779D01*
X173081742Y-119643779D02*
X173444599Y-120443879D01*
X173444599Y-120443879D02*
X173444599Y-119643779D01*
X173746980Y-120443879D02*
X173746980Y-119643779D01*
X173746980Y-119643779D02*
X173898170Y-119643779D01*
X173898170Y-119643779D02*
X173988885Y-119681879D01*
X173988885Y-119681879D02*
X174049361Y-119758079D01*
X174049361Y-119758079D02*
X174079599Y-119834279D01*
X174079599Y-119834279D02*
X174109837Y-119986679D01*
X174109837Y-119986679D02*
X174109837Y-120100979D01*
X174109837Y-120100979D02*
X174079599Y-120253379D01*
X174079599Y-120253379D02*
X174049361Y-120329579D01*
X174049361Y-120329579D02*
X173988885Y-120405779D01*
X173988885Y-120405779D02*
X173898170Y-120443879D01*
X173898170Y-120443879D02*
X173746980Y-120443879D01*
X172294342Y-74723879D02*
X172294342Y-73923779D01*
X172717675Y-73923779D02*
X172838628Y-73923779D01*
X172838628Y-73923779D02*
X172899104Y-73961879D01*
X172899104Y-73961879D02*
X172959580Y-74038079D01*
X172959580Y-74038079D02*
X172989818Y-74190479D01*
X172989818Y-74190479D02*
X172989818Y-74457179D01*
X172989818Y-74457179D02*
X172959580Y-74609579D01*
X172959580Y-74609579D02*
X172899104Y-74685779D01*
X172899104Y-74685779D02*
X172838628Y-74723879D01*
X172838628Y-74723879D02*
X172717675Y-74723879D01*
X172717675Y-74723879D02*
X172657199Y-74685779D01*
X172657199Y-74685779D02*
X172596723Y-74609579D01*
X172596723Y-74609579D02*
X172566485Y-74457179D01*
X172566485Y-74457179D02*
X172566485Y-74190479D01*
X172566485Y-74190479D02*
X172596723Y-74038079D01*
X172596723Y-74038079D02*
X172657199Y-73961879D01*
X172657199Y-73961879D02*
X172717675Y-73923779D01*
X173201485Y-73923779D02*
X173594580Y-73923779D01*
X173594580Y-73923779D02*
X173382913Y-74228579D01*
X173382913Y-74228579D02*
X173473628Y-74228579D01*
X173473628Y-74228579D02*
X173534104Y-74266679D01*
X173534104Y-74266679D02*
X173564342Y-74304779D01*
X173564342Y-74304779D02*
X173594580Y-74380979D01*
X173594580Y-74380979D02*
X173594580Y-74571479D01*
X173594580Y-74571479D02*
X173564342Y-74647679D01*
X173564342Y-74647679D02*
X173534104Y-74685779D01*
X173534104Y-74685779D02*
X173473628Y-74723879D01*
X173473628Y-74723879D02*
X173292199Y-74723879D01*
X173292199Y-74723879D02*
X173231723Y-74685779D01*
X173231723Y-74685779D02*
X173201485Y-74647679D01*
X173836485Y-73999979D02*
X173866723Y-73961879D01*
X173866723Y-73961879D02*
X173927199Y-73923779D01*
X173927199Y-73923779D02*
X174078390Y-73923779D01*
X174078390Y-73923779D02*
X174138866Y-73961879D01*
X174138866Y-73961879D02*
X174169104Y-73999979D01*
X174169104Y-73999979D02*
X174199342Y-74076179D01*
X174199342Y-74076179D02*
X174199342Y-74152379D01*
X174199342Y-74152379D02*
X174169104Y-74266679D01*
X174169104Y-74266679D02*
X173806247Y-74723879D01*
X173806247Y-74723879D02*
X174199342Y-74723879D01*
X172294342Y-100174679D02*
X172294342Y-99374579D01*
X172717675Y-99374579D02*
X172838628Y-99374579D01*
X172838628Y-99374579D02*
X172899104Y-99412679D01*
X172899104Y-99412679D02*
X172959580Y-99488879D01*
X172959580Y-99488879D02*
X172989818Y-99641279D01*
X172989818Y-99641279D02*
X172989818Y-99907979D01*
X172989818Y-99907979D02*
X172959580Y-100060379D01*
X172959580Y-100060379D02*
X172899104Y-100136579D01*
X172899104Y-100136579D02*
X172838628Y-100174679D01*
X172838628Y-100174679D02*
X172717675Y-100174679D01*
X172717675Y-100174679D02*
X172657199Y-100136579D01*
X172657199Y-100136579D02*
X172596723Y-100060379D01*
X172596723Y-100060379D02*
X172566485Y-99907979D01*
X172566485Y-99907979D02*
X172566485Y-99641279D01*
X172566485Y-99641279D02*
X172596723Y-99488879D01*
X172596723Y-99488879D02*
X172657199Y-99412679D01*
X172657199Y-99412679D02*
X172717675Y-99374579D01*
X173594580Y-100174679D02*
X173231723Y-100174679D01*
X173413151Y-100174679D02*
X173413151Y-99374579D01*
X173413151Y-99374579D02*
X173352675Y-99488879D01*
X173352675Y-99488879D02*
X173292199Y-99565079D01*
X173292199Y-99565079D02*
X173231723Y-99603179D01*
X174199342Y-100174679D02*
X173836485Y-100174679D01*
X174017913Y-100174679D02*
X174017913Y-99374579D01*
X174017913Y-99374579D02*
X173957437Y-99488879D01*
X173957437Y-99488879D02*
X173896961Y-99565079D01*
X173896961Y-99565079D02*
X173836485Y-99603179D01*
X172903942Y-112823879D02*
X172903942Y-112023779D01*
X173327275Y-112023779D02*
X173448228Y-112023779D01*
X173448228Y-112023779D02*
X173508704Y-112061879D01*
X173508704Y-112061879D02*
X173569180Y-112138079D01*
X173569180Y-112138079D02*
X173599418Y-112290479D01*
X173599418Y-112290479D02*
X173599418Y-112557179D01*
X173599418Y-112557179D02*
X173569180Y-112709579D01*
X173569180Y-112709579D02*
X173508704Y-112785779D01*
X173508704Y-112785779D02*
X173448228Y-112823879D01*
X173448228Y-112823879D02*
X173327275Y-112823879D01*
X173327275Y-112823879D02*
X173266799Y-112785779D01*
X173266799Y-112785779D02*
X173206323Y-112709579D01*
X173206323Y-112709579D02*
X173176085Y-112557179D01*
X173176085Y-112557179D02*
X173176085Y-112290479D01*
X173176085Y-112290479D02*
X173206323Y-112138079D01*
X173206323Y-112138079D02*
X173266799Y-112061879D01*
X173266799Y-112061879D02*
X173327275Y-112023779D01*
X173811085Y-112023779D02*
X174204180Y-112023779D01*
X174204180Y-112023779D02*
X173992513Y-112328579D01*
X173992513Y-112328579D02*
X174083228Y-112328579D01*
X174083228Y-112328579D02*
X174143704Y-112366679D01*
X174143704Y-112366679D02*
X174173942Y-112404779D01*
X174173942Y-112404779D02*
X174204180Y-112480979D01*
X174204180Y-112480979D02*
X174204180Y-112671479D01*
X174204180Y-112671479D02*
X174173942Y-112747679D01*
X174173942Y-112747679D02*
X174143704Y-112785779D01*
X174143704Y-112785779D02*
X174083228Y-112823879D01*
X174083228Y-112823879D02*
X173901799Y-112823879D01*
X173901799Y-112823879D02*
X173841323Y-112785779D01*
X173841323Y-112785779D02*
X173811085Y-112747679D01*
X122334961Y-71421879D02*
X122274485Y-71383779D01*
X122274485Y-71383779D02*
X122183771Y-71383779D01*
X122183771Y-71383779D02*
X122093056Y-71421879D01*
X122093056Y-71421879D02*
X122032580Y-71498079D01*
X122032580Y-71498079D02*
X122002342Y-71574279D01*
X122002342Y-71574279D02*
X121972104Y-71726679D01*
X121972104Y-71726679D02*
X121972104Y-71840979D01*
X121972104Y-71840979D02*
X122002342Y-71993379D01*
X122002342Y-71993379D02*
X122032580Y-72069579D01*
X122032580Y-72069579D02*
X122093056Y-72145779D01*
X122093056Y-72145779D02*
X122183771Y-72183879D01*
X122183771Y-72183879D02*
X122244247Y-72183879D01*
X122244247Y-72183879D02*
X122334961Y-72145779D01*
X122334961Y-72145779D02*
X122365199Y-72107679D01*
X122365199Y-72107679D02*
X122365199Y-71840979D01*
X122365199Y-71840979D02*
X122244247Y-71840979D01*
X122637342Y-72183879D02*
X122637342Y-71383779D01*
X122637342Y-71383779D02*
X123000199Y-72183879D01*
X123000199Y-72183879D02*
X123000199Y-71383779D01*
X123302580Y-72183879D02*
X123302580Y-71383779D01*
X123302580Y-71383779D02*
X123453770Y-71383779D01*
X123453770Y-71383779D02*
X123544485Y-71421879D01*
X123544485Y-71421879D02*
X123604961Y-71498079D01*
X123604961Y-71498079D02*
X123635199Y-71574279D01*
X123635199Y-71574279D02*
X123665437Y-71726679D01*
X123665437Y-71726679D02*
X123665437Y-71840979D01*
X123665437Y-71840979D02*
X123635199Y-71993379D01*
X123635199Y-71993379D02*
X123604961Y-72069579D01*
X123604961Y-72069579D02*
X123544485Y-72145779D01*
X123544485Y-72145779D02*
X123453770Y-72183879D01*
X123453770Y-72183879D02*
X123302580Y-72183879D01*
X122334961Y-96821879D02*
X122274485Y-96783779D01*
X122274485Y-96783779D02*
X122183771Y-96783779D01*
X122183771Y-96783779D02*
X122093056Y-96821879D01*
X122093056Y-96821879D02*
X122032580Y-96898079D01*
X122032580Y-96898079D02*
X122002342Y-96974279D01*
X122002342Y-96974279D02*
X121972104Y-97126679D01*
X121972104Y-97126679D02*
X121972104Y-97240979D01*
X121972104Y-97240979D02*
X122002342Y-97393379D01*
X122002342Y-97393379D02*
X122032580Y-97469579D01*
X122032580Y-97469579D02*
X122093056Y-97545779D01*
X122093056Y-97545779D02*
X122183771Y-97583879D01*
X122183771Y-97583879D02*
X122244247Y-97583879D01*
X122244247Y-97583879D02*
X122334961Y-97545779D01*
X122334961Y-97545779D02*
X122365199Y-97507679D01*
X122365199Y-97507679D02*
X122365199Y-97240979D01*
X122365199Y-97240979D02*
X122244247Y-97240979D01*
X122637342Y-97583879D02*
X122637342Y-96783779D01*
X122637342Y-96783779D02*
X122879247Y-96783779D01*
X122879247Y-96783779D02*
X122939723Y-96821879D01*
X122939723Y-96821879D02*
X122969961Y-96859979D01*
X122969961Y-96859979D02*
X123000199Y-96936179D01*
X123000199Y-96936179D02*
X123000199Y-97050479D01*
X123000199Y-97050479D02*
X122969961Y-97126679D01*
X122969961Y-97126679D02*
X122939723Y-97164779D01*
X122939723Y-97164779D02*
X122879247Y-97202879D01*
X122879247Y-97202879D02*
X122637342Y-97202879D01*
X123272342Y-97583879D02*
X123272342Y-96783779D01*
X123695675Y-96783779D02*
X123816628Y-96783779D01*
X123816628Y-96783779D02*
X123877104Y-96821879D01*
X123877104Y-96821879D02*
X123937580Y-96898079D01*
X123937580Y-96898079D02*
X123967818Y-97050479D01*
X123967818Y-97050479D02*
X123967818Y-97317179D01*
X123967818Y-97317179D02*
X123937580Y-97469579D01*
X123937580Y-97469579D02*
X123877104Y-97545779D01*
X123877104Y-97545779D02*
X123816628Y-97583879D01*
X123816628Y-97583879D02*
X123695675Y-97583879D01*
X123695675Y-97583879D02*
X123635199Y-97545779D01*
X123635199Y-97545779D02*
X123574723Y-97469579D01*
X123574723Y-97469579D02*
X123544485Y-97317179D01*
X123544485Y-97317179D02*
X123544485Y-97050479D01*
X123544485Y-97050479D02*
X123574723Y-96898079D01*
X123574723Y-96898079D02*
X123635199Y-96821879D01*
X123635199Y-96821879D02*
X123695675Y-96783779D01*
X124209723Y-96859979D02*
X124239961Y-96821879D01*
X124239961Y-96821879D02*
X124300437Y-96783779D01*
X124300437Y-96783779D02*
X124451628Y-96783779D01*
X124451628Y-96783779D02*
X124512104Y-96821879D01*
X124512104Y-96821879D02*
X124542342Y-96859979D01*
X124542342Y-96859979D02*
X124572580Y-96936179D01*
X124572580Y-96936179D02*
X124572580Y-97012379D01*
X124572580Y-97012379D02*
X124542342Y-97126679D01*
X124542342Y-97126679D02*
X124179485Y-97583879D01*
X124179485Y-97583879D02*
X124572580Y-97583879D01*
X124814485Y-96859979D02*
X124844723Y-96821879D01*
X124844723Y-96821879D02*
X124905199Y-96783779D01*
X124905199Y-96783779D02*
X125056390Y-96783779D01*
X125056390Y-96783779D02*
X125116866Y-96821879D01*
X125116866Y-96821879D02*
X125147104Y-96859979D01*
X125147104Y-96859979D02*
X125177342Y-96936179D01*
X125177342Y-96936179D02*
X125177342Y-97012379D01*
X125177342Y-97012379D02*
X125147104Y-97126679D01*
X125147104Y-97126679D02*
X124784247Y-97583879D01*
X124784247Y-97583879D02*
X125177342Y-97583879D01*
X172903942Y-115414679D02*
X172903942Y-114614579D01*
X173327275Y-114614579D02*
X173448228Y-114614579D01*
X173448228Y-114614579D02*
X173508704Y-114652679D01*
X173508704Y-114652679D02*
X173569180Y-114728879D01*
X173569180Y-114728879D02*
X173599418Y-114881279D01*
X173599418Y-114881279D02*
X173599418Y-115147979D01*
X173599418Y-115147979D02*
X173569180Y-115300379D01*
X173569180Y-115300379D02*
X173508704Y-115376579D01*
X173508704Y-115376579D02*
X173448228Y-115414679D01*
X173448228Y-115414679D02*
X173327275Y-115414679D01*
X173327275Y-115414679D02*
X173266799Y-115376579D01*
X173266799Y-115376579D02*
X173206323Y-115300379D01*
X173206323Y-115300379D02*
X173176085Y-115147979D01*
X173176085Y-115147979D02*
X173176085Y-114881279D01*
X173176085Y-114881279D02*
X173206323Y-114728879D01*
X173206323Y-114728879D02*
X173266799Y-114652679D01*
X173266799Y-114652679D02*
X173327275Y-114614579D01*
X173841323Y-114690779D02*
X173871561Y-114652679D01*
X173871561Y-114652679D02*
X173932037Y-114614579D01*
X173932037Y-114614579D02*
X174083228Y-114614579D01*
X174083228Y-114614579D02*
X174143704Y-114652679D01*
X174143704Y-114652679D02*
X174173942Y-114690779D01*
X174173942Y-114690779D02*
X174204180Y-114766979D01*
X174204180Y-114766979D02*
X174204180Y-114843179D01*
X174204180Y-114843179D02*
X174173942Y-114957479D01*
X174173942Y-114957479D02*
X173811085Y-115414679D01*
X173811085Y-115414679D02*
X174204180Y-115414679D01*
X161591879Y-117999838D02*
X161553779Y-118060314D01*
X161553779Y-118060314D02*
X161553779Y-118151028D01*
X161553779Y-118151028D02*
X161591879Y-118241743D01*
X161591879Y-118241743D02*
X161668079Y-118302219D01*
X161668079Y-118302219D02*
X161744279Y-118332457D01*
X161744279Y-118332457D02*
X161896679Y-118362695D01*
X161896679Y-118362695D02*
X162010979Y-118362695D01*
X162010979Y-118362695D02*
X162163379Y-118332457D01*
X162163379Y-118332457D02*
X162239579Y-118302219D01*
X162239579Y-118302219D02*
X162315779Y-118241743D01*
X162315779Y-118241743D02*
X162353879Y-118151028D01*
X162353879Y-118151028D02*
X162353879Y-118090552D01*
X162353879Y-118090552D02*
X162315779Y-117999838D01*
X162315779Y-117999838D02*
X162277679Y-117969600D01*
X162277679Y-117969600D02*
X162010979Y-117969600D01*
X162010979Y-117969600D02*
X162010979Y-118090552D01*
X162353879Y-117697457D02*
X161553779Y-117697457D01*
X161553779Y-117697457D02*
X162353879Y-117334600D01*
X162353879Y-117334600D02*
X161553779Y-117334600D01*
X162353879Y-117032219D02*
X161553779Y-117032219D01*
X161553779Y-117032219D02*
X161553779Y-116881029D01*
X161553779Y-116881029D02*
X161591879Y-116790314D01*
X161591879Y-116790314D02*
X161668079Y-116729838D01*
X161668079Y-116729838D02*
X161744279Y-116699600D01*
X161744279Y-116699600D02*
X161896679Y-116669362D01*
X161896679Y-116669362D02*
X162010979Y-116669362D01*
X162010979Y-116669362D02*
X162163379Y-116699600D01*
X162163379Y-116699600D02*
X162239579Y-116729838D01*
X162239579Y-116729838D02*
X162315779Y-116790314D01*
X162315779Y-116790314D02*
X162353879Y-116881029D01*
X162353879Y-116881029D02*
X162353879Y-117032219D01*
X122334961Y-119732679D02*
X122274485Y-119694579D01*
X122274485Y-119694579D02*
X122183771Y-119694579D01*
X122183771Y-119694579D02*
X122093056Y-119732679D01*
X122093056Y-119732679D02*
X122032580Y-119808879D01*
X122032580Y-119808879D02*
X122002342Y-119885079D01*
X122002342Y-119885079D02*
X121972104Y-120037479D01*
X121972104Y-120037479D02*
X121972104Y-120151779D01*
X121972104Y-120151779D02*
X122002342Y-120304179D01*
X122002342Y-120304179D02*
X122032580Y-120380379D01*
X122032580Y-120380379D02*
X122093056Y-120456579D01*
X122093056Y-120456579D02*
X122183771Y-120494679D01*
X122183771Y-120494679D02*
X122244247Y-120494679D01*
X122244247Y-120494679D02*
X122334961Y-120456579D01*
X122334961Y-120456579D02*
X122365199Y-120418479D01*
X122365199Y-120418479D02*
X122365199Y-120151779D01*
X122365199Y-120151779D02*
X122244247Y-120151779D01*
X122637342Y-120494679D02*
X122637342Y-119694579D01*
X122637342Y-119694579D02*
X123000199Y-120494679D01*
X123000199Y-120494679D02*
X123000199Y-119694579D01*
X123302580Y-120494679D02*
X123302580Y-119694579D01*
X123302580Y-119694579D02*
X123453770Y-119694579D01*
X123453770Y-119694579D02*
X123544485Y-119732679D01*
X123544485Y-119732679D02*
X123604961Y-119808879D01*
X123604961Y-119808879D02*
X123635199Y-119885079D01*
X123635199Y-119885079D02*
X123665437Y-120037479D01*
X123665437Y-120037479D02*
X123665437Y-120151779D01*
X123665437Y-120151779D02*
X123635199Y-120304179D01*
X123635199Y-120304179D02*
X123604961Y-120380379D01*
X123604961Y-120380379D02*
X123544485Y-120456579D01*
X123544485Y-120456579D02*
X123453770Y-120494679D01*
X123453770Y-120494679D02*
X123302580Y-120494679D01*
X172903942Y-110385479D02*
X172903942Y-109585379D01*
X173327275Y-109585379D02*
X173448228Y-109585379D01*
X173448228Y-109585379D02*
X173508704Y-109623479D01*
X173508704Y-109623479D02*
X173569180Y-109699679D01*
X173569180Y-109699679D02*
X173599418Y-109852079D01*
X173599418Y-109852079D02*
X173599418Y-110118779D01*
X173599418Y-110118779D02*
X173569180Y-110271179D01*
X173569180Y-110271179D02*
X173508704Y-110347379D01*
X173508704Y-110347379D02*
X173448228Y-110385479D01*
X173448228Y-110385479D02*
X173327275Y-110385479D01*
X173327275Y-110385479D02*
X173266799Y-110347379D01*
X173266799Y-110347379D02*
X173206323Y-110271179D01*
X173206323Y-110271179D02*
X173176085Y-110118779D01*
X173176085Y-110118779D02*
X173176085Y-109852079D01*
X173176085Y-109852079D02*
X173206323Y-109699679D01*
X173206323Y-109699679D02*
X173266799Y-109623479D01*
X173266799Y-109623479D02*
X173327275Y-109585379D01*
X174143704Y-109852079D02*
X174143704Y-110385479D01*
X173992513Y-109547279D02*
X173841323Y-110118779D01*
X173841323Y-110118779D02*
X174234418Y-110118779D01*
X139493879Y-118332457D02*
X138693779Y-118332457D01*
X138693779Y-117909124D02*
X138693779Y-117788171D01*
X138693779Y-117788171D02*
X138731879Y-117727695D01*
X138731879Y-117727695D02*
X138808079Y-117667219D01*
X138808079Y-117667219D02*
X138960479Y-117636981D01*
X138960479Y-117636981D02*
X139227179Y-117636981D01*
X139227179Y-117636981D02*
X139379579Y-117667219D01*
X139379579Y-117667219D02*
X139455779Y-117727695D01*
X139455779Y-117727695D02*
X139493879Y-117788171D01*
X139493879Y-117788171D02*
X139493879Y-117909124D01*
X139493879Y-117909124D02*
X139455779Y-117969600D01*
X139455779Y-117969600D02*
X139379579Y-118030076D01*
X139379579Y-118030076D02*
X139227179Y-118060314D01*
X139227179Y-118060314D02*
X138960479Y-118060314D01*
X138960479Y-118060314D02*
X138808079Y-118030076D01*
X138808079Y-118030076D02*
X138731879Y-117969600D01*
X138731879Y-117969600D02*
X138693779Y-117909124D01*
X138693779Y-117425314D02*
X138693779Y-117032219D01*
X138693779Y-117032219D02*
X138998579Y-117243886D01*
X138998579Y-117243886D02*
X138998579Y-117153171D01*
X138998579Y-117153171D02*
X139036679Y-117092695D01*
X139036679Y-117092695D02*
X139074779Y-117062457D01*
X139074779Y-117062457D02*
X139150979Y-117032219D01*
X139150979Y-117032219D02*
X139341479Y-117032219D01*
X139341479Y-117032219D02*
X139417679Y-117062457D01*
X139417679Y-117062457D02*
X139455779Y-117092695D01*
X139455779Y-117092695D02*
X139493879Y-117153171D01*
X139493879Y-117153171D02*
X139493879Y-117334600D01*
X139493879Y-117334600D02*
X139455779Y-117395076D01*
X139455779Y-117395076D02*
X139417679Y-117425314D01*
X138693779Y-116820552D02*
X138693779Y-116397219D01*
X138693779Y-116397219D02*
X139493879Y-116669362D01*
X137055479Y-118332457D02*
X136255379Y-118332457D01*
X136255379Y-117909124D02*
X136255379Y-117788171D01*
X136255379Y-117788171D02*
X136293479Y-117727695D01*
X136293479Y-117727695D02*
X136369679Y-117667219D01*
X136369679Y-117667219D02*
X136522079Y-117636981D01*
X136522079Y-117636981D02*
X136788779Y-117636981D01*
X136788779Y-117636981D02*
X136941179Y-117667219D01*
X136941179Y-117667219D02*
X137017379Y-117727695D01*
X137017379Y-117727695D02*
X137055479Y-117788171D01*
X137055479Y-117788171D02*
X137055479Y-117909124D01*
X137055479Y-117909124D02*
X137017379Y-117969600D01*
X137017379Y-117969600D02*
X136941179Y-118030076D01*
X136941179Y-118030076D02*
X136788779Y-118060314D01*
X136788779Y-118060314D02*
X136522079Y-118060314D01*
X136522079Y-118060314D02*
X136369679Y-118030076D01*
X136369679Y-118030076D02*
X136293479Y-117969600D01*
X136293479Y-117969600D02*
X136255379Y-117909124D01*
X136255379Y-117425314D02*
X136255379Y-117032219D01*
X136255379Y-117032219D02*
X136560179Y-117243886D01*
X136560179Y-117243886D02*
X136560179Y-117153171D01*
X136560179Y-117153171D02*
X136598279Y-117092695D01*
X136598279Y-117092695D02*
X136636379Y-117062457D01*
X136636379Y-117062457D02*
X136712579Y-117032219D01*
X136712579Y-117032219D02*
X136903079Y-117032219D01*
X136903079Y-117032219D02*
X136979279Y-117062457D01*
X136979279Y-117062457D02*
X137017379Y-117092695D01*
X137017379Y-117092695D02*
X137055479Y-117153171D01*
X137055479Y-117153171D02*
X137055479Y-117334600D01*
X137055479Y-117334600D02*
X137017379Y-117395076D01*
X137017379Y-117395076D02*
X136979279Y-117425314D01*
X136255379Y-116487933D02*
X136255379Y-116608886D01*
X136255379Y-116608886D02*
X136293479Y-116669362D01*
X136293479Y-116669362D02*
X136331579Y-116699600D01*
X136331579Y-116699600D02*
X136445879Y-116760076D01*
X136445879Y-116760076D02*
X136598279Y-116790314D01*
X136598279Y-116790314D02*
X136903079Y-116790314D01*
X136903079Y-116790314D02*
X136979279Y-116760076D01*
X136979279Y-116760076D02*
X137017379Y-116729838D01*
X137017379Y-116729838D02*
X137055479Y-116669362D01*
X137055479Y-116669362D02*
X137055479Y-116548409D01*
X137055479Y-116548409D02*
X137017379Y-116487933D01*
X137017379Y-116487933D02*
X136979279Y-116457695D01*
X136979279Y-116457695D02*
X136903079Y-116427457D01*
X136903079Y-116427457D02*
X136712579Y-116427457D01*
X136712579Y-116427457D02*
X136636379Y-116457695D01*
X136636379Y-116457695D02*
X136598279Y-116487933D01*
X136598279Y-116487933D02*
X136560179Y-116548409D01*
X136560179Y-116548409D02*
X136560179Y-116669362D01*
X136560179Y-116669362D02*
X136598279Y-116729838D01*
X136598279Y-116729838D02*
X136636379Y-116760076D01*
X136636379Y-116760076D02*
X136712579Y-116790314D01*
X159915479Y-118332457D02*
X159115379Y-118332457D01*
X159115379Y-117909124D02*
X159115379Y-117788171D01*
X159115379Y-117788171D02*
X159153479Y-117727695D01*
X159153479Y-117727695D02*
X159229679Y-117667219D01*
X159229679Y-117667219D02*
X159382079Y-117636981D01*
X159382079Y-117636981D02*
X159648779Y-117636981D01*
X159648779Y-117636981D02*
X159801179Y-117667219D01*
X159801179Y-117667219D02*
X159877379Y-117727695D01*
X159877379Y-117727695D02*
X159915479Y-117788171D01*
X159915479Y-117788171D02*
X159915479Y-117909124D01*
X159915479Y-117909124D02*
X159877379Y-117969600D01*
X159877379Y-117969600D02*
X159801179Y-118030076D01*
X159801179Y-118030076D02*
X159648779Y-118060314D01*
X159648779Y-118060314D02*
X159382079Y-118060314D01*
X159382079Y-118060314D02*
X159229679Y-118030076D01*
X159229679Y-118030076D02*
X159153479Y-117969600D01*
X159153479Y-117969600D02*
X159115379Y-117909124D01*
X159382079Y-117092695D02*
X159915479Y-117092695D01*
X159077279Y-117243886D02*
X159648779Y-117395076D01*
X159648779Y-117395076D02*
X159648779Y-117001981D01*
X159458279Y-116669362D02*
X159420179Y-116729838D01*
X159420179Y-116729838D02*
X159382079Y-116760076D01*
X159382079Y-116760076D02*
X159305879Y-116790314D01*
X159305879Y-116790314D02*
X159267779Y-116790314D01*
X159267779Y-116790314D02*
X159191579Y-116760076D01*
X159191579Y-116760076D02*
X159153479Y-116729838D01*
X159153479Y-116729838D02*
X159115379Y-116669362D01*
X159115379Y-116669362D02*
X159115379Y-116548409D01*
X159115379Y-116548409D02*
X159153479Y-116487933D01*
X159153479Y-116487933D02*
X159191579Y-116457695D01*
X159191579Y-116457695D02*
X159267779Y-116427457D01*
X159267779Y-116427457D02*
X159305879Y-116427457D01*
X159305879Y-116427457D02*
X159382079Y-116457695D01*
X159382079Y-116457695D02*
X159420179Y-116487933D01*
X159420179Y-116487933D02*
X159458279Y-116548409D01*
X159458279Y-116548409D02*
X159458279Y-116669362D01*
X159458279Y-116669362D02*
X159496379Y-116729838D01*
X159496379Y-116729838D02*
X159534479Y-116760076D01*
X159534479Y-116760076D02*
X159610679Y-116790314D01*
X159610679Y-116790314D02*
X159763079Y-116790314D01*
X159763079Y-116790314D02*
X159839279Y-116760076D01*
X159839279Y-116760076D02*
X159877379Y-116729838D01*
X159877379Y-116729838D02*
X159915479Y-116669362D01*
X159915479Y-116669362D02*
X159915479Y-116548409D01*
X159915479Y-116548409D02*
X159877379Y-116487933D01*
X159877379Y-116487933D02*
X159839279Y-116457695D01*
X159839279Y-116457695D02*
X159763079Y-116427457D01*
X159763079Y-116427457D02*
X159610679Y-116427457D01*
X159610679Y-116427457D02*
X159534479Y-116457695D01*
X159534479Y-116457695D02*
X159496379Y-116487933D01*
X159496379Y-116487933D02*
X159458279Y-116548409D01*
X122334961Y-91792679D02*
X122274485Y-91754579D01*
X122274485Y-91754579D02*
X122183771Y-91754579D01*
X122183771Y-91754579D02*
X122093056Y-91792679D01*
X122093056Y-91792679D02*
X122032580Y-91868879D01*
X122032580Y-91868879D02*
X122002342Y-91945079D01*
X122002342Y-91945079D02*
X121972104Y-92097479D01*
X121972104Y-92097479D02*
X121972104Y-92211779D01*
X121972104Y-92211779D02*
X122002342Y-92364179D01*
X122002342Y-92364179D02*
X122032580Y-92440379D01*
X122032580Y-92440379D02*
X122093056Y-92516579D01*
X122093056Y-92516579D02*
X122183771Y-92554679D01*
X122183771Y-92554679D02*
X122244247Y-92554679D01*
X122244247Y-92554679D02*
X122334961Y-92516579D01*
X122334961Y-92516579D02*
X122365199Y-92478479D01*
X122365199Y-92478479D02*
X122365199Y-92211779D01*
X122365199Y-92211779D02*
X122244247Y-92211779D01*
X122637342Y-92554679D02*
X122637342Y-91754579D01*
X122637342Y-91754579D02*
X122879247Y-91754579D01*
X122879247Y-91754579D02*
X122939723Y-91792679D01*
X122939723Y-91792679D02*
X122969961Y-91830779D01*
X122969961Y-91830779D02*
X123000199Y-91906979D01*
X123000199Y-91906979D02*
X123000199Y-92021279D01*
X123000199Y-92021279D02*
X122969961Y-92097479D01*
X122969961Y-92097479D02*
X122939723Y-92135579D01*
X122939723Y-92135579D02*
X122879247Y-92173679D01*
X122879247Y-92173679D02*
X122637342Y-92173679D01*
X123272342Y-92554679D02*
X123272342Y-91754579D01*
X123695675Y-91754579D02*
X123816628Y-91754579D01*
X123816628Y-91754579D02*
X123877104Y-91792679D01*
X123877104Y-91792679D02*
X123937580Y-91868879D01*
X123937580Y-91868879D02*
X123967818Y-92021279D01*
X123967818Y-92021279D02*
X123967818Y-92287979D01*
X123967818Y-92287979D02*
X123937580Y-92440379D01*
X123937580Y-92440379D02*
X123877104Y-92516579D01*
X123877104Y-92516579D02*
X123816628Y-92554679D01*
X123816628Y-92554679D02*
X123695675Y-92554679D01*
X123695675Y-92554679D02*
X123635199Y-92516579D01*
X123635199Y-92516579D02*
X123574723Y-92440379D01*
X123574723Y-92440379D02*
X123544485Y-92287979D01*
X123544485Y-92287979D02*
X123544485Y-92021279D01*
X123544485Y-92021279D02*
X123574723Y-91868879D01*
X123574723Y-91868879D02*
X123635199Y-91792679D01*
X123635199Y-91792679D02*
X123695675Y-91754579D01*
X124209723Y-91830779D02*
X124239961Y-91792679D01*
X124239961Y-91792679D02*
X124300437Y-91754579D01*
X124300437Y-91754579D02*
X124451628Y-91754579D01*
X124451628Y-91754579D02*
X124512104Y-91792679D01*
X124512104Y-91792679D02*
X124542342Y-91830779D01*
X124542342Y-91830779D02*
X124572580Y-91906979D01*
X124572580Y-91906979D02*
X124572580Y-91983179D01*
X124572580Y-91983179D02*
X124542342Y-92097479D01*
X124542342Y-92097479D02*
X124179485Y-92554679D01*
X124179485Y-92554679D02*
X124572580Y-92554679D01*
X124965675Y-91754579D02*
X125026152Y-91754579D01*
X125026152Y-91754579D02*
X125086628Y-91792679D01*
X125086628Y-91792679D02*
X125116866Y-91830779D01*
X125116866Y-91830779D02*
X125147104Y-91906979D01*
X125147104Y-91906979D02*
X125177342Y-92059379D01*
X125177342Y-92059379D02*
X125177342Y-92249879D01*
X125177342Y-92249879D02*
X125147104Y-92402279D01*
X125147104Y-92402279D02*
X125116866Y-92478479D01*
X125116866Y-92478479D02*
X125086628Y-92516579D01*
X125086628Y-92516579D02*
X125026152Y-92554679D01*
X125026152Y-92554679D02*
X124965675Y-92554679D01*
X124965675Y-92554679D02*
X124905199Y-92516579D01*
X124905199Y-92516579D02*
X124874961Y-92478479D01*
X124874961Y-92478479D02*
X124844723Y-92402279D01*
X124844723Y-92402279D02*
X124814485Y-92249879D01*
X124814485Y-92249879D02*
X124814485Y-92059379D01*
X124814485Y-92059379D02*
X124844723Y-91906979D01*
X124844723Y-91906979D02*
X124874961Y-91830779D01*
X124874961Y-91830779D02*
X124905199Y-91792679D01*
X124905199Y-91792679D02*
X124965675Y-91754579D01*
X172294342Y-84934679D02*
X172294342Y-84134579D01*
X172717675Y-84134579D02*
X172838628Y-84134579D01*
X172838628Y-84134579D02*
X172899104Y-84172679D01*
X172899104Y-84172679D02*
X172959580Y-84248879D01*
X172959580Y-84248879D02*
X172989818Y-84401279D01*
X172989818Y-84401279D02*
X172989818Y-84667979D01*
X172989818Y-84667979D02*
X172959580Y-84820379D01*
X172959580Y-84820379D02*
X172899104Y-84896579D01*
X172899104Y-84896579D02*
X172838628Y-84934679D01*
X172838628Y-84934679D02*
X172717675Y-84934679D01*
X172717675Y-84934679D02*
X172657199Y-84896579D01*
X172657199Y-84896579D02*
X172596723Y-84820379D01*
X172596723Y-84820379D02*
X172566485Y-84667979D01*
X172566485Y-84667979D02*
X172566485Y-84401279D01*
X172566485Y-84401279D02*
X172596723Y-84248879D01*
X172596723Y-84248879D02*
X172657199Y-84172679D01*
X172657199Y-84172679D02*
X172717675Y-84134579D01*
X173231723Y-84210779D02*
X173261961Y-84172679D01*
X173261961Y-84172679D02*
X173322437Y-84134579D01*
X173322437Y-84134579D02*
X173473628Y-84134579D01*
X173473628Y-84134579D02*
X173534104Y-84172679D01*
X173534104Y-84172679D02*
X173564342Y-84210779D01*
X173564342Y-84210779D02*
X173594580Y-84286979D01*
X173594580Y-84286979D02*
X173594580Y-84363179D01*
X173594580Y-84363179D02*
X173564342Y-84477479D01*
X173564342Y-84477479D02*
X173201485Y-84934679D01*
X173201485Y-84934679D02*
X173594580Y-84934679D01*
X174199342Y-84934679D02*
X173836485Y-84934679D01*
X174017913Y-84934679D02*
X174017913Y-84134579D01*
X174017913Y-84134579D02*
X173957437Y-84248879D01*
X173957437Y-84248879D02*
X173896961Y-84325079D01*
X173896961Y-84325079D02*
X173836485Y-84363179D01*
X172294342Y-79905479D02*
X172294342Y-79105379D01*
X172717675Y-79105379D02*
X172838628Y-79105379D01*
X172838628Y-79105379D02*
X172899104Y-79143479D01*
X172899104Y-79143479D02*
X172959580Y-79219679D01*
X172959580Y-79219679D02*
X172989818Y-79372079D01*
X172989818Y-79372079D02*
X172989818Y-79638779D01*
X172989818Y-79638779D02*
X172959580Y-79791179D01*
X172959580Y-79791179D02*
X172899104Y-79867379D01*
X172899104Y-79867379D02*
X172838628Y-79905479D01*
X172838628Y-79905479D02*
X172717675Y-79905479D01*
X172717675Y-79905479D02*
X172657199Y-79867379D01*
X172657199Y-79867379D02*
X172596723Y-79791179D01*
X172596723Y-79791179D02*
X172566485Y-79638779D01*
X172566485Y-79638779D02*
X172566485Y-79372079D01*
X172566485Y-79372079D02*
X172596723Y-79219679D01*
X172596723Y-79219679D02*
X172657199Y-79143479D01*
X172657199Y-79143479D02*
X172717675Y-79105379D01*
X173231723Y-79181579D02*
X173261961Y-79143479D01*
X173261961Y-79143479D02*
X173322437Y-79105379D01*
X173322437Y-79105379D02*
X173473628Y-79105379D01*
X173473628Y-79105379D02*
X173534104Y-79143479D01*
X173534104Y-79143479D02*
X173564342Y-79181579D01*
X173564342Y-79181579D02*
X173594580Y-79257779D01*
X173594580Y-79257779D02*
X173594580Y-79333979D01*
X173594580Y-79333979D02*
X173564342Y-79448279D01*
X173564342Y-79448279D02*
X173201485Y-79905479D01*
X173201485Y-79905479D02*
X173594580Y-79905479D01*
X173957437Y-79448279D02*
X173896961Y-79410179D01*
X173896961Y-79410179D02*
X173866723Y-79372079D01*
X173866723Y-79372079D02*
X173836485Y-79295879D01*
X173836485Y-79295879D02*
X173836485Y-79257779D01*
X173836485Y-79257779D02*
X173866723Y-79181579D01*
X173866723Y-79181579D02*
X173896961Y-79143479D01*
X173896961Y-79143479D02*
X173957437Y-79105379D01*
X173957437Y-79105379D02*
X174078390Y-79105379D01*
X174078390Y-79105379D02*
X174138866Y-79143479D01*
X174138866Y-79143479D02*
X174169104Y-79181579D01*
X174169104Y-79181579D02*
X174199342Y-79257779D01*
X174199342Y-79257779D02*
X174199342Y-79295879D01*
X174199342Y-79295879D02*
X174169104Y-79372079D01*
X174169104Y-79372079D02*
X174138866Y-79410179D01*
X174138866Y-79410179D02*
X174078390Y-79448279D01*
X174078390Y-79448279D02*
X173957437Y-79448279D01*
X173957437Y-79448279D02*
X173896961Y-79486379D01*
X173896961Y-79486379D02*
X173866723Y-79524479D01*
X173866723Y-79524479D02*
X173836485Y-79600679D01*
X173836485Y-79600679D02*
X173836485Y-79753079D01*
X173836485Y-79753079D02*
X173866723Y-79829279D01*
X173866723Y-79829279D02*
X173896961Y-79867379D01*
X173896961Y-79867379D02*
X173957437Y-79905479D01*
X173957437Y-79905479D02*
X174078390Y-79905479D01*
X174078390Y-79905479D02*
X174138866Y-79867379D01*
X174138866Y-79867379D02*
X174169104Y-79829279D01*
X174169104Y-79829279D02*
X174199342Y-79753079D01*
X174199342Y-79753079D02*
X174199342Y-79600679D01*
X174199342Y-79600679D02*
X174169104Y-79524479D01*
X174169104Y-79524479D02*
X174138866Y-79486379D01*
X174138866Y-79486379D02*
X174078390Y-79448279D01*
X122334961Y-84172679D02*
X122274485Y-84134579D01*
X122274485Y-84134579D02*
X122183771Y-84134579D01*
X122183771Y-84134579D02*
X122093056Y-84172679D01*
X122093056Y-84172679D02*
X122032580Y-84248879D01*
X122032580Y-84248879D02*
X122002342Y-84325079D01*
X122002342Y-84325079D02*
X121972104Y-84477479D01*
X121972104Y-84477479D02*
X121972104Y-84591779D01*
X121972104Y-84591779D02*
X122002342Y-84744179D01*
X122002342Y-84744179D02*
X122032580Y-84820379D01*
X122032580Y-84820379D02*
X122093056Y-84896579D01*
X122093056Y-84896579D02*
X122183771Y-84934679D01*
X122183771Y-84934679D02*
X122244247Y-84934679D01*
X122244247Y-84934679D02*
X122334961Y-84896579D01*
X122334961Y-84896579D02*
X122365199Y-84858479D01*
X122365199Y-84858479D02*
X122365199Y-84591779D01*
X122365199Y-84591779D02*
X122244247Y-84591779D01*
X122637342Y-84934679D02*
X122637342Y-84134579D01*
X122637342Y-84134579D02*
X122879247Y-84134579D01*
X122879247Y-84134579D02*
X122939723Y-84172679D01*
X122939723Y-84172679D02*
X122969961Y-84210779D01*
X122969961Y-84210779D02*
X123000199Y-84286979D01*
X123000199Y-84286979D02*
X123000199Y-84401279D01*
X123000199Y-84401279D02*
X122969961Y-84477479D01*
X122969961Y-84477479D02*
X122939723Y-84515579D01*
X122939723Y-84515579D02*
X122879247Y-84553679D01*
X122879247Y-84553679D02*
X122637342Y-84553679D01*
X123272342Y-84934679D02*
X123272342Y-84134579D01*
X123695675Y-84134579D02*
X123816628Y-84134579D01*
X123816628Y-84134579D02*
X123877104Y-84172679D01*
X123877104Y-84172679D02*
X123937580Y-84248879D01*
X123937580Y-84248879D02*
X123967818Y-84401279D01*
X123967818Y-84401279D02*
X123967818Y-84667979D01*
X123967818Y-84667979D02*
X123937580Y-84820379D01*
X123937580Y-84820379D02*
X123877104Y-84896579D01*
X123877104Y-84896579D02*
X123816628Y-84934679D01*
X123816628Y-84934679D02*
X123695675Y-84934679D01*
X123695675Y-84934679D02*
X123635199Y-84896579D01*
X123635199Y-84896579D02*
X123574723Y-84820379D01*
X123574723Y-84820379D02*
X123544485Y-84667979D01*
X123544485Y-84667979D02*
X123544485Y-84401279D01*
X123544485Y-84401279D02*
X123574723Y-84248879D01*
X123574723Y-84248879D02*
X123635199Y-84172679D01*
X123635199Y-84172679D02*
X123695675Y-84134579D01*
X124572580Y-84934679D02*
X124209723Y-84934679D01*
X124391151Y-84934679D02*
X124391151Y-84134579D01*
X124391151Y-84134579D02*
X124330675Y-84248879D01*
X124330675Y-84248879D02*
X124270199Y-84325079D01*
X124270199Y-84325079D02*
X124209723Y-84363179D01*
X124784247Y-84134579D02*
X125207580Y-84134579D01*
X125207580Y-84134579D02*
X124935437Y-84934679D01*
X122002342Y-74419079D02*
X122486152Y-74419079D01*
X122244247Y-74723879D02*
X122244247Y-74114279D01*
X123090913Y-73923779D02*
X122788532Y-73923779D01*
X122788532Y-73923779D02*
X122758294Y-74304779D01*
X122758294Y-74304779D02*
X122788532Y-74266679D01*
X122788532Y-74266679D02*
X122849008Y-74228579D01*
X122849008Y-74228579D02*
X123000199Y-74228579D01*
X123000199Y-74228579D02*
X123060675Y-74266679D01*
X123060675Y-74266679D02*
X123090913Y-74304779D01*
X123090913Y-74304779D02*
X123121151Y-74380979D01*
X123121151Y-74380979D02*
X123121151Y-74571479D01*
X123121151Y-74571479D02*
X123090913Y-74647679D01*
X123090913Y-74647679D02*
X123060675Y-74685779D01*
X123060675Y-74685779D02*
X123000199Y-74723879D01*
X123000199Y-74723879D02*
X122849008Y-74723879D01*
X122849008Y-74723879D02*
X122788532Y-74685779D01*
X122788532Y-74685779D02*
X122758294Y-74647679D01*
X123302580Y-73923779D02*
X123514246Y-74723879D01*
X123514246Y-74723879D02*
X123725913Y-73923779D01*
X172294342Y-82343879D02*
X172294342Y-81543779D01*
X172717675Y-81543779D02*
X172838628Y-81543779D01*
X172838628Y-81543779D02*
X172899104Y-81581879D01*
X172899104Y-81581879D02*
X172959580Y-81658079D01*
X172959580Y-81658079D02*
X172989818Y-81810479D01*
X172989818Y-81810479D02*
X172989818Y-82077179D01*
X172989818Y-82077179D02*
X172959580Y-82229579D01*
X172959580Y-82229579D02*
X172899104Y-82305779D01*
X172899104Y-82305779D02*
X172838628Y-82343879D01*
X172838628Y-82343879D02*
X172717675Y-82343879D01*
X172717675Y-82343879D02*
X172657199Y-82305779D01*
X172657199Y-82305779D02*
X172596723Y-82229579D01*
X172596723Y-82229579D02*
X172566485Y-82077179D01*
X172566485Y-82077179D02*
X172566485Y-81810479D01*
X172566485Y-81810479D02*
X172596723Y-81658079D01*
X172596723Y-81658079D02*
X172657199Y-81581879D01*
X172657199Y-81581879D02*
X172717675Y-81543779D01*
X173231723Y-81619979D02*
X173261961Y-81581879D01*
X173261961Y-81581879D02*
X173322437Y-81543779D01*
X173322437Y-81543779D02*
X173473628Y-81543779D01*
X173473628Y-81543779D02*
X173534104Y-81581879D01*
X173534104Y-81581879D02*
X173564342Y-81619979D01*
X173564342Y-81619979D02*
X173594580Y-81696179D01*
X173594580Y-81696179D02*
X173594580Y-81772379D01*
X173594580Y-81772379D02*
X173564342Y-81886679D01*
X173564342Y-81886679D02*
X173201485Y-82343879D01*
X173201485Y-82343879D02*
X173594580Y-82343879D01*
X173806247Y-81543779D02*
X174199342Y-81543779D01*
X174199342Y-81543779D02*
X173987675Y-81848579D01*
X173987675Y-81848579D02*
X174078390Y-81848579D01*
X174078390Y-81848579D02*
X174138866Y-81886679D01*
X174138866Y-81886679D02*
X174169104Y-81924779D01*
X174169104Y-81924779D02*
X174199342Y-82000979D01*
X174199342Y-82000979D02*
X174199342Y-82191479D01*
X174199342Y-82191479D02*
X174169104Y-82267679D01*
X174169104Y-82267679D02*
X174138866Y-82305779D01*
X174138866Y-82305779D02*
X174078390Y-82343879D01*
X174078390Y-82343879D02*
X173896961Y-82343879D01*
X173896961Y-82343879D02*
X173836485Y-82305779D01*
X173836485Y-82305779D02*
X173806247Y-82267679D01*
X172294342Y-102765479D02*
X172294342Y-101965379D01*
X172717675Y-101965379D02*
X172838628Y-101965379D01*
X172838628Y-101965379D02*
X172899104Y-102003479D01*
X172899104Y-102003479D02*
X172959580Y-102079679D01*
X172959580Y-102079679D02*
X172989818Y-102232079D01*
X172989818Y-102232079D02*
X172989818Y-102498779D01*
X172989818Y-102498779D02*
X172959580Y-102651179D01*
X172959580Y-102651179D02*
X172899104Y-102727379D01*
X172899104Y-102727379D02*
X172838628Y-102765479D01*
X172838628Y-102765479D02*
X172717675Y-102765479D01*
X172717675Y-102765479D02*
X172657199Y-102727379D01*
X172657199Y-102727379D02*
X172596723Y-102651179D01*
X172596723Y-102651179D02*
X172566485Y-102498779D01*
X172566485Y-102498779D02*
X172566485Y-102232079D01*
X172566485Y-102232079D02*
X172596723Y-102079679D01*
X172596723Y-102079679D02*
X172657199Y-102003479D01*
X172657199Y-102003479D02*
X172717675Y-101965379D01*
X173594580Y-102765479D02*
X173231723Y-102765479D01*
X173413151Y-102765479D02*
X173413151Y-101965379D01*
X173413151Y-101965379D02*
X173352675Y-102079679D01*
X173352675Y-102079679D02*
X173292199Y-102155879D01*
X173292199Y-102155879D02*
X173231723Y-102193979D01*
X173987675Y-101965379D02*
X174048152Y-101965379D01*
X174048152Y-101965379D02*
X174108628Y-102003479D01*
X174108628Y-102003479D02*
X174138866Y-102041579D01*
X174138866Y-102041579D02*
X174169104Y-102117779D01*
X174169104Y-102117779D02*
X174199342Y-102270179D01*
X174199342Y-102270179D02*
X174199342Y-102460679D01*
X174199342Y-102460679D02*
X174169104Y-102613079D01*
X174169104Y-102613079D02*
X174138866Y-102689279D01*
X174138866Y-102689279D02*
X174108628Y-102727379D01*
X174108628Y-102727379D02*
X174048152Y-102765479D01*
X174048152Y-102765479D02*
X173987675Y-102765479D01*
X173987675Y-102765479D02*
X173927199Y-102727379D01*
X173927199Y-102727379D02*
X173896961Y-102689279D01*
X173896961Y-102689279D02*
X173866723Y-102613079D01*
X173866723Y-102613079D02*
X173836485Y-102460679D01*
X173836485Y-102460679D02*
X173836485Y-102270179D01*
X173836485Y-102270179D02*
X173866723Y-102117779D01*
X173866723Y-102117779D02*
X173896961Y-102041579D01*
X173896961Y-102041579D02*
X173927199Y-102003479D01*
X173927199Y-102003479D02*
X173987675Y-101965379D01*
X122334961Y-94383479D02*
X122274485Y-94345379D01*
X122274485Y-94345379D02*
X122183771Y-94345379D01*
X122183771Y-94345379D02*
X122093056Y-94383479D01*
X122093056Y-94383479D02*
X122032580Y-94459679D01*
X122032580Y-94459679D02*
X122002342Y-94535879D01*
X122002342Y-94535879D02*
X121972104Y-94688279D01*
X121972104Y-94688279D02*
X121972104Y-94802579D01*
X121972104Y-94802579D02*
X122002342Y-94954979D01*
X122002342Y-94954979D02*
X122032580Y-95031179D01*
X122032580Y-95031179D02*
X122093056Y-95107379D01*
X122093056Y-95107379D02*
X122183771Y-95145479D01*
X122183771Y-95145479D02*
X122244247Y-95145479D01*
X122244247Y-95145479D02*
X122334961Y-95107379D01*
X122334961Y-95107379D02*
X122365199Y-95069279D01*
X122365199Y-95069279D02*
X122365199Y-94802579D01*
X122365199Y-94802579D02*
X122244247Y-94802579D01*
X122637342Y-95145479D02*
X122637342Y-94345379D01*
X122637342Y-94345379D02*
X122879247Y-94345379D01*
X122879247Y-94345379D02*
X122939723Y-94383479D01*
X122939723Y-94383479D02*
X122969961Y-94421579D01*
X122969961Y-94421579D02*
X123000199Y-94497779D01*
X123000199Y-94497779D02*
X123000199Y-94612079D01*
X123000199Y-94612079D02*
X122969961Y-94688279D01*
X122969961Y-94688279D02*
X122939723Y-94726379D01*
X122939723Y-94726379D02*
X122879247Y-94764479D01*
X122879247Y-94764479D02*
X122637342Y-94764479D01*
X123272342Y-95145479D02*
X123272342Y-94345379D01*
X123695675Y-94345379D02*
X123816628Y-94345379D01*
X123816628Y-94345379D02*
X123877104Y-94383479D01*
X123877104Y-94383479D02*
X123937580Y-94459679D01*
X123937580Y-94459679D02*
X123967818Y-94612079D01*
X123967818Y-94612079D02*
X123967818Y-94878779D01*
X123967818Y-94878779D02*
X123937580Y-95031179D01*
X123937580Y-95031179D02*
X123877104Y-95107379D01*
X123877104Y-95107379D02*
X123816628Y-95145479D01*
X123816628Y-95145479D02*
X123695675Y-95145479D01*
X123695675Y-95145479D02*
X123635199Y-95107379D01*
X123635199Y-95107379D02*
X123574723Y-95031179D01*
X123574723Y-95031179D02*
X123544485Y-94878779D01*
X123544485Y-94878779D02*
X123544485Y-94612079D01*
X123544485Y-94612079D02*
X123574723Y-94459679D01*
X123574723Y-94459679D02*
X123635199Y-94383479D01*
X123635199Y-94383479D02*
X123695675Y-94345379D01*
X124209723Y-94421579D02*
X124239961Y-94383479D01*
X124239961Y-94383479D02*
X124300437Y-94345379D01*
X124300437Y-94345379D02*
X124451628Y-94345379D01*
X124451628Y-94345379D02*
X124512104Y-94383479D01*
X124512104Y-94383479D02*
X124542342Y-94421579D01*
X124542342Y-94421579D02*
X124572580Y-94497779D01*
X124572580Y-94497779D02*
X124572580Y-94573979D01*
X124572580Y-94573979D02*
X124542342Y-94688279D01*
X124542342Y-94688279D02*
X124179485Y-95145479D01*
X124179485Y-95145479D02*
X124572580Y-95145479D01*
X125177342Y-95145479D02*
X124814485Y-95145479D01*
X124995913Y-95145479D02*
X124995913Y-94345379D01*
X124995913Y-94345379D02*
X124935437Y-94459679D01*
X124935437Y-94459679D02*
X124874961Y-94535879D01*
X124874961Y-94535879D02*
X124814485Y-94573979D01*
X172294342Y-89963879D02*
X172294342Y-89163779D01*
X172717675Y-89163779D02*
X172838628Y-89163779D01*
X172838628Y-89163779D02*
X172899104Y-89201879D01*
X172899104Y-89201879D02*
X172959580Y-89278079D01*
X172959580Y-89278079D02*
X172989818Y-89430479D01*
X172989818Y-89430479D02*
X172989818Y-89697179D01*
X172989818Y-89697179D02*
X172959580Y-89849579D01*
X172959580Y-89849579D02*
X172899104Y-89925779D01*
X172899104Y-89925779D02*
X172838628Y-89963879D01*
X172838628Y-89963879D02*
X172717675Y-89963879D01*
X172717675Y-89963879D02*
X172657199Y-89925779D01*
X172657199Y-89925779D02*
X172596723Y-89849579D01*
X172596723Y-89849579D02*
X172566485Y-89697179D01*
X172566485Y-89697179D02*
X172566485Y-89430479D01*
X172566485Y-89430479D02*
X172596723Y-89278079D01*
X172596723Y-89278079D02*
X172657199Y-89201879D01*
X172657199Y-89201879D02*
X172717675Y-89163779D01*
X173594580Y-89963879D02*
X173231723Y-89963879D01*
X173413151Y-89963879D02*
X173413151Y-89163779D01*
X173413151Y-89163779D02*
X173352675Y-89278079D01*
X173352675Y-89278079D02*
X173292199Y-89354279D01*
X173292199Y-89354279D02*
X173231723Y-89392379D01*
X173896961Y-89963879D02*
X174017913Y-89963879D01*
X174017913Y-89963879D02*
X174078390Y-89925779D01*
X174078390Y-89925779D02*
X174108628Y-89887679D01*
X174108628Y-89887679D02*
X174169104Y-89773379D01*
X174169104Y-89773379D02*
X174199342Y-89620979D01*
X174199342Y-89620979D02*
X174199342Y-89316179D01*
X174199342Y-89316179D02*
X174169104Y-89239979D01*
X174169104Y-89239979D02*
X174138866Y-89201879D01*
X174138866Y-89201879D02*
X174078390Y-89163779D01*
X174078390Y-89163779D02*
X173957437Y-89163779D01*
X173957437Y-89163779D02*
X173896961Y-89201879D01*
X173896961Y-89201879D02*
X173866723Y-89239979D01*
X173866723Y-89239979D02*
X173836485Y-89316179D01*
X173836485Y-89316179D02*
X173836485Y-89506679D01*
X173836485Y-89506679D02*
X173866723Y-89582879D01*
X173866723Y-89582879D02*
X173896961Y-89620979D01*
X173896961Y-89620979D02*
X173957437Y-89659079D01*
X173957437Y-89659079D02*
X174078390Y-89659079D01*
X174078390Y-89659079D02*
X174138866Y-89620979D01*
X174138866Y-89620979D02*
X174169104Y-89582879D01*
X174169104Y-89582879D02*
X174199342Y-89506679D01*
D12*
X163692057Y-71994121D02*
X163834914Y-72041740D01*
X163834914Y-72041740D02*
X163882533Y-72089359D01*
X163882533Y-72089359D02*
X163930152Y-72184597D01*
X163930152Y-72184597D02*
X163930152Y-72327454D01*
X163930152Y-72327454D02*
X163882533Y-72422692D01*
X163882533Y-72422692D02*
X163834914Y-72470312D01*
X163834914Y-72470312D02*
X163739676Y-72517931D01*
X163739676Y-72517931D02*
X163358724Y-72517931D01*
X163358724Y-72517931D02*
X163358724Y-71517931D01*
X163358724Y-71517931D02*
X163692057Y-71517931D01*
X163692057Y-71517931D02*
X163787295Y-71565550D01*
X163787295Y-71565550D02*
X163834914Y-71613169D01*
X163834914Y-71613169D02*
X163882533Y-71708407D01*
X163882533Y-71708407D02*
X163882533Y-71803645D01*
X163882533Y-71803645D02*
X163834914Y-71898883D01*
X163834914Y-71898883D02*
X163787295Y-71946502D01*
X163787295Y-71946502D02*
X163692057Y-71994121D01*
X163692057Y-71994121D02*
X163358724Y-71994121D01*
X164358724Y-72517931D02*
X164358724Y-71517931D01*
X164358724Y-71517931D02*
X164930152Y-72517931D01*
X164930152Y-72517931D02*
X164930152Y-71517931D01*
X165406343Y-72517931D02*
X165406343Y-71517931D01*
X165406343Y-71517931D02*
X165977771Y-72517931D01*
X165977771Y-72517931D02*
X165977771Y-71517931D01*
X161453961Y-74127875D02*
X161453961Y-73127875D01*
X161930151Y-73461208D02*
X161930151Y-74127875D01*
X161930151Y-73556446D02*
X161977770Y-73508827D01*
X161977770Y-73508827D02*
X162073008Y-73461208D01*
X162073008Y-73461208D02*
X162215865Y-73461208D01*
X162215865Y-73461208D02*
X162311103Y-73508827D01*
X162311103Y-73508827D02*
X162358722Y-73604065D01*
X162358722Y-73604065D02*
X162358722Y-74127875D01*
X162692056Y-73461208D02*
X163073008Y-73461208D01*
X162834913Y-74127875D02*
X162834913Y-73270732D01*
X162834913Y-73270732D02*
X162882532Y-73175494D01*
X162882532Y-73175494D02*
X162977770Y-73127875D01*
X162977770Y-73127875D02*
X163073008Y-73127875D01*
X163787294Y-74080256D02*
X163692056Y-74127875D01*
X163692056Y-74127875D02*
X163501580Y-74127875D01*
X163501580Y-74127875D02*
X163406342Y-74080256D01*
X163406342Y-74080256D02*
X163358723Y-73985017D01*
X163358723Y-73985017D02*
X163358723Y-73604065D01*
X163358723Y-73604065D02*
X163406342Y-73508827D01*
X163406342Y-73508827D02*
X163501580Y-73461208D01*
X163501580Y-73461208D02*
X163692056Y-73461208D01*
X163692056Y-73461208D02*
X163787294Y-73508827D01*
X163787294Y-73508827D02*
X163834913Y-73604065D01*
X163834913Y-73604065D02*
X163834913Y-73699303D01*
X163834913Y-73699303D02*
X163358723Y-73794541D01*
X164263485Y-74127875D02*
X164263485Y-73461208D01*
X164263485Y-73651684D02*
X164311104Y-73556446D01*
X164311104Y-73556446D02*
X164358723Y-73508827D01*
X164358723Y-73508827D02*
X164453961Y-73461208D01*
X164453961Y-73461208D02*
X164549199Y-73461208D01*
X165263485Y-74080256D02*
X165168247Y-74127875D01*
X165168247Y-74127875D02*
X164977771Y-74127875D01*
X164977771Y-74127875D02*
X164882533Y-74080256D01*
X164882533Y-74080256D02*
X164834914Y-73985017D01*
X164834914Y-73985017D02*
X164834914Y-73604065D01*
X164834914Y-73604065D02*
X164882533Y-73508827D01*
X164882533Y-73508827D02*
X164977771Y-73461208D01*
X164977771Y-73461208D02*
X165168247Y-73461208D01*
X165168247Y-73461208D02*
X165263485Y-73508827D01*
X165263485Y-73508827D02*
X165311104Y-73604065D01*
X165311104Y-73604065D02*
X165311104Y-73699303D01*
X165311104Y-73699303D02*
X164834914Y-73794541D01*
X165739676Y-73461208D02*
X165739676Y-74127875D01*
X165739676Y-73556446D02*
X165787295Y-73508827D01*
X165787295Y-73508827D02*
X165882533Y-73461208D01*
X165882533Y-73461208D02*
X166025390Y-73461208D01*
X166025390Y-73461208D02*
X166120628Y-73508827D01*
X166120628Y-73508827D02*
X166168247Y-73604065D01*
X166168247Y-73604065D02*
X166168247Y-74127875D01*
X167073009Y-74080256D02*
X166977771Y-74127875D01*
X166977771Y-74127875D02*
X166787295Y-74127875D01*
X166787295Y-74127875D02*
X166692057Y-74080256D01*
X166692057Y-74080256D02*
X166644438Y-74032636D01*
X166644438Y-74032636D02*
X166596819Y-73937398D01*
X166596819Y-73937398D02*
X166596819Y-73651684D01*
X166596819Y-73651684D02*
X166644438Y-73556446D01*
X166644438Y-73556446D02*
X166692057Y-73508827D01*
X166692057Y-73508827D02*
X166787295Y-73461208D01*
X166787295Y-73461208D02*
X166977771Y-73461208D01*
X166977771Y-73461208D02*
X167073009Y-73508827D01*
X167882533Y-74080256D02*
X167787295Y-74127875D01*
X167787295Y-74127875D02*
X167596819Y-74127875D01*
X167596819Y-74127875D02*
X167501581Y-74080256D01*
X167501581Y-74080256D02*
X167453962Y-73985017D01*
X167453962Y-73985017D02*
X167453962Y-73604065D01*
X167453962Y-73604065D02*
X167501581Y-73508827D01*
X167501581Y-73508827D02*
X167596819Y-73461208D01*
X167596819Y-73461208D02*
X167787295Y-73461208D01*
X167787295Y-73461208D02*
X167882533Y-73508827D01*
X167882533Y-73508827D02*
X167930152Y-73604065D01*
X167930152Y-73604065D02*
X167930152Y-73699303D01*
X167930152Y-73699303D02*
X167453962Y-73794541D01*
X161025389Y-75452104D02*
X161501579Y-75452104D01*
X160930151Y-75737819D02*
X161263484Y-74737819D01*
X161263484Y-74737819D02*
X161596817Y-75737819D01*
X162358722Y-75690200D02*
X162263484Y-75737819D01*
X162263484Y-75737819D02*
X162073008Y-75737819D01*
X162073008Y-75737819D02*
X161977770Y-75690200D01*
X161977770Y-75690200D02*
X161930151Y-75642580D01*
X161930151Y-75642580D02*
X161882532Y-75547342D01*
X161882532Y-75547342D02*
X161882532Y-75261628D01*
X161882532Y-75261628D02*
X161930151Y-75166390D01*
X161930151Y-75166390D02*
X161977770Y-75118771D01*
X161977770Y-75118771D02*
X162073008Y-75071152D01*
X162073008Y-75071152D02*
X162263484Y-75071152D01*
X162263484Y-75071152D02*
X162358722Y-75118771D01*
X163215865Y-75690200D02*
X163120627Y-75737819D01*
X163120627Y-75737819D02*
X162930151Y-75737819D01*
X162930151Y-75737819D02*
X162834913Y-75690200D01*
X162834913Y-75690200D02*
X162787294Y-75642580D01*
X162787294Y-75642580D02*
X162739675Y-75547342D01*
X162739675Y-75547342D02*
X162739675Y-75261628D01*
X162739675Y-75261628D02*
X162787294Y-75166390D01*
X162787294Y-75166390D02*
X162834913Y-75118771D01*
X162834913Y-75118771D02*
X162930151Y-75071152D01*
X162930151Y-75071152D02*
X163120627Y-75071152D01*
X163120627Y-75071152D02*
X163215865Y-75118771D01*
X164025389Y-75690200D02*
X163930151Y-75737819D01*
X163930151Y-75737819D02*
X163739675Y-75737819D01*
X163739675Y-75737819D02*
X163644437Y-75690200D01*
X163644437Y-75690200D02*
X163596818Y-75594961D01*
X163596818Y-75594961D02*
X163596818Y-75214009D01*
X163596818Y-75214009D02*
X163644437Y-75118771D01*
X163644437Y-75118771D02*
X163739675Y-75071152D01*
X163739675Y-75071152D02*
X163930151Y-75071152D01*
X163930151Y-75071152D02*
X164025389Y-75118771D01*
X164025389Y-75118771D02*
X164073008Y-75214009D01*
X164073008Y-75214009D02*
X164073008Y-75309247D01*
X164073008Y-75309247D02*
X163596818Y-75404485D01*
X164644437Y-75737819D02*
X164549199Y-75690200D01*
X164549199Y-75690200D02*
X164501580Y-75594961D01*
X164501580Y-75594961D02*
X164501580Y-74737819D01*
X165406342Y-75690200D02*
X165311104Y-75737819D01*
X165311104Y-75737819D02*
X165120628Y-75737819D01*
X165120628Y-75737819D02*
X165025390Y-75690200D01*
X165025390Y-75690200D02*
X164977771Y-75594961D01*
X164977771Y-75594961D02*
X164977771Y-75214009D01*
X164977771Y-75214009D02*
X165025390Y-75118771D01*
X165025390Y-75118771D02*
X165120628Y-75071152D01*
X165120628Y-75071152D02*
X165311104Y-75071152D01*
X165311104Y-75071152D02*
X165406342Y-75118771D01*
X165406342Y-75118771D02*
X165453961Y-75214009D01*
X165453961Y-75214009D02*
X165453961Y-75309247D01*
X165453961Y-75309247D02*
X164977771Y-75404485D01*
X165882533Y-75737819D02*
X165882533Y-75071152D01*
X165882533Y-75261628D02*
X165930152Y-75166390D01*
X165930152Y-75166390D02*
X165977771Y-75118771D01*
X165977771Y-75118771D02*
X166073009Y-75071152D01*
X166073009Y-75071152D02*
X166168247Y-75071152D01*
X166930152Y-75737819D02*
X166930152Y-75214009D01*
X166930152Y-75214009D02*
X166882533Y-75118771D01*
X166882533Y-75118771D02*
X166787295Y-75071152D01*
X166787295Y-75071152D02*
X166596819Y-75071152D01*
X166596819Y-75071152D02*
X166501581Y-75118771D01*
X166930152Y-75690200D02*
X166834914Y-75737819D01*
X166834914Y-75737819D02*
X166596819Y-75737819D01*
X166596819Y-75737819D02*
X166501581Y-75690200D01*
X166501581Y-75690200D02*
X166453962Y-75594961D01*
X166453962Y-75594961D02*
X166453962Y-75499723D01*
X166453962Y-75499723D02*
X166501581Y-75404485D01*
X166501581Y-75404485D02*
X166596819Y-75356866D01*
X166596819Y-75356866D02*
X166834914Y-75356866D01*
X166834914Y-75356866D02*
X166930152Y-75309247D01*
X167263486Y-75071152D02*
X167644438Y-75071152D01*
X167406343Y-74737819D02*
X167406343Y-75594961D01*
X167406343Y-75594961D02*
X167453962Y-75690200D01*
X167453962Y-75690200D02*
X167549200Y-75737819D01*
X167549200Y-75737819D02*
X167644438Y-75737819D01*
X168120629Y-75737819D02*
X168025391Y-75690200D01*
X168025391Y-75690200D02*
X167977772Y-75642580D01*
X167977772Y-75642580D02*
X167930153Y-75547342D01*
X167930153Y-75547342D02*
X167930153Y-75261628D01*
X167930153Y-75261628D02*
X167977772Y-75166390D01*
X167977772Y-75166390D02*
X168025391Y-75118771D01*
X168025391Y-75118771D02*
X168120629Y-75071152D01*
X168120629Y-75071152D02*
X168263486Y-75071152D01*
X168263486Y-75071152D02*
X168358724Y-75118771D01*
X168358724Y-75118771D02*
X168406343Y-75166390D01*
X168406343Y-75166390D02*
X168453962Y-75261628D01*
X168453962Y-75261628D02*
X168453962Y-75547342D01*
X168453962Y-75547342D02*
X168406343Y-75642580D01*
X168406343Y-75642580D02*
X168358724Y-75690200D01*
X168358724Y-75690200D02*
X168263486Y-75737819D01*
X168263486Y-75737819D02*
X168120629Y-75737819D01*
X168882534Y-75737819D02*
X168882534Y-75071152D01*
X168882534Y-75261628D02*
X168930153Y-75166390D01*
X168930153Y-75166390D02*
X168977772Y-75118771D01*
X168977772Y-75118771D02*
X169073010Y-75071152D01*
X169073010Y-75071152D02*
X169168248Y-75071152D01*
X160168247Y-78910088D02*
X160311104Y-78957707D01*
X160311104Y-78957707D02*
X160549199Y-78957707D01*
X160549199Y-78957707D02*
X160644437Y-78910088D01*
X160644437Y-78910088D02*
X160692056Y-78862468D01*
X160692056Y-78862468D02*
X160739675Y-78767230D01*
X160739675Y-78767230D02*
X160739675Y-78671992D01*
X160739675Y-78671992D02*
X160692056Y-78576754D01*
X160692056Y-78576754D02*
X160644437Y-78529135D01*
X160644437Y-78529135D02*
X160549199Y-78481516D01*
X160549199Y-78481516D02*
X160358723Y-78433897D01*
X160358723Y-78433897D02*
X160263485Y-78386278D01*
X160263485Y-78386278D02*
X160215866Y-78338659D01*
X160215866Y-78338659D02*
X160168247Y-78243421D01*
X160168247Y-78243421D02*
X160168247Y-78148183D01*
X160168247Y-78148183D02*
X160215866Y-78052945D01*
X160215866Y-78052945D02*
X160263485Y-78005326D01*
X160263485Y-78005326D02*
X160358723Y-77957707D01*
X160358723Y-77957707D02*
X160596818Y-77957707D01*
X160596818Y-77957707D02*
X160739675Y-78005326D01*
X161168247Y-78291040D02*
X161168247Y-79291040D01*
X161168247Y-78338659D02*
X161263485Y-78291040D01*
X161263485Y-78291040D02*
X161453961Y-78291040D01*
X161453961Y-78291040D02*
X161549199Y-78338659D01*
X161549199Y-78338659D02*
X161596818Y-78386278D01*
X161596818Y-78386278D02*
X161644437Y-78481516D01*
X161644437Y-78481516D02*
X161644437Y-78767230D01*
X161644437Y-78767230D02*
X161596818Y-78862468D01*
X161596818Y-78862468D02*
X161549199Y-78910088D01*
X161549199Y-78910088D02*
X161453961Y-78957707D01*
X161453961Y-78957707D02*
X161263485Y-78957707D01*
X161263485Y-78957707D02*
X161168247Y-78910088D01*
X162501580Y-78957707D02*
X162501580Y-78433897D01*
X162501580Y-78433897D02*
X162453961Y-78338659D01*
X162453961Y-78338659D02*
X162358723Y-78291040D01*
X162358723Y-78291040D02*
X162168247Y-78291040D01*
X162168247Y-78291040D02*
X162073009Y-78338659D01*
X162501580Y-78910088D02*
X162406342Y-78957707D01*
X162406342Y-78957707D02*
X162168247Y-78957707D01*
X162168247Y-78957707D02*
X162073009Y-78910088D01*
X162073009Y-78910088D02*
X162025390Y-78814849D01*
X162025390Y-78814849D02*
X162025390Y-78719611D01*
X162025390Y-78719611D02*
X162073009Y-78624373D01*
X162073009Y-78624373D02*
X162168247Y-78576754D01*
X162168247Y-78576754D02*
X162406342Y-78576754D01*
X162406342Y-78576754D02*
X162501580Y-78529135D01*
X162977771Y-78957707D02*
X162977771Y-78291040D01*
X162977771Y-78481516D02*
X163025390Y-78386278D01*
X163025390Y-78386278D02*
X163073009Y-78338659D01*
X163073009Y-78338659D02*
X163168247Y-78291040D01*
X163168247Y-78291040D02*
X163263485Y-78291040D01*
X163549200Y-78910088D02*
X163644438Y-78957707D01*
X163644438Y-78957707D02*
X163834914Y-78957707D01*
X163834914Y-78957707D02*
X163930152Y-78910088D01*
X163930152Y-78910088D02*
X163977771Y-78814849D01*
X163977771Y-78814849D02*
X163977771Y-78767230D01*
X163977771Y-78767230D02*
X163930152Y-78671992D01*
X163930152Y-78671992D02*
X163834914Y-78624373D01*
X163834914Y-78624373D02*
X163692057Y-78624373D01*
X163692057Y-78624373D02*
X163596819Y-78576754D01*
X163596819Y-78576754D02*
X163549200Y-78481516D01*
X163549200Y-78481516D02*
X163549200Y-78433897D01*
X163549200Y-78433897D02*
X163596819Y-78338659D01*
X163596819Y-78338659D02*
X163692057Y-78291040D01*
X163692057Y-78291040D02*
X163834914Y-78291040D01*
X163834914Y-78291040D02*
X163930152Y-78338659D01*
X164406343Y-78957707D02*
X164406343Y-77957707D01*
X164834914Y-78957707D02*
X164834914Y-78433897D01*
X164834914Y-78433897D02*
X164787295Y-78338659D01*
X164787295Y-78338659D02*
X164692057Y-78291040D01*
X164692057Y-78291040D02*
X164549200Y-78291040D01*
X164549200Y-78291040D02*
X164453962Y-78338659D01*
X164453962Y-78338659D02*
X164406343Y-78386278D01*
X166596819Y-78005326D02*
X166501581Y-77957707D01*
X166501581Y-77957707D02*
X166358724Y-77957707D01*
X166358724Y-77957707D02*
X166215867Y-78005326D01*
X166215867Y-78005326D02*
X166120629Y-78100564D01*
X166120629Y-78100564D02*
X166073010Y-78195802D01*
X166073010Y-78195802D02*
X166025391Y-78386278D01*
X166025391Y-78386278D02*
X166025391Y-78529135D01*
X166025391Y-78529135D02*
X166073010Y-78719611D01*
X166073010Y-78719611D02*
X166120629Y-78814849D01*
X166120629Y-78814849D02*
X166215867Y-78910088D01*
X166215867Y-78910088D02*
X166358724Y-78957707D01*
X166358724Y-78957707D02*
X166453962Y-78957707D01*
X166453962Y-78957707D02*
X166596819Y-78910088D01*
X166596819Y-78910088D02*
X166644438Y-78862468D01*
X166644438Y-78862468D02*
X166644438Y-78529135D01*
X166644438Y-78529135D02*
X166453962Y-78529135D01*
X167501581Y-78291040D02*
X167501581Y-78957707D01*
X167073010Y-78291040D02*
X167073010Y-78814849D01*
X167073010Y-78814849D02*
X167120629Y-78910088D01*
X167120629Y-78910088D02*
X167215867Y-78957707D01*
X167215867Y-78957707D02*
X167358724Y-78957707D01*
X167358724Y-78957707D02*
X167453962Y-78910088D01*
X167453962Y-78910088D02*
X167501581Y-78862468D01*
X167977772Y-78291040D02*
X167977772Y-79291040D01*
X167977772Y-78338659D02*
X168073010Y-78291040D01*
X168073010Y-78291040D02*
X168263486Y-78291040D01*
X168263486Y-78291040D02*
X168358724Y-78338659D01*
X168358724Y-78338659D02*
X168406343Y-78386278D01*
X168406343Y-78386278D02*
X168453962Y-78481516D01*
X168453962Y-78481516D02*
X168453962Y-78767230D01*
X168453962Y-78767230D02*
X168406343Y-78862468D01*
X168406343Y-78862468D02*
X168358724Y-78910088D01*
X168358724Y-78910088D02*
X168263486Y-78957707D01*
X168263486Y-78957707D02*
X168073010Y-78957707D01*
X168073010Y-78957707D02*
X167977772Y-78910088D01*
X168739677Y-78291040D02*
X169120629Y-78291040D01*
X168882534Y-77957707D02*
X168882534Y-78814849D01*
X168882534Y-78814849D02*
X168930153Y-78910088D01*
X168930153Y-78910088D02*
X169025391Y-78957707D01*
X169025391Y-78957707D02*
X169120629Y-78957707D01*
X169882534Y-78957707D02*
X169882534Y-78433897D01*
X169882534Y-78433897D02*
X169834915Y-78338659D01*
X169834915Y-78338659D02*
X169739677Y-78291040D01*
X169739677Y-78291040D02*
X169549201Y-78291040D01*
X169549201Y-78291040D02*
X169453963Y-78338659D01*
X169882534Y-78910088D02*
X169787296Y-78957707D01*
X169787296Y-78957707D02*
X169549201Y-78957707D01*
X169549201Y-78957707D02*
X169453963Y-78910088D01*
X169453963Y-78910088D02*
X169406344Y-78814849D01*
X169406344Y-78814849D02*
X169406344Y-78719611D01*
X169406344Y-78719611D02*
X169453963Y-78624373D01*
X169453963Y-78624373D02*
X169549201Y-78576754D01*
X169549201Y-78576754D02*
X169787296Y-78576754D01*
X169787296Y-78576754D02*
X169882534Y-78529135D01*
D10*
X122334961Y-102003479D02*
X122274485Y-101965379D01*
X122274485Y-101965379D02*
X122183771Y-101965379D01*
X122183771Y-101965379D02*
X122093056Y-102003479D01*
X122093056Y-102003479D02*
X122032580Y-102079679D01*
X122032580Y-102079679D02*
X122002342Y-102155879D01*
X122002342Y-102155879D02*
X121972104Y-102308279D01*
X121972104Y-102308279D02*
X121972104Y-102422579D01*
X121972104Y-102422579D02*
X122002342Y-102574979D01*
X122002342Y-102574979D02*
X122032580Y-102651179D01*
X122032580Y-102651179D02*
X122093056Y-102727379D01*
X122093056Y-102727379D02*
X122183771Y-102765479D01*
X122183771Y-102765479D02*
X122244247Y-102765479D01*
X122244247Y-102765479D02*
X122334961Y-102727379D01*
X122334961Y-102727379D02*
X122365199Y-102689279D01*
X122365199Y-102689279D02*
X122365199Y-102422579D01*
X122365199Y-102422579D02*
X122244247Y-102422579D01*
X122637342Y-102765479D02*
X122637342Y-101965379D01*
X122637342Y-101965379D02*
X122879247Y-101965379D01*
X122879247Y-101965379D02*
X122939723Y-102003479D01*
X122939723Y-102003479D02*
X122969961Y-102041579D01*
X122969961Y-102041579D02*
X123000199Y-102117779D01*
X123000199Y-102117779D02*
X123000199Y-102232079D01*
X123000199Y-102232079D02*
X122969961Y-102308279D01*
X122969961Y-102308279D02*
X122939723Y-102346379D01*
X122939723Y-102346379D02*
X122879247Y-102384479D01*
X122879247Y-102384479D02*
X122637342Y-102384479D01*
X123272342Y-102765479D02*
X123272342Y-101965379D01*
X123695675Y-101965379D02*
X123816628Y-101965379D01*
X123816628Y-101965379D02*
X123877104Y-102003479D01*
X123877104Y-102003479D02*
X123937580Y-102079679D01*
X123937580Y-102079679D02*
X123967818Y-102232079D01*
X123967818Y-102232079D02*
X123967818Y-102498779D01*
X123967818Y-102498779D02*
X123937580Y-102651179D01*
X123937580Y-102651179D02*
X123877104Y-102727379D01*
X123877104Y-102727379D02*
X123816628Y-102765479D01*
X123816628Y-102765479D02*
X123695675Y-102765479D01*
X123695675Y-102765479D02*
X123635199Y-102727379D01*
X123635199Y-102727379D02*
X123574723Y-102651179D01*
X123574723Y-102651179D02*
X123544485Y-102498779D01*
X123544485Y-102498779D02*
X123544485Y-102232079D01*
X123544485Y-102232079D02*
X123574723Y-102079679D01*
X123574723Y-102079679D02*
X123635199Y-102003479D01*
X123635199Y-102003479D02*
X123695675Y-101965379D01*
X124209723Y-102041579D02*
X124239961Y-102003479D01*
X124239961Y-102003479D02*
X124300437Y-101965379D01*
X124300437Y-101965379D02*
X124451628Y-101965379D01*
X124451628Y-101965379D02*
X124512104Y-102003479D01*
X124512104Y-102003479D02*
X124542342Y-102041579D01*
X124542342Y-102041579D02*
X124572580Y-102117779D01*
X124572580Y-102117779D02*
X124572580Y-102193979D01*
X124572580Y-102193979D02*
X124542342Y-102308279D01*
X124542342Y-102308279D02*
X124179485Y-102765479D01*
X124179485Y-102765479D02*
X124572580Y-102765479D01*
X125116866Y-102232079D02*
X125116866Y-102765479D01*
X124965675Y-101927279D02*
X124814485Y-102498779D01*
X124814485Y-102498779D02*
X125207580Y-102498779D01*
X142084679Y-118332457D02*
X141284579Y-118332457D01*
X141284579Y-117909124D02*
X141284579Y-117788171D01*
X141284579Y-117788171D02*
X141322679Y-117727695D01*
X141322679Y-117727695D02*
X141398879Y-117667219D01*
X141398879Y-117667219D02*
X141551279Y-117636981D01*
X141551279Y-117636981D02*
X141817979Y-117636981D01*
X141817979Y-117636981D02*
X141970379Y-117667219D01*
X141970379Y-117667219D02*
X142046579Y-117727695D01*
X142046579Y-117727695D02*
X142084679Y-117788171D01*
X142084679Y-117788171D02*
X142084679Y-117909124D01*
X142084679Y-117909124D02*
X142046579Y-117969600D01*
X142046579Y-117969600D02*
X141970379Y-118030076D01*
X141970379Y-118030076D02*
X141817979Y-118060314D01*
X141817979Y-118060314D02*
X141551279Y-118060314D01*
X141551279Y-118060314D02*
X141398879Y-118030076D01*
X141398879Y-118030076D02*
X141322679Y-117969600D01*
X141322679Y-117969600D02*
X141284579Y-117909124D01*
X141284579Y-117425314D02*
X141284579Y-117032219D01*
X141284579Y-117032219D02*
X141589379Y-117243886D01*
X141589379Y-117243886D02*
X141589379Y-117153171D01*
X141589379Y-117153171D02*
X141627479Y-117092695D01*
X141627479Y-117092695D02*
X141665579Y-117062457D01*
X141665579Y-117062457D02*
X141741779Y-117032219D01*
X141741779Y-117032219D02*
X141932279Y-117032219D01*
X141932279Y-117032219D02*
X142008479Y-117062457D01*
X142008479Y-117062457D02*
X142046579Y-117092695D01*
X142046579Y-117092695D02*
X142084679Y-117153171D01*
X142084679Y-117153171D02*
X142084679Y-117334600D01*
X142084679Y-117334600D02*
X142046579Y-117395076D01*
X142046579Y-117395076D02*
X142008479Y-117425314D01*
X141627479Y-116669362D02*
X141589379Y-116729838D01*
X141589379Y-116729838D02*
X141551279Y-116760076D01*
X141551279Y-116760076D02*
X141475079Y-116790314D01*
X141475079Y-116790314D02*
X141436979Y-116790314D01*
X141436979Y-116790314D02*
X141360779Y-116760076D01*
X141360779Y-116760076D02*
X141322679Y-116729838D01*
X141322679Y-116729838D02*
X141284579Y-116669362D01*
X141284579Y-116669362D02*
X141284579Y-116548409D01*
X141284579Y-116548409D02*
X141322679Y-116487933D01*
X141322679Y-116487933D02*
X141360779Y-116457695D01*
X141360779Y-116457695D02*
X141436979Y-116427457D01*
X141436979Y-116427457D02*
X141475079Y-116427457D01*
X141475079Y-116427457D02*
X141551279Y-116457695D01*
X141551279Y-116457695D02*
X141589379Y-116487933D01*
X141589379Y-116487933D02*
X141627479Y-116548409D01*
X141627479Y-116548409D02*
X141627479Y-116669362D01*
X141627479Y-116669362D02*
X141665579Y-116729838D01*
X141665579Y-116729838D02*
X141703679Y-116760076D01*
X141703679Y-116760076D02*
X141779879Y-116790314D01*
X141779879Y-116790314D02*
X141932279Y-116790314D01*
X141932279Y-116790314D02*
X142008479Y-116760076D01*
X142008479Y-116760076D02*
X142046579Y-116729838D01*
X142046579Y-116729838D02*
X142084679Y-116669362D01*
X142084679Y-116669362D02*
X142084679Y-116548409D01*
X142084679Y-116548409D02*
X142046579Y-116487933D01*
X142046579Y-116487933D02*
X142008479Y-116457695D01*
X142008479Y-116457695D02*
X141932279Y-116427457D01*
X141932279Y-116427457D02*
X141779879Y-116427457D01*
X141779879Y-116427457D02*
X141703679Y-116457695D01*
X141703679Y-116457695D02*
X141665579Y-116487933D01*
X141665579Y-116487933D02*
X141627479Y-116548409D01*
D11*
X126539905Y-82750819D02*
X126539905Y-81750819D01*
X126539905Y-81750819D02*
X126778000Y-81750819D01*
X126778000Y-81750819D02*
X126920857Y-81798438D01*
X126920857Y-81798438D02*
X127016095Y-81893676D01*
X127016095Y-81893676D02*
X127063714Y-81988914D01*
X127063714Y-81988914D02*
X127111333Y-82179390D01*
X127111333Y-82179390D02*
X127111333Y-82322247D01*
X127111333Y-82322247D02*
X127063714Y-82512723D01*
X127063714Y-82512723D02*
X127016095Y-82607961D01*
X127016095Y-82607961D02*
X126920857Y-82703200D01*
X126920857Y-82703200D02*
X126778000Y-82750819D01*
X126778000Y-82750819D02*
X126539905Y-82750819D01*
X127539905Y-82227009D02*
X127873238Y-82227009D01*
X128016095Y-82750819D02*
X127539905Y-82750819D01*
X127539905Y-82750819D02*
X127539905Y-81750819D01*
X127539905Y-81750819D02*
X128016095Y-81750819D01*
X128778000Y-82227009D02*
X128920857Y-82274628D01*
X128920857Y-82274628D02*
X128968476Y-82322247D01*
X128968476Y-82322247D02*
X129016095Y-82417485D01*
X129016095Y-82417485D02*
X129016095Y-82560342D01*
X129016095Y-82560342D02*
X128968476Y-82655580D01*
X128968476Y-82655580D02*
X128920857Y-82703200D01*
X128920857Y-82703200D02*
X128825619Y-82750819D01*
X128825619Y-82750819D02*
X128444667Y-82750819D01*
X128444667Y-82750819D02*
X128444667Y-81750819D01*
X128444667Y-81750819D02*
X128778000Y-81750819D01*
X128778000Y-81750819D02*
X128873238Y-81798438D01*
X128873238Y-81798438D02*
X128920857Y-81846057D01*
X128920857Y-81846057D02*
X128968476Y-81941295D01*
X128968476Y-81941295D02*
X128968476Y-82036533D01*
X128968476Y-82036533D02*
X128920857Y-82131771D01*
X128920857Y-82131771D02*
X128873238Y-82179390D01*
X128873238Y-82179390D02*
X128778000Y-82227009D01*
X128778000Y-82227009D02*
X128444667Y-82227009D01*
X129444667Y-81750819D02*
X129444667Y-82560342D01*
X129444667Y-82560342D02*
X129492286Y-82655580D01*
X129492286Y-82655580D02*
X129539905Y-82703200D01*
X129539905Y-82703200D02*
X129635143Y-82750819D01*
X129635143Y-82750819D02*
X129825619Y-82750819D01*
X129825619Y-82750819D02*
X129920857Y-82703200D01*
X129920857Y-82703200D02*
X129968476Y-82655580D01*
X129968476Y-82655580D02*
X130016095Y-82560342D01*
X130016095Y-82560342D02*
X130016095Y-81750819D01*
X131016095Y-81798438D02*
X130920857Y-81750819D01*
X130920857Y-81750819D02*
X130778000Y-81750819D01*
X130778000Y-81750819D02*
X130635143Y-81798438D01*
X130635143Y-81798438D02*
X130539905Y-81893676D01*
X130539905Y-81893676D02*
X130492286Y-81988914D01*
X130492286Y-81988914D02*
X130444667Y-82179390D01*
X130444667Y-82179390D02*
X130444667Y-82322247D01*
X130444667Y-82322247D02*
X130492286Y-82512723D01*
X130492286Y-82512723D02*
X130539905Y-82607961D01*
X130539905Y-82607961D02*
X130635143Y-82703200D01*
X130635143Y-82703200D02*
X130778000Y-82750819D01*
X130778000Y-82750819D02*
X130873238Y-82750819D01*
X130873238Y-82750819D02*
X131016095Y-82703200D01*
X131016095Y-82703200D02*
X131063714Y-82655580D01*
X131063714Y-82655580D02*
X131063714Y-82322247D01*
X131063714Y-82322247D02*
X130873238Y-82322247D01*
X171142819Y-120500018D02*
X170476152Y-120500018D01*
X170142819Y-120500018D02*
X170190438Y-120547637D01*
X170190438Y-120547637D02*
X170238057Y-120500018D01*
X170238057Y-120500018D02*
X170190438Y-120452399D01*
X170190438Y-120452399D02*
X170142819Y-120500018D01*
X170142819Y-120500018D02*
X170238057Y-120500018D01*
X171047580Y-119452400D02*
X171095200Y-119500019D01*
X171095200Y-119500019D02*
X171142819Y-119642876D01*
X171142819Y-119642876D02*
X171142819Y-119738114D01*
X171142819Y-119738114D02*
X171095200Y-119880971D01*
X171095200Y-119880971D02*
X170999961Y-119976209D01*
X170999961Y-119976209D02*
X170904723Y-120023828D01*
X170904723Y-120023828D02*
X170714247Y-120071447D01*
X170714247Y-120071447D02*
X170571390Y-120071447D01*
X170571390Y-120071447D02*
X170380914Y-120023828D01*
X170380914Y-120023828D02*
X170285676Y-119976209D01*
X170285676Y-119976209D02*
X170190438Y-119880971D01*
X170190438Y-119880971D02*
X170142819Y-119738114D01*
X170142819Y-119738114D02*
X170142819Y-119642876D01*
X170142819Y-119642876D02*
X170190438Y-119500019D01*
X170190438Y-119500019D02*
X170238057Y-119452400D01*
X170619009Y-119023828D02*
X170619009Y-118690495D01*
X171142819Y-118547638D02*
X171142819Y-119023828D01*
X171142819Y-119023828D02*
X170142819Y-119023828D01*
X170142819Y-119023828D02*
X170142819Y-118547638D01*
X170476152Y-117690495D02*
X171142819Y-117690495D01*
X170095200Y-117928590D02*
X170809485Y-118166685D01*
X170809485Y-118166685D02*
X170809485Y-117547638D01*
X170142819Y-116976209D02*
X170142819Y-116880971D01*
X170142819Y-116880971D02*
X170190438Y-116785733D01*
X170190438Y-116785733D02*
X170238057Y-116738114D01*
X170238057Y-116738114D02*
X170333295Y-116690495D01*
X170333295Y-116690495D02*
X170523771Y-116642876D01*
X170523771Y-116642876D02*
X170761866Y-116642876D01*
X170761866Y-116642876D02*
X170952342Y-116690495D01*
X170952342Y-116690495D02*
X171047580Y-116738114D01*
X171047580Y-116738114D02*
X171095200Y-116785733D01*
X171095200Y-116785733D02*
X171142819Y-116880971D01*
X171142819Y-116880971D02*
X171142819Y-116976209D01*
X171142819Y-116976209D02*
X171095200Y-117071447D01*
X171095200Y-117071447D02*
X171047580Y-117119066D01*
X171047580Y-117119066D02*
X170952342Y-117166685D01*
X170952342Y-117166685D02*
X170761866Y-117214304D01*
X170761866Y-117214304D02*
X170523771Y-117214304D01*
X170523771Y-117214304D02*
X170333295Y-117166685D01*
X170333295Y-117166685D02*
X170238057Y-117119066D01*
X170238057Y-117119066D02*
X170190438Y-117071447D01*
X170190438Y-117071447D02*
X170142819Y-116976209D01*
X170142819Y-116214304D02*
X170952342Y-116214304D01*
X170952342Y-116214304D02*
X171047580Y-116166685D01*
X171047580Y-116166685D02*
X171095200Y-116119066D01*
X171095200Y-116119066D02*
X171142819Y-116023828D01*
X171142819Y-116023828D02*
X171142819Y-115833352D01*
X171142819Y-115833352D02*
X171095200Y-115738114D01*
X171095200Y-115738114D02*
X171047580Y-115690495D01*
X171047580Y-115690495D02*
X170952342Y-115642876D01*
X170952342Y-115642876D02*
X170142819Y-115642876D01*
X171142819Y-115166685D02*
X170142819Y-115166685D01*
X170142819Y-115166685D02*
X170142819Y-114785733D01*
X170142819Y-114785733D02*
X170190438Y-114690495D01*
X170190438Y-114690495D02*
X170238057Y-114642876D01*
X170238057Y-114642876D02*
X170333295Y-114595257D01*
X170333295Y-114595257D02*
X170476152Y-114595257D01*
X170476152Y-114595257D02*
X170571390Y-114642876D01*
X170571390Y-114642876D02*
X170619009Y-114690495D01*
X170619009Y-114690495D02*
X170666628Y-114785733D01*
X170666628Y-114785733D02*
X170666628Y-115166685D01*
X170142819Y-113690495D02*
X170142819Y-114166685D01*
X170142819Y-114166685D02*
X170619009Y-114214304D01*
X170619009Y-114214304D02*
X170571390Y-114166685D01*
X170571390Y-114166685D02*
X170523771Y-114071447D01*
X170523771Y-114071447D02*
X170523771Y-113833352D01*
X170523771Y-113833352D02*
X170571390Y-113738114D01*
X170571390Y-113738114D02*
X170619009Y-113690495D01*
X170619009Y-113690495D02*
X170714247Y-113642876D01*
X170714247Y-113642876D02*
X170952342Y-113642876D01*
X170952342Y-113642876D02*
X171047580Y-113690495D01*
X171047580Y-113690495D02*
X171095200Y-113738114D01*
X171095200Y-113738114D02*
X171142819Y-113833352D01*
X171142819Y-113833352D02*
X171142819Y-114071447D01*
X171142819Y-114071447D02*
X171095200Y-114166685D01*
X171095200Y-114166685D02*
X171047580Y-114214304D01*
X171142819Y-113214304D02*
X170142819Y-113214304D01*
X171142819Y-112642876D02*
X170571390Y-113071447D01*
X170142819Y-112642876D02*
X170714247Y-113214304D01*
X170190438Y-110928590D02*
X170142819Y-111023828D01*
X170142819Y-111023828D02*
X170142819Y-111166685D01*
X170142819Y-111166685D02*
X170190438Y-111309542D01*
X170190438Y-111309542D02*
X170285676Y-111404780D01*
X170285676Y-111404780D02*
X170380914Y-111452399D01*
X170380914Y-111452399D02*
X170571390Y-111500018D01*
X170571390Y-111500018D02*
X170714247Y-111500018D01*
X170714247Y-111500018D02*
X170904723Y-111452399D01*
X170904723Y-111452399D02*
X170999961Y-111404780D01*
X170999961Y-111404780D02*
X171095200Y-111309542D01*
X171095200Y-111309542D02*
X171142819Y-111166685D01*
X171142819Y-111166685D02*
X171142819Y-111071447D01*
X171142819Y-111071447D02*
X171095200Y-110928590D01*
X171095200Y-110928590D02*
X171047580Y-110880971D01*
X171047580Y-110880971D02*
X170714247Y-110880971D01*
X170714247Y-110880971D02*
X170714247Y-111071447D01*
X171142819Y-110452399D02*
X170142819Y-110452399D01*
X170142819Y-110452399D02*
X170142819Y-110071447D01*
X170142819Y-110071447D02*
X170190438Y-109976209D01*
X170190438Y-109976209D02*
X170238057Y-109928590D01*
X170238057Y-109928590D02*
X170333295Y-109880971D01*
X170333295Y-109880971D02*
X170476152Y-109880971D01*
X170476152Y-109880971D02*
X170571390Y-109928590D01*
X170571390Y-109928590D02*
X170619009Y-109976209D01*
X170619009Y-109976209D02*
X170666628Y-110071447D01*
X170666628Y-110071447D02*
X170666628Y-110452399D01*
X171142819Y-109452399D02*
X170142819Y-109452399D01*
X170142819Y-108785733D02*
X170142819Y-108595257D01*
X170142819Y-108595257D02*
X170190438Y-108500019D01*
X170190438Y-108500019D02*
X170285676Y-108404781D01*
X170285676Y-108404781D02*
X170476152Y-108357162D01*
X170476152Y-108357162D02*
X170809485Y-108357162D01*
X170809485Y-108357162D02*
X170999961Y-108404781D01*
X170999961Y-108404781D02*
X171095200Y-108500019D01*
X171095200Y-108500019D02*
X171142819Y-108595257D01*
X171142819Y-108595257D02*
X171142819Y-108785733D01*
X171142819Y-108785733D02*
X171095200Y-108880971D01*
X171095200Y-108880971D02*
X170999961Y-108976209D01*
X170999961Y-108976209D02*
X170809485Y-109023828D01*
X170809485Y-109023828D02*
X170476152Y-109023828D01*
X170476152Y-109023828D02*
X170285676Y-108976209D01*
X170285676Y-108976209D02*
X170190438Y-108880971D01*
X170190438Y-108880971D02*
X170142819Y-108785733D01*
D10*
X171989542Y-117700679D02*
X172473352Y-117700679D01*
X172231447Y-118005479D02*
X172231447Y-117395879D01*
X172715256Y-117205379D02*
X173108351Y-117205379D01*
X173108351Y-117205379D02*
X172896684Y-117510179D01*
X172896684Y-117510179D02*
X172987399Y-117510179D01*
X172987399Y-117510179D02*
X173047875Y-117548279D01*
X173047875Y-117548279D02*
X173078113Y-117586379D01*
X173078113Y-117586379D02*
X173108351Y-117662579D01*
X173108351Y-117662579D02*
X173108351Y-117853079D01*
X173108351Y-117853079D02*
X173078113Y-117929279D01*
X173078113Y-117929279D02*
X173047875Y-117967379D01*
X173047875Y-117967379D02*
X172987399Y-118005479D01*
X172987399Y-118005479D02*
X172805970Y-118005479D01*
X172805970Y-118005479D02*
X172745494Y-117967379D01*
X172745494Y-117967379D02*
X172715256Y-117929279D01*
X173289780Y-117205379D02*
X173501446Y-118005479D01*
X173501446Y-118005479D02*
X173713113Y-117205379D01*
X173864304Y-117205379D02*
X174257399Y-117205379D01*
X174257399Y-117205379D02*
X174045732Y-117510179D01*
X174045732Y-117510179D02*
X174136447Y-117510179D01*
X174136447Y-117510179D02*
X174196923Y-117548279D01*
X174196923Y-117548279D02*
X174227161Y-117586379D01*
X174227161Y-117586379D02*
X174257399Y-117662579D01*
X174257399Y-117662579D02*
X174257399Y-117853079D01*
X174257399Y-117853079D02*
X174227161Y-117929279D01*
X174227161Y-117929279D02*
X174196923Y-117967379D01*
X174196923Y-117967379D02*
X174136447Y-118005479D01*
X174136447Y-118005479D02*
X173955018Y-118005479D01*
X173955018Y-118005479D02*
X173894542Y-117967379D01*
X173894542Y-117967379D02*
X173864304Y-117929279D01*
X172294342Y-92554679D02*
X172294342Y-91754579D01*
X172717675Y-91754579D02*
X172838628Y-91754579D01*
X172838628Y-91754579D02*
X172899104Y-91792679D01*
X172899104Y-91792679D02*
X172959580Y-91868879D01*
X172959580Y-91868879D02*
X172989818Y-92021279D01*
X172989818Y-92021279D02*
X172989818Y-92287979D01*
X172989818Y-92287979D02*
X172959580Y-92440379D01*
X172959580Y-92440379D02*
X172899104Y-92516579D01*
X172899104Y-92516579D02*
X172838628Y-92554679D01*
X172838628Y-92554679D02*
X172717675Y-92554679D01*
X172717675Y-92554679D02*
X172657199Y-92516579D01*
X172657199Y-92516579D02*
X172596723Y-92440379D01*
X172596723Y-92440379D02*
X172566485Y-92287979D01*
X172566485Y-92287979D02*
X172566485Y-92021279D01*
X172566485Y-92021279D02*
X172596723Y-91868879D01*
X172596723Y-91868879D02*
X172657199Y-91792679D01*
X172657199Y-91792679D02*
X172717675Y-91754579D01*
X173594580Y-92554679D02*
X173231723Y-92554679D01*
X173413151Y-92554679D02*
X173413151Y-91754579D01*
X173413151Y-91754579D02*
X173352675Y-91868879D01*
X173352675Y-91868879D02*
X173292199Y-91945079D01*
X173292199Y-91945079D02*
X173231723Y-91983179D01*
X173957437Y-92097479D02*
X173896961Y-92059379D01*
X173896961Y-92059379D02*
X173866723Y-92021279D01*
X173866723Y-92021279D02*
X173836485Y-91945079D01*
X173836485Y-91945079D02*
X173836485Y-91906979D01*
X173836485Y-91906979D02*
X173866723Y-91830779D01*
X173866723Y-91830779D02*
X173896961Y-91792679D01*
X173896961Y-91792679D02*
X173957437Y-91754579D01*
X173957437Y-91754579D02*
X174078390Y-91754579D01*
X174078390Y-91754579D02*
X174138866Y-91792679D01*
X174138866Y-91792679D02*
X174169104Y-91830779D01*
X174169104Y-91830779D02*
X174199342Y-91906979D01*
X174199342Y-91906979D02*
X174199342Y-91945079D01*
X174199342Y-91945079D02*
X174169104Y-92021279D01*
X174169104Y-92021279D02*
X174138866Y-92059379D01*
X174138866Y-92059379D02*
X174078390Y-92097479D01*
X174078390Y-92097479D02*
X173957437Y-92097479D01*
X173957437Y-92097479D02*
X173896961Y-92135579D01*
X173896961Y-92135579D02*
X173866723Y-92173679D01*
X173866723Y-92173679D02*
X173836485Y-92249879D01*
X173836485Y-92249879D02*
X173836485Y-92402279D01*
X173836485Y-92402279D02*
X173866723Y-92478479D01*
X173866723Y-92478479D02*
X173896961Y-92516579D01*
X173896961Y-92516579D02*
X173957437Y-92554679D01*
X173957437Y-92554679D02*
X174078390Y-92554679D01*
X174078390Y-92554679D02*
X174138866Y-92516579D01*
X174138866Y-92516579D02*
X174169104Y-92478479D01*
X174169104Y-92478479D02*
X174199342Y-92402279D01*
X174199342Y-92402279D02*
X174199342Y-92249879D01*
X174199342Y-92249879D02*
X174169104Y-92173679D01*
X174169104Y-92173679D02*
X174138866Y-92135579D01*
X174138866Y-92135579D02*
X174078390Y-92097479D01*
D11*
X158274609Y-114133142D02*
X158322228Y-113990285D01*
X158322228Y-113990285D02*
X158369847Y-113942666D01*
X158369847Y-113942666D02*
X158465085Y-113895047D01*
X158465085Y-113895047D02*
X158607942Y-113895047D01*
X158607942Y-113895047D02*
X158703180Y-113942666D01*
X158703180Y-113942666D02*
X158750800Y-113990285D01*
X158750800Y-113990285D02*
X158798419Y-114085523D01*
X158798419Y-114085523D02*
X158798419Y-114466475D01*
X158798419Y-114466475D02*
X157798419Y-114466475D01*
X157798419Y-114466475D02*
X157798419Y-114133142D01*
X157798419Y-114133142D02*
X157846038Y-114037904D01*
X157846038Y-114037904D02*
X157893657Y-113990285D01*
X157893657Y-113990285D02*
X157988895Y-113942666D01*
X157988895Y-113942666D02*
X158084133Y-113942666D01*
X158084133Y-113942666D02*
X158179371Y-113990285D01*
X158179371Y-113990285D02*
X158226990Y-114037904D01*
X158226990Y-114037904D02*
X158274609Y-114133142D01*
X158274609Y-114133142D02*
X158274609Y-114466475D01*
X157798419Y-113275999D02*
X157798419Y-113085523D01*
X157798419Y-113085523D02*
X157846038Y-112990285D01*
X157846038Y-112990285D02*
X157941276Y-112895047D01*
X157941276Y-112895047D02*
X158131752Y-112847428D01*
X158131752Y-112847428D02*
X158465085Y-112847428D01*
X158465085Y-112847428D02*
X158655561Y-112895047D01*
X158655561Y-112895047D02*
X158750800Y-112990285D01*
X158750800Y-112990285D02*
X158798419Y-113085523D01*
X158798419Y-113085523D02*
X158798419Y-113275999D01*
X158798419Y-113275999D02*
X158750800Y-113371237D01*
X158750800Y-113371237D02*
X158655561Y-113466475D01*
X158655561Y-113466475D02*
X158465085Y-113514094D01*
X158465085Y-113514094D02*
X158131752Y-113514094D01*
X158131752Y-113514094D02*
X157941276Y-113466475D01*
X157941276Y-113466475D02*
X157846038Y-113371237D01*
X157846038Y-113371237D02*
X157798419Y-113275999D01*
X157798419Y-112228380D02*
X157798419Y-112037904D01*
X157798419Y-112037904D02*
X157846038Y-111942666D01*
X157846038Y-111942666D02*
X157941276Y-111847428D01*
X157941276Y-111847428D02*
X158131752Y-111799809D01*
X158131752Y-111799809D02*
X158465085Y-111799809D01*
X158465085Y-111799809D02*
X158655561Y-111847428D01*
X158655561Y-111847428D02*
X158750800Y-111942666D01*
X158750800Y-111942666D02*
X158798419Y-112037904D01*
X158798419Y-112037904D02*
X158798419Y-112228380D01*
X158798419Y-112228380D02*
X158750800Y-112323618D01*
X158750800Y-112323618D02*
X158655561Y-112418856D01*
X158655561Y-112418856D02*
X158465085Y-112466475D01*
X158465085Y-112466475D02*
X158131752Y-112466475D01*
X158131752Y-112466475D02*
X157941276Y-112418856D01*
X157941276Y-112418856D02*
X157846038Y-112323618D01*
X157846038Y-112323618D02*
X157798419Y-112228380D01*
X157798419Y-111514094D02*
X157798419Y-110942666D01*
X158798419Y-111228380D02*
X157798419Y-111228380D01*
X147713867Y-103477219D02*
X147713867Y-102477219D01*
X147713867Y-102477219D02*
X148094819Y-102477219D01*
X148094819Y-102477219D02*
X148190057Y-102524838D01*
X148190057Y-102524838D02*
X148237676Y-102572457D01*
X148237676Y-102572457D02*
X148285295Y-102667695D01*
X148285295Y-102667695D02*
X148285295Y-102810552D01*
X148285295Y-102810552D02*
X148237676Y-102905790D01*
X148237676Y-102905790D02*
X148190057Y-102953409D01*
X148190057Y-102953409D02*
X148094819Y-103001028D01*
X148094819Y-103001028D02*
X147713867Y-103001028D01*
X148618629Y-102477219D02*
X148856724Y-103477219D01*
X148856724Y-103477219D02*
X149047200Y-102762933D01*
X149047200Y-102762933D02*
X149237676Y-103477219D01*
X149237676Y-103477219D02*
X149475772Y-102477219D01*
X150428152Y-103477219D02*
X150094819Y-103001028D01*
X149856724Y-103477219D02*
X149856724Y-102477219D01*
X149856724Y-102477219D02*
X150237676Y-102477219D01*
X150237676Y-102477219D02*
X150332914Y-102524838D01*
X150332914Y-102524838D02*
X150380533Y-102572457D01*
X150380533Y-102572457D02*
X150428152Y-102667695D01*
X150428152Y-102667695D02*
X150428152Y-102810552D01*
X150428152Y-102810552D02*
X150380533Y-102905790D01*
X150380533Y-102905790D02*
X150332914Y-102953409D01*
X150332914Y-102953409D02*
X150237676Y-103001028D01*
X150237676Y-103001028D02*
X149856724Y-103001028D01*
D10*
X122334961Y-89201879D02*
X122274485Y-89163779D01*
X122274485Y-89163779D02*
X122183771Y-89163779D01*
X122183771Y-89163779D02*
X122093056Y-89201879D01*
X122093056Y-89201879D02*
X122032580Y-89278079D01*
X122032580Y-89278079D02*
X122002342Y-89354279D01*
X122002342Y-89354279D02*
X121972104Y-89506679D01*
X121972104Y-89506679D02*
X121972104Y-89620979D01*
X121972104Y-89620979D02*
X122002342Y-89773379D01*
X122002342Y-89773379D02*
X122032580Y-89849579D01*
X122032580Y-89849579D02*
X122093056Y-89925779D01*
X122093056Y-89925779D02*
X122183771Y-89963879D01*
X122183771Y-89963879D02*
X122244247Y-89963879D01*
X122244247Y-89963879D02*
X122334961Y-89925779D01*
X122334961Y-89925779D02*
X122365199Y-89887679D01*
X122365199Y-89887679D02*
X122365199Y-89620979D01*
X122365199Y-89620979D02*
X122244247Y-89620979D01*
X122637342Y-89963879D02*
X122637342Y-89163779D01*
X122637342Y-89163779D02*
X122879247Y-89163779D01*
X122879247Y-89163779D02*
X122939723Y-89201879D01*
X122939723Y-89201879D02*
X122969961Y-89239979D01*
X122969961Y-89239979D02*
X123000199Y-89316179D01*
X123000199Y-89316179D02*
X123000199Y-89430479D01*
X123000199Y-89430479D02*
X122969961Y-89506679D01*
X122969961Y-89506679D02*
X122939723Y-89544779D01*
X122939723Y-89544779D02*
X122879247Y-89582879D01*
X122879247Y-89582879D02*
X122637342Y-89582879D01*
X123272342Y-89963879D02*
X123272342Y-89163779D01*
X123695675Y-89163779D02*
X123816628Y-89163779D01*
X123816628Y-89163779D02*
X123877104Y-89201879D01*
X123877104Y-89201879D02*
X123937580Y-89278079D01*
X123937580Y-89278079D02*
X123967818Y-89430479D01*
X123967818Y-89430479D02*
X123967818Y-89697179D01*
X123967818Y-89697179D02*
X123937580Y-89849579D01*
X123937580Y-89849579D02*
X123877104Y-89925779D01*
X123877104Y-89925779D02*
X123816628Y-89963879D01*
X123816628Y-89963879D02*
X123695675Y-89963879D01*
X123695675Y-89963879D02*
X123635199Y-89925779D01*
X123635199Y-89925779D02*
X123574723Y-89849579D01*
X123574723Y-89849579D02*
X123544485Y-89697179D01*
X123544485Y-89697179D02*
X123544485Y-89430479D01*
X123544485Y-89430479D02*
X123574723Y-89278079D01*
X123574723Y-89278079D02*
X123635199Y-89201879D01*
X123635199Y-89201879D02*
X123695675Y-89163779D01*
X124572580Y-89963879D02*
X124209723Y-89963879D01*
X124391151Y-89963879D02*
X124391151Y-89163779D01*
X124391151Y-89163779D02*
X124330675Y-89278079D01*
X124330675Y-89278079D02*
X124270199Y-89354279D01*
X124270199Y-89354279D02*
X124209723Y-89392379D01*
X124874961Y-89963879D02*
X124995913Y-89963879D01*
X124995913Y-89963879D02*
X125056390Y-89925779D01*
X125056390Y-89925779D02*
X125086628Y-89887679D01*
X125086628Y-89887679D02*
X125147104Y-89773379D01*
X125147104Y-89773379D02*
X125177342Y-89620979D01*
X125177342Y-89620979D02*
X125177342Y-89316179D01*
X125177342Y-89316179D02*
X125147104Y-89239979D01*
X125147104Y-89239979D02*
X125116866Y-89201879D01*
X125116866Y-89201879D02*
X125056390Y-89163779D01*
X125056390Y-89163779D02*
X124935437Y-89163779D01*
X124935437Y-89163779D02*
X124874961Y-89201879D01*
X124874961Y-89201879D02*
X124844723Y-89239979D01*
X124844723Y-89239979D02*
X124814485Y-89316179D01*
X124814485Y-89316179D02*
X124814485Y-89506679D01*
X124814485Y-89506679D02*
X124844723Y-89582879D01*
X124844723Y-89582879D02*
X124874961Y-89620979D01*
X124874961Y-89620979D02*
X124935437Y-89659079D01*
X124935437Y-89659079D02*
X125056390Y-89659079D01*
X125056390Y-89659079D02*
X125116866Y-89620979D01*
X125116866Y-89620979D02*
X125147104Y-89582879D01*
X125147104Y-89582879D02*
X125177342Y-89506679D01*
X172294342Y-87525479D02*
X172294342Y-86725379D01*
X172717675Y-86725379D02*
X172838628Y-86725379D01*
X172838628Y-86725379D02*
X172899104Y-86763479D01*
X172899104Y-86763479D02*
X172959580Y-86839679D01*
X172959580Y-86839679D02*
X172989818Y-86992079D01*
X172989818Y-86992079D02*
X172989818Y-87258779D01*
X172989818Y-87258779D02*
X172959580Y-87411179D01*
X172959580Y-87411179D02*
X172899104Y-87487379D01*
X172899104Y-87487379D02*
X172838628Y-87525479D01*
X172838628Y-87525479D02*
X172717675Y-87525479D01*
X172717675Y-87525479D02*
X172657199Y-87487379D01*
X172657199Y-87487379D02*
X172596723Y-87411179D01*
X172596723Y-87411179D02*
X172566485Y-87258779D01*
X172566485Y-87258779D02*
X172566485Y-86992079D01*
X172566485Y-86992079D02*
X172596723Y-86839679D01*
X172596723Y-86839679D02*
X172657199Y-86763479D01*
X172657199Y-86763479D02*
X172717675Y-86725379D01*
X173231723Y-86801579D02*
X173261961Y-86763479D01*
X173261961Y-86763479D02*
X173322437Y-86725379D01*
X173322437Y-86725379D02*
X173473628Y-86725379D01*
X173473628Y-86725379D02*
X173534104Y-86763479D01*
X173534104Y-86763479D02*
X173564342Y-86801579D01*
X173564342Y-86801579D02*
X173594580Y-86877779D01*
X173594580Y-86877779D02*
X173594580Y-86953979D01*
X173594580Y-86953979D02*
X173564342Y-87068279D01*
X173564342Y-87068279D02*
X173201485Y-87525479D01*
X173201485Y-87525479D02*
X173594580Y-87525479D01*
X173987675Y-86725379D02*
X174048152Y-86725379D01*
X174048152Y-86725379D02*
X174108628Y-86763479D01*
X174108628Y-86763479D02*
X174138866Y-86801579D01*
X174138866Y-86801579D02*
X174169104Y-86877779D01*
X174169104Y-86877779D02*
X174199342Y-87030179D01*
X174199342Y-87030179D02*
X174199342Y-87220679D01*
X174199342Y-87220679D02*
X174169104Y-87373079D01*
X174169104Y-87373079D02*
X174138866Y-87449279D01*
X174138866Y-87449279D02*
X174108628Y-87487379D01*
X174108628Y-87487379D02*
X174048152Y-87525479D01*
X174048152Y-87525479D02*
X173987675Y-87525479D01*
X173987675Y-87525479D02*
X173927199Y-87487379D01*
X173927199Y-87487379D02*
X173896961Y-87449279D01*
X173896961Y-87449279D02*
X173866723Y-87373079D01*
X173866723Y-87373079D02*
X173836485Y-87220679D01*
X173836485Y-87220679D02*
X173836485Y-87030179D01*
X173836485Y-87030179D02*
X173866723Y-86877779D01*
X173866723Y-86877779D02*
X173896961Y-86801579D01*
X173896961Y-86801579D02*
X173927199Y-86763479D01*
X173927199Y-86763479D02*
X173987675Y-86725379D01*
X172294342Y-97583879D02*
X172294342Y-96783779D01*
X172717675Y-96783779D02*
X172838628Y-96783779D01*
X172838628Y-96783779D02*
X172899104Y-96821879D01*
X172899104Y-96821879D02*
X172959580Y-96898079D01*
X172959580Y-96898079D02*
X172989818Y-97050479D01*
X172989818Y-97050479D02*
X172989818Y-97317179D01*
X172989818Y-97317179D02*
X172959580Y-97469579D01*
X172959580Y-97469579D02*
X172899104Y-97545779D01*
X172899104Y-97545779D02*
X172838628Y-97583879D01*
X172838628Y-97583879D02*
X172717675Y-97583879D01*
X172717675Y-97583879D02*
X172657199Y-97545779D01*
X172657199Y-97545779D02*
X172596723Y-97469579D01*
X172596723Y-97469579D02*
X172566485Y-97317179D01*
X172566485Y-97317179D02*
X172566485Y-97050479D01*
X172566485Y-97050479D02*
X172596723Y-96898079D01*
X172596723Y-96898079D02*
X172657199Y-96821879D01*
X172657199Y-96821879D02*
X172717675Y-96783779D01*
X173594580Y-97583879D02*
X173231723Y-97583879D01*
X173413151Y-97583879D02*
X173413151Y-96783779D01*
X173413151Y-96783779D02*
X173352675Y-96898079D01*
X173352675Y-96898079D02*
X173292199Y-96974279D01*
X173292199Y-96974279D02*
X173231723Y-97012379D01*
X173836485Y-96859979D02*
X173866723Y-96821879D01*
X173866723Y-96821879D02*
X173927199Y-96783779D01*
X173927199Y-96783779D02*
X174078390Y-96783779D01*
X174078390Y-96783779D02*
X174138866Y-96821879D01*
X174138866Y-96821879D02*
X174169104Y-96859979D01*
X174169104Y-96859979D02*
X174199342Y-96936179D01*
X174199342Y-96936179D02*
X174199342Y-97012379D01*
X174199342Y-97012379D02*
X174169104Y-97126679D01*
X174169104Y-97126679D02*
X173806247Y-97583879D01*
X173806247Y-97583879D02*
X174199342Y-97583879D01*
X122334961Y-109623479D02*
X122274485Y-109585379D01*
X122274485Y-109585379D02*
X122183771Y-109585379D01*
X122183771Y-109585379D02*
X122093056Y-109623479D01*
X122093056Y-109623479D02*
X122032580Y-109699679D01*
X122032580Y-109699679D02*
X122002342Y-109775879D01*
X122002342Y-109775879D02*
X121972104Y-109928279D01*
X121972104Y-109928279D02*
X121972104Y-110042579D01*
X121972104Y-110042579D02*
X122002342Y-110194979D01*
X122002342Y-110194979D02*
X122032580Y-110271179D01*
X122032580Y-110271179D02*
X122093056Y-110347379D01*
X122093056Y-110347379D02*
X122183771Y-110385479D01*
X122183771Y-110385479D02*
X122244247Y-110385479D01*
X122244247Y-110385479D02*
X122334961Y-110347379D01*
X122334961Y-110347379D02*
X122365199Y-110309279D01*
X122365199Y-110309279D02*
X122365199Y-110042579D01*
X122365199Y-110042579D02*
X122244247Y-110042579D01*
X122637342Y-110385479D02*
X122637342Y-109585379D01*
X122637342Y-109585379D02*
X122879247Y-109585379D01*
X122879247Y-109585379D02*
X122939723Y-109623479D01*
X122939723Y-109623479D02*
X122969961Y-109661579D01*
X122969961Y-109661579D02*
X123000199Y-109737779D01*
X123000199Y-109737779D02*
X123000199Y-109852079D01*
X123000199Y-109852079D02*
X122969961Y-109928279D01*
X122969961Y-109928279D02*
X122939723Y-109966379D01*
X122939723Y-109966379D02*
X122879247Y-110004479D01*
X122879247Y-110004479D02*
X122637342Y-110004479D01*
X123272342Y-110385479D02*
X123272342Y-109585379D01*
X123695675Y-109585379D02*
X123816628Y-109585379D01*
X123816628Y-109585379D02*
X123877104Y-109623479D01*
X123877104Y-109623479D02*
X123937580Y-109699679D01*
X123937580Y-109699679D02*
X123967818Y-109852079D01*
X123967818Y-109852079D02*
X123967818Y-110118779D01*
X123967818Y-110118779D02*
X123937580Y-110271179D01*
X123937580Y-110271179D02*
X123877104Y-110347379D01*
X123877104Y-110347379D02*
X123816628Y-110385479D01*
X123816628Y-110385479D02*
X123695675Y-110385479D01*
X123695675Y-110385479D02*
X123635199Y-110347379D01*
X123635199Y-110347379D02*
X123574723Y-110271179D01*
X123574723Y-110271179D02*
X123544485Y-110118779D01*
X123544485Y-110118779D02*
X123544485Y-109852079D01*
X123544485Y-109852079D02*
X123574723Y-109699679D01*
X123574723Y-109699679D02*
X123635199Y-109623479D01*
X123635199Y-109623479D02*
X123695675Y-109585379D01*
X124209723Y-109661579D02*
X124239961Y-109623479D01*
X124239961Y-109623479D02*
X124300437Y-109585379D01*
X124300437Y-109585379D02*
X124451628Y-109585379D01*
X124451628Y-109585379D02*
X124512104Y-109623479D01*
X124512104Y-109623479D02*
X124542342Y-109661579D01*
X124542342Y-109661579D02*
X124572580Y-109737779D01*
X124572580Y-109737779D02*
X124572580Y-109813979D01*
X124572580Y-109813979D02*
X124542342Y-109928279D01*
X124542342Y-109928279D02*
X124179485Y-110385479D01*
X124179485Y-110385479D02*
X124572580Y-110385479D01*
X124784247Y-109585379D02*
X125207580Y-109585379D01*
X125207580Y-109585379D02*
X124935437Y-110385479D01*
X122334961Y-99412679D02*
X122274485Y-99374579D01*
X122274485Y-99374579D02*
X122183771Y-99374579D01*
X122183771Y-99374579D02*
X122093056Y-99412679D01*
X122093056Y-99412679D02*
X122032580Y-99488879D01*
X122032580Y-99488879D02*
X122002342Y-99565079D01*
X122002342Y-99565079D02*
X121972104Y-99717479D01*
X121972104Y-99717479D02*
X121972104Y-99831779D01*
X121972104Y-99831779D02*
X122002342Y-99984179D01*
X122002342Y-99984179D02*
X122032580Y-100060379D01*
X122032580Y-100060379D02*
X122093056Y-100136579D01*
X122093056Y-100136579D02*
X122183771Y-100174679D01*
X122183771Y-100174679D02*
X122244247Y-100174679D01*
X122244247Y-100174679D02*
X122334961Y-100136579D01*
X122334961Y-100136579D02*
X122365199Y-100098479D01*
X122365199Y-100098479D02*
X122365199Y-99831779D01*
X122365199Y-99831779D02*
X122244247Y-99831779D01*
X122637342Y-100174679D02*
X122637342Y-99374579D01*
X122637342Y-99374579D02*
X122879247Y-99374579D01*
X122879247Y-99374579D02*
X122939723Y-99412679D01*
X122939723Y-99412679D02*
X122969961Y-99450779D01*
X122969961Y-99450779D02*
X123000199Y-99526979D01*
X123000199Y-99526979D02*
X123000199Y-99641279D01*
X123000199Y-99641279D02*
X122969961Y-99717479D01*
X122969961Y-99717479D02*
X122939723Y-99755579D01*
X122939723Y-99755579D02*
X122879247Y-99793679D01*
X122879247Y-99793679D02*
X122637342Y-99793679D01*
X123272342Y-100174679D02*
X123272342Y-99374579D01*
X123695675Y-99374579D02*
X123816628Y-99374579D01*
X123816628Y-99374579D02*
X123877104Y-99412679D01*
X123877104Y-99412679D02*
X123937580Y-99488879D01*
X123937580Y-99488879D02*
X123967818Y-99641279D01*
X123967818Y-99641279D02*
X123967818Y-99907979D01*
X123967818Y-99907979D02*
X123937580Y-100060379D01*
X123937580Y-100060379D02*
X123877104Y-100136579D01*
X123877104Y-100136579D02*
X123816628Y-100174679D01*
X123816628Y-100174679D02*
X123695675Y-100174679D01*
X123695675Y-100174679D02*
X123635199Y-100136579D01*
X123635199Y-100136579D02*
X123574723Y-100060379D01*
X123574723Y-100060379D02*
X123544485Y-99907979D01*
X123544485Y-99907979D02*
X123544485Y-99641279D01*
X123544485Y-99641279D02*
X123574723Y-99488879D01*
X123574723Y-99488879D02*
X123635199Y-99412679D01*
X123635199Y-99412679D02*
X123695675Y-99374579D01*
X124209723Y-99450779D02*
X124239961Y-99412679D01*
X124239961Y-99412679D02*
X124300437Y-99374579D01*
X124300437Y-99374579D02*
X124451628Y-99374579D01*
X124451628Y-99374579D02*
X124512104Y-99412679D01*
X124512104Y-99412679D02*
X124542342Y-99450779D01*
X124542342Y-99450779D02*
X124572580Y-99526979D01*
X124572580Y-99526979D02*
X124572580Y-99603179D01*
X124572580Y-99603179D02*
X124542342Y-99717479D01*
X124542342Y-99717479D02*
X124179485Y-100174679D01*
X124179485Y-100174679D02*
X124572580Y-100174679D01*
X124784247Y-99374579D02*
X125177342Y-99374579D01*
X125177342Y-99374579D02*
X124965675Y-99679379D01*
X124965675Y-99679379D02*
X125056390Y-99679379D01*
X125056390Y-99679379D02*
X125116866Y-99717479D01*
X125116866Y-99717479D02*
X125147104Y-99755579D01*
X125147104Y-99755579D02*
X125177342Y-99831779D01*
X125177342Y-99831779D02*
X125177342Y-100022279D01*
X125177342Y-100022279D02*
X125147104Y-100098479D01*
X125147104Y-100098479D02*
X125116866Y-100136579D01*
X125116866Y-100136579D02*
X125056390Y-100174679D01*
X125056390Y-100174679D02*
X124874961Y-100174679D01*
X124874961Y-100174679D02*
X124814485Y-100136579D01*
X124814485Y-100136579D02*
X124784247Y-100098479D01*
X144675479Y-118332457D02*
X143875379Y-118332457D01*
X143875379Y-117909124D02*
X143875379Y-117788171D01*
X143875379Y-117788171D02*
X143913479Y-117727695D01*
X143913479Y-117727695D02*
X143989679Y-117667219D01*
X143989679Y-117667219D02*
X144142079Y-117636981D01*
X144142079Y-117636981D02*
X144408779Y-117636981D01*
X144408779Y-117636981D02*
X144561179Y-117667219D01*
X144561179Y-117667219D02*
X144637379Y-117727695D01*
X144637379Y-117727695D02*
X144675479Y-117788171D01*
X144675479Y-117788171D02*
X144675479Y-117909124D01*
X144675479Y-117909124D02*
X144637379Y-117969600D01*
X144637379Y-117969600D02*
X144561179Y-118030076D01*
X144561179Y-118030076D02*
X144408779Y-118060314D01*
X144408779Y-118060314D02*
X144142079Y-118060314D01*
X144142079Y-118060314D02*
X143989679Y-118030076D01*
X143989679Y-118030076D02*
X143913479Y-117969600D01*
X143913479Y-117969600D02*
X143875379Y-117909124D01*
X144142079Y-117092695D02*
X144675479Y-117092695D01*
X143837279Y-117243886D02*
X144408779Y-117395076D01*
X144408779Y-117395076D02*
X144408779Y-117001981D01*
X143951579Y-116790314D02*
X143913479Y-116760076D01*
X143913479Y-116760076D02*
X143875379Y-116699600D01*
X143875379Y-116699600D02*
X143875379Y-116548409D01*
X143875379Y-116548409D02*
X143913479Y-116487933D01*
X143913479Y-116487933D02*
X143951579Y-116457695D01*
X143951579Y-116457695D02*
X144027779Y-116427457D01*
X144027779Y-116427457D02*
X144103979Y-116427457D01*
X144103979Y-116427457D02*
X144218279Y-116457695D01*
X144218279Y-116457695D02*
X144675479Y-116820552D01*
X144675479Y-116820552D02*
X144675479Y-116427457D01*
D11*
X126341980Y-111281104D02*
X126818171Y-110947771D01*
X126341980Y-110709676D02*
X127341980Y-110709676D01*
X127341980Y-110709676D02*
X127341980Y-111090628D01*
X127341980Y-111090628D02*
X127294361Y-111185866D01*
X127294361Y-111185866D02*
X127246742Y-111233485D01*
X127246742Y-111233485D02*
X127151504Y-111281104D01*
X127151504Y-111281104D02*
X127008647Y-111281104D01*
X127008647Y-111281104D02*
X126913409Y-111233485D01*
X126913409Y-111233485D02*
X126865790Y-111185866D01*
X126865790Y-111185866D02*
X126818171Y-111090628D01*
X126818171Y-111090628D02*
X126818171Y-110709676D01*
X126341980Y-111709676D02*
X127341980Y-111709676D01*
X127341980Y-111709676D02*
X127341980Y-112090628D01*
X127341980Y-112090628D02*
X127294361Y-112185866D01*
X127294361Y-112185866D02*
X127246742Y-112233485D01*
X127246742Y-112233485D02*
X127151504Y-112281104D01*
X127151504Y-112281104D02*
X127008647Y-112281104D01*
X127008647Y-112281104D02*
X126913409Y-112233485D01*
X126913409Y-112233485D02*
X126865790Y-112185866D01*
X126865790Y-112185866D02*
X126818171Y-112090628D01*
X126818171Y-112090628D02*
X126818171Y-111709676D01*
X127246742Y-112662057D02*
X127294361Y-112709676D01*
X127294361Y-112709676D02*
X127341980Y-112804914D01*
X127341980Y-112804914D02*
X127341980Y-113043009D01*
X127341980Y-113043009D02*
X127294361Y-113138247D01*
X127294361Y-113138247D02*
X127246742Y-113185866D01*
X127246742Y-113185866D02*
X127151504Y-113233485D01*
X127151504Y-113233485D02*
X127056266Y-113233485D01*
X127056266Y-113233485D02*
X126913409Y-113185866D01*
X126913409Y-113185866D02*
X126341980Y-112614438D01*
X126341980Y-112614438D02*
X126341980Y-113233485D01*
X127341980Y-113852533D02*
X127341980Y-113947771D01*
X127341980Y-113947771D02*
X127294361Y-114043009D01*
X127294361Y-114043009D02*
X127246742Y-114090628D01*
X127246742Y-114090628D02*
X127151504Y-114138247D01*
X127151504Y-114138247D02*
X126961028Y-114185866D01*
X126961028Y-114185866D02*
X126722933Y-114185866D01*
X126722933Y-114185866D02*
X126532457Y-114138247D01*
X126532457Y-114138247D02*
X126437219Y-114090628D01*
X126437219Y-114090628D02*
X126389600Y-114043009D01*
X126389600Y-114043009D02*
X126341980Y-113947771D01*
X126341980Y-113947771D02*
X126341980Y-113852533D01*
X126341980Y-113852533D02*
X126389600Y-113757295D01*
X126389600Y-113757295D02*
X126437219Y-113709676D01*
X126437219Y-113709676D02*
X126532457Y-113662057D01*
X126532457Y-113662057D02*
X126722933Y-113614438D01*
X126722933Y-113614438D02*
X126961028Y-113614438D01*
X126961028Y-113614438D02*
X127151504Y-113662057D01*
X127151504Y-113662057D02*
X127246742Y-113709676D01*
X127246742Y-113709676D02*
X127294361Y-113757295D01*
X127294361Y-113757295D02*
X127341980Y-113852533D01*
X127008647Y-115043009D02*
X126341980Y-115043009D01*
X127389600Y-114804914D02*
X126675314Y-114566819D01*
X126675314Y-114566819D02*
X126675314Y-115185866D01*
X127341980Y-115757295D02*
X127341980Y-115852533D01*
X127341980Y-115852533D02*
X127294361Y-115947771D01*
X127294361Y-115947771D02*
X127246742Y-115995390D01*
X127246742Y-115995390D02*
X127151504Y-116043009D01*
X127151504Y-116043009D02*
X126961028Y-116090628D01*
X126961028Y-116090628D02*
X126722933Y-116090628D01*
X126722933Y-116090628D02*
X126532457Y-116043009D01*
X126532457Y-116043009D02*
X126437219Y-115995390D01*
X126437219Y-115995390D02*
X126389600Y-115947771D01*
X126389600Y-115947771D02*
X126341980Y-115852533D01*
X126341980Y-115852533D02*
X126341980Y-115757295D01*
X126341980Y-115757295D02*
X126389600Y-115662057D01*
X126389600Y-115662057D02*
X126437219Y-115614438D01*
X126437219Y-115614438D02*
X126532457Y-115566819D01*
X126532457Y-115566819D02*
X126722933Y-115519200D01*
X126722933Y-115519200D02*
X126961028Y-115519200D01*
X126961028Y-115519200D02*
X127151504Y-115566819D01*
X127151504Y-115566819D02*
X127246742Y-115614438D01*
X127246742Y-115614438D02*
X127294361Y-115662057D01*
X127294361Y-115662057D02*
X127341980Y-115757295D01*
X127294361Y-117804914D02*
X127341980Y-117709676D01*
X127341980Y-117709676D02*
X127341980Y-117566819D01*
X127341980Y-117566819D02*
X127294361Y-117423962D01*
X127294361Y-117423962D02*
X127199123Y-117328724D01*
X127199123Y-117328724D02*
X127103885Y-117281105D01*
X127103885Y-117281105D02*
X126913409Y-117233486D01*
X126913409Y-117233486D02*
X126770552Y-117233486D01*
X126770552Y-117233486D02*
X126580076Y-117281105D01*
X126580076Y-117281105D02*
X126484838Y-117328724D01*
X126484838Y-117328724D02*
X126389600Y-117423962D01*
X126389600Y-117423962D02*
X126341980Y-117566819D01*
X126341980Y-117566819D02*
X126341980Y-117662057D01*
X126341980Y-117662057D02*
X126389600Y-117804914D01*
X126389600Y-117804914D02*
X126437219Y-117852533D01*
X126437219Y-117852533D02*
X126770552Y-117852533D01*
X126770552Y-117852533D02*
X126770552Y-117662057D01*
X126341980Y-118281105D02*
X127341980Y-118281105D01*
X127341980Y-118281105D02*
X127341980Y-118662057D01*
X127341980Y-118662057D02*
X127294361Y-118757295D01*
X127294361Y-118757295D02*
X127246742Y-118804914D01*
X127246742Y-118804914D02*
X127151504Y-118852533D01*
X127151504Y-118852533D02*
X127008647Y-118852533D01*
X127008647Y-118852533D02*
X126913409Y-118804914D01*
X126913409Y-118804914D02*
X126865790Y-118757295D01*
X126865790Y-118757295D02*
X126818171Y-118662057D01*
X126818171Y-118662057D02*
X126818171Y-118281105D01*
X126341980Y-119281105D02*
X127341980Y-119281105D01*
X127341980Y-119947771D02*
X127341980Y-120138247D01*
X127341980Y-120138247D02*
X127294361Y-120233485D01*
X127294361Y-120233485D02*
X127199123Y-120328723D01*
X127199123Y-120328723D02*
X127008647Y-120376342D01*
X127008647Y-120376342D02*
X126675314Y-120376342D01*
X126675314Y-120376342D02*
X126484838Y-120328723D01*
X126484838Y-120328723D02*
X126389600Y-120233485D01*
X126389600Y-120233485D02*
X126341980Y-120138247D01*
X126341980Y-120138247D02*
X126341980Y-119947771D01*
X126341980Y-119947771D02*
X126389600Y-119852533D01*
X126389600Y-119852533D02*
X126484838Y-119757295D01*
X126484838Y-119757295D02*
X126675314Y-119709676D01*
X126675314Y-119709676D02*
X127008647Y-119709676D01*
X127008647Y-119709676D02*
X127199123Y-119757295D01*
X127199123Y-119757295D02*
X127294361Y-119852533D01*
X127294361Y-119852533D02*
X127341980Y-119947771D01*
D10*
X122334961Y-79143479D02*
X122274485Y-79105379D01*
X122274485Y-79105379D02*
X122183771Y-79105379D01*
X122183771Y-79105379D02*
X122093056Y-79143479D01*
X122093056Y-79143479D02*
X122032580Y-79219679D01*
X122032580Y-79219679D02*
X122002342Y-79295879D01*
X122002342Y-79295879D02*
X121972104Y-79448279D01*
X121972104Y-79448279D02*
X121972104Y-79562579D01*
X121972104Y-79562579D02*
X122002342Y-79714979D01*
X122002342Y-79714979D02*
X122032580Y-79791179D01*
X122032580Y-79791179D02*
X122093056Y-79867379D01*
X122093056Y-79867379D02*
X122183771Y-79905479D01*
X122183771Y-79905479D02*
X122244247Y-79905479D01*
X122244247Y-79905479D02*
X122334961Y-79867379D01*
X122334961Y-79867379D02*
X122365199Y-79829279D01*
X122365199Y-79829279D02*
X122365199Y-79562579D01*
X122365199Y-79562579D02*
X122244247Y-79562579D01*
X122637342Y-79905479D02*
X122637342Y-79105379D01*
X122637342Y-79105379D02*
X122879247Y-79105379D01*
X122879247Y-79105379D02*
X122939723Y-79143479D01*
X122939723Y-79143479D02*
X122969961Y-79181579D01*
X122969961Y-79181579D02*
X123000199Y-79257779D01*
X123000199Y-79257779D02*
X123000199Y-79372079D01*
X123000199Y-79372079D02*
X122969961Y-79448279D01*
X122969961Y-79448279D02*
X122939723Y-79486379D01*
X122939723Y-79486379D02*
X122879247Y-79524479D01*
X122879247Y-79524479D02*
X122637342Y-79524479D01*
X123272342Y-79905479D02*
X123272342Y-79105379D01*
X123695675Y-79105379D02*
X123816628Y-79105379D01*
X123816628Y-79105379D02*
X123877104Y-79143479D01*
X123877104Y-79143479D02*
X123937580Y-79219679D01*
X123937580Y-79219679D02*
X123967818Y-79372079D01*
X123967818Y-79372079D02*
X123967818Y-79638779D01*
X123967818Y-79638779D02*
X123937580Y-79791179D01*
X123937580Y-79791179D02*
X123877104Y-79867379D01*
X123877104Y-79867379D02*
X123816628Y-79905479D01*
X123816628Y-79905479D02*
X123695675Y-79905479D01*
X123695675Y-79905479D02*
X123635199Y-79867379D01*
X123635199Y-79867379D02*
X123574723Y-79791179D01*
X123574723Y-79791179D02*
X123544485Y-79638779D01*
X123544485Y-79638779D02*
X123544485Y-79372079D01*
X123544485Y-79372079D02*
X123574723Y-79219679D01*
X123574723Y-79219679D02*
X123635199Y-79143479D01*
X123635199Y-79143479D02*
X123695675Y-79105379D01*
X124572580Y-79905479D02*
X124209723Y-79905479D01*
X124391151Y-79905479D02*
X124391151Y-79105379D01*
X124391151Y-79105379D02*
X124330675Y-79219679D01*
X124330675Y-79219679D02*
X124270199Y-79295879D01*
X124270199Y-79295879D02*
X124209723Y-79333979D01*
X125147104Y-79105379D02*
X124844723Y-79105379D01*
X124844723Y-79105379D02*
X124814485Y-79486379D01*
X124814485Y-79486379D02*
X124844723Y-79448279D01*
X124844723Y-79448279D02*
X124905199Y-79410179D01*
X124905199Y-79410179D02*
X125056390Y-79410179D01*
X125056390Y-79410179D02*
X125116866Y-79448279D01*
X125116866Y-79448279D02*
X125147104Y-79486379D01*
X125147104Y-79486379D02*
X125177342Y-79562579D01*
X125177342Y-79562579D02*
X125177342Y-79753079D01*
X125177342Y-79753079D02*
X125147104Y-79829279D01*
X125147104Y-79829279D02*
X125116866Y-79867379D01*
X125116866Y-79867379D02*
X125056390Y-79905479D01*
X125056390Y-79905479D02*
X124905199Y-79905479D01*
X124905199Y-79905479D02*
X124844723Y-79867379D01*
X124844723Y-79867379D02*
X124814485Y-79829279D01*
X149704679Y-118332457D02*
X148904579Y-118332457D01*
X148904579Y-117909124D02*
X148904579Y-117788171D01*
X148904579Y-117788171D02*
X148942679Y-117727695D01*
X148942679Y-117727695D02*
X149018879Y-117667219D01*
X149018879Y-117667219D02*
X149171279Y-117636981D01*
X149171279Y-117636981D02*
X149437979Y-117636981D01*
X149437979Y-117636981D02*
X149590379Y-117667219D01*
X149590379Y-117667219D02*
X149666579Y-117727695D01*
X149666579Y-117727695D02*
X149704679Y-117788171D01*
X149704679Y-117788171D02*
X149704679Y-117909124D01*
X149704679Y-117909124D02*
X149666579Y-117969600D01*
X149666579Y-117969600D02*
X149590379Y-118030076D01*
X149590379Y-118030076D02*
X149437979Y-118060314D01*
X149437979Y-118060314D02*
X149171279Y-118060314D01*
X149171279Y-118060314D02*
X149018879Y-118030076D01*
X149018879Y-118030076D02*
X148942679Y-117969600D01*
X148942679Y-117969600D02*
X148904579Y-117909124D01*
X149171279Y-117092695D02*
X149704679Y-117092695D01*
X148866479Y-117243886D02*
X149437979Y-117395076D01*
X149437979Y-117395076D02*
X149437979Y-117001981D01*
X149171279Y-116487933D02*
X149704679Y-116487933D01*
X148866479Y-116639124D02*
X149437979Y-116790314D01*
X149437979Y-116790314D02*
X149437979Y-116397219D01*
X172294342Y-95145479D02*
X172294342Y-94345379D01*
X172717675Y-94345379D02*
X172838628Y-94345379D01*
X172838628Y-94345379D02*
X172899104Y-94383479D01*
X172899104Y-94383479D02*
X172959580Y-94459679D01*
X172959580Y-94459679D02*
X172989818Y-94612079D01*
X172989818Y-94612079D02*
X172989818Y-94878779D01*
X172989818Y-94878779D02*
X172959580Y-95031179D01*
X172959580Y-95031179D02*
X172899104Y-95107379D01*
X172899104Y-95107379D02*
X172838628Y-95145479D01*
X172838628Y-95145479D02*
X172717675Y-95145479D01*
X172717675Y-95145479D02*
X172657199Y-95107379D01*
X172657199Y-95107379D02*
X172596723Y-95031179D01*
X172596723Y-95031179D02*
X172566485Y-94878779D01*
X172566485Y-94878779D02*
X172566485Y-94612079D01*
X172566485Y-94612079D02*
X172596723Y-94459679D01*
X172596723Y-94459679D02*
X172657199Y-94383479D01*
X172657199Y-94383479D02*
X172717675Y-94345379D01*
X173594580Y-95145479D02*
X173231723Y-95145479D01*
X173413151Y-95145479D02*
X173413151Y-94345379D01*
X173413151Y-94345379D02*
X173352675Y-94459679D01*
X173352675Y-94459679D02*
X173292199Y-94535879D01*
X173292199Y-94535879D02*
X173231723Y-94573979D01*
X173806247Y-94345379D02*
X174199342Y-94345379D01*
X174199342Y-94345379D02*
X173987675Y-94650179D01*
X173987675Y-94650179D02*
X174078390Y-94650179D01*
X174078390Y-94650179D02*
X174138866Y-94688279D01*
X174138866Y-94688279D02*
X174169104Y-94726379D01*
X174169104Y-94726379D02*
X174199342Y-94802579D01*
X174199342Y-94802579D02*
X174199342Y-94993079D01*
X174199342Y-94993079D02*
X174169104Y-95069279D01*
X174169104Y-95069279D02*
X174138866Y-95107379D01*
X174138866Y-95107379D02*
X174078390Y-95145479D01*
X174078390Y-95145479D02*
X173896961Y-95145479D01*
X173896961Y-95145479D02*
X173836485Y-95107379D01*
X173836485Y-95107379D02*
X173806247Y-95069279D01*
X172903942Y-107794679D02*
X172903942Y-106994579D01*
X173327275Y-106994579D02*
X173448228Y-106994579D01*
X173448228Y-106994579D02*
X173508704Y-107032679D01*
X173508704Y-107032679D02*
X173569180Y-107108879D01*
X173569180Y-107108879D02*
X173599418Y-107261279D01*
X173599418Y-107261279D02*
X173599418Y-107527979D01*
X173599418Y-107527979D02*
X173569180Y-107680379D01*
X173569180Y-107680379D02*
X173508704Y-107756579D01*
X173508704Y-107756579D02*
X173448228Y-107794679D01*
X173448228Y-107794679D02*
X173327275Y-107794679D01*
X173327275Y-107794679D02*
X173266799Y-107756579D01*
X173266799Y-107756579D02*
X173206323Y-107680379D01*
X173206323Y-107680379D02*
X173176085Y-107527979D01*
X173176085Y-107527979D02*
X173176085Y-107261279D01*
X173176085Y-107261279D02*
X173206323Y-107108879D01*
X173206323Y-107108879D02*
X173266799Y-107032679D01*
X173266799Y-107032679D02*
X173327275Y-106994579D01*
X174143704Y-106994579D02*
X174022751Y-106994579D01*
X174022751Y-106994579D02*
X173962275Y-107032679D01*
X173962275Y-107032679D02*
X173932037Y-107070779D01*
X173932037Y-107070779D02*
X173871561Y-107185079D01*
X173871561Y-107185079D02*
X173841323Y-107337479D01*
X173841323Y-107337479D02*
X173841323Y-107642279D01*
X173841323Y-107642279D02*
X173871561Y-107718479D01*
X173871561Y-107718479D02*
X173901799Y-107756579D01*
X173901799Y-107756579D02*
X173962275Y-107794679D01*
X173962275Y-107794679D02*
X174083228Y-107794679D01*
X174083228Y-107794679D02*
X174143704Y-107756579D01*
X174143704Y-107756579D02*
X174173942Y-107718479D01*
X174173942Y-107718479D02*
X174204180Y-107642279D01*
X174204180Y-107642279D02*
X174204180Y-107451779D01*
X174204180Y-107451779D02*
X174173942Y-107375579D01*
X174173942Y-107375579D02*
X174143704Y-107337479D01*
X174143704Y-107337479D02*
X174083228Y-107299379D01*
X174083228Y-107299379D02*
X173962275Y-107299379D01*
X173962275Y-107299379D02*
X173901799Y-107337479D01*
X173901799Y-107337479D02*
X173871561Y-107375579D01*
X173871561Y-107375579D02*
X173841323Y-107451779D01*
X172294342Y-77314679D02*
X172294342Y-76514579D01*
X172717675Y-76514579D02*
X172838628Y-76514579D01*
X172838628Y-76514579D02*
X172899104Y-76552679D01*
X172899104Y-76552679D02*
X172959580Y-76628879D01*
X172959580Y-76628879D02*
X172989818Y-76781279D01*
X172989818Y-76781279D02*
X172989818Y-77047979D01*
X172989818Y-77047979D02*
X172959580Y-77200379D01*
X172959580Y-77200379D02*
X172899104Y-77276579D01*
X172899104Y-77276579D02*
X172838628Y-77314679D01*
X172838628Y-77314679D02*
X172717675Y-77314679D01*
X172717675Y-77314679D02*
X172657199Y-77276579D01*
X172657199Y-77276579D02*
X172596723Y-77200379D01*
X172596723Y-77200379D02*
X172566485Y-77047979D01*
X172566485Y-77047979D02*
X172566485Y-76781279D01*
X172566485Y-76781279D02*
X172596723Y-76628879D01*
X172596723Y-76628879D02*
X172657199Y-76552679D01*
X172657199Y-76552679D02*
X172717675Y-76514579D01*
X173201485Y-76514579D02*
X173594580Y-76514579D01*
X173594580Y-76514579D02*
X173382913Y-76819379D01*
X173382913Y-76819379D02*
X173473628Y-76819379D01*
X173473628Y-76819379D02*
X173534104Y-76857479D01*
X173534104Y-76857479D02*
X173564342Y-76895579D01*
X173564342Y-76895579D02*
X173594580Y-76971779D01*
X173594580Y-76971779D02*
X173594580Y-77162279D01*
X173594580Y-77162279D02*
X173564342Y-77238479D01*
X173564342Y-77238479D02*
X173534104Y-77276579D01*
X173534104Y-77276579D02*
X173473628Y-77314679D01*
X173473628Y-77314679D02*
X173292199Y-77314679D01*
X173292199Y-77314679D02*
X173231723Y-77276579D01*
X173231723Y-77276579D02*
X173201485Y-77238479D01*
X174199342Y-77314679D02*
X173836485Y-77314679D01*
X174017913Y-77314679D02*
X174017913Y-76514579D01*
X174017913Y-76514579D02*
X173957437Y-76628879D01*
X173957437Y-76628879D02*
X173896961Y-76705079D01*
X173896961Y-76705079D02*
X173836485Y-76743179D01*
X122334961Y-104594279D02*
X122274485Y-104556179D01*
X122274485Y-104556179D02*
X122183771Y-104556179D01*
X122183771Y-104556179D02*
X122093056Y-104594279D01*
X122093056Y-104594279D02*
X122032580Y-104670479D01*
X122032580Y-104670479D02*
X122002342Y-104746679D01*
X122002342Y-104746679D02*
X121972104Y-104899079D01*
X121972104Y-104899079D02*
X121972104Y-105013379D01*
X121972104Y-105013379D02*
X122002342Y-105165779D01*
X122002342Y-105165779D02*
X122032580Y-105241979D01*
X122032580Y-105241979D02*
X122093056Y-105318179D01*
X122093056Y-105318179D02*
X122183771Y-105356279D01*
X122183771Y-105356279D02*
X122244247Y-105356279D01*
X122244247Y-105356279D02*
X122334961Y-105318179D01*
X122334961Y-105318179D02*
X122365199Y-105280079D01*
X122365199Y-105280079D02*
X122365199Y-105013379D01*
X122365199Y-105013379D02*
X122244247Y-105013379D01*
X122637342Y-105356279D02*
X122637342Y-104556179D01*
X122637342Y-104556179D02*
X122879247Y-104556179D01*
X122879247Y-104556179D02*
X122939723Y-104594279D01*
X122939723Y-104594279D02*
X122969961Y-104632379D01*
X122969961Y-104632379D02*
X123000199Y-104708579D01*
X123000199Y-104708579D02*
X123000199Y-104822879D01*
X123000199Y-104822879D02*
X122969961Y-104899079D01*
X122969961Y-104899079D02*
X122939723Y-104937179D01*
X122939723Y-104937179D02*
X122879247Y-104975279D01*
X122879247Y-104975279D02*
X122637342Y-104975279D01*
X123272342Y-105356279D02*
X123272342Y-104556179D01*
X123695675Y-104556179D02*
X123816628Y-104556179D01*
X123816628Y-104556179D02*
X123877104Y-104594279D01*
X123877104Y-104594279D02*
X123937580Y-104670479D01*
X123937580Y-104670479D02*
X123967818Y-104822879D01*
X123967818Y-104822879D02*
X123967818Y-105089579D01*
X123967818Y-105089579D02*
X123937580Y-105241979D01*
X123937580Y-105241979D02*
X123877104Y-105318179D01*
X123877104Y-105318179D02*
X123816628Y-105356279D01*
X123816628Y-105356279D02*
X123695675Y-105356279D01*
X123695675Y-105356279D02*
X123635199Y-105318179D01*
X123635199Y-105318179D02*
X123574723Y-105241979D01*
X123574723Y-105241979D02*
X123544485Y-105089579D01*
X123544485Y-105089579D02*
X123544485Y-104822879D01*
X123544485Y-104822879D02*
X123574723Y-104670479D01*
X123574723Y-104670479D02*
X123635199Y-104594279D01*
X123635199Y-104594279D02*
X123695675Y-104556179D01*
X124209723Y-104632379D02*
X124239961Y-104594279D01*
X124239961Y-104594279D02*
X124300437Y-104556179D01*
X124300437Y-104556179D02*
X124451628Y-104556179D01*
X124451628Y-104556179D02*
X124512104Y-104594279D01*
X124512104Y-104594279D02*
X124542342Y-104632379D01*
X124542342Y-104632379D02*
X124572580Y-104708579D01*
X124572580Y-104708579D02*
X124572580Y-104784779D01*
X124572580Y-104784779D02*
X124542342Y-104899079D01*
X124542342Y-104899079D02*
X124179485Y-105356279D01*
X124179485Y-105356279D02*
X124572580Y-105356279D01*
X125147104Y-104556179D02*
X124844723Y-104556179D01*
X124844723Y-104556179D02*
X124814485Y-104937179D01*
X124814485Y-104937179D02*
X124844723Y-104899079D01*
X124844723Y-104899079D02*
X124905199Y-104860979D01*
X124905199Y-104860979D02*
X125056390Y-104860979D01*
X125056390Y-104860979D02*
X125116866Y-104899079D01*
X125116866Y-104899079D02*
X125147104Y-104937179D01*
X125147104Y-104937179D02*
X125177342Y-105013379D01*
X125177342Y-105013379D02*
X125177342Y-105203879D01*
X125177342Y-105203879D02*
X125147104Y-105280079D01*
X125147104Y-105280079D02*
X125116866Y-105318179D01*
X125116866Y-105318179D02*
X125056390Y-105356279D01*
X125056390Y-105356279D02*
X124905199Y-105356279D01*
X124905199Y-105356279D02*
X124844723Y-105318179D01*
X124844723Y-105318179D02*
X124814485Y-105280079D01*
X122334961Y-107032679D02*
X122274485Y-106994579D01*
X122274485Y-106994579D02*
X122183771Y-106994579D01*
X122183771Y-106994579D02*
X122093056Y-107032679D01*
X122093056Y-107032679D02*
X122032580Y-107108879D01*
X122032580Y-107108879D02*
X122002342Y-107185079D01*
X122002342Y-107185079D02*
X121972104Y-107337479D01*
X121972104Y-107337479D02*
X121972104Y-107451779D01*
X121972104Y-107451779D02*
X122002342Y-107604179D01*
X122002342Y-107604179D02*
X122032580Y-107680379D01*
X122032580Y-107680379D02*
X122093056Y-107756579D01*
X122093056Y-107756579D02*
X122183771Y-107794679D01*
X122183771Y-107794679D02*
X122244247Y-107794679D01*
X122244247Y-107794679D02*
X122334961Y-107756579D01*
X122334961Y-107756579D02*
X122365199Y-107718479D01*
X122365199Y-107718479D02*
X122365199Y-107451779D01*
X122365199Y-107451779D02*
X122244247Y-107451779D01*
X122637342Y-107794679D02*
X122637342Y-106994579D01*
X122637342Y-106994579D02*
X122879247Y-106994579D01*
X122879247Y-106994579D02*
X122939723Y-107032679D01*
X122939723Y-107032679D02*
X122969961Y-107070779D01*
X122969961Y-107070779D02*
X123000199Y-107146979D01*
X123000199Y-107146979D02*
X123000199Y-107261279D01*
X123000199Y-107261279D02*
X122969961Y-107337479D01*
X122969961Y-107337479D02*
X122939723Y-107375579D01*
X122939723Y-107375579D02*
X122879247Y-107413679D01*
X122879247Y-107413679D02*
X122637342Y-107413679D01*
X123272342Y-107794679D02*
X123272342Y-106994579D01*
X123695675Y-106994579D02*
X123816628Y-106994579D01*
X123816628Y-106994579D02*
X123877104Y-107032679D01*
X123877104Y-107032679D02*
X123937580Y-107108879D01*
X123937580Y-107108879D02*
X123967818Y-107261279D01*
X123967818Y-107261279D02*
X123967818Y-107527979D01*
X123967818Y-107527979D02*
X123937580Y-107680379D01*
X123937580Y-107680379D02*
X123877104Y-107756579D01*
X123877104Y-107756579D02*
X123816628Y-107794679D01*
X123816628Y-107794679D02*
X123695675Y-107794679D01*
X123695675Y-107794679D02*
X123635199Y-107756579D01*
X123635199Y-107756579D02*
X123574723Y-107680379D01*
X123574723Y-107680379D02*
X123544485Y-107527979D01*
X123544485Y-107527979D02*
X123544485Y-107261279D01*
X123544485Y-107261279D02*
X123574723Y-107108879D01*
X123574723Y-107108879D02*
X123635199Y-107032679D01*
X123635199Y-107032679D02*
X123695675Y-106994579D01*
X124209723Y-107070779D02*
X124239961Y-107032679D01*
X124239961Y-107032679D02*
X124300437Y-106994579D01*
X124300437Y-106994579D02*
X124451628Y-106994579D01*
X124451628Y-106994579D02*
X124512104Y-107032679D01*
X124512104Y-107032679D02*
X124542342Y-107070779D01*
X124542342Y-107070779D02*
X124572580Y-107146979D01*
X124572580Y-107146979D02*
X124572580Y-107223179D01*
X124572580Y-107223179D02*
X124542342Y-107337479D01*
X124542342Y-107337479D02*
X124179485Y-107794679D01*
X124179485Y-107794679D02*
X124572580Y-107794679D01*
X125116866Y-106994579D02*
X124995913Y-106994579D01*
X124995913Y-106994579D02*
X124935437Y-107032679D01*
X124935437Y-107032679D02*
X124905199Y-107070779D01*
X124905199Y-107070779D02*
X124844723Y-107185079D01*
X124844723Y-107185079D02*
X124814485Y-107337479D01*
X124814485Y-107337479D02*
X124814485Y-107642279D01*
X124814485Y-107642279D02*
X124844723Y-107718479D01*
X124844723Y-107718479D02*
X124874961Y-107756579D01*
X124874961Y-107756579D02*
X124935437Y-107794679D01*
X124935437Y-107794679D02*
X125056390Y-107794679D01*
X125056390Y-107794679D02*
X125116866Y-107756579D01*
X125116866Y-107756579D02*
X125147104Y-107718479D01*
X125147104Y-107718479D02*
X125177342Y-107642279D01*
X125177342Y-107642279D02*
X125177342Y-107451779D01*
X125177342Y-107451779D02*
X125147104Y-107375579D01*
X125147104Y-107375579D02*
X125116866Y-107337479D01*
X125116866Y-107337479D02*
X125056390Y-107299379D01*
X125056390Y-107299379D02*
X124935437Y-107299379D01*
X124935437Y-107299379D02*
X124874961Y-107337479D01*
X124874961Y-107337479D02*
X124844723Y-107375579D01*
X124844723Y-107375579D02*
X124814485Y-107451779D01*
X157324679Y-118332457D02*
X156524579Y-118332457D01*
X156524579Y-117909124D02*
X156524579Y-117788171D01*
X156524579Y-117788171D02*
X156562679Y-117727695D01*
X156562679Y-117727695D02*
X156638879Y-117667219D01*
X156638879Y-117667219D02*
X156791279Y-117636981D01*
X156791279Y-117636981D02*
X157057979Y-117636981D01*
X157057979Y-117636981D02*
X157210379Y-117667219D01*
X157210379Y-117667219D02*
X157286579Y-117727695D01*
X157286579Y-117727695D02*
X157324679Y-117788171D01*
X157324679Y-117788171D02*
X157324679Y-117909124D01*
X157324679Y-117909124D02*
X157286579Y-117969600D01*
X157286579Y-117969600D02*
X157210379Y-118030076D01*
X157210379Y-118030076D02*
X157057979Y-118060314D01*
X157057979Y-118060314D02*
X156791279Y-118060314D01*
X156791279Y-118060314D02*
X156638879Y-118030076D01*
X156638879Y-118030076D02*
X156562679Y-117969600D01*
X156562679Y-117969600D02*
X156524579Y-117909124D01*
X156791279Y-117092695D02*
X157324679Y-117092695D01*
X156486479Y-117243886D02*
X157057979Y-117395076D01*
X157057979Y-117395076D02*
X157057979Y-117001981D01*
X156524579Y-116820552D02*
X156524579Y-116397219D01*
X156524579Y-116397219D02*
X157324679Y-116669362D01*
X172779361Y-71523479D02*
X172718885Y-71485379D01*
X172718885Y-71485379D02*
X172628171Y-71485379D01*
X172628171Y-71485379D02*
X172537456Y-71523479D01*
X172537456Y-71523479D02*
X172476980Y-71599679D01*
X172476980Y-71599679D02*
X172446742Y-71675879D01*
X172446742Y-71675879D02*
X172416504Y-71828279D01*
X172416504Y-71828279D02*
X172416504Y-71942579D01*
X172416504Y-71942579D02*
X172446742Y-72094979D01*
X172446742Y-72094979D02*
X172476980Y-72171179D01*
X172476980Y-72171179D02*
X172537456Y-72247379D01*
X172537456Y-72247379D02*
X172628171Y-72285479D01*
X172628171Y-72285479D02*
X172688647Y-72285479D01*
X172688647Y-72285479D02*
X172779361Y-72247379D01*
X172779361Y-72247379D02*
X172809599Y-72209279D01*
X172809599Y-72209279D02*
X172809599Y-71942579D01*
X172809599Y-71942579D02*
X172688647Y-71942579D01*
X173081742Y-72285479D02*
X173081742Y-71485379D01*
X173081742Y-71485379D02*
X173444599Y-72285479D01*
X173444599Y-72285479D02*
X173444599Y-71485379D01*
X173746980Y-72285479D02*
X173746980Y-71485379D01*
X173746980Y-71485379D02*
X173898170Y-71485379D01*
X173898170Y-71485379D02*
X173988885Y-71523479D01*
X173988885Y-71523479D02*
X174049361Y-71599679D01*
X174049361Y-71599679D02*
X174079599Y-71675879D01*
X174079599Y-71675879D02*
X174109837Y-71828279D01*
X174109837Y-71828279D02*
X174109837Y-71942579D01*
X174109837Y-71942579D02*
X174079599Y-72094979D01*
X174079599Y-72094979D02*
X174049361Y-72171179D01*
X174049361Y-72171179D02*
X173988885Y-72247379D01*
X173988885Y-72247379D02*
X173898170Y-72285479D01*
X173898170Y-72285479D02*
X173746980Y-72285479D01*
D11*
X127315980Y-96771619D02*
X126982647Y-96295428D01*
X126744552Y-96771619D02*
X126744552Y-95771619D01*
X126744552Y-95771619D02*
X127125504Y-95771619D01*
X127125504Y-95771619D02*
X127220742Y-95819238D01*
X127220742Y-95819238D02*
X127268361Y-95866857D01*
X127268361Y-95866857D02*
X127315980Y-95962095D01*
X127315980Y-95962095D02*
X127315980Y-96104952D01*
X127315980Y-96104952D02*
X127268361Y-96200190D01*
X127268361Y-96200190D02*
X127220742Y-96247809D01*
X127220742Y-96247809D02*
X127125504Y-96295428D01*
X127125504Y-96295428D02*
X126744552Y-96295428D01*
X127696933Y-96724000D02*
X127839790Y-96771619D01*
X127839790Y-96771619D02*
X128077885Y-96771619D01*
X128077885Y-96771619D02*
X128173123Y-96724000D01*
X128173123Y-96724000D02*
X128220742Y-96676380D01*
X128220742Y-96676380D02*
X128268361Y-96581142D01*
X128268361Y-96581142D02*
X128268361Y-96485904D01*
X128268361Y-96485904D02*
X128220742Y-96390666D01*
X128220742Y-96390666D02*
X128173123Y-96343047D01*
X128173123Y-96343047D02*
X128077885Y-96295428D01*
X128077885Y-96295428D02*
X127887409Y-96247809D01*
X127887409Y-96247809D02*
X127792171Y-96200190D01*
X127792171Y-96200190D02*
X127744552Y-96152571D01*
X127744552Y-96152571D02*
X127696933Y-96057333D01*
X127696933Y-96057333D02*
X127696933Y-95962095D01*
X127696933Y-95962095D02*
X127744552Y-95866857D01*
X127744552Y-95866857D02*
X127792171Y-95819238D01*
X127792171Y-95819238D02*
X127887409Y-95771619D01*
X127887409Y-95771619D02*
X128125504Y-95771619D01*
X128125504Y-95771619D02*
X128268361Y-95819238D01*
X128554076Y-95771619D02*
X129125504Y-95771619D01*
X128839790Y-96771619D02*
X128839790Y-95771619D01*
D10*
X122334961Y-114652679D02*
X122274485Y-114614579D01*
X122274485Y-114614579D02*
X122183771Y-114614579D01*
X122183771Y-114614579D02*
X122093056Y-114652679D01*
X122093056Y-114652679D02*
X122032580Y-114728879D01*
X122032580Y-114728879D02*
X122002342Y-114805079D01*
X122002342Y-114805079D02*
X121972104Y-114957479D01*
X121972104Y-114957479D02*
X121972104Y-115071779D01*
X121972104Y-115071779D02*
X122002342Y-115224179D01*
X122002342Y-115224179D02*
X122032580Y-115300379D01*
X122032580Y-115300379D02*
X122093056Y-115376579D01*
X122093056Y-115376579D02*
X122183771Y-115414679D01*
X122183771Y-115414679D02*
X122244247Y-115414679D01*
X122244247Y-115414679D02*
X122334961Y-115376579D01*
X122334961Y-115376579D02*
X122365199Y-115338479D01*
X122365199Y-115338479D02*
X122365199Y-115071779D01*
X122365199Y-115071779D02*
X122244247Y-115071779D01*
X122637342Y-115414679D02*
X122637342Y-114614579D01*
X122637342Y-114614579D02*
X122879247Y-114614579D01*
X122879247Y-114614579D02*
X122939723Y-114652679D01*
X122939723Y-114652679D02*
X122969961Y-114690779D01*
X122969961Y-114690779D02*
X123000199Y-114766979D01*
X123000199Y-114766979D02*
X123000199Y-114881279D01*
X123000199Y-114881279D02*
X122969961Y-114957479D01*
X122969961Y-114957479D02*
X122939723Y-114995579D01*
X122939723Y-114995579D02*
X122879247Y-115033679D01*
X122879247Y-115033679D02*
X122637342Y-115033679D01*
X123272342Y-115414679D02*
X123272342Y-114614579D01*
X123695675Y-114614579D02*
X123816628Y-114614579D01*
X123816628Y-114614579D02*
X123877104Y-114652679D01*
X123877104Y-114652679D02*
X123937580Y-114728879D01*
X123937580Y-114728879D02*
X123967818Y-114881279D01*
X123967818Y-114881279D02*
X123967818Y-115147979D01*
X123967818Y-115147979D02*
X123937580Y-115300379D01*
X123937580Y-115300379D02*
X123877104Y-115376579D01*
X123877104Y-115376579D02*
X123816628Y-115414679D01*
X123816628Y-115414679D02*
X123695675Y-115414679D01*
X123695675Y-115414679D02*
X123635199Y-115376579D01*
X123635199Y-115376579D02*
X123574723Y-115300379D01*
X123574723Y-115300379D02*
X123544485Y-115147979D01*
X123544485Y-115147979D02*
X123544485Y-114881279D01*
X123544485Y-114881279D02*
X123574723Y-114728879D01*
X123574723Y-114728879D02*
X123635199Y-114652679D01*
X123635199Y-114652679D02*
X123695675Y-114614579D01*
X124209723Y-114690779D02*
X124239961Y-114652679D01*
X124239961Y-114652679D02*
X124300437Y-114614579D01*
X124300437Y-114614579D02*
X124451628Y-114614579D01*
X124451628Y-114614579D02*
X124512104Y-114652679D01*
X124512104Y-114652679D02*
X124542342Y-114690779D01*
X124542342Y-114690779D02*
X124572580Y-114766979D01*
X124572580Y-114766979D02*
X124572580Y-114843179D01*
X124572580Y-114843179D02*
X124542342Y-114957479D01*
X124542342Y-114957479D02*
X124179485Y-115414679D01*
X124179485Y-115414679D02*
X124572580Y-115414679D01*
X124874961Y-115414679D02*
X124995913Y-115414679D01*
X124995913Y-115414679D02*
X125056390Y-115376579D01*
X125056390Y-115376579D02*
X125086628Y-115338479D01*
X125086628Y-115338479D02*
X125147104Y-115224179D01*
X125147104Y-115224179D02*
X125177342Y-115071779D01*
X125177342Y-115071779D02*
X125177342Y-114766979D01*
X125177342Y-114766979D02*
X125147104Y-114690779D01*
X125147104Y-114690779D02*
X125116866Y-114652679D01*
X125116866Y-114652679D02*
X125056390Y-114614579D01*
X125056390Y-114614579D02*
X124935437Y-114614579D01*
X124935437Y-114614579D02*
X124874961Y-114652679D01*
X124874961Y-114652679D02*
X124844723Y-114690779D01*
X124844723Y-114690779D02*
X124814485Y-114766979D01*
X124814485Y-114766979D02*
X124814485Y-114957479D01*
X124814485Y-114957479D02*
X124844723Y-115033679D01*
X124844723Y-115033679D02*
X124874961Y-115071779D01*
X124874961Y-115071779D02*
X124935437Y-115109879D01*
X124935437Y-115109879D02*
X125056390Y-115109879D01*
X125056390Y-115109879D02*
X125116866Y-115071779D01*
X125116866Y-115071779D02*
X125147104Y-115033679D01*
X125147104Y-115033679D02*
X125177342Y-114957479D01*
D11*
X141729619Y-91520876D02*
X141253428Y-91854209D01*
X141729619Y-92092304D02*
X140729619Y-92092304D01*
X140729619Y-92092304D02*
X140729619Y-91711352D01*
X140729619Y-91711352D02*
X140777238Y-91616114D01*
X140777238Y-91616114D02*
X140824857Y-91568495D01*
X140824857Y-91568495D02*
X140920095Y-91520876D01*
X140920095Y-91520876D02*
X141062952Y-91520876D01*
X141062952Y-91520876D02*
X141158190Y-91568495D01*
X141158190Y-91568495D02*
X141205809Y-91616114D01*
X141205809Y-91616114D02*
X141253428Y-91711352D01*
X141253428Y-91711352D02*
X141253428Y-92092304D01*
X140777238Y-90568495D02*
X140729619Y-90663733D01*
X140729619Y-90663733D02*
X140729619Y-90806590D01*
X140729619Y-90806590D02*
X140777238Y-90949447D01*
X140777238Y-90949447D02*
X140872476Y-91044685D01*
X140872476Y-91044685D02*
X140967714Y-91092304D01*
X140967714Y-91092304D02*
X141158190Y-91139923D01*
X141158190Y-91139923D02*
X141301047Y-91139923D01*
X141301047Y-91139923D02*
X141491523Y-91092304D01*
X141491523Y-91092304D02*
X141586761Y-91044685D01*
X141586761Y-91044685D02*
X141682000Y-90949447D01*
X141682000Y-90949447D02*
X141729619Y-90806590D01*
X141729619Y-90806590D02*
X141729619Y-90711352D01*
X141729619Y-90711352D02*
X141682000Y-90568495D01*
X141682000Y-90568495D02*
X141634380Y-90520876D01*
X141634380Y-90520876D02*
X141301047Y-90520876D01*
X141301047Y-90520876D02*
X141301047Y-90711352D01*
X141205809Y-89758971D02*
X141253428Y-89616114D01*
X141253428Y-89616114D02*
X141301047Y-89568495D01*
X141301047Y-89568495D02*
X141396285Y-89520876D01*
X141396285Y-89520876D02*
X141539142Y-89520876D01*
X141539142Y-89520876D02*
X141634380Y-89568495D01*
X141634380Y-89568495D02*
X141682000Y-89616114D01*
X141682000Y-89616114D02*
X141729619Y-89711352D01*
X141729619Y-89711352D02*
X141729619Y-90092304D01*
X141729619Y-90092304D02*
X140729619Y-90092304D01*
X140729619Y-90092304D02*
X140729619Y-89758971D01*
X140729619Y-89758971D02*
X140777238Y-89663733D01*
X140777238Y-89663733D02*
X140824857Y-89616114D01*
X140824857Y-89616114D02*
X140920095Y-89568495D01*
X140920095Y-89568495D02*
X141015333Y-89568495D01*
X141015333Y-89568495D02*
X141110571Y-89616114D01*
X141110571Y-89616114D02*
X141158190Y-89663733D01*
X141158190Y-89663733D02*
X141205809Y-89758971D01*
X141205809Y-89758971D02*
X141205809Y-90092304D01*
D10*
X154733879Y-118332457D02*
X153933779Y-118332457D01*
X153933779Y-117909124D02*
X153933779Y-117788171D01*
X153933779Y-117788171D02*
X153971879Y-117727695D01*
X153971879Y-117727695D02*
X154048079Y-117667219D01*
X154048079Y-117667219D02*
X154200479Y-117636981D01*
X154200479Y-117636981D02*
X154467179Y-117636981D01*
X154467179Y-117636981D02*
X154619579Y-117667219D01*
X154619579Y-117667219D02*
X154695779Y-117727695D01*
X154695779Y-117727695D02*
X154733879Y-117788171D01*
X154733879Y-117788171D02*
X154733879Y-117909124D01*
X154733879Y-117909124D02*
X154695779Y-117969600D01*
X154695779Y-117969600D02*
X154619579Y-118030076D01*
X154619579Y-118030076D02*
X154467179Y-118060314D01*
X154467179Y-118060314D02*
X154200479Y-118060314D01*
X154200479Y-118060314D02*
X154048079Y-118030076D01*
X154048079Y-118030076D02*
X153971879Y-117969600D01*
X153971879Y-117969600D02*
X153933779Y-117909124D01*
X154200479Y-117092695D02*
X154733879Y-117092695D01*
X153895679Y-117243886D02*
X154467179Y-117395076D01*
X154467179Y-117395076D02*
X154467179Y-117001981D01*
X153933779Y-116487933D02*
X153933779Y-116608886D01*
X153933779Y-116608886D02*
X153971879Y-116669362D01*
X153971879Y-116669362D02*
X154009979Y-116699600D01*
X154009979Y-116699600D02*
X154124279Y-116760076D01*
X154124279Y-116760076D02*
X154276679Y-116790314D01*
X154276679Y-116790314D02*
X154581479Y-116790314D01*
X154581479Y-116790314D02*
X154657679Y-116760076D01*
X154657679Y-116760076D02*
X154695779Y-116729838D01*
X154695779Y-116729838D02*
X154733879Y-116669362D01*
X154733879Y-116669362D02*
X154733879Y-116548409D01*
X154733879Y-116548409D02*
X154695779Y-116487933D01*
X154695779Y-116487933D02*
X154657679Y-116457695D01*
X154657679Y-116457695D02*
X154581479Y-116427457D01*
X154581479Y-116427457D02*
X154390979Y-116427457D01*
X154390979Y-116427457D02*
X154314779Y-116457695D01*
X154314779Y-116457695D02*
X154276679Y-116487933D01*
X154276679Y-116487933D02*
X154238579Y-116548409D01*
X154238579Y-116548409D02*
X154238579Y-116669362D01*
X154238579Y-116669362D02*
X154276679Y-116729838D01*
X154276679Y-116729838D02*
X154314779Y-116760076D01*
X154314779Y-116760076D02*
X154390979Y-116790314D01*
D11*
X146413695Y-82663819D02*
X146413695Y-83473342D01*
X146413695Y-83473342D02*
X146461314Y-83568580D01*
X146461314Y-83568580D02*
X146508933Y-83616200D01*
X146508933Y-83616200D02*
X146604171Y-83663819D01*
X146604171Y-83663819D02*
X146794647Y-83663819D01*
X146794647Y-83663819D02*
X146889885Y-83616200D01*
X146889885Y-83616200D02*
X146937504Y-83568580D01*
X146937504Y-83568580D02*
X146985123Y-83473342D01*
X146985123Y-83473342D02*
X146985123Y-82663819D01*
X147413695Y-83616200D02*
X147556552Y-83663819D01*
X147556552Y-83663819D02*
X147794647Y-83663819D01*
X147794647Y-83663819D02*
X147889885Y-83616200D01*
X147889885Y-83616200D02*
X147937504Y-83568580D01*
X147937504Y-83568580D02*
X147985123Y-83473342D01*
X147985123Y-83473342D02*
X147985123Y-83378104D01*
X147985123Y-83378104D02*
X147937504Y-83282866D01*
X147937504Y-83282866D02*
X147889885Y-83235247D01*
X147889885Y-83235247D02*
X147794647Y-83187628D01*
X147794647Y-83187628D02*
X147604171Y-83140009D01*
X147604171Y-83140009D02*
X147508933Y-83092390D01*
X147508933Y-83092390D02*
X147461314Y-83044771D01*
X147461314Y-83044771D02*
X147413695Y-82949533D01*
X147413695Y-82949533D02*
X147413695Y-82854295D01*
X147413695Y-82854295D02*
X147461314Y-82759057D01*
X147461314Y-82759057D02*
X147508933Y-82711438D01*
X147508933Y-82711438D02*
X147604171Y-82663819D01*
X147604171Y-82663819D02*
X147842266Y-82663819D01*
X147842266Y-82663819D02*
X147985123Y-82711438D01*
X148985123Y-83663819D02*
X148651790Y-83187628D01*
X148413695Y-83663819D02*
X148413695Y-82663819D01*
X148413695Y-82663819D02*
X148794647Y-82663819D01*
X148794647Y-82663819D02*
X148889885Y-82711438D01*
X148889885Y-82711438D02*
X148937504Y-82759057D01*
X148937504Y-82759057D02*
X148985123Y-82854295D01*
X148985123Y-82854295D02*
X148985123Y-82997152D01*
X148985123Y-82997152D02*
X148937504Y-83092390D01*
X148937504Y-83092390D02*
X148889885Y-83140009D01*
X148889885Y-83140009D02*
X148794647Y-83187628D01*
X148794647Y-83187628D02*
X148413695Y-83187628D01*
X141932781Y-115821619D02*
X141932781Y-115154952D01*
X141932781Y-114821619D02*
X141885162Y-114869238D01*
X141885162Y-114869238D02*
X141932781Y-114916857D01*
X141932781Y-114916857D02*
X141980400Y-114869238D01*
X141980400Y-114869238D02*
X141932781Y-114821619D01*
X141932781Y-114821619D02*
X141932781Y-114916857D01*
X142980399Y-115726380D02*
X142932780Y-115774000D01*
X142932780Y-115774000D02*
X142789923Y-115821619D01*
X142789923Y-115821619D02*
X142694685Y-115821619D01*
X142694685Y-115821619D02*
X142551828Y-115774000D01*
X142551828Y-115774000D02*
X142456590Y-115678761D01*
X142456590Y-115678761D02*
X142408971Y-115583523D01*
X142408971Y-115583523D02*
X142361352Y-115393047D01*
X142361352Y-115393047D02*
X142361352Y-115250190D01*
X142361352Y-115250190D02*
X142408971Y-115059714D01*
X142408971Y-115059714D02*
X142456590Y-114964476D01*
X142456590Y-114964476D02*
X142551828Y-114869238D01*
X142551828Y-114869238D02*
X142694685Y-114821619D01*
X142694685Y-114821619D02*
X142789923Y-114821619D01*
X142789923Y-114821619D02*
X142932780Y-114869238D01*
X142932780Y-114869238D02*
X142980399Y-114916857D01*
X143408971Y-115297809D02*
X143742304Y-115297809D01*
X143885161Y-115821619D02*
X143408971Y-115821619D01*
X143408971Y-115821619D02*
X143408971Y-114821619D01*
X143408971Y-114821619D02*
X143885161Y-114821619D01*
X144742304Y-115154952D02*
X144742304Y-115821619D01*
X144504209Y-114774000D02*
X144266114Y-115488285D01*
X144266114Y-115488285D02*
X144885161Y-115488285D01*
X145456590Y-114821619D02*
X145551828Y-114821619D01*
X145551828Y-114821619D02*
X145647066Y-114869238D01*
X145647066Y-114869238D02*
X145694685Y-114916857D01*
X145694685Y-114916857D02*
X145742304Y-115012095D01*
X145742304Y-115012095D02*
X145789923Y-115202571D01*
X145789923Y-115202571D02*
X145789923Y-115440666D01*
X145789923Y-115440666D02*
X145742304Y-115631142D01*
X145742304Y-115631142D02*
X145694685Y-115726380D01*
X145694685Y-115726380D02*
X145647066Y-115774000D01*
X145647066Y-115774000D02*
X145551828Y-115821619D01*
X145551828Y-115821619D02*
X145456590Y-115821619D01*
X145456590Y-115821619D02*
X145361352Y-115774000D01*
X145361352Y-115774000D02*
X145313733Y-115726380D01*
X145313733Y-115726380D02*
X145266114Y-115631142D01*
X145266114Y-115631142D02*
X145218495Y-115440666D01*
X145218495Y-115440666D02*
X145218495Y-115202571D01*
X145218495Y-115202571D02*
X145266114Y-115012095D01*
X145266114Y-115012095D02*
X145313733Y-114916857D01*
X145313733Y-114916857D02*
X145361352Y-114869238D01*
X145361352Y-114869238D02*
X145456590Y-114821619D01*
X146218495Y-114821619D02*
X146218495Y-115631142D01*
X146218495Y-115631142D02*
X146266114Y-115726380D01*
X146266114Y-115726380D02*
X146313733Y-115774000D01*
X146313733Y-115774000D02*
X146408971Y-115821619D01*
X146408971Y-115821619D02*
X146599447Y-115821619D01*
X146599447Y-115821619D02*
X146694685Y-115774000D01*
X146694685Y-115774000D02*
X146742304Y-115726380D01*
X146742304Y-115726380D02*
X146789923Y-115631142D01*
X146789923Y-115631142D02*
X146789923Y-114821619D01*
X147266114Y-115821619D02*
X147266114Y-114821619D01*
X147266114Y-114821619D02*
X147647066Y-114821619D01*
X147647066Y-114821619D02*
X147742304Y-114869238D01*
X147742304Y-114869238D02*
X147789923Y-114916857D01*
X147789923Y-114916857D02*
X147837542Y-115012095D01*
X147837542Y-115012095D02*
X147837542Y-115154952D01*
X147837542Y-115154952D02*
X147789923Y-115250190D01*
X147789923Y-115250190D02*
X147742304Y-115297809D01*
X147742304Y-115297809D02*
X147647066Y-115345428D01*
X147647066Y-115345428D02*
X147266114Y-115345428D01*
X148742304Y-114821619D02*
X148266114Y-114821619D01*
X148266114Y-114821619D02*
X148218495Y-115297809D01*
X148218495Y-115297809D02*
X148266114Y-115250190D01*
X148266114Y-115250190D02*
X148361352Y-115202571D01*
X148361352Y-115202571D02*
X148599447Y-115202571D01*
X148599447Y-115202571D02*
X148694685Y-115250190D01*
X148694685Y-115250190D02*
X148742304Y-115297809D01*
X148742304Y-115297809D02*
X148789923Y-115393047D01*
X148789923Y-115393047D02*
X148789923Y-115631142D01*
X148789923Y-115631142D02*
X148742304Y-115726380D01*
X148742304Y-115726380D02*
X148694685Y-115774000D01*
X148694685Y-115774000D02*
X148599447Y-115821619D01*
X148599447Y-115821619D02*
X148361352Y-115821619D01*
X148361352Y-115821619D02*
X148266114Y-115774000D01*
X148266114Y-115774000D02*
X148218495Y-115726380D01*
X149218495Y-115821619D02*
X149218495Y-114821619D01*
X149789923Y-115821619D02*
X149361352Y-115250190D01*
X149789923Y-114821619D02*
X149218495Y-115393047D01*
X151504209Y-114869238D02*
X151408971Y-114821619D01*
X151408971Y-114821619D02*
X151266114Y-114821619D01*
X151266114Y-114821619D02*
X151123257Y-114869238D01*
X151123257Y-114869238D02*
X151028019Y-114964476D01*
X151028019Y-114964476D02*
X150980400Y-115059714D01*
X150980400Y-115059714D02*
X150932781Y-115250190D01*
X150932781Y-115250190D02*
X150932781Y-115393047D01*
X150932781Y-115393047D02*
X150980400Y-115583523D01*
X150980400Y-115583523D02*
X151028019Y-115678761D01*
X151028019Y-115678761D02*
X151123257Y-115774000D01*
X151123257Y-115774000D02*
X151266114Y-115821619D01*
X151266114Y-115821619D02*
X151361352Y-115821619D01*
X151361352Y-115821619D02*
X151504209Y-115774000D01*
X151504209Y-115774000D02*
X151551828Y-115726380D01*
X151551828Y-115726380D02*
X151551828Y-115393047D01*
X151551828Y-115393047D02*
X151361352Y-115393047D01*
X151980400Y-115821619D02*
X151980400Y-114821619D01*
X151980400Y-114821619D02*
X152361352Y-114821619D01*
X152361352Y-114821619D02*
X152456590Y-114869238D01*
X152456590Y-114869238D02*
X152504209Y-114916857D01*
X152504209Y-114916857D02*
X152551828Y-115012095D01*
X152551828Y-115012095D02*
X152551828Y-115154952D01*
X152551828Y-115154952D02*
X152504209Y-115250190D01*
X152504209Y-115250190D02*
X152456590Y-115297809D01*
X152456590Y-115297809D02*
X152361352Y-115345428D01*
X152361352Y-115345428D02*
X151980400Y-115345428D01*
X152980400Y-115821619D02*
X152980400Y-114821619D01*
X153647066Y-114821619D02*
X153837542Y-114821619D01*
X153837542Y-114821619D02*
X153932780Y-114869238D01*
X153932780Y-114869238D02*
X154028018Y-114964476D01*
X154028018Y-114964476D02*
X154075637Y-115154952D01*
X154075637Y-115154952D02*
X154075637Y-115488285D01*
X154075637Y-115488285D02*
X154028018Y-115678761D01*
X154028018Y-115678761D02*
X153932780Y-115774000D01*
X153932780Y-115774000D02*
X153837542Y-115821619D01*
X153837542Y-115821619D02*
X153647066Y-115821619D01*
X153647066Y-115821619D02*
X153551828Y-115774000D01*
X153551828Y-115774000D02*
X153456590Y-115678761D01*
X153456590Y-115678761D02*
X153408971Y-115488285D01*
X153408971Y-115488285D02*
X153408971Y-115154952D01*
X153408971Y-115154952D02*
X153456590Y-114964476D01*
X153456590Y-114964476D02*
X153551828Y-114869238D01*
X153551828Y-114869238D02*
X153647066Y-114821619D01*
D10*
X122334961Y-86763479D02*
X122274485Y-86725379D01*
X122274485Y-86725379D02*
X122183771Y-86725379D01*
X122183771Y-86725379D02*
X122093056Y-86763479D01*
X122093056Y-86763479D02*
X122032580Y-86839679D01*
X122032580Y-86839679D02*
X122002342Y-86915879D01*
X122002342Y-86915879D02*
X121972104Y-87068279D01*
X121972104Y-87068279D02*
X121972104Y-87182579D01*
X121972104Y-87182579D02*
X122002342Y-87334979D01*
X122002342Y-87334979D02*
X122032580Y-87411179D01*
X122032580Y-87411179D02*
X122093056Y-87487379D01*
X122093056Y-87487379D02*
X122183771Y-87525479D01*
X122183771Y-87525479D02*
X122244247Y-87525479D01*
X122244247Y-87525479D02*
X122334961Y-87487379D01*
X122334961Y-87487379D02*
X122365199Y-87449279D01*
X122365199Y-87449279D02*
X122365199Y-87182579D01*
X122365199Y-87182579D02*
X122244247Y-87182579D01*
X122637342Y-87525479D02*
X122637342Y-86725379D01*
X122637342Y-86725379D02*
X122879247Y-86725379D01*
X122879247Y-86725379D02*
X122939723Y-86763479D01*
X122939723Y-86763479D02*
X122969961Y-86801579D01*
X122969961Y-86801579D02*
X123000199Y-86877779D01*
X123000199Y-86877779D02*
X123000199Y-86992079D01*
X123000199Y-86992079D02*
X122969961Y-87068279D01*
X122969961Y-87068279D02*
X122939723Y-87106379D01*
X122939723Y-87106379D02*
X122879247Y-87144479D01*
X122879247Y-87144479D02*
X122637342Y-87144479D01*
X123272342Y-87525479D02*
X123272342Y-86725379D01*
X123695675Y-86725379D02*
X123816628Y-86725379D01*
X123816628Y-86725379D02*
X123877104Y-86763479D01*
X123877104Y-86763479D02*
X123937580Y-86839679D01*
X123937580Y-86839679D02*
X123967818Y-86992079D01*
X123967818Y-86992079D02*
X123967818Y-87258779D01*
X123967818Y-87258779D02*
X123937580Y-87411179D01*
X123937580Y-87411179D02*
X123877104Y-87487379D01*
X123877104Y-87487379D02*
X123816628Y-87525479D01*
X123816628Y-87525479D02*
X123695675Y-87525479D01*
X123695675Y-87525479D02*
X123635199Y-87487379D01*
X123635199Y-87487379D02*
X123574723Y-87411179D01*
X123574723Y-87411179D02*
X123544485Y-87258779D01*
X123544485Y-87258779D02*
X123544485Y-86992079D01*
X123544485Y-86992079D02*
X123574723Y-86839679D01*
X123574723Y-86839679D02*
X123635199Y-86763479D01*
X123635199Y-86763479D02*
X123695675Y-86725379D01*
X124572580Y-87525479D02*
X124209723Y-87525479D01*
X124391151Y-87525479D02*
X124391151Y-86725379D01*
X124391151Y-86725379D02*
X124330675Y-86839679D01*
X124330675Y-86839679D02*
X124270199Y-86915879D01*
X124270199Y-86915879D02*
X124209723Y-86953979D01*
X124935437Y-87068279D02*
X124874961Y-87030179D01*
X124874961Y-87030179D02*
X124844723Y-86992079D01*
X124844723Y-86992079D02*
X124814485Y-86915879D01*
X124814485Y-86915879D02*
X124814485Y-86877779D01*
X124814485Y-86877779D02*
X124844723Y-86801579D01*
X124844723Y-86801579D02*
X124874961Y-86763479D01*
X124874961Y-86763479D02*
X124935437Y-86725379D01*
X124935437Y-86725379D02*
X125056390Y-86725379D01*
X125056390Y-86725379D02*
X125116866Y-86763479D01*
X125116866Y-86763479D02*
X125147104Y-86801579D01*
X125147104Y-86801579D02*
X125177342Y-86877779D01*
X125177342Y-86877779D02*
X125177342Y-86915879D01*
X125177342Y-86915879D02*
X125147104Y-86992079D01*
X125147104Y-86992079D02*
X125116866Y-87030179D01*
X125116866Y-87030179D02*
X125056390Y-87068279D01*
X125056390Y-87068279D02*
X124935437Y-87068279D01*
X124935437Y-87068279D02*
X124874961Y-87106379D01*
X124874961Y-87106379D02*
X124844723Y-87144479D01*
X124844723Y-87144479D02*
X124814485Y-87220679D01*
X124814485Y-87220679D02*
X124814485Y-87373079D01*
X124814485Y-87373079D02*
X124844723Y-87449279D01*
X124844723Y-87449279D02*
X124874961Y-87487379D01*
X124874961Y-87487379D02*
X124935437Y-87525479D01*
X124935437Y-87525479D02*
X125056390Y-87525479D01*
X125056390Y-87525479D02*
X125116866Y-87487379D01*
X125116866Y-87487379D02*
X125147104Y-87449279D01*
X125147104Y-87449279D02*
X125177342Y-87373079D01*
X125177342Y-87373079D02*
X125177342Y-87220679D01*
X125177342Y-87220679D02*
X125147104Y-87144479D01*
X125147104Y-87144479D02*
X125116866Y-87106379D01*
X125116866Y-87106379D02*
X125056390Y-87068279D01*
D11*
X146718495Y-79617219D02*
X146718495Y-80426742D01*
X146718495Y-80426742D02*
X146766114Y-80521980D01*
X146766114Y-80521980D02*
X146813733Y-80569600D01*
X146813733Y-80569600D02*
X146908971Y-80617219D01*
X146908971Y-80617219D02*
X147099447Y-80617219D01*
X147099447Y-80617219D02*
X147194685Y-80569600D01*
X147194685Y-80569600D02*
X147242304Y-80521980D01*
X147242304Y-80521980D02*
X147289923Y-80426742D01*
X147289923Y-80426742D02*
X147289923Y-79617219D01*
X147718495Y-80569600D02*
X147861352Y-80617219D01*
X147861352Y-80617219D02*
X148099447Y-80617219D01*
X148099447Y-80617219D02*
X148194685Y-80569600D01*
X148194685Y-80569600D02*
X148242304Y-80521980D01*
X148242304Y-80521980D02*
X148289923Y-80426742D01*
X148289923Y-80426742D02*
X148289923Y-80331504D01*
X148289923Y-80331504D02*
X148242304Y-80236266D01*
X148242304Y-80236266D02*
X148194685Y-80188647D01*
X148194685Y-80188647D02*
X148099447Y-80141028D01*
X148099447Y-80141028D02*
X147908971Y-80093409D01*
X147908971Y-80093409D02*
X147813733Y-80045790D01*
X147813733Y-80045790D02*
X147766114Y-79998171D01*
X147766114Y-79998171D02*
X147718495Y-79902933D01*
X147718495Y-79902933D02*
X147718495Y-79807695D01*
X147718495Y-79807695D02*
X147766114Y-79712457D01*
X147766114Y-79712457D02*
X147813733Y-79664838D01*
X147813733Y-79664838D02*
X147908971Y-79617219D01*
X147908971Y-79617219D02*
X148147066Y-79617219D01*
X148147066Y-79617219D02*
X148289923Y-79664838D01*
X149051828Y-80093409D02*
X149194685Y-80141028D01*
X149194685Y-80141028D02*
X149242304Y-80188647D01*
X149242304Y-80188647D02*
X149289923Y-80283885D01*
X149289923Y-80283885D02*
X149289923Y-80426742D01*
X149289923Y-80426742D02*
X149242304Y-80521980D01*
X149242304Y-80521980D02*
X149194685Y-80569600D01*
X149194685Y-80569600D02*
X149099447Y-80617219D01*
X149099447Y-80617219D02*
X148718495Y-80617219D01*
X148718495Y-80617219D02*
X148718495Y-79617219D01*
X148718495Y-79617219D02*
X149051828Y-79617219D01*
X149051828Y-79617219D02*
X149147066Y-79664838D01*
X149147066Y-79664838D02*
X149194685Y-79712457D01*
X149194685Y-79712457D02*
X149242304Y-79807695D01*
X149242304Y-79807695D02*
X149242304Y-79902933D01*
X149242304Y-79902933D02*
X149194685Y-79998171D01*
X149194685Y-79998171D02*
X149147066Y-80045790D01*
X149147066Y-80045790D02*
X149051828Y-80093409D01*
X149051828Y-80093409D02*
X148718495Y-80093409D01*
X147675504Y-109815980D02*
X147675504Y-109006457D01*
X147675504Y-109006457D02*
X147627885Y-108911219D01*
X147627885Y-108911219D02*
X147580266Y-108863600D01*
X147580266Y-108863600D02*
X147485028Y-108815980D01*
X147485028Y-108815980D02*
X147294552Y-108815980D01*
X147294552Y-108815980D02*
X147199314Y-108863600D01*
X147199314Y-108863600D02*
X147151695Y-108911219D01*
X147151695Y-108911219D02*
X147104076Y-109006457D01*
X147104076Y-109006457D02*
X147104076Y-109815980D01*
X146199314Y-109482647D02*
X146199314Y-108815980D01*
X146437409Y-109863600D02*
X146675504Y-109149314D01*
X146675504Y-109149314D02*
X146056457Y-109149314D01*
X154738379Y-88373045D02*
X153928856Y-88373045D01*
X153928856Y-88373045D02*
X153833618Y-88420664D01*
X153833618Y-88420664D02*
X153785999Y-88468283D01*
X153785999Y-88468283D02*
X153738379Y-88563521D01*
X153738379Y-88563521D02*
X153738379Y-88753997D01*
X153738379Y-88753997D02*
X153785999Y-88849235D01*
X153785999Y-88849235D02*
X153833618Y-88896854D01*
X153833618Y-88896854D02*
X153928856Y-88944473D01*
X153928856Y-88944473D02*
X154738379Y-88944473D01*
X153738379Y-89944473D02*
X153738379Y-89373045D01*
X153738379Y-89658759D02*
X154738379Y-89658759D01*
X154738379Y-89658759D02*
X154595522Y-89563521D01*
X154595522Y-89563521D02*
X154500284Y-89468283D01*
X154500284Y-89468283D02*
X154452665Y-89373045D01*
X166878095Y-111961620D02*
X166878095Y-112771143D01*
X166878095Y-112771143D02*
X166925714Y-112866381D01*
X166925714Y-112866381D02*
X166973333Y-112914001D01*
X166973333Y-112914001D02*
X167068571Y-112961620D01*
X167068571Y-112961620D02*
X167259047Y-112961620D01*
X167259047Y-112961620D02*
X167354285Y-112914001D01*
X167354285Y-112914001D02*
X167401904Y-112866381D01*
X167401904Y-112866381D02*
X167449523Y-112771143D01*
X167449523Y-112771143D02*
X167449523Y-111961620D01*
X167878095Y-112056858D02*
X167925714Y-112009239D01*
X167925714Y-112009239D02*
X168020952Y-111961620D01*
X168020952Y-111961620D02*
X168259047Y-111961620D01*
X168259047Y-111961620D02*
X168354285Y-112009239D01*
X168354285Y-112009239D02*
X168401904Y-112056858D01*
X168401904Y-112056858D02*
X168449523Y-112152096D01*
X168449523Y-112152096D02*
X168449523Y-112247334D01*
X168449523Y-112247334D02*
X168401904Y-112390191D01*
X168401904Y-112390191D02*
X167830476Y-112961620D01*
X167830476Y-112961620D02*
X168449523Y-112961620D01*
X155735205Y-112358800D02*
X155592348Y-112311180D01*
X155592348Y-112311180D02*
X155354253Y-112311180D01*
X155354253Y-112311180D02*
X155259015Y-112358800D01*
X155259015Y-112358800D02*
X155211396Y-112406419D01*
X155211396Y-112406419D02*
X155163777Y-112501657D01*
X155163777Y-112501657D02*
X155163777Y-112596895D01*
X155163777Y-112596895D02*
X155211396Y-112692133D01*
X155211396Y-112692133D02*
X155259015Y-112739752D01*
X155259015Y-112739752D02*
X155354253Y-112787371D01*
X155354253Y-112787371D02*
X155544729Y-112834990D01*
X155544729Y-112834990D02*
X155639967Y-112882609D01*
X155639967Y-112882609D02*
X155687586Y-112930228D01*
X155687586Y-112930228D02*
X155735205Y-113025466D01*
X155735205Y-113025466D02*
X155735205Y-113120704D01*
X155735205Y-113120704D02*
X155687586Y-113215942D01*
X155687586Y-113215942D02*
X155639967Y-113263561D01*
X155639967Y-113263561D02*
X155544729Y-113311180D01*
X155544729Y-113311180D02*
X155306634Y-113311180D01*
X155306634Y-113311180D02*
X155163777Y-113263561D01*
X154782824Y-113215942D02*
X154735205Y-113263561D01*
X154735205Y-113263561D02*
X154639967Y-113311180D01*
X154639967Y-113311180D02*
X154401872Y-113311180D01*
X154401872Y-113311180D02*
X154306634Y-113263561D01*
X154306634Y-113263561D02*
X154259015Y-113215942D01*
X154259015Y-113215942D02*
X154211396Y-113120704D01*
X154211396Y-113120704D02*
X154211396Y-113025466D01*
X154211396Y-113025466D02*
X154259015Y-112882609D01*
X154259015Y-112882609D02*
X154830443Y-112311180D01*
X154830443Y-112311180D02*
X154211396Y-112311180D01*
X147268400Y-85648895D02*
X147220780Y-85791752D01*
X147220780Y-85791752D02*
X147220780Y-86029847D01*
X147220780Y-86029847D02*
X147268400Y-86125085D01*
X147268400Y-86125085D02*
X147316019Y-86172704D01*
X147316019Y-86172704D02*
X147411257Y-86220323D01*
X147411257Y-86220323D02*
X147506495Y-86220323D01*
X147506495Y-86220323D02*
X147601733Y-86172704D01*
X147601733Y-86172704D02*
X147649352Y-86125085D01*
X147649352Y-86125085D02*
X147696971Y-86029847D01*
X147696971Y-86029847D02*
X147744590Y-85839371D01*
X147744590Y-85839371D02*
X147792209Y-85744133D01*
X147792209Y-85744133D02*
X147839828Y-85696514D01*
X147839828Y-85696514D02*
X147935066Y-85648895D01*
X147935066Y-85648895D02*
X148030304Y-85648895D01*
X148030304Y-85648895D02*
X148125542Y-85696514D01*
X148125542Y-85696514D02*
X148173161Y-85744133D01*
X148173161Y-85744133D02*
X148220780Y-85839371D01*
X148220780Y-85839371D02*
X148220780Y-86077466D01*
X148220780Y-86077466D02*
X148173161Y-86220323D01*
X148220780Y-86553657D02*
X148220780Y-87172704D01*
X148220780Y-87172704D02*
X147839828Y-86839371D01*
X147839828Y-86839371D02*
X147839828Y-86982228D01*
X147839828Y-86982228D02*
X147792209Y-87077466D01*
X147792209Y-87077466D02*
X147744590Y-87125085D01*
X147744590Y-87125085D02*
X147649352Y-87172704D01*
X147649352Y-87172704D02*
X147411257Y-87172704D01*
X147411257Y-87172704D02*
X147316019Y-87125085D01*
X147316019Y-87125085D02*
X147268400Y-87077466D01*
X147268400Y-87077466D02*
X147220780Y-86982228D01*
X147220780Y-86982228D02*
X147220780Y-86696514D01*
X147220780Y-86696514D02*
X147268400Y-86601276D01*
X147268400Y-86601276D02*
X147316019Y-86553657D01*
X127078093Y-94285600D02*
X127220950Y-94333219D01*
X127220950Y-94333219D02*
X127459045Y-94333219D01*
X127459045Y-94333219D02*
X127554283Y-94285600D01*
X127554283Y-94285600D02*
X127601902Y-94237980D01*
X127601902Y-94237980D02*
X127649521Y-94142742D01*
X127649521Y-94142742D02*
X127649521Y-94047504D01*
X127649521Y-94047504D02*
X127601902Y-93952266D01*
X127601902Y-93952266D02*
X127554283Y-93904647D01*
X127554283Y-93904647D02*
X127459045Y-93857028D01*
X127459045Y-93857028D02*
X127268569Y-93809409D01*
X127268569Y-93809409D02*
X127173331Y-93761790D01*
X127173331Y-93761790D02*
X127125712Y-93714171D01*
X127125712Y-93714171D02*
X127078093Y-93618933D01*
X127078093Y-93618933D02*
X127078093Y-93523695D01*
X127078093Y-93523695D02*
X127125712Y-93428457D01*
X127125712Y-93428457D02*
X127173331Y-93380838D01*
X127173331Y-93380838D02*
X127268569Y-93333219D01*
X127268569Y-93333219D02*
X127506664Y-93333219D01*
X127506664Y-93333219D02*
X127649521Y-93380838D01*
X128601902Y-94333219D02*
X128030474Y-94333219D01*
X128316188Y-94333219D02*
X128316188Y-93333219D01*
X128316188Y-93333219D02*
X128220950Y-93476076D01*
X128220950Y-93476076D02*
X128125712Y-93571314D01*
X128125712Y-93571314D02*
X128030474Y-93618933D01*
X163665819Y-91451903D02*
X164475342Y-91451903D01*
X164475342Y-91451903D02*
X164570580Y-91404284D01*
X164570580Y-91404284D02*
X164618200Y-91356665D01*
X164618200Y-91356665D02*
X164665819Y-91261427D01*
X164665819Y-91261427D02*
X164665819Y-91070951D01*
X164665819Y-91070951D02*
X164618200Y-90975713D01*
X164618200Y-90975713D02*
X164570580Y-90928094D01*
X164570580Y-90928094D02*
X164475342Y-90880475D01*
X164475342Y-90880475D02*
X163665819Y-90880475D01*
X163665819Y-89928094D02*
X163665819Y-90404284D01*
X163665819Y-90404284D02*
X164142009Y-90451903D01*
X164142009Y-90451903D02*
X164094390Y-90404284D01*
X164094390Y-90404284D02*
X164046771Y-90309046D01*
X164046771Y-90309046D02*
X164046771Y-90070951D01*
X164046771Y-90070951D02*
X164094390Y-89975713D01*
X164094390Y-89975713D02*
X164142009Y-89928094D01*
X164142009Y-89928094D02*
X164237247Y-89880475D01*
X164237247Y-89880475D02*
X164475342Y-89880475D01*
X164475342Y-89880475D02*
X164570580Y-89928094D01*
X164570580Y-89928094D02*
X164618200Y-89975713D01*
X164618200Y-89975713D02*
X164665819Y-90070951D01*
X164665819Y-90070951D02*
X164665819Y-90309046D01*
X164665819Y-90309046D02*
X164618200Y-90404284D01*
X164618200Y-90404284D02*
X164570580Y-90451903D01*
X139945809Y-86803580D02*
X139279143Y-85803580D01*
X139279143Y-86803580D02*
X139945809Y-85803580D01*
X139041047Y-86803580D02*
X138469619Y-86803580D01*
X138755333Y-85803580D02*
X138755333Y-86803580D01*
X138183904Y-86089295D02*
X137707714Y-86089295D01*
X138279142Y-85803580D02*
X137945809Y-86803580D01*
X137945809Y-86803580D02*
X137612476Y-85803580D01*
X136802952Y-85803580D02*
X137279142Y-85803580D01*
X137279142Y-85803580D02*
X137279142Y-86803580D01*
X135945809Y-85803580D02*
X136517237Y-85803580D01*
X136231523Y-85803580D02*
X136231523Y-86803580D01*
X136231523Y-86803580D02*
X136326761Y-86660723D01*
X136326761Y-86660723D02*
X136421999Y-86565485D01*
X136421999Y-86565485D02*
X136517237Y-86517866D01*
D13*
%TO.C,U4*%
X144145000Y-106502200D02*
X144145000Y-106786608D01*
X144145000Y-111754992D02*
X144145000Y-112039400D01*
X144145000Y-112039400D02*
X149682200Y-112039400D01*
X149682200Y-106502200D02*
X144145000Y-106502200D01*
X149682200Y-106786608D02*
X149682200Y-106502200D01*
X149682200Y-112039400D02*
X149682200Y-111754992D01*
%TO.C,LED2*%
X145583787Y-97675700D02*
X145906613Y-97675700D01*
X145906613Y-96177100D02*
X145583787Y-96177100D01*
X148412200Y-96926400D02*
X149682200Y-96926400D01*
X148666200Y-97561400D02*
X148666200Y-96291400D01*
X149428200Y-96926400D02*
X148666200Y-96291400D01*
X149428200Y-96926400D02*
X148666200Y-96418400D01*
X149428200Y-96926400D02*
X148666200Y-96545400D01*
X149428200Y-96926400D02*
X148666200Y-96672400D01*
X149428200Y-96926400D02*
X148666200Y-96799400D01*
X149428200Y-96926400D02*
X148666200Y-97053400D01*
X149428200Y-96926400D02*
X148666200Y-97180400D01*
X149428200Y-96926400D02*
X148666200Y-97307400D01*
X149428200Y-96926400D02*
X148666200Y-97434400D01*
X149428200Y-96926400D02*
X148666200Y-97561400D01*
X149428200Y-97561400D02*
X149428200Y-96291400D01*
D14*
%TO.C,J4*%
X132681200Y-121471200D02*
X132681200Y-120091200D01*
X134061200Y-121471200D02*
X132681200Y-121471200D01*
X135331200Y-118711200D02*
X163381200Y-118711200D01*
X135331200Y-121471200D02*
X135331200Y-118711200D01*
X135331200Y-121471200D02*
X163381200Y-121471200D01*
X163381200Y-121471200D02*
X163381200Y-118711200D01*
D13*
%TO.C,C15*%
X129738950Y-104616200D02*
X130123850Y-104616200D01*
X130123850Y-103562200D02*
X129738950Y-103562200D01*
%TO.C,R5*%
X131451401Y-93922552D02*
X131451401Y-94107450D01*
X132505399Y-94107450D02*
X132505399Y-93922552D01*
%TO.C,C29*%
X153894350Y-101427799D02*
X154279250Y-101427799D01*
X154279250Y-100373799D02*
X153894350Y-100373799D01*
%TO.C,C18*%
X129738950Y-106445000D02*
X130123850Y-106445000D01*
X130123850Y-105391000D02*
X129738950Y-105391000D01*
%TO.C,C26*%
X153883950Y-97453400D02*
X154268850Y-97453400D01*
X154268850Y-96399400D02*
X153883950Y-96399400D01*
%TO.C,R8*%
X153968152Y-110102599D02*
X154153050Y-110102599D01*
X154153050Y-109048601D02*
X153968152Y-109048601D01*
%TO.C,C23*%
X143454950Y-114369800D02*
X143839850Y-114369800D01*
X143839850Y-113315800D02*
X143454950Y-113315800D01*
%TO.C,U1*%
X152516799Y-88157050D02*
X152516799Y-90112850D01*
X155869599Y-90112850D02*
X155869599Y-88157050D01*
%TO.C,U2*%
X166662100Y-114183201D02*
X168617900Y-114183201D01*
X168617900Y-110830401D02*
X166662100Y-110830401D01*
D14*
%TO.C,J5*%
X174642000Y-70451200D02*
X176022000Y-70451200D01*
X174642000Y-71831200D02*
X174642000Y-70451200D01*
X174642000Y-73101200D02*
X174642000Y-121471200D01*
X174642000Y-73101200D02*
X177402000Y-73101200D01*
X174642000Y-121471200D02*
X177402000Y-121471200D01*
X177402000Y-73101200D02*
X177402000Y-121471200D01*
D13*
%TO.C,C30*%
X153894350Y-99598999D02*
X154279250Y-99598999D01*
X154279250Y-98544999D02*
X153894350Y-98544999D01*
%TO.C,R11*%
X132044650Y-112090200D02*
X132216950Y-112090200D01*
X132216950Y-111023400D02*
X132044650Y-111023400D01*
%TO.C,R1*%
X156307686Y-77708551D02*
X156307686Y-77893449D01*
X157361684Y-77893449D02*
X157361684Y-77708551D01*
%TO.C,R20*%
X139827000Y-93944650D02*
X139827000Y-94116950D01*
X140893800Y-94116950D02*
X140893800Y-93944650D01*
%TO.C,S2*%
X153346301Y-111389000D02*
X153346301Y-111583260D01*
X153346301Y-113948740D02*
X153346301Y-114143000D01*
X153346301Y-114143000D02*
X156600301Y-114143000D01*
X156600301Y-111389000D02*
X153346301Y-111389000D01*
X156600301Y-111583260D02*
X156600301Y-111389000D01*
X156600301Y-114143000D02*
X156600301Y-113948740D01*
%TO.C,R16*%
X168408401Y-87368651D02*
X168408401Y-87553549D01*
X169462399Y-87553549D02*
X169462399Y-87368651D01*
%TO.C,C27*%
X158959600Y-87371049D02*
X158959600Y-87755949D01*
X160013600Y-87755949D02*
X160013600Y-87371049D01*
%TO.C,R10*%
X135714950Y-112090200D02*
X135887250Y-112090200D01*
X135887250Y-111023400D02*
X135714950Y-111023400D01*
%TO.C,R15*%
X168183350Y-100513398D02*
X168368248Y-100513398D01*
X168368248Y-99459400D02*
X168183350Y-99459400D01*
%TO.C,C17*%
X139681000Y-108402950D02*
X139681000Y-108787850D01*
X140735000Y-108787850D02*
X140735000Y-108402950D01*
%TO.C,C11*%
X136023400Y-93772550D02*
X136023400Y-94157450D01*
X137077400Y-94157450D02*
X137077400Y-93772550D01*
D14*
%TO.C,J2*%
X126483600Y-83608400D02*
X127863600Y-83608400D01*
X126483600Y-84988400D02*
X126483600Y-83608400D01*
X126483600Y-86258400D02*
X126483600Y-91448400D01*
X126483600Y-86258400D02*
X129243600Y-86258400D01*
X126483600Y-91448400D02*
X129243600Y-91448400D01*
X129243600Y-86258400D02*
X129243600Y-91448400D01*
D13*
%TO.C,R2*%
X153088550Y-106146600D02*
X153260850Y-106146600D01*
X153260850Y-105079800D02*
X153088550Y-105079800D01*
%TO.C,C21*%
X135566200Y-108382150D02*
X135566200Y-108767050D01*
X136620200Y-108767050D02*
X136620200Y-108382150D01*
%TO.C,LED1*%
X145666200Y-104063800D02*
X145666200Y-105333800D01*
X145666200Y-104698800D02*
X146428200Y-104063800D01*
X145666200Y-104698800D02*
X146428200Y-104190800D01*
X145666200Y-104698800D02*
X146428200Y-104317800D01*
X145666200Y-104698800D02*
X146428200Y-104444800D01*
X145666200Y-104698800D02*
X146428200Y-104571800D01*
X145666200Y-104698800D02*
X146428200Y-104825800D01*
X145666200Y-104698800D02*
X146428200Y-104952800D01*
X145666200Y-104698800D02*
X146428200Y-105079800D01*
X145666200Y-104698800D02*
X146428200Y-105206800D01*
X145666200Y-104698800D02*
X146428200Y-105333800D01*
X146428200Y-104063800D02*
X146428200Y-105333800D01*
X146682200Y-104698800D02*
X145412200Y-104698800D01*
X148885787Y-105448100D02*
X149208613Y-105448100D01*
X149208613Y-103949500D02*
X148885787Y-103949500D01*
%TO.C,R6*%
X150158152Y-114369799D02*
X150343050Y-114369799D01*
X150343050Y-113315801D02*
X150158152Y-113315801D01*
%TO.C,C24*%
X168067550Y-102951799D02*
X168452450Y-102951799D01*
X168452450Y-101897799D02*
X168067550Y-101897799D01*
%TO.C,C9*%
X134042200Y-93772550D02*
X134042200Y-94157450D01*
X135096200Y-94157450D02*
X135096200Y-93772550D01*
%TO.C,C25*%
X168133350Y-105237799D02*
X168518250Y-105237799D01*
X168518250Y-104183799D02*
X168133350Y-104183799D01*
%TO.C,C28*%
X153894350Y-103256599D02*
X154279250Y-103256599D01*
X154279250Y-102202599D02*
X153894350Y-102202599D01*
%TO.C,S3*%
X146298600Y-84783800D02*
X146298600Y-88037800D01*
X146298600Y-88037800D02*
X146492860Y-88037800D01*
X146492860Y-84783800D02*
X146298600Y-84783800D01*
X148858340Y-88037800D02*
X149052600Y-88037800D01*
X149052600Y-84783800D02*
X148858340Y-84783800D01*
X149052600Y-88037800D02*
X149052600Y-84783800D01*
%TO.C,R17*%
X147583151Y-91357399D02*
X147768049Y-91357399D01*
X147768049Y-90303401D02*
X147583151Y-90303401D01*
%TO.C,R14*%
X146380200Y-93944650D02*
X146380200Y-94116950D01*
X147447000Y-94116950D02*
X147447000Y-93944650D01*
%TO.C,C16*%
X129738950Y-100196600D02*
X130123850Y-100196600D01*
X130123850Y-99142600D02*
X129738950Y-99142600D01*
%TO.C,R19*%
X141960600Y-93957350D02*
X141960600Y-94129650D01*
X143027400Y-94129650D02*
X143027400Y-93957350D01*
%TO.C,S1*%
X126212998Y-92501400D02*
X126212998Y-92695660D01*
X126212998Y-95061140D02*
X126212998Y-95255400D01*
X126212998Y-95255400D02*
X129466998Y-95255400D01*
X129466998Y-92501400D02*
X126212998Y-92501400D01*
X129466998Y-92695660D02*
X129466998Y-92501400D01*
X129466998Y-95255400D02*
X129466998Y-95061140D01*
D15*
%TO.C,OlinLogoLg*%
G36*
X133156295Y-71081012D02*
G01*
X132780068Y-71213675D01*
X132383345Y-71412097D01*
X131974691Y-71670106D01*
X131562667Y-71981528D01*
X131155839Y-72340191D01*
X130762769Y-72739922D01*
X130392020Y-73174549D01*
X130052157Y-73637899D01*
X129694935Y-74230023D01*
X129444084Y-74783119D01*
X129299899Y-75283211D01*
X129262676Y-75716320D01*
X129332708Y-76068468D01*
X129510292Y-76325677D01*
X128858210Y-76190325D01*
X128268213Y-76017473D01*
X127743798Y-75810739D01*
X127288461Y-75573738D01*
X126905699Y-75310086D01*
X126599006Y-75023401D01*
X126371880Y-74717299D01*
X126227815Y-74395396D01*
X126170309Y-74061309D01*
X126202857Y-73718653D01*
X126328955Y-73371046D01*
X126552098Y-73022103D01*
X126801247Y-72746509D01*
X127101694Y-72487644D01*
X127449177Y-72246592D01*
X127839431Y-72024438D01*
X128268192Y-71822268D01*
X128731196Y-71641166D01*
X129224179Y-71482218D01*
X129742877Y-71346508D01*
X130283027Y-71235121D01*
X130840363Y-71149143D01*
X131410621Y-71089658D01*
X131989539Y-71057751D01*
X132572852Y-71054507D01*
X133156295Y-71081012D01*
G37*
G36*
X134793765Y-71332892D02*
G01*
X135383796Y-71505758D01*
X135908234Y-71712504D01*
X136363585Y-71949514D01*
X136746355Y-72213173D01*
X137053049Y-72499863D01*
X137280174Y-72805969D01*
X137424237Y-73127875D01*
X137481742Y-73461964D01*
X137449196Y-73804620D01*
X137323105Y-74152228D01*
X137099975Y-74501171D01*
X136850841Y-74776750D01*
X136550403Y-75035603D01*
X136202925Y-75276645D01*
X135812674Y-75498791D01*
X135383911Y-75700955D01*
X134920903Y-75882053D01*
X134427913Y-76041001D01*
X133909206Y-76176712D01*
X133369046Y-76288102D01*
X132811697Y-76374086D01*
X132241424Y-76433579D01*
X131662492Y-76465496D01*
X131079164Y-76468752D01*
X130495705Y-76442262D01*
X130871950Y-76309575D01*
X131268674Y-76111135D01*
X131677318Y-75853116D01*
X132089323Y-75541690D01*
X132496130Y-75183031D01*
X132889179Y-74783310D01*
X133259912Y-74348700D01*
X133599769Y-73885375D01*
X133957001Y-73293251D01*
X134207875Y-72740152D01*
X134352082Y-72240054D01*
X134389316Y-71806932D01*
X134319269Y-71454764D01*
X134141634Y-71197523D01*
X134793765Y-71332892D01*
G37*
D13*
%TO.C,R9*%
X153983951Y-108121399D02*
X154168849Y-108121399D01*
X154168849Y-107067401D02*
X153983951Y-107067401D01*
%TO.C,R12*%
X139337752Y-112083799D02*
X139522650Y-112083799D01*
X139522650Y-111029801D02*
X139337752Y-111029801D01*
%TO.C,U3*%
X133194600Y-97510600D02*
X133194600Y-98121160D01*
X133194600Y-104164440D02*
X133194600Y-104775000D01*
X133194600Y-104775000D02*
X133805160Y-104775000D01*
X133805160Y-97510600D02*
X133194600Y-97510600D01*
X139848440Y-104775000D02*
X140459000Y-104775000D01*
X140459000Y-97510600D02*
X139848440Y-97510600D01*
X140459000Y-98121160D02*
X140459000Y-97510600D01*
X140459000Y-104775000D02*
X140459000Y-104164440D01*
D15*
G36*
X132762800Y-99133299D02*
G01*
X132508800Y-99133299D01*
X132508800Y-98752299D01*
X132762800Y-98752299D01*
X132762800Y-99133299D01*
G37*
G36*
X132762800Y-103133299D02*
G01*
X132508800Y-103133299D01*
X132508800Y-102752299D01*
X132762800Y-102752299D01*
X132762800Y-103133299D01*
G37*
G36*
X137217300Y-105460800D02*
G01*
X136836300Y-105460800D01*
X136836300Y-105206800D01*
X137217300Y-105206800D01*
X137217300Y-105460800D01*
G37*
G36*
X137617299Y-97078800D02*
G01*
X137236299Y-97078800D01*
X137236299Y-96824800D01*
X137617299Y-96824800D01*
X137617299Y-97078800D01*
G37*
G36*
X141144800Y-100333299D02*
G01*
X140890800Y-100333299D01*
X140890800Y-99952299D01*
X141144800Y-99952299D01*
X141144800Y-100333299D01*
G37*
D13*
%TO.C,U5*%
X161442400Y-87921399D02*
X161442400Y-93458599D01*
X161442400Y-93458599D02*
X161726808Y-93458599D01*
X161726808Y-87921399D02*
X161442400Y-87921399D01*
X166695192Y-93458599D02*
X166979600Y-93458599D01*
X166979600Y-87921399D02*
X166695192Y-87921399D01*
X166979600Y-93458599D02*
X166979600Y-87921399D01*
%TO.C,XTAL1*%
X134493000Y-83642200D02*
X141351000Y-83642200D01*
X141351000Y-88874600D02*
X134493000Y-88874600D01*
X132179406Y-85316060D02*
G75*
G02*
X134620000Y-83642200I2440594J-942340D01*
G01*
X134620000Y-88874600D02*
G75*
G02*
X132179406Y-87200740I0J2616200D01*
G01*
X141224002Y-83642200D02*
G75*
G02*
X143664594Y-85316061I-2J-2616199D01*
G01*
X143664594Y-87200740D02*
G75*
G02*
X141224000Y-88874600I-2440593J942339D01*
G01*
%TO.C,R18*%
X144094200Y-93957350D02*
X144094200Y-94129650D01*
X145161000Y-94129650D02*
X145161000Y-93957350D01*
%TO.C,R3*%
X138476886Y-77708551D02*
X138476886Y-77893449D01*
X139530884Y-77893449D02*
X139530884Y-77708551D01*
D14*
%TO.C,U6*%
X157629200Y-97583600D02*
X158104200Y-97583600D01*
X157629200Y-98058600D02*
X157629200Y-97583600D01*
X157629200Y-104803600D02*
X157629200Y-104328600D01*
X158104200Y-104803600D02*
X157629200Y-104803600D01*
X164374200Y-97583600D02*
X164849200Y-97583600D01*
X164849200Y-97583600D02*
X164849200Y-98058600D01*
X164849200Y-104328600D02*
X164849200Y-104803600D01*
X164849200Y-104803600D02*
X164374200Y-104803600D01*
X165709200Y-104183600D02*
X165379200Y-103943600D01*
X165709200Y-103703600D01*
X165709200Y-104183600D01*
G36*
X165709200Y-104183600D02*
G01*
X165379200Y-103943600D01*
X165709200Y-103703600D01*
X165709200Y-104183600D01*
G37*
D13*
%TO.C,C13*%
X143434150Y-105225800D02*
X143819050Y-105225800D01*
X143819050Y-104171800D02*
X143434150Y-104171800D01*
D10*
%TO.C,D1*%
X142560800Y-91742100D02*
X144560800Y-91742100D01*
X144560800Y-89944100D02*
X142560800Y-89944100D01*
D12*
X145760800Y-91193100D02*
G75*
G02*
X145560800Y-91193100I-100000J0D01*
G01*
X145560800Y-91193100D02*
G75*
G02*
X145760800Y-91193100I100000J0D01*
G01*
D14*
%TO.C,J3*%
X118711200Y-70451200D02*
X120091200Y-70451200D01*
X118711200Y-71831200D02*
X118711200Y-70451200D01*
X118711200Y-73101200D02*
X118711200Y-121471200D01*
X118711200Y-73101200D02*
X121471200Y-73101200D01*
X118711200Y-121471200D02*
X121471200Y-121471200D01*
X121471200Y-73101200D02*
X121471200Y-121471200D01*
D13*
%TO.C,C19*%
X137699800Y-108402950D02*
X137699800Y-108787850D01*
X138753800Y-108787850D02*
X138753800Y-108402950D01*
%TO.C,C10*%
X143434150Y-100044200D02*
X143819050Y-100044200D01*
X143819050Y-98990200D02*
X143434150Y-98990200D01*
%TO.C,R7*%
X131879550Y-91211400D02*
X132051850Y-91211400D01*
X132051850Y-90144600D02*
X131879550Y-90144600D01*
%TO.C,J1*%
X142136185Y-70561200D02*
X142136185Y-72197760D01*
X142136185Y-74869840D02*
X142136185Y-76127760D01*
X144113619Y-78790800D02*
X144282759Y-78790800D01*
X151851414Y-78790800D02*
X152020551Y-78790800D01*
X153997985Y-70561200D02*
X142136185Y-70561200D01*
X153997985Y-72197760D02*
X153997985Y-70561200D01*
X153997985Y-76127760D02*
X153997985Y-74869840D01*
%TO.C,R13*%
X168408401Y-93921851D02*
X168408401Y-94106749D01*
X169462399Y-94106749D02*
X169462399Y-93921851D01*
%TO.C,R4*%
X150501401Y-88436152D02*
X150501401Y-88621050D01*
X151555399Y-88621050D02*
X151555399Y-88436152D01*
%TD*%
M02*
