%TF.GenerationSoftware,KiCad,Pcbnew,9.0.7*%
%TF.CreationDate,2026-04-13T18:33:56-04:00*%
%TF.ProjectId,BNN,424e4e2e-6b69-4636-9164-5f7063625858,rev?*%
%TF.SameCoordinates,Original*%
%TF.FileFunction,Soldermask,Top*%
%TF.FilePolarity,Negative*%
%FSLAX46Y46*%
G04 Gerber Fmt 4.6, Leading zero omitted, Abs format (unit mm)*
G04 Created by KiCad (PCBNEW 9.0.7) date 2026-04-13 18:33:56*
%MOMM*%
%LPD*%
G01*
G04 APERTURE LIST*
G04 Aperture macros list*
%AMRoundRect*
0 Rectangle with rounded corners*
0 $1 Rounding radius*
0 $2 $3 $4 $5 $6 $7 $8 $9 X,Y pos of 4 corners*
0 Add a 4 corners polygon primitive as box body*
4,1,4,$2,$3,$4,$5,$6,$7,$8,$9,$2,$3,0*
0 Add four circle primitives for the rounded corners*
1,1,$1+$1,$2,$3*
1,1,$1+$1,$4,$5*
1,1,$1+$1,$6,$7*
1,1,$1+$1,$8,$9*
0 Add four rect primitives between the rounded corners*
20,1,$1+$1,$2,$3,$4,$5,0*
20,1,$1+$1,$4,$5,$6,$7,0*
20,1,$1+$1,$6,$7,$8,$9,0*
20,1,$1+$1,$8,$9,$2,$3,0*%
G04 Aperture macros list end*
%ADD10R,1.524000X0.533400*%
%ADD11R,0.914400X0.990600*%
%ADD12R,1.193800X1.193800*%
%ADD13R,0.863600X0.889000*%
%ADD14R,1.700000X1.700000*%
%ADD15C,1.700000*%
%ADD16R,0.655600X0.800000*%
%ADD17R,0.799998X0.755599*%
%ADD18R,0.755599X0.799998*%
%ADD19R,0.889000X0.863600*%
%ADD20R,0.508000X1.003300*%
%ADD21R,1.003300X0.508000*%
%ADD22R,0.762000X0.812800*%
%ADD23RoundRect,0.102000X-0.445000X-0.465000X0.445000X-0.465000X0.445000X0.465000X-0.445000X0.465000X0*%
%ADD24R,0.812800X0.762000*%
%ADD25R,0.800000X1.700000*%
%ADD26R,0.800000X0.655600*%
%ADD27R,0.990600X0.914400*%
%ADD28R,1.700000X0.800000*%
%ADD29RoundRect,0.102000X0.445000X0.465000X-0.445000X0.465000X-0.445000X-0.465000X0.445000X-0.465000X0*%
%ADD30R,0.812800X0.177800*%
%ADD31R,0.177800X0.812800*%
%ADD32R,3.200400X3.200400*%
%ADD33R,0.533400X1.524000*%
%ADD34R,4.470400X1.219200*%
%ADD35RoundRect,0.062500X0.375000X0.062500X-0.375000X0.062500X-0.375000X-0.062500X0.375000X-0.062500X0*%
%ADD36RoundRect,0.062500X0.062500X0.375000X-0.062500X0.375000X-0.062500X-0.375000X0.062500X-0.375000X0*%
%ADD37R,5.600000X5.600000*%
%ADD38O,1.094000X0.674000*%
%ADD39C,0.660400*%
%ADD40R,2.159000X2.006600*%
%ADD41R,0.609600X1.143000*%
%ADD42R,0.304800X1.143000*%
G04 APERTURE END LIST*
D10*
%TO.C,U4*%
X150558500Y-111175800D03*
X150558500Y-109905800D03*
X150558500Y-108635800D03*
X150558500Y-107365800D03*
X143268700Y-107365800D03*
X143268700Y-108635800D03*
X143268700Y-109905800D03*
X143268700Y-111175800D03*
%TD*%
D11*
%TO.C,C2*%
X163963350Y-111475602D03*
X162363150Y-111475602D03*
%TD*%
D12*
%TO.C,LED2*%
X146799300Y-96926400D03*
X144691100Y-96926400D03*
%TD*%
D13*
%TO.C,C4*%
X162413950Y-113609202D03*
X163963350Y-113609202D03*
%TD*%
D14*
%TO.C,J4*%
X134061200Y-120091200D03*
D15*
X136601200Y-120091200D03*
X139141200Y-120091200D03*
X141681200Y-120091200D03*
X144221200Y-120091200D03*
X146761200Y-120091200D03*
X149301200Y-120091200D03*
X151841200Y-120091200D03*
X154381200Y-120091200D03*
X156921200Y-120091200D03*
X159461200Y-120091200D03*
X162001200Y-120091200D03*
%TD*%
D16*
%TO.C,C15*%
X130759200Y-104089200D03*
X129103600Y-104089200D03*
%TD*%
D17*
%TO.C,R5*%
X131978400Y-93237202D03*
X131978400Y-94792800D03*
%TD*%
D16*
%TO.C,C29*%
X153259000Y-100900799D03*
X154914600Y-100900799D03*
%TD*%
%TO.C,C18*%
X130759200Y-105918000D03*
X129103600Y-105918000D03*
%TD*%
%TO.C,C26*%
X154904200Y-96926400D03*
X153248600Y-96926400D03*
%TD*%
D13*
%TO.C,C7*%
X168965798Y-107056002D03*
X167416398Y-107056002D03*
%TD*%
D18*
%TO.C,R8*%
X153282802Y-109575600D03*
X154838400Y-109575600D03*
%TD*%
D19*
%TO.C,C20*%
X131368800Y-107746800D03*
X131368800Y-109296200D03*
%TD*%
D16*
%TO.C,C23*%
X144475200Y-113842800D03*
X142819600Y-113842800D03*
%TD*%
D20*
%TO.C,U1*%
X155143200Y-87782400D03*
X154193199Y-87782400D03*
X153243198Y-87782400D03*
X153243198Y-90487500D03*
X155143200Y-90487500D03*
%TD*%
D21*
%TO.C,U2*%
X166287450Y-111556800D03*
X166287450Y-112506801D03*
X166287450Y-113456802D03*
X168992550Y-113456802D03*
X168992550Y-111556800D03*
%TD*%
D14*
%TO.C,J5*%
X176022000Y-71831200D03*
D15*
X176022000Y-74371200D03*
X176022000Y-76911200D03*
X176022000Y-79451200D03*
X176022000Y-81991200D03*
X176022000Y-84531200D03*
X176022000Y-87071200D03*
X176022000Y-89611200D03*
X176022000Y-92151200D03*
X176022000Y-94691200D03*
X176022000Y-97231200D03*
X176022000Y-99771200D03*
X176022000Y-102311200D03*
X176022000Y-104851200D03*
X176022000Y-107391200D03*
X176022000Y-109931200D03*
X176022000Y-112471200D03*
X176022000Y-115011200D03*
X176022000Y-117551200D03*
X176022000Y-120091200D03*
%TD*%
D16*
%TO.C,C30*%
X153259000Y-99071999D03*
X154914600Y-99071999D03*
%TD*%
D22*
%TO.C,R11*%
X131356100Y-111556800D03*
X132905500Y-111556800D03*
%TD*%
D17*
%TO.C,R1*%
X156834685Y-77023201D03*
X156834685Y-78578799D03*
%TD*%
D23*
%TO.C,C14*%
X134721600Y-90678000D03*
X136261600Y-90678000D03*
%TD*%
D24*
%TO.C,R20*%
X140360400Y-94805500D03*
X140360400Y-93256100D03*
%TD*%
D25*
%TO.C,S2*%
X156673303Y-112766000D03*
X153273299Y-112766000D03*
%TD*%
D17*
%TO.C,R16*%
X168935400Y-88238899D03*
X168935400Y-86683301D03*
%TD*%
D11*
%TO.C,C8*%
X167416398Y-109189602D03*
X169016598Y-109189602D03*
%TD*%
D26*
%TO.C,C27*%
X159486600Y-88391299D03*
X159486600Y-86735699D03*
%TD*%
D22*
%TO.C,R10*%
X136575800Y-111556800D03*
X135026400Y-111556800D03*
%TD*%
D18*
%TO.C,R15*%
X167498000Y-99986399D03*
X169053598Y-99986399D03*
%TD*%
D13*
%TO.C,C6*%
X151252002Y-93268800D03*
X152801402Y-93268800D03*
%TD*%
D26*
%TO.C,C17*%
X140208000Y-109423200D03*
X140208000Y-107767600D03*
%TD*%
%TO.C,C11*%
X136550400Y-93137200D03*
X136550400Y-94792800D03*
%TD*%
D14*
%TO.C,J2*%
X127863600Y-84988400D03*
D15*
X127863600Y-87528400D03*
X127863600Y-90068400D03*
%TD*%
D19*
%TO.C,C5*%
X151028400Y-84112100D03*
X151028400Y-85661500D03*
%TD*%
D22*
%TO.C,R2*%
X153949400Y-105613200D03*
X152400000Y-105613200D03*
%TD*%
D26*
%TO.C,C21*%
X136093200Y-109402400D03*
X136093200Y-107746800D03*
%TD*%
D12*
%TO.C,LED1*%
X147993100Y-104698800D03*
X150101300Y-104698800D03*
%TD*%
D19*
%TO.C,C3*%
X153162000Y-84194650D03*
X153162000Y-85744050D03*
%TD*%
D18*
%TO.C,R6*%
X151028400Y-113842800D03*
X149472802Y-113842800D03*
%TD*%
D16*
%TO.C,C24*%
X169087800Y-102424799D03*
X167432200Y-102424799D03*
%TD*%
D27*
%TO.C,C1*%
X155295600Y-85705950D03*
X155295600Y-84105750D03*
%TD*%
D26*
%TO.C,C9*%
X134569200Y-93137200D03*
X134569200Y-94792800D03*
%TD*%
D19*
%TO.C,C22*%
X133502400Y-107812600D03*
X133502400Y-109362000D03*
%TD*%
D16*
%TO.C,C25*%
X169153600Y-104710799D03*
X167498000Y-104710799D03*
%TD*%
%TO.C,C28*%
X153259000Y-102729599D03*
X154914600Y-102729599D03*
%TD*%
D28*
%TO.C,S3*%
X147675600Y-84710798D03*
X147675600Y-88110802D03*
%TD*%
D18*
%TO.C,R17*%
X148453399Y-90830400D03*
X146897801Y-90830400D03*
%TD*%
D24*
%TO.C,R14*%
X146913600Y-93256100D03*
X146913600Y-94805500D03*
%TD*%
D16*
%TO.C,C16*%
X130759200Y-99669600D03*
X129103600Y-99669600D03*
%TD*%
D24*
%TO.C,R19*%
X142494000Y-94818200D03*
X142494000Y-93268800D03*
%TD*%
D25*
%TO.C,S1*%
X126139996Y-93878400D03*
X129540000Y-93878400D03*
%TD*%
D18*
%TO.C,R9*%
X153298601Y-107594400D03*
X154854199Y-107594400D03*
%TD*%
D29*
%TO.C,C12*%
X139766800Y-90678000D03*
X138226800Y-90678000D03*
%TD*%
D18*
%TO.C,R12*%
X140208000Y-111556800D03*
X138652402Y-111556800D03*
%TD*%
D30*
%TO.C,U3*%
X140230400Y-103742800D03*
X140230400Y-103342801D03*
X140230400Y-102942799D03*
X140230400Y-102542800D03*
X140230400Y-102142801D03*
X140230400Y-101742799D03*
X140230400Y-101342800D03*
X140230400Y-100942800D03*
X140230400Y-100542801D03*
X140230400Y-100142799D03*
X140230400Y-99742800D03*
X140230400Y-99342801D03*
X140230400Y-98942799D03*
X140230400Y-98542800D03*
D31*
X139426800Y-97739200D03*
X139026801Y-97739200D03*
X138626799Y-97739200D03*
X138226800Y-97739200D03*
X137826801Y-97739200D03*
X137426799Y-97739200D03*
X137026800Y-97739200D03*
X136626800Y-97739200D03*
X136226801Y-97739200D03*
X135826799Y-97739200D03*
X135426800Y-97739200D03*
X135026801Y-97739200D03*
X134626799Y-97739200D03*
X134226800Y-97739200D03*
D30*
X133423200Y-98542800D03*
X133423200Y-98942799D03*
X133423200Y-99342801D03*
X133423200Y-99742800D03*
X133423200Y-100142799D03*
X133423200Y-100542801D03*
X133423200Y-100942800D03*
X133423200Y-101342800D03*
X133423200Y-101742799D03*
X133423200Y-102142801D03*
X133423200Y-102542800D03*
X133423200Y-102942799D03*
X133423200Y-103342801D03*
X133423200Y-103742800D03*
D31*
X134226800Y-104546400D03*
X134626799Y-104546400D03*
X135026801Y-104546400D03*
X135426800Y-104546400D03*
X135826799Y-104546400D03*
X136226801Y-104546400D03*
X136626800Y-104546400D03*
X137026800Y-104546400D03*
X137426799Y-104546400D03*
X137826801Y-104546400D03*
X138226800Y-104546400D03*
X138626799Y-104546400D03*
X139026801Y-104546400D03*
X139426800Y-104546400D03*
D32*
X136826800Y-101142800D03*
%TD*%
D33*
%TO.C,U5*%
X162306000Y-94334899D03*
X163576000Y-94334899D03*
X164846000Y-94334899D03*
X166116000Y-94334899D03*
X166116000Y-87045099D03*
X164846000Y-87045099D03*
X163576000Y-87045099D03*
X162306000Y-87045099D03*
%TD*%
D34*
%TO.C,XTAL1*%
X142798800Y-86258400D03*
X133045200Y-86258400D03*
%TD*%
D24*
%TO.C,R18*%
X144627600Y-93268800D03*
X144627600Y-94818200D03*
%TD*%
D17*
%TO.C,R3*%
X139003885Y-77023201D03*
X139003885Y-78578799D03*
%TD*%
D35*
%TO.C,U6*%
X164676700Y-103943600D03*
X164676700Y-103443600D03*
X164676700Y-102943600D03*
X164676700Y-102443600D03*
X164676700Y-101943600D03*
X164676700Y-101443600D03*
X164676700Y-100943600D03*
X164676700Y-100443600D03*
X164676700Y-99943600D03*
X164676700Y-99443600D03*
X164676700Y-98943600D03*
X164676700Y-98443600D03*
D36*
X163989200Y-97756100D03*
X163489200Y-97756100D03*
X162989200Y-97756100D03*
X162489200Y-97756100D03*
X161989200Y-97756100D03*
X161489200Y-97756100D03*
X160989200Y-97756100D03*
X160489200Y-97756100D03*
X159989200Y-97756100D03*
X159489200Y-97756100D03*
X158989200Y-97756100D03*
X158489200Y-97756100D03*
D35*
X157801700Y-98443600D03*
X157801700Y-98943600D03*
X157801700Y-99443600D03*
X157801700Y-99943600D03*
X157801700Y-100443600D03*
X157801700Y-100943600D03*
X157801700Y-101443600D03*
X157801700Y-101943600D03*
X157801700Y-102443600D03*
X157801700Y-102943600D03*
X157801700Y-103443600D03*
X157801700Y-103943600D03*
D36*
X158489200Y-104631100D03*
X158989200Y-104631100D03*
X159489200Y-104631100D03*
X159989200Y-104631100D03*
X160489200Y-104631100D03*
X160989200Y-104631100D03*
X161489200Y-104631100D03*
X161989200Y-104631100D03*
X162489200Y-104631100D03*
X162989200Y-104631100D03*
X163489200Y-104631100D03*
X163989200Y-104631100D03*
D37*
X161239200Y-101193600D03*
%TD*%
D16*
%TO.C,C13*%
X144454400Y-104698800D03*
X142798800Y-104698800D03*
%TD*%
D38*
%TO.C,D1*%
X144620800Y-91193100D03*
X142500800Y-91193100D03*
X144620800Y-90493100D03*
X142500800Y-90493100D03*
%TD*%
D14*
%TO.C,J3*%
X120091200Y-71831200D03*
D15*
X120091200Y-74371200D03*
X120091200Y-76911200D03*
X120091200Y-79451200D03*
X120091200Y-81991200D03*
X120091200Y-84531200D03*
X120091200Y-87071200D03*
X120091200Y-89611200D03*
X120091200Y-92151200D03*
X120091200Y-94691200D03*
X120091200Y-97231200D03*
X120091200Y-99771200D03*
X120091200Y-102311200D03*
X120091200Y-104851200D03*
X120091200Y-107391200D03*
X120091200Y-109931200D03*
X120091200Y-112471200D03*
X120091200Y-115011200D03*
X120091200Y-117551200D03*
X120091200Y-120091200D03*
%TD*%
D26*
%TO.C,C19*%
X138226800Y-109423200D03*
X138226800Y-107767600D03*
%TD*%
D16*
%TO.C,C10*%
X144454400Y-99517200D03*
X142798800Y-99517200D03*
%TD*%
D22*
%TO.C,R7*%
X131191000Y-90678000D03*
X132740400Y-90678000D03*
%TD*%
D39*
%TO.C,J1*%
X150957086Y-76963800D03*
X145177084Y-76963800D03*
D40*
X153177085Y-77463800D03*
X142957085Y-77463800D03*
X153177085Y-73533800D03*
X142957085Y-73533800D03*
D41*
X151267086Y-78038800D03*
X150467085Y-78038800D03*
D42*
X149317085Y-78038800D03*
X148317085Y-78038800D03*
X147817085Y-78038800D03*
X146817085Y-78038800D03*
D41*
X145667085Y-78038800D03*
X144867086Y-78038800D03*
D42*
X146317086Y-78038800D03*
X147317084Y-78038800D03*
X148817086Y-78038800D03*
X149817084Y-78038800D03*
%TD*%
D17*
%TO.C,R13*%
X168935400Y-93236501D03*
X168935400Y-94792099D03*
%TD*%
%TO.C,R4*%
X151028400Y-89306400D03*
X151028400Y-87750802D03*
%TD*%
M02*
