%TF.GenerationSoftware,KiCad,Pcbnew,9.0.7*%
%TF.CreationDate,2026-04-13T18:33:56-04:00*%
%TF.ProjectId,BNN,424e4e2e-6b69-4636-9164-5f7063625858,rev?*%
%TF.SameCoordinates,Original*%
%TF.FileFunction,Copper,L1,Top*%
%TF.FilePolarity,Positive*%
%FSLAX46Y46*%
G04 Gerber Fmt 4.6, Leading zero omitted, Abs format (unit mm)*
G04 Created by KiCad (PCBNEW 9.0.7) date 2026-04-13 18:33:56*
%MOMM*%
%LPD*%
G01*
G04 APERTURE LIST*
G04 Aperture macros list*
%AMRoundRect*
0 Rectangle with rounded corners*
0 $1 Rounding radius*
0 $2 $3 $4 $5 $6 $7 $8 $9 X,Y pos of 4 corners*
0 Add a 4 corners polygon primitive as box body*
4,1,4,$2,$3,$4,$5,$6,$7,$8,$9,$2,$3,0*
0 Add four circle primitives for the rounded corners*
1,1,$1+$1,$2,$3*
1,1,$1+$1,$4,$5*
1,1,$1+$1,$6,$7*
1,1,$1+$1,$8,$9*
0 Add four rect primitives between the rounded corners*
20,1,$1+$1,$2,$3,$4,$5,0*
20,1,$1+$1,$4,$5,$6,$7,0*
20,1,$1+$1,$6,$7,$8,$9,0*
20,1,$1+$1,$8,$9,$2,$3,0*%
G04 Aperture macros list end*
%TA.AperFunction,SMDPad,CuDef*%
%ADD10R,1.524000X0.533400*%
%TD*%
%TA.AperFunction,SMDPad,CuDef*%
%ADD11R,0.914400X0.990600*%
%TD*%
%TA.AperFunction,SMDPad,CuDef*%
%ADD12R,1.193800X1.193800*%
%TD*%
%TA.AperFunction,SMDPad,CuDef*%
%ADD13R,0.863600X0.889000*%
%TD*%
%TA.AperFunction,ComponentPad*%
%ADD14R,1.700000X1.700000*%
%TD*%
%TA.AperFunction,ComponentPad*%
%ADD15C,1.700000*%
%TD*%
%TA.AperFunction,SMDPad,CuDef*%
%ADD16R,0.655600X0.800000*%
%TD*%
%TA.AperFunction,SMDPad,CuDef*%
%ADD17R,0.799998X0.755599*%
%TD*%
%TA.AperFunction,SMDPad,CuDef*%
%ADD18R,0.755599X0.799998*%
%TD*%
%TA.AperFunction,SMDPad,CuDef*%
%ADD19R,0.889000X0.863600*%
%TD*%
%TA.AperFunction,SMDPad,CuDef*%
%ADD20R,0.508000X1.003300*%
%TD*%
%TA.AperFunction,SMDPad,CuDef*%
%ADD21R,1.003300X0.508000*%
%TD*%
%TA.AperFunction,SMDPad,CuDef*%
%ADD22R,0.762000X0.812800*%
%TD*%
%TA.AperFunction,SMDPad,CuDef*%
%ADD23R,0.890000X0.930000*%
%TD*%
%TA.AperFunction,SMDPad,CuDef*%
%ADD24R,0.812800X0.762000*%
%TD*%
%TA.AperFunction,SMDPad,CuDef*%
%ADD25R,0.800000X1.700000*%
%TD*%
%TA.AperFunction,SMDPad,CuDef*%
%ADD26R,0.800000X0.655600*%
%TD*%
%TA.AperFunction,SMDPad,CuDef*%
%ADD27R,0.990600X0.914400*%
%TD*%
%TA.AperFunction,SMDPad,CuDef*%
%ADD28R,1.700000X0.800000*%
%TD*%
%TA.AperFunction,SMDPad,CuDef*%
%ADD29R,0.812800X0.177800*%
%TD*%
%TA.AperFunction,SMDPad,CuDef*%
%ADD30R,0.177800X0.812800*%
%TD*%
%TA.AperFunction,SMDPad,CuDef*%
%ADD31R,3.200400X3.200400*%
%TD*%
%TA.AperFunction,SMDPad,CuDef*%
%ADD32R,0.533400X1.524000*%
%TD*%
%TA.AperFunction,SMDPad,CuDef*%
%ADD33R,4.470400X1.219200*%
%TD*%
%TA.AperFunction,SMDPad,CuDef*%
%ADD34RoundRect,0.062500X0.375000X0.062500X-0.375000X0.062500X-0.375000X-0.062500X0.375000X-0.062500X0*%
%TD*%
%TA.AperFunction,SMDPad,CuDef*%
%ADD35RoundRect,0.062500X0.062500X0.375000X-0.062500X0.375000X-0.062500X-0.375000X0.062500X-0.375000X0*%
%TD*%
%TA.AperFunction,HeatsinkPad*%
%ADD36R,5.600000X5.600000*%
%TD*%
%TA.AperFunction,SMDPad,CuDef*%
%ADD37O,0.890000X0.470000*%
%TD*%
%TA.AperFunction,SMDPad,CuDef*%
%ADD38R,2.159000X2.006600*%
%TD*%
%TA.AperFunction,SMDPad,CuDef*%
%ADD39R,0.609600X1.143000*%
%TD*%
%TA.AperFunction,SMDPad,CuDef*%
%ADD40R,0.304800X1.143000*%
%TD*%
%TA.AperFunction,ViaPad*%
%ADD41C,0.600000*%
%TD*%
%TA.AperFunction,ViaPad*%
%ADD42C,0.609600*%
%TD*%
%TA.AperFunction,Conductor*%
%ADD43C,0.203200*%
%TD*%
%TA.AperFunction,Conductor*%
%ADD44C,0.200000*%
%TD*%
%TA.AperFunction,Conductor*%
%ADD45C,0.152400*%
%TD*%
%TA.AperFunction,Conductor*%
%ADD46C,0.508000*%
%TD*%
G04 APERTURE END LIST*
D10*
%TO.P,U4,1,/CS*%
%TO.N,/RP2040/BOOT*%
X150558500Y-111175800D03*
%TO.P,U4,2,DO(IO1)*%
%TO.N,/RP2040/SQPI_SD1*%
X150558500Y-109905800D03*
%TO.P,U4,3,/WP(IO2)*%
%TO.N,/RP2040/SQPI_SD2*%
X150558500Y-108635800D03*
%TO.P,U4,4,GND*%
%TO.N,GND*%
X150558500Y-107365800D03*
%TO.P,U4,5,DI(IO0)*%
%TO.N,/RP2040/SQPI_SD0*%
X143268700Y-107365800D03*
%TO.P,U4,6,CLK*%
%TO.N,/RP2040/SQPI_SCLK*%
X143268700Y-108635800D03*
%TO.P,U4,7,/HOLD_OR_/RESET(IO3)*%
%TO.N,/RP2040/SQPI_SD3*%
X143268700Y-109905800D03*
%TO.P,U4,8,VCC*%
%TO.N,+3V3*%
X143268700Y-111175800D03*
%TD*%
D11*
%TO.P,C2,1*%
%TO.N,+5V*%
X163963350Y-111475602D03*
%TO.P,C2,2*%
%TO.N,GND*%
X162363150Y-111475602D03*
%TD*%
D12*
%TO.P,LED2,1*%
%TO.N,GND*%
X146799300Y-96926400D03*
%TO.P,LED2,2*%
%TO.N,/RP2040/FPGA_CDONE*%
X144691100Y-96926400D03*
%TD*%
D13*
%TO.P,C4,1*%
%TO.N,GND*%
X162413950Y-113609202D03*
%TO.P,C4,2*%
%TO.N,+5V*%
X163963350Y-113609202D03*
%TD*%
D14*
%TO.P,J4,1,Pin_1*%
%TO.N,/IO/FPGA_IO34*%
X134061200Y-120091200D03*
D15*
%TO.P,J4,2,Pin_2*%
%TO.N,/IO/FPGA_IO36*%
X136601200Y-120091200D03*
%TO.P,J4,3,Pin_3*%
%TO.N,/IO/FPGA_IO37*%
X139141200Y-120091200D03*
%TO.P,J4,4,Pin_4*%
%TO.N,/IO/FPGA_IO38*%
X141681200Y-120091200D03*
%TO.P,J4,5,Pin_5*%
%TO.N,/IO/FPGA_IO42*%
X144221200Y-120091200D03*
%TO.P,J4,6,Pin_6*%
%TO.N,/IO/FPGA_IO43*%
X146761200Y-120091200D03*
%TO.P,J4,7,Pin_7*%
%TO.N,/IO/FPGA_IO44*%
X149301200Y-120091200D03*
%TO.P,J4,8,Pin_8*%
%TO.N,/IO/FPGA_IO45*%
X151841200Y-120091200D03*
%TO.P,J4,9,Pin_9*%
%TO.N,/IO/FPGA_IO46*%
X154381200Y-120091200D03*
%TO.P,J4,10,Pin_10*%
%TO.N,/IO/FPGA_IO47*%
X156921200Y-120091200D03*
%TO.P,J4,11,Pin_11*%
%TO.N,/IO/FPGA_IO48*%
X159461200Y-120091200D03*
%TO.P,J4,12,Pin_12*%
%TO.N,GND*%
X162001200Y-120091200D03*
%TD*%
D16*
%TO.P,C15,1*%
%TO.N,+3V3*%
X130759200Y-104089200D03*
%TO.P,C15,2*%
%TO.N,GND*%
X129103600Y-104089200D03*
%TD*%
D17*
%TO.P,R5,1*%
%TO.N,/RP2040/RUN*%
X131978400Y-93237202D03*
%TO.P,R5,2*%
%TO.N,+3V3*%
X131978400Y-94792800D03*
%TD*%
D16*
%TO.P,C29,1*%
%TO.N,GND*%
X153259000Y-100900799D03*
%TO.P,C29,2*%
%TO.N,+1V2*%
X154914600Y-100900799D03*
%TD*%
%TO.P,C18,1*%
%TO.N,+3V3*%
X130759200Y-105918000D03*
%TO.P,C18,2*%
%TO.N,GND*%
X129103600Y-105918000D03*
%TD*%
%TO.P,C26,1*%
%TO.N,GND*%
X154904200Y-96926400D03*
%TO.P,C26,2*%
%TO.N,+3V3*%
X153248600Y-96926400D03*
%TD*%
D13*
%TO.P,C7,1*%
%TO.N,GND*%
X168965798Y-107056002D03*
%TO.P,C7,2*%
%TO.N,+1V2*%
X167416398Y-107056002D03*
%TD*%
D18*
%TO.P,R8,1*%
%TO.N,/RP2040/SQPI_SD1*%
X153282802Y-109575600D03*
%TO.P,R8,2*%
%TO.N,+3V3*%
X154838400Y-109575600D03*
%TD*%
D19*
%TO.P,C20,1*%
%TO.N,+3V3*%
X131368800Y-107746800D03*
%TO.P,C20,2*%
%TO.N,GND*%
X131368800Y-109296200D03*
%TD*%
D16*
%TO.P,C23,1*%
%TO.N,GND*%
X144475200Y-113842800D03*
%TO.P,C23,2*%
%TO.N,+3V3*%
X142819600Y-113842800D03*
%TD*%
D20*
%TO.P,U1,1,VIN*%
%TO.N,+5V*%
X155143200Y-87782400D03*
%TO.P,U1,2,GND*%
%TO.N,GND*%
X154193199Y-87782400D03*
%TO.P,U1,3,EN*%
%TO.N,Net-(U1-EN)*%
X153243198Y-87782400D03*
%TO.P,U1,4,NC*%
%TO.N,unconnected-(U1-NC-Pad4)*%
X153243198Y-90487500D03*
%TO.P,U1,5,VOUT*%
%TO.N,+3V3*%
X155143200Y-90487500D03*
%TD*%
D21*
%TO.P,U2,1,VIN*%
%TO.N,+5V*%
X166287450Y-111556800D03*
%TO.P,U2,2,GND*%
%TO.N,GND*%
X166287450Y-112506801D03*
%TO.P,U2,3,EN*%
%TO.N,+5V*%
X166287450Y-113456802D03*
%TO.P,U2,4,NC*%
%TO.N,unconnected-(U2-NC-Pad4)*%
X168992550Y-113456802D03*
%TO.P,U2,5,VOUT*%
%TO.N,+1V2*%
X168992550Y-111556800D03*
%TD*%
D14*
%TO.P,J5,1,Pin_1*%
%TO.N,GND*%
X176022000Y-71831200D03*
D15*
%TO.P,J5,2,Pin_2*%
%TO.N,/IO/FPGA_IO32*%
X176022000Y-74371200D03*
%TO.P,J5,3,Pin_3*%
%TO.N,/IO/FPGA_IO31*%
X176022000Y-76911200D03*
%TO.P,J5,4,Pin_4*%
%TO.N,/IO/FPGA_IO28*%
X176022000Y-79451200D03*
%TO.P,J5,5,Pin_5*%
%TO.N,/IO/FPGA_IO23*%
X176022000Y-81991200D03*
%TO.P,J5,6,Pin_6*%
%TO.N,/IO/FPGA_IO21*%
X176022000Y-84531200D03*
%TO.P,J5,7,Pin_7*%
%TO.N,/IO/FPGA_IO20*%
X176022000Y-87071200D03*
%TO.P,J5,8,Pin_8*%
%TO.N,/IO/FPGA_IO19*%
X176022000Y-89611200D03*
%TO.P,J5,9,Pin_9*%
%TO.N,/IO/FPGA_IO18*%
X176022000Y-92151200D03*
%TO.P,J5,10,Pin_10*%
%TO.N,/IO/FPGA_IO13*%
X176022000Y-94691200D03*
%TO.P,J5,11,Pin_11*%
%TO.N,/IO/FPGA_IO12*%
X176022000Y-97231200D03*
%TO.P,J5,12,Pin_12*%
%TO.N,/IO/FPGA_IO11*%
X176022000Y-99771200D03*
%TO.P,J5,13,Pin_13*%
%TO.N,/IO/FPGA_IO10*%
X176022000Y-102311200D03*
%TO.P,J5,14,Pin_14*%
%TO.N,/IO/FPGA_IO9*%
X176022000Y-104851200D03*
%TO.P,J5,15,Pin_15*%
%TO.N,/IO/FPGA_IO6*%
X176022000Y-107391200D03*
%TO.P,J5,16,Pin_16*%
%TO.N,/IO/FPGA_IO4*%
X176022000Y-109931200D03*
%TO.P,J5,17,Pin_17*%
%TO.N,/IO/FPGA_IO3*%
X176022000Y-112471200D03*
%TO.P,J5,18,Pin_18*%
%TO.N,/IO/FPGA_IO2*%
X176022000Y-115011200D03*
%TO.P,J5,19,Pin_19*%
%TO.N,+3V3*%
X176022000Y-117551200D03*
%TO.P,J5,20,Pin_20*%
%TO.N,GND*%
X176022000Y-120091200D03*
%TD*%
D16*
%TO.P,C30,1*%
%TO.N,GND*%
X153259000Y-99071999D03*
%TO.P,C30,2*%
%TO.N,+3V3*%
X154914600Y-99071999D03*
%TD*%
D22*
%TO.P,R11,1*%
%TO.N,/Power/USB_DN*%
X131356100Y-111556800D03*
%TO.P,R11,2*%
%TO.N,Net-(U3-USB_DM)*%
X132905500Y-111556800D03*
%TD*%
D17*
%TO.P,R1,1*%
%TO.N,Net-(J1-CC1)*%
X156834685Y-77023201D03*
%TO.P,R1,2*%
%TO.N,GND*%
X156834685Y-78578799D03*
%TD*%
D23*
%TO.P,C14,1*%
%TO.N,/RP2040/XOUT*%
X134721600Y-90678000D03*
%TO.P,C14,2*%
%TO.N,GND*%
X136261600Y-90678000D03*
%TD*%
D24*
%TO.P,R20,1*%
%TO.N,/IO/LED_B*%
X140360400Y-94805500D03*
%TO.P,R20,2*%
%TO.N,Net-(D1-Pad4)*%
X140360400Y-93256100D03*
%TD*%
D25*
%TO.P,S2,1,1*%
%TO.N,GND*%
X156673303Y-112766000D03*
%TO.P,S2,2,2*%
%TO.N,/RP2040/BOOT*%
X153273299Y-112766000D03*
%TD*%
D17*
%TO.P,R16,1*%
%TO.N,Net-(U5-{slash}HOLD_OR_{slash}RESET(IO3))*%
X168935400Y-88238899D03*
%TO.P,R16,2*%
%TO.N,+3V3*%
X168935400Y-86683301D03*
%TD*%
D11*
%TO.P,C8,1*%
%TO.N,+1V2*%
X167416398Y-109189602D03*
%TO.P,C8,2*%
%TO.N,GND*%
X169016598Y-109189602D03*
%TD*%
D26*
%TO.P,C27,1*%
%TO.N,GND*%
X159486600Y-88391299D03*
%TO.P,C27,2*%
%TO.N,+3V3*%
X159486600Y-86735699D03*
%TD*%
D22*
%TO.P,R10,1*%
%TO.N,/Power/USB_DP*%
X136575800Y-111556800D03*
%TO.P,R10,2*%
%TO.N,Net-(U3-USB_DP)*%
X135026400Y-111556800D03*
%TD*%
D18*
%TO.P,R15,1*%
%TO.N,/RP2040/FPGA_CRESET*%
X167498000Y-99986399D03*
%TO.P,R15,2*%
%TO.N,+3V3*%
X169053598Y-99986399D03*
%TD*%
D13*
%TO.P,C6,1*%
%TO.N,GND*%
X151252002Y-93268800D03*
%TO.P,C6,2*%
%TO.N,+3V3*%
X152801402Y-93268800D03*
%TD*%
D26*
%TO.P,C17,1*%
%TO.N,GND*%
X140208000Y-109423200D03*
%TO.P,C17,2*%
%TO.N,/RP2040/VREG_VOUT*%
X140208000Y-107767600D03*
%TD*%
%TO.P,C11,1*%
%TO.N,GND*%
X136550400Y-93137200D03*
%TO.P,C11,2*%
%TO.N,+3V3*%
X136550400Y-94792800D03*
%TD*%
D14*
%TO.P,J2,1,Pin_1*%
%TO.N,/RP2040/SWCLK*%
X127863600Y-84988400D03*
D15*
%TO.P,J2,2,Pin_2*%
%TO.N,GND*%
X127863600Y-87528400D03*
%TO.P,J2,3,Pin_3*%
%TO.N,/RP2040/SWDIO*%
X127863600Y-90068400D03*
%TD*%
D19*
%TO.P,C5,1*%
%TO.N,GND*%
X151028400Y-84112100D03*
%TO.P,C5,2*%
%TO.N,Net-(U1-EN)*%
X151028400Y-85661500D03*
%TD*%
D22*
%TO.P,R2,1*%
%TO.N,+3V3*%
X153949400Y-105613200D03*
%TO.P,R2,2*%
%TO.N,Net-(LED1-Pad2)*%
X152400000Y-105613200D03*
%TD*%
D26*
%TO.P,C21,1*%
%TO.N,GND*%
X136093200Y-109402400D03*
%TO.P,C21,2*%
%TO.N,+3V3*%
X136093200Y-107746800D03*
%TD*%
D12*
%TO.P,LED1,1*%
%TO.N,GND*%
X147993100Y-104698800D03*
%TO.P,LED1,2*%
%TO.N,Net-(LED1-Pad2)*%
X150101300Y-104698800D03*
%TD*%
D19*
%TO.P,C3,1*%
%TO.N,GND*%
X153162000Y-84194650D03*
%TO.P,C3,2*%
%TO.N,+5V*%
X153162000Y-85744050D03*
%TD*%
D18*
%TO.P,R6,1*%
%TO.N,/RP2040/BOOT*%
X151028400Y-113842800D03*
%TO.P,R6,2*%
%TO.N,+3V3*%
X149472802Y-113842800D03*
%TD*%
D16*
%TO.P,C24,1*%
%TO.N,GND*%
X169087800Y-102424799D03*
%TO.P,C24,2*%
%TO.N,+1V2*%
X167432200Y-102424799D03*
%TD*%
D27*
%TO.P,C1,1*%
%TO.N,+5V*%
X155295600Y-85705950D03*
%TO.P,C1,2*%
%TO.N,GND*%
X155295600Y-84105750D03*
%TD*%
D26*
%TO.P,C9,1*%
%TO.N,GND*%
X134569200Y-93137200D03*
%TO.P,C9,2*%
%TO.N,/RP2040/VREG_VOUT*%
X134569200Y-94792800D03*
%TD*%
D19*
%TO.P,C22,1*%
%TO.N,/RP2040/VREG_VOUT*%
X133502400Y-107812600D03*
%TO.P,C22,2*%
%TO.N,GND*%
X133502400Y-109362000D03*
%TD*%
D16*
%TO.P,C25,1*%
%TO.N,GND*%
X169153600Y-104710799D03*
%TO.P,C25,2*%
%TO.N,+3V3*%
X167498000Y-104710799D03*
%TD*%
%TO.P,C28,1*%
%TO.N,GND*%
X153259000Y-102729599D03*
%TO.P,C28,2*%
%TO.N,+3V3*%
X154914600Y-102729599D03*
%TD*%
D28*
%TO.P,S3,1,1*%
%TO.N,GND*%
X147675600Y-84710798D03*
%TO.P,S3,2,2*%
%TO.N,/IO/USER_BTN*%
X147675600Y-88110802D03*
%TD*%
D18*
%TO.P,R17,1*%
%TO.N,/IO/USER_BTN*%
X148453399Y-90830400D03*
%TO.P,R17,2*%
%TO.N,+3V3*%
X146897801Y-90830400D03*
%TD*%
D24*
%TO.P,R14,1*%
%TO.N,+3V3*%
X146913600Y-93256100D03*
%TO.P,R14,2*%
%TO.N,/RP2040/FPGA_CDONE*%
X146913600Y-94805500D03*
%TD*%
D16*
%TO.P,C16,1*%
%TO.N,+3V3*%
X130759200Y-99669600D03*
%TO.P,C16,2*%
%TO.N,GND*%
X129103600Y-99669600D03*
%TD*%
D24*
%TO.P,R19,1*%
%TO.N,/IO/LED_G*%
X142494000Y-94818200D03*
%TO.P,R19,2*%
%TO.N,Net-(D1-Pad2)*%
X142494000Y-93268800D03*
%TD*%
D25*
%TO.P,S1,1,1*%
%TO.N,GND*%
X126139996Y-93878400D03*
%TO.P,S1,2,2*%
%TO.N,/RP2040/RUN*%
X129540000Y-93878400D03*
%TD*%
D18*
%TO.P,R9,1*%
%TO.N,/RP2040/SQPI_SD2*%
X153298601Y-107594400D03*
%TO.P,R9,2*%
%TO.N,+3V3*%
X154854199Y-107594400D03*
%TD*%
D23*
%TO.P,C12,1*%
%TO.N,/RP2040/XIN*%
X139766800Y-90678000D03*
%TO.P,C12,2*%
%TO.N,GND*%
X138226800Y-90678000D03*
%TD*%
D18*
%TO.P,R12,1*%
%TO.N,/RP2040/SQPI_SD3*%
X140208000Y-111556800D03*
%TO.P,R12,2*%
%TO.N,+3V3*%
X138652402Y-111556800D03*
%TD*%
D29*
%TO.P,U3,1,IOVDD*%
%TO.N,+3V3*%
X140230400Y-103742800D03*
%TO.P,U3,2,GPIO0*%
%TO.N,/RP2040/UART_TX*%
X140230400Y-103342801D03*
%TO.P,U3,3,GPIO1*%
%TO.N,/RP2040/UART_RX*%
X140230400Y-102942799D03*
%TO.P,U3,4,GPIO2*%
%TO.N,/iCE40UP5K/SPI_SCK*%
X140230400Y-102542800D03*
%TO.P,U3,5,GPIO3*%
%TO.N,/iCE40UP5K/SPI_SI*%
X140230400Y-102142801D03*
%TO.P,U3,6,GPIO4*%
%TO.N,/iCE40UP5K/SPI_S0*%
X140230400Y-101742799D03*
%TO.P,U3,7,GPIO5*%
%TO.N,/RP2040/SPI_CS_FPGA*%
X140230400Y-101342800D03*
%TO.P,U3,8,GPIO6*%
%TO.N,/iCE40UP5K/SPI_SS*%
X140230400Y-100942800D03*
%TO.P,U3,9,GPIO7*%
%TO.N,/RP2040/FPGA_CLK*%
X140230400Y-100542801D03*
%TO.P,U3,10,IOVDD*%
%TO.N,+3V3*%
X140230400Y-100142799D03*
%TO.P,U3,11,GPIO8*%
%TO.N,/RP2040/FPGA_CRESET*%
X140230400Y-99742800D03*
%TO.P,U3,12,GPIO9*%
%TO.N,/RP2040/FPGA_CDONE*%
X140230400Y-99342801D03*
%TO.P,U3,13,GPIO10*%
%TO.N,/IO/LED_R*%
X140230400Y-98942799D03*
%TO.P,U3,14,GPIO11*%
%TO.N,/IO/LED_G*%
X140230400Y-98542800D03*
D30*
%TO.P,U3,15,GPIO12*%
%TO.N,/IO/LED_B*%
X139426800Y-97739200D03*
%TO.P,U3,16,GPIO13*%
%TO.N,/IO/USER_BTN*%
X139026801Y-97739200D03*
%TO.P,U3,17,GPIO14*%
%TO.N,/IO/GPIO14*%
X138626799Y-97739200D03*
%TO.P,U3,18,GPIO15*%
%TO.N,/IO/GPIO15*%
X138226800Y-97739200D03*
%TO.P,U3,19,TESTEN*%
%TO.N,GND*%
X137826801Y-97739200D03*
%TO.P,U3,20,XIN*%
%TO.N,/RP2040/XIN*%
X137426799Y-97739200D03*
%TO.P,U3,21,XOUT*%
%TO.N,/RP2040/XOUT*%
X137026800Y-97739200D03*
%TO.P,U3,22,IOVDD*%
%TO.N,+3V3*%
X136626800Y-97739200D03*
%TO.P,U3,23,DVDD*%
%TO.N,/RP2040/VREG_VOUT*%
X136226801Y-97739200D03*
%TO.P,U3,24,SWCLK*%
%TO.N,/RP2040/SWCLK*%
X135826799Y-97739200D03*
%TO.P,U3,25,SWDIO*%
%TO.N,/RP2040/SWDIO*%
X135426800Y-97739200D03*
%TO.P,U3,26,RUN*%
%TO.N,/RP2040/RUN*%
X135026801Y-97739200D03*
%TO.P,U3,27,GPIO16*%
%TO.N,/IO/GPIO16*%
X134626799Y-97739200D03*
%TO.P,U3,28,GPIO17*%
%TO.N,/IO/GPIO17*%
X134226800Y-97739200D03*
D29*
%TO.P,U3,29,GPIO18*%
%TO.N,/IO/GPIO18*%
X133423200Y-98542800D03*
%TO.P,U3,30,GPIO19*%
%TO.N,/IO/GPIO19*%
X133423200Y-98942799D03*
%TO.P,U3,31,GPIO20*%
%TO.N,/IO/GPIO20*%
X133423200Y-99342801D03*
%TO.P,U3,32,GPIO21*%
%TO.N,/IO/GPIO21*%
X133423200Y-99742800D03*
%TO.P,U3,33,IOVDD*%
%TO.N,+3V3*%
X133423200Y-100142799D03*
%TO.P,U3,34,GPIO22*%
%TO.N,/IO/GPIO22*%
X133423200Y-100542801D03*
%TO.P,U3,35,GPIO23*%
%TO.N,/IO/GPIO23*%
X133423200Y-100942800D03*
%TO.P,U3,36,GPIO24*%
%TO.N,/IO/GPIO24*%
X133423200Y-101342800D03*
%TO.P,U3,37,GPIO25*%
%TO.N,/IO/GPIO25*%
X133423200Y-101742799D03*
%TO.P,U3,38,GPIO26/ADC0*%
%TO.N,/IO/GPIO26*%
X133423200Y-102142801D03*
%TO.P,U3,39,GPIO27/ADC1*%
%TO.N,/IO/GPIO27*%
X133423200Y-102542800D03*
%TO.P,U3,40,GPIO28/ADC2*%
%TO.N,/IO/GPIO28*%
X133423200Y-102942799D03*
%TO.P,U3,41,GPIO29/ADC3*%
%TO.N,/IO/GPIO29*%
X133423200Y-103342801D03*
%TO.P,U3,42,IOVDD*%
%TO.N,+3V3*%
X133423200Y-103742800D03*
D30*
%TO.P,U3,43,ADC_AVDD*%
X134226800Y-104546400D03*
%TO.P,U3,44,VREG_VIN*%
X134626799Y-104546400D03*
%TO.P,U3,45,VREG_VOUT*%
%TO.N,/RP2040/VREG_VOUT*%
X135026801Y-104546400D03*
%TO.P,U3,46,USB_DM*%
%TO.N,Net-(U3-USB_DM)*%
X135426800Y-104546400D03*
%TO.P,U3,47,USB_DP*%
%TO.N,Net-(U3-USB_DP)*%
X135826799Y-104546400D03*
%TO.P,U3,48,USB_VDD*%
%TO.N,+3V3*%
X136226801Y-104546400D03*
%TO.P,U3,49,IOVDD*%
X136626800Y-104546400D03*
%TO.P,U3,50,DVDD*%
%TO.N,/RP2040/VREG_VOUT*%
X137026800Y-104546400D03*
%TO.P,U3,51,SQPI_SD3*%
%TO.N,/RP2040/SQPI_SD3*%
X137426799Y-104546400D03*
%TO.P,U3,52,SQPI_SCLK*%
%TO.N,/RP2040/SQPI_SCLK*%
X137826801Y-104546400D03*
%TO.P,U3,53,SQPI_SD0*%
%TO.N,/RP2040/SQPI_SD0*%
X138226800Y-104546400D03*
%TO.P,U3,54,SQPI_SD2*%
%TO.N,/RP2040/SQPI_SD2*%
X138626799Y-104546400D03*
%TO.P,U3,55,SQPI_SD1*%
%TO.N,/RP2040/SQPI_SD1*%
X139026801Y-104546400D03*
%TO.P,U3,56,SQPI_SS_N*%
%TO.N,/RP2040/BOOT*%
X139426800Y-104546400D03*
D31*
%TO.P,U3,57,GND*%
%TO.N,GND*%
X136826800Y-101142800D03*
%TD*%
D32*
%TO.P,U5,1,/CS*%
%TO.N,/iCE40UP5K/SPI_SS*%
X162306000Y-94334899D03*
%TO.P,U5,2,DO(IO1)*%
%TO.N,/iCE40UP5K/SPI_S0*%
X163576000Y-94334899D03*
%TO.P,U5,3,/WP(IO2)*%
%TO.N,Net-(U5-{slash}WP(IO2))*%
X164846000Y-94334899D03*
%TO.P,U5,4,GND*%
%TO.N,GND*%
X166116000Y-94334899D03*
%TO.P,U5,5,DI(IO0)*%
%TO.N,/iCE40UP5K/SPI_SI*%
X166116000Y-87045099D03*
%TO.P,U5,6,CLK*%
%TO.N,/iCE40UP5K/SPI_SCK*%
X164846000Y-87045099D03*
%TO.P,U5,7,/HOLD_OR_/RESET(IO3)*%
%TO.N,Net-(U5-{slash}HOLD_OR_{slash}RESET(IO3))*%
X163576000Y-87045099D03*
%TO.P,U5,8,VCC*%
%TO.N,+3V3*%
X162306000Y-87045099D03*
%TD*%
D33*
%TO.P,XTAL1,1,1*%
%TO.N,/RP2040/XIN*%
X142798800Y-86258400D03*
%TO.P,XTAL1,2,2*%
%TO.N,Net-(R7-Pad1)*%
X133045200Y-86258400D03*
%TD*%
D24*
%TO.P,R18,1*%
%TO.N,Net-(D1-Pad1)*%
X144627600Y-93268800D03*
%TO.P,R18,2*%
%TO.N,/IO/LED_R*%
X144627600Y-94818200D03*
%TD*%
D17*
%TO.P,R3,1*%
%TO.N,Net-(J1-CC2)*%
X139003885Y-77023201D03*
%TO.P,R3,2*%
%TO.N,GND*%
X139003885Y-78578799D03*
%TD*%
D34*
%TO.P,U6,1,VCCIO_2*%
%TO.N,+3V3*%
X164676700Y-103943600D03*
%TO.P,U6,2,IOB_6a*%
%TO.N,/IO/FPGA_IO2*%
X164676700Y-103443600D03*
%TO.P,U6,3,IOB_9b*%
%TO.N,/IO/FPGA_IO3*%
X164676700Y-102943600D03*
%TO.P,U6,4,IOB_8a*%
%TO.N,/IO/FPGA_IO4*%
X164676700Y-102443600D03*
%TO.P,U6,5,VCC*%
%TO.N,+1V2*%
X164676700Y-101943600D03*
%TO.P,U6,6,IOB_13b*%
%TO.N,/IO/FPGA_IO6*%
X164676700Y-101443600D03*
%TO.P,U6,7,CDONE*%
%TO.N,/RP2040/FPGA_CDONE*%
X164676700Y-100943600D03*
%TO.P,U6,8,creset_b*%
%TO.N,/RP2040/FPGA_CRESET*%
X164676700Y-100443600D03*
%TO.P,U6,9,IOB_16a*%
%TO.N,/IO/FPGA_IO9*%
X164676700Y-99943600D03*
%TO.P,U6,10,IOB_18a*%
%TO.N,/IO/FPGA_IO10*%
X164676700Y-99443600D03*
%TO.P,U6,11,IOB_20a*%
%TO.N,/IO/FPGA_IO11*%
X164676700Y-98943600D03*
%TO.P,U6,12,IOB_22a*%
%TO.N,/IO/FPGA_IO12*%
X164676700Y-98443600D03*
D35*
%TO.P,U6,13,IOB_24a*%
%TO.N,/IO/FPGA_IO13*%
X163989200Y-97756100D03*
%TO.P,U6,14,IOB_32a_SPI_SO*%
%TO.N,/iCE40UP5K/SPI_S0*%
X163489200Y-97756100D03*
%TO.P,U6,15,IOB_34a_SPI_SCK*%
%TO.N,/iCE40UP5K/SPI_SCK*%
X162989200Y-97756100D03*
%TO.P,U6,16,IOB_35b_SPI_SS*%
%TO.N,/iCE40UP5K/SPI_SS*%
X162489200Y-97756100D03*
%TO.P,U6,17,IOB_33b_SPI_SI*%
%TO.N,/iCE40UP5K/SPI_SI*%
X161989200Y-97756100D03*
%TO.P,U6,18,IOB_31b*%
%TO.N,/IO/FPGA_IO18*%
X161489200Y-97756100D03*
%TO.P,U6,19,IOB_29b*%
%TO.N,/IO/FPGA_IO19*%
X160989200Y-97756100D03*
%TO.P,U6,20,IOB_25b_G3*%
%TO.N,/IO/FPGA_IO20*%
X160489200Y-97756100D03*
%TO.P,U6,21,IOB_23b*%
%TO.N,/IO/FPGA_IO21*%
X159989200Y-97756100D03*
%TO.P,U6,22,SPI_Vccio1*%
%TO.N,+3V3*%
X159489200Y-97756100D03*
%TO.P,U6,23,IOT_37a*%
%TO.N,/IO/FPGA_IO23*%
X158989200Y-97756100D03*
%TO.P,U6,24,VPP_2V5*%
%TO.N,+3V3*%
X158489200Y-97756100D03*
D34*
%TO.P,U6,25,IOT_36b*%
%TO.N,/RP2040/UART_RX*%
X157801700Y-98443600D03*
%TO.P,U6,26,IOT_39a*%
%TO.N,/RP2040/SPI_CS_FPGA*%
X157801700Y-98943600D03*
%TO.P,U6,27,IOT_38b*%
%TO.N,/RP2040/UART_TX*%
X157801700Y-99443600D03*
%TO.P,U6,28,IOT_41a*%
%TO.N,/IO/FPGA_IO28*%
X157801700Y-99943600D03*
%TO.P,U6,29,VCCPLL*%
%TO.N,+3V3*%
X157801700Y-100443600D03*
%TO.P,U6,30,VCC*%
%TO.N,+1V2*%
X157801700Y-100943600D03*
%TO.P,U6,31,IOT_42b*%
%TO.N,/IO/FPGA_IO31*%
X157801700Y-101443600D03*
%TO.P,U6,32,IOT_43a*%
%TO.N,/IO/FPGA_IO32*%
X157801700Y-101943600D03*
%TO.P,U6,33,VCCIO_0*%
%TO.N,+3V3*%
X157801700Y-102443600D03*
%TO.P,U6,34,IOT_44b*%
%TO.N,/IO/FPGA_IO34*%
X157801700Y-102943600D03*
%TO.P,U6,35,IOT_46b_G0*%
%TO.N,/RP2040/FPGA_CLK*%
X157801700Y-103443600D03*
%TO.P,U6,36,IOT_48b*%
%TO.N,/IO/FPGA_IO36*%
X157801700Y-103943600D03*
D35*
%TO.P,U6,37,IOT_45a_G1*%
%TO.N,/IO/FPGA_IO37*%
X158489200Y-104631100D03*
%TO.P,U6,38,IOT_50b*%
%TO.N,/IO/FPGA_IO38*%
X158989200Y-104631100D03*
%TO.P,U6,39,RGB0*%
%TO.N,unconnected-(U6-RGB0-Pad39)*%
X159489200Y-104631100D03*
%TO.P,U6,40,RGB1*%
%TO.N,unconnected-(U6-RGB1-Pad40)*%
X159989200Y-104631100D03*
%TO.P,U6,41,RGB2*%
%TO.N,unconnected-(U6-RGB2-Pad41)*%
X160489200Y-104631100D03*
%TO.P,U6,42,IOT_51a*%
%TO.N,/IO/FPGA_IO42*%
X160989200Y-104631100D03*
%TO.P,U6,43,IOT_49a*%
%TO.N,/IO/FPGA_IO43*%
X161489200Y-104631100D03*
%TO.P,U6,44,IOB_3b_G6*%
%TO.N,/IO/FPGA_IO44*%
X161989200Y-104631100D03*
%TO.P,U6,45,IOB_5b*%
%TO.N,/IO/FPGA_IO45*%
X162489200Y-104631100D03*
%TO.P,U6,46,IOB_0a*%
%TO.N,/IO/FPGA_IO46*%
X162989200Y-104631100D03*
%TO.P,U6,47,IOB_2a*%
%TO.N,/IO/FPGA_IO47*%
X163489200Y-104631100D03*
%TO.P,U6,48,IOB_4a*%
%TO.N,/IO/FPGA_IO48*%
X163989200Y-104631100D03*
D36*
%TO.P,U6,49,49*%
%TO.N,GND*%
X161239200Y-101193600D03*
%TD*%
D16*
%TO.P,C13,1*%
%TO.N,GND*%
X144454400Y-104698800D03*
%TO.P,C13,2*%
%TO.N,+3V3*%
X142798800Y-104698800D03*
%TD*%
D37*
%TO.P,D1,1*%
%TO.N,Net-(D1-Pad1)*%
X144620800Y-91193100D03*
%TO.P,D1,2*%
%TO.N,Net-(D1-Pad2)*%
X142500800Y-91193100D03*
%TO.P,D1,3*%
%TO.N,+3V3*%
X144620800Y-90493100D03*
%TO.P,D1,4*%
%TO.N,Net-(D1-Pad4)*%
X142500800Y-90493100D03*
%TD*%
D14*
%TO.P,J3,1,Pin_1*%
%TO.N,GND*%
X120091200Y-71831200D03*
D15*
%TO.P,J3,2,Pin_2*%
%TO.N,+5V*%
X120091200Y-74371200D03*
%TO.P,J3,3,Pin_3*%
%TO.N,/IO/GPIO14*%
X120091200Y-76911200D03*
%TO.P,J3,4,Pin_4*%
%TO.N,/IO/GPIO15*%
X120091200Y-79451200D03*
%TO.P,J3,5,Pin_5*%
%TO.N,/IO/GPIO16*%
X120091200Y-81991200D03*
%TO.P,J3,6,Pin_6*%
%TO.N,/IO/GPIO17*%
X120091200Y-84531200D03*
%TO.P,J3,7,Pin_7*%
%TO.N,/IO/GPIO18*%
X120091200Y-87071200D03*
%TO.P,J3,8,Pin_8*%
%TO.N,/IO/GPIO19*%
X120091200Y-89611200D03*
%TO.P,J3,9,Pin_9*%
%TO.N,/IO/GPIO20*%
X120091200Y-92151200D03*
%TO.P,J3,10,Pin_10*%
%TO.N,/IO/GPIO21*%
X120091200Y-94691200D03*
%TO.P,J3,11,Pin_11*%
%TO.N,/IO/GPIO22*%
X120091200Y-97231200D03*
%TO.P,J3,12,Pin_12*%
%TO.N,/IO/GPIO23*%
X120091200Y-99771200D03*
%TO.P,J3,13,Pin_13*%
%TO.N,/IO/GPIO24*%
X120091200Y-102311200D03*
%TO.P,J3,14,Pin_14*%
%TO.N,/IO/GPIO25*%
X120091200Y-104851200D03*
%TO.P,J3,15,Pin_15*%
%TO.N,/IO/GPIO26*%
X120091200Y-107391200D03*
%TO.P,J3,16,Pin_16*%
%TO.N,/IO/GPIO27*%
X120091200Y-109931200D03*
%TO.P,J3,17,Pin_17*%
%TO.N,/IO/GPIO28*%
X120091200Y-112471200D03*
%TO.P,J3,18,Pin_18*%
%TO.N,/IO/GPIO29*%
X120091200Y-115011200D03*
%TO.P,J3,19,Pin_19*%
%TO.N,+3V3*%
X120091200Y-117551200D03*
%TO.P,J3,20,Pin_20*%
%TO.N,GND*%
X120091200Y-120091200D03*
%TD*%
D26*
%TO.P,C19,1*%
%TO.N,GND*%
X138226800Y-109423200D03*
%TO.P,C19,2*%
%TO.N,+3V3*%
X138226800Y-107767600D03*
%TD*%
D16*
%TO.P,C10,1*%
%TO.N,GND*%
X144454400Y-99517200D03*
%TO.P,C10,2*%
%TO.N,+3V3*%
X142798800Y-99517200D03*
%TD*%
D22*
%TO.P,R7,1*%
%TO.N,Net-(R7-Pad1)*%
X131191000Y-90678000D03*
%TO.P,R7,2*%
%TO.N,/RP2040/XOUT*%
X132740400Y-90678000D03*
%TD*%
D38*
%TO.P,J1,15*%
%TO.N,N/C*%
X153177085Y-77463800D03*
%TO.P,J1,16*%
X142957085Y-77463800D03*
%TO.P,J1,17*%
X153177085Y-73533800D03*
%TO.P,J1,18*%
X142957085Y-73533800D03*
D39*
%TO.P,J1,A1-B12,GND*%
%TO.N,GND*%
X151267086Y-78038800D03*
%TO.P,J1,A4-B9,VBUS*%
%TO.N,+5V*%
X150467085Y-78038800D03*
D40*
%TO.P,J1,A5,CC1*%
%TO.N,Net-(J1-CC1)*%
X149317085Y-78038800D03*
%TO.P,J1,A6,DP1*%
%TO.N,/Power/USB_DN*%
X148317085Y-78038800D03*
%TO.P,J1,A7,DN1*%
%TO.N,/Power/USB_DP*%
X147817085Y-78038800D03*
%TO.P,J1,A8,SBU1*%
%TO.N,unconnected-(J1-SBU1-PadA8)*%
X146817085Y-78038800D03*
D39*
%TO.P,J1,A9-B4,VBUS*%
%TO.N,+5V*%
X145667085Y-78038800D03*
%TO.P,J1,A12-B1,GND*%
%TO.N,GND*%
X144867086Y-78038800D03*
D40*
%TO.P,J1,B5,CC2*%
%TO.N,Net-(J1-CC2)*%
X146317086Y-78038800D03*
%TO.P,J1,B6,DP2*%
%TO.N,/Power/USB_DN*%
X147317084Y-78038800D03*
%TO.P,J1,B7,DN2*%
%TO.N,/Power/USB_DP*%
X148817086Y-78038800D03*
%TO.P,J1,B8,SBU2*%
%TO.N,unconnected-(J1-SBU2-PadB8)*%
X149817084Y-78038800D03*
%TD*%
D17*
%TO.P,R13,1*%
%TO.N,Net-(U5-{slash}WP(IO2))*%
X168935400Y-93236501D03*
%TO.P,R13,2*%
%TO.N,+3V3*%
X168935400Y-94792099D03*
%TD*%
%TO.P,R4,1*%
%TO.N,+5V*%
X151028400Y-89306400D03*
%TO.P,R4,2*%
%TO.N,Net-(U1-EN)*%
X151028400Y-87750802D03*
%TD*%
D41*
%TO.N,/iCE40UP5K/SPI_SS*%
X156057600Y-95521400D03*
%TO.N,+3V3*%
X156362400Y-104698800D03*
X150831564Y-95510364D03*
X152419871Y-97111800D03*
X154229041Y-104698559D03*
%TO.N,GND*%
X170066320Y-102151297D03*
X128016000Y-99669600D03*
X140208000Y-110490000D03*
X156874657Y-111099600D03*
X156057600Y-96926400D03*
X169468800Y-110490000D03*
X144170400Y-79552800D03*
X138833704Y-99204400D03*
X150571200Y-94640400D03*
X150571200Y-106375200D03*
D42*
X162610800Y-99822000D03*
X153162000Y-82835750D03*
D41*
X152247600Y-102717600D03*
X133177515Y-110469915D03*
X131368800Y-110490000D03*
X137617200Y-110490000D03*
D42*
X154228800Y-88774250D03*
D41*
X145694400Y-113842800D03*
X148132800Y-95707200D03*
X147675600Y-85801200D03*
X155295600Y-78486000D03*
X140512800Y-78638400D03*
X136245600Y-89458800D03*
X151028400Y-82905600D03*
X166116000Y-92811600D03*
X169011600Y-108051600D03*
X165049200Y-112623600D03*
X137773600Y-92000729D03*
X148768835Y-103201235D03*
X127863600Y-105460800D03*
X145542000Y-99517200D03*
D42*
X159867600Y-99822000D03*
D41*
X127890035Y-104725235D03*
X133772053Y-92376199D03*
X136295123Y-92168599D03*
X155295600Y-82810350D03*
X160782000Y-88392000D03*
X137624064Y-98633717D03*
X162306000Y-112623600D03*
X170094365Y-104378035D03*
D42*
X162610800Y-102565200D03*
X161239200Y-101193600D03*
D41*
X152247600Y-99060000D03*
X127224200Y-93878400D03*
X152247600Y-100888800D03*
D42*
X159867600Y-102565200D03*
D41*
X151638000Y-79705200D03*
X162306000Y-110337600D03*
X136093200Y-110490000D03*
X145389600Y-105918000D03*
%TO.N,/RP2040/VREG_VOUT*%
X137039841Y-103738549D03*
X134780147Y-99317474D03*
X135635974Y-103586038D03*
X136054442Y-98625967D03*
%TO.N,/Power/USB_DN*%
X147066085Y-76976719D03*
X148219485Y-76962000D03*
%TO.N,/IO/GPIO27*%
X125695600Y-103122885D03*
X124189800Y-103098018D03*
%TO.N,/IO/GPIO22*%
X124189800Y-99098003D03*
X125695599Y-99122871D03*
%TO.N,/IO/GPIO14*%
X145600722Y-82442548D03*
X144456457Y-81362857D03*
%TO.N,/IO/GPIO15*%
X145035035Y-83008235D03*
X143890770Y-81928544D03*
%TO.N,/IO/GPIO25*%
X125695600Y-101522879D03*
X124189800Y-101498012D03*
%TO.N,/IO/GPIO19*%
X125695600Y-96674469D03*
X124189800Y-96659603D03*
%TO.N,/IO/GPIO28*%
X124189800Y-103898021D03*
X125695600Y-103922888D03*
%TO.N,/IO/GPIO18*%
X125695600Y-95859600D03*
X124189800Y-95859600D03*
%TO.N,/IO/GPIO17*%
X125730102Y-92051974D03*
X124189800Y-92087603D03*
%TO.N,/IO/GPIO21*%
X124189800Y-98298000D03*
X125714483Y-98323091D03*
%TO.N,/IO/GPIO26*%
X125695600Y-102322882D03*
X124189800Y-102298015D03*
%TO.N,/IO/GPIO23*%
X124189800Y-99898006D03*
X125695600Y-99922873D03*
%TO.N,/IO/GPIO29*%
X125695600Y-104722891D03*
X124181874Y-104697984D03*
%TO.N,/IO/GPIO24*%
X124189800Y-100698009D03*
X125695600Y-100722876D03*
%TO.N,/IO/GPIO20*%
X125695600Y-97489338D03*
X124189800Y-97459606D03*
%TO.N,/IO/GPIO16*%
X124189800Y-91287600D03*
X125695600Y-91252716D03*
%TO.N,/IO/FPGA_IO45*%
X162528029Y-105974201D03*
X160810088Y-115451799D03*
X161439155Y-108200800D03*
X161450872Y-113943799D03*
%TO.N,/IO/FPGA_IO34*%
X154926209Y-115451799D03*
X154982800Y-113943799D03*
X155949113Y-103066313D03*
X155753041Y-106222559D03*
%TO.N,/IO/FPGA_IO44*%
X160629600Y-108209568D03*
X159938315Y-115451799D03*
X161718427Y-105974200D03*
X160650869Y-113943799D03*
%TO.N,/IO/FPGA_IO36*%
X155726212Y-115451799D03*
X157734000Y-104546400D03*
X156329241Y-106798758D03*
X155782803Y-113943799D03*
%TO.N,/IO/FPGA_IO48*%
X164942419Y-105979000D03*
D42*
X168706800Y-116735200D03*
X168706800Y-114452400D03*
D41*
X164982406Y-108200800D03*
D42*
%TO.N,/IO/FPGA_IO46*%
X167030400Y-116735200D03*
D41*
X163337631Y-105974200D03*
X163363368Y-108212474D03*
D42*
X167046250Y-114452400D03*
D41*
%TO.N,/IO/FPGA_IO47*%
X164172803Y-108196000D03*
X164142416Y-105979000D03*
D42*
X167853899Y-114508600D03*
X167840003Y-116735200D03*
D41*
%TO.N,/IO/FPGA_IO43*%
X160666270Y-105974200D03*
X159810381Y-108207079D03*
X159850866Y-113943799D03*
X159068838Y-115451799D03*
%TO.N,/IO/FPGA_IO42*%
X159000803Y-108200800D03*
X158189135Y-115451799D03*
X159856667Y-105974200D03*
X159050863Y-113943799D03*
%TO.N,/IO/FPGA_IO38*%
X158191200Y-108200800D03*
X158250860Y-113943799D03*
X159047064Y-105974200D03*
X157326218Y-115451799D03*
%TO.N,/IO/FPGA_IO37*%
X156905441Y-107374957D03*
X156526215Y-115451799D03*
X157450857Y-113943799D03*
X158331741Y-105595035D03*
D42*
%TO.N,/IO/FPGA_IO31*%
X169031599Y-91087597D03*
D41*
X156244107Y-101367402D03*
D42*
X171999192Y-91087597D03*
D41*
X163579427Y-90778886D03*
%TO.N,/IO/FPGA_IO11*%
X169036399Y-98215320D03*
D42*
X171999192Y-98507594D03*
%TO.N,/IO/FPGA_IO6*%
X171142000Y-106623328D03*
X170799565Y-102942399D03*
D41*
%TO.N,/IO/FPGA_IO19*%
X164065400Y-95959131D03*
D42*
X171999192Y-95269182D03*
D41*
X161413001Y-96083595D03*
X168041899Y-95250242D03*
%TO.N,/IO/FPGA_IO32*%
X155600090Y-101842000D03*
X163903713Y-90047558D03*
D42*
X171999192Y-90277994D03*
X169031599Y-90277994D03*
D41*
%TO.N,/IO/FPGA_IO10*%
X168961840Y-99011839D03*
D42*
X171999192Y-99317197D03*
D41*
%TO.N,/IO/FPGA_IO2*%
X166670198Y-104109199D03*
D42*
X171142000Y-109061206D03*
%TO.N,/IO/FPGA_IO21*%
X171999192Y-93649976D03*
D41*
X161185900Y-94527482D03*
%TO.N,/IO/FPGA_IO23*%
X161185900Y-93727479D03*
X158343600Y-96621600D03*
D42*
X171999192Y-92840373D03*
D41*
X159413001Y-95884842D03*
D42*
%TO.N,/IO/FPGA_IO12*%
X171999192Y-97697991D03*
D41*
X169036399Y-97415317D03*
%TO.N,/IO/FPGA_IO20*%
X161153556Y-95326830D03*
D42*
X171999192Y-94459579D03*
D41*
%TO.N,/IO/FPGA_IO28*%
X156633800Y-99669600D03*
D42*
X169031599Y-91897200D03*
X171999192Y-91897200D03*
D41*
X163571735Y-91586064D03*
%TO.N,/IO/FPGA_IO4*%
X166573200Y-102565200D03*
D42*
X171142000Y-107442000D03*
D41*
%TO.N,/IO/FPGA_IO13*%
X169036399Y-96615314D03*
D42*
X171999192Y-96888388D03*
D41*
%TO.N,/IO/FPGA_IO18*%
X161413001Y-96883598D03*
X164065401Y-96774000D03*
X168903425Y-95826442D03*
D42*
X171999192Y-96078785D03*
D41*
%TO.N,/IO/FPGA_IO3*%
X167420656Y-103810799D03*
D42*
X171142000Y-108251603D03*
D41*
%TO.N,/IO/FPGA_IO9*%
X167993764Y-98858634D03*
D42*
X171999192Y-100126800D03*
D41*
%TO.N,/RP2040/SQPI_SD1*%
X148127656Y-110342744D03*
X149320454Y-109905800D03*
%TO.N,/RP2040/SQPI_SD2*%
X148050454Y-108635800D03*
X146731370Y-109453030D03*
%TO.N,/RP2040/FPGA_CDONE*%
X149961600Y-92803600D03*
D42*
X151180800Y-91290800D03*
D41*
%TO.N,/RP2040/FPGA_CRESET*%
X166294835Y-99848435D03*
X170485392Y-100701674D03*
X150376501Y-91262332D03*
X149969034Y-93611037D03*
%TO.N,Net-(U5-{slash}HOLD_OR_{slash}RESET(IO3))*%
X165422200Y-88243740D03*
X163576000Y-88290400D03*
%TO.N,/RP2040/FPGA_CLK*%
X156439066Y-103707734D03*
X147432889Y-99884089D03*
X149607035Y-102363035D03*
X150029608Y-103327602D03*
%TO.N,/iCE40UP5K/SPI_SS*%
X161185900Y-92811600D03*
X162338300Y-92811600D03*
X156057600Y-93454600D03*
%TO.N,/iCE40UP5K/SPI_SCK*%
X162338300Y-92011597D03*
X161185900Y-92011597D03*
%TO.N,/RP2040/SPI_CS_FPGA*%
X147527068Y-102766601D03*
X145928482Y-101166600D03*
%TO.N,/iCE40UP5K/SPI_S0*%
X161185900Y-90858197D03*
X163565399Y-92806416D03*
%TD*%
D43*
%TO.N,+3V3*%
X158696368Y-96019000D02*
X157161700Y-96019000D01*
X157161700Y-96019000D02*
X156956900Y-96223800D01*
D44*
X156407206Y-96223800D02*
X156956900Y-96223800D01*
D43*
X158696368Y-96019000D02*
X159489201Y-96811833D01*
X156407206Y-96223800D02*
X153835502Y-96223800D01*
D44*
X156956900Y-96223800D02*
X158489200Y-97756100D01*
D43*
X153835502Y-96223800D02*
X153248600Y-96810702D01*
X153248600Y-96810702D02*
X153248600Y-96926400D01*
X159489201Y-96811833D02*
X159489201Y-97764600D01*
D45*
%TO.N,/iCE40UP5K/SPI_SS*%
X158476100Y-95521400D02*
X156057600Y-95521400D01*
X152180854Y-95036600D02*
X152790448Y-95036600D01*
X154372449Y-93454600D02*
X156057600Y-93454600D01*
X148132800Y-99084654D02*
X152180854Y-95036600D01*
X152790448Y-95036600D02*
X154372449Y-93454600D01*
X145675204Y-100584000D02*
X145316404Y-100942800D01*
X148132800Y-99084654D02*
X148132800Y-99999048D01*
X148132800Y-99999048D02*
X147547848Y-100584000D01*
X147547848Y-100584000D02*
X145675204Y-100584000D01*
X145316404Y-100942800D02*
X140230400Y-100942800D01*
D46*
%TO.N,+3V3*%
X148253602Y-112623600D02*
X144716500Y-112623600D01*
X154838400Y-110490000D02*
X154838400Y-109575600D01*
D43*
X134530541Y-98714874D02*
X135029753Y-98714874D01*
D46*
X146897801Y-93240301D02*
X146913600Y-93256100D01*
D43*
X130759200Y-99796102D02*
X130759200Y-99669600D01*
D46*
X154851100Y-102793099D02*
X154914600Y-102729599D01*
X138558026Y-107767600D02*
X138226800Y-107767600D01*
D43*
X137007600Y-98729600D02*
X137007600Y-99240000D01*
X133069513Y-106655687D02*
X132459913Y-106655687D01*
D46*
X138652402Y-111556800D02*
X138652402Y-110978798D01*
D43*
X154914600Y-99288600D02*
X154914600Y-99071999D01*
D46*
X126450600Y-90941400D02*
X126450600Y-90939984D01*
D43*
X140230400Y-100142799D02*
X142173201Y-100142799D01*
D46*
X154838400Y-107610199D02*
X154854199Y-107594400D01*
X153949400Y-104978200D02*
X154229041Y-104698559D01*
X169790399Y-87257075D02*
X169216625Y-86683301D01*
D43*
X136226801Y-104546400D02*
X136226801Y-103699383D01*
D46*
X159486600Y-86735699D02*
X158895001Y-86735699D01*
X169790399Y-99249598D02*
X169053598Y-99986399D01*
X159486600Y-86735699D02*
X161996600Y-86735699D01*
X154854199Y-107594400D02*
X154854199Y-106517999D01*
D43*
X136626800Y-94869200D02*
X136550400Y-94792800D01*
D46*
X125882400Y-90373200D02*
X125882400Y-83972400D01*
X134692000Y-91622200D02*
X135695400Y-92625600D01*
X150783600Y-101133600D02*
X151990201Y-99926999D01*
X152801402Y-92829298D02*
X153581100Y-92049600D01*
X152801402Y-93268800D02*
X152801402Y-92829298D01*
D43*
X137007600Y-99240000D02*
X137945898Y-99240000D01*
X135554879Y-99240000D02*
X137007600Y-99240000D01*
D46*
X168935400Y-94792099D02*
X169216625Y-94792099D01*
X165142199Y-114697799D02*
X166420800Y-115976400D01*
X139141200Y-108350774D02*
X138558026Y-107767600D01*
X169216625Y-86683301D02*
X168935400Y-86683301D01*
D43*
X165435399Y-104710799D02*
X164668200Y-103943600D01*
D46*
X154228800Y-113970499D02*
X154228800Y-111099600D01*
X142819600Y-113842800D02*
X142819600Y-111624900D01*
X158396600Y-106733000D02*
X156362159Y-104698559D01*
D43*
X134226800Y-104546400D02*
X133423200Y-103742800D01*
X140230400Y-100142799D02*
X139529902Y-100142799D01*
D46*
X162306000Y-85775099D02*
X162306000Y-87045099D01*
D43*
X139529902Y-100134300D02*
X139529902Y-100142799D01*
D46*
X139141200Y-110490000D02*
X139141200Y-108350774D01*
D43*
X136626800Y-98348800D02*
X137007600Y-98729600D01*
D46*
X163146479Y-114697799D02*
X153501500Y-114697799D01*
X154228800Y-111099600D02*
X154838400Y-110490000D01*
D43*
X134177547Y-100088950D02*
X134177547Y-99067868D01*
D46*
X146560501Y-90493100D02*
X144620800Y-90493100D01*
D43*
X156742721Y-100443600D02*
X157801700Y-100443600D01*
D46*
X156362159Y-104698559D02*
X154914600Y-103251000D01*
X126008332Y-90497716D02*
X126006916Y-90497716D01*
D43*
X136093200Y-107746800D02*
X136226801Y-107613199D01*
D44*
X153248600Y-96812964D02*
X153248600Y-96926400D01*
D43*
X139521400Y-100134300D02*
X139529902Y-100134300D01*
X130759200Y-105918000D02*
X132855200Y-105918000D01*
D46*
X147891528Y-98450400D02*
X143534374Y-98450400D01*
D43*
X155200599Y-102443600D02*
X157801700Y-102443600D01*
D46*
X153949400Y-105613200D02*
X153949400Y-104978200D01*
D43*
X140230400Y-103806800D02*
X140970000Y-104546400D01*
D46*
X169216625Y-94792099D02*
X169790399Y-94218325D01*
X142798800Y-99185974D02*
X142798800Y-99517200D01*
X162811099Y-85270000D02*
X162306000Y-85775099D01*
X163146479Y-114697799D02*
X165142199Y-114697799D01*
X161996600Y-86735699D02*
X162306000Y-87045099D01*
X165475799Y-106733000D02*
X158396600Y-106733000D01*
X153581100Y-92049600D02*
X155143200Y-90487500D01*
X154390826Y-99926999D02*
X154914600Y-99403225D01*
X137884001Y-113233200D02*
X124409200Y-113233200D01*
X153063200Y-97111800D02*
X153248600Y-96926400D01*
D43*
X133423200Y-100142799D02*
X131105897Y-100142799D01*
D46*
X126006916Y-90497716D02*
X125882400Y-90373200D01*
D43*
X136790235Y-103135949D02*
X138923048Y-103135949D01*
X136226801Y-107613199D02*
X136226801Y-104546400D01*
X138923048Y-103135949D02*
X139293600Y-103506501D01*
D46*
X147828000Y-92049600D02*
X152928402Y-92049600D01*
X129361200Y-95859600D02*
X128685000Y-95183400D01*
X147828000Y-92341700D02*
X146913600Y-93256100D01*
D43*
X139141200Y-98602800D02*
X139521400Y-98983000D01*
X136626800Y-97739200D02*
X136626800Y-98348800D01*
D46*
X149472802Y-114124025D02*
X150046576Y-114697799D01*
X138652402Y-110978798D02*
X139141200Y-110490000D01*
X135695400Y-94395000D02*
X136093200Y-94792800D01*
D43*
X133076800Y-104089200D02*
X133423200Y-103742800D01*
D46*
X152419871Y-97111800D02*
X153063200Y-97111800D01*
X168935400Y-86683301D02*
X167522099Y-85270000D01*
X130911600Y-95859600D02*
X129361200Y-95859600D01*
X130179400Y-91622200D02*
X134692000Y-91622200D01*
X168935400Y-94792099D02*
X169790399Y-95647098D01*
X142819600Y-111624900D02*
X143268700Y-111175800D01*
X129844800Y-91287600D02*
X130179400Y-91622200D01*
X150046576Y-114697799D02*
X153501500Y-114697799D01*
D43*
X154914600Y-102729599D02*
X155200599Y-102443600D01*
D46*
X153949400Y-105328774D02*
X153266426Y-104645800D01*
X131978400Y-94792800D02*
X130911600Y-95859600D01*
D43*
X139529899Y-103742800D02*
X140230400Y-103742800D01*
D46*
X149472802Y-113842800D02*
X148253602Y-112623600D01*
X129082800Y-83210400D02*
X129844800Y-83972400D01*
D43*
X134123698Y-100142799D02*
X134177547Y-100088950D01*
X136226801Y-103699383D02*
X136790235Y-103135949D01*
X132855200Y-105918000D02*
X134226800Y-104546400D01*
X132459913Y-106655687D02*
X131368800Y-107746800D01*
X130759200Y-104089200D02*
X133076800Y-104089200D01*
D46*
X150831564Y-95510364D02*
X152801402Y-93540526D01*
D43*
X136626800Y-97739200D02*
X136626800Y-94869200D01*
D46*
X128685000Y-93175800D02*
X126450600Y-90941400D01*
X167522099Y-85270000D02*
X162811099Y-85270000D01*
D43*
X133423200Y-103742800D02*
X134123701Y-103742800D01*
X134416800Y-103449701D02*
X134416800Y-100435901D01*
X139293600Y-100379101D02*
X139293600Y-103506501D01*
X155986601Y-100360601D02*
X154914600Y-99288600D01*
X139521400Y-98983000D02*
X139521400Y-100134300D01*
X134123698Y-100142799D02*
X133423200Y-100142799D01*
D46*
X144716500Y-112623600D02*
X143268700Y-111175800D01*
D43*
X137945898Y-99240000D02*
X138583098Y-98602800D01*
D46*
X158895001Y-86735699D02*
X155143200Y-90487500D01*
X154854199Y-106517999D02*
X153949400Y-105613200D01*
D43*
X134416800Y-100435901D02*
X134123698Y-100142799D01*
D46*
X142819600Y-113842800D02*
X142210000Y-113233200D01*
X154914600Y-103251000D02*
X154914600Y-102729599D01*
X151990201Y-99926999D02*
X154390826Y-99926999D01*
D43*
X140230400Y-103742800D02*
X140230400Y-103806800D01*
D46*
X126450600Y-90939984D02*
X126008332Y-90497716D01*
X149472802Y-113842800D02*
X149472802Y-114124025D01*
D43*
X139529902Y-100142799D02*
X139293600Y-100379101D01*
D46*
X154838400Y-109575600D02*
X154838400Y-107610199D01*
D43*
X134123701Y-103742800D02*
X134416800Y-103449701D01*
X140970000Y-104546400D02*
X142646400Y-104546400D01*
D46*
X153501500Y-114697799D02*
X154228800Y-113970499D01*
D43*
X134622601Y-105102599D02*
X133069513Y-106655687D01*
D46*
X153266426Y-104645800D02*
X152105390Y-104645800D01*
X174447200Y-115976400D02*
X176022000Y-117551200D01*
X147828000Y-92049600D02*
X147828000Y-92341700D01*
D43*
X142173201Y-100142799D02*
X142798800Y-99517200D01*
D46*
X150783600Y-103324009D02*
X150783600Y-101133600D01*
D43*
X154914600Y-102729599D02*
X154914600Y-102613901D01*
X139293600Y-103506501D02*
X139529899Y-103742800D01*
D46*
X146897801Y-91119401D02*
X147828000Y-92049600D01*
X138652402Y-112464799D02*
X138652402Y-111556800D01*
X128685000Y-95183400D02*
X128685000Y-93175800D01*
D43*
X135029753Y-98714874D02*
X135554879Y-99240000D01*
X167498000Y-104710799D02*
X165435399Y-104710799D01*
D46*
X150831564Y-95510364D02*
X147891528Y-98450400D01*
X124409200Y-113233200D02*
X120091200Y-117551200D01*
D43*
X134622601Y-104546400D02*
X134622601Y-105102599D01*
D46*
X152801402Y-93540526D02*
X152801402Y-93268800D01*
X135695400Y-92625600D02*
X135695400Y-94395000D01*
X146897801Y-90830400D02*
X146560501Y-90493100D01*
X152105390Y-104645800D02*
X150783600Y-103324009D01*
X169790399Y-95647098D02*
X169790399Y-99249598D01*
X142210000Y-113233200D02*
X139293600Y-113233200D01*
X125882400Y-83972400D02*
X126644400Y-83210400D01*
X136093200Y-94792800D02*
X136550400Y-94792800D01*
X126644400Y-83210400D02*
X129082800Y-83210400D01*
D43*
X138226800Y-107767600D02*
X136622600Y-106163400D01*
D46*
X138652402Y-112464799D02*
X137884001Y-113233200D01*
X139293600Y-113233200D02*
X138652402Y-112592002D01*
D43*
X136226801Y-104546400D02*
X136622600Y-104546400D01*
D46*
X167498000Y-104710799D02*
X165475799Y-106733000D01*
X129844800Y-83972400D02*
X129844800Y-91287600D01*
D43*
X136622600Y-106163400D02*
X136622600Y-104546400D01*
X134226800Y-104546400D02*
X134622601Y-104546400D01*
X134177547Y-99067868D02*
X134530541Y-98714874D01*
D46*
X166420800Y-115976400D02*
X174447200Y-115976400D01*
D43*
X155986601Y-100360601D02*
X156659723Y-100360601D01*
D46*
X169790399Y-94218325D02*
X169790399Y-87257075D01*
X146897801Y-90830400D02*
X146897801Y-91119401D01*
X138652402Y-112592002D02*
X138652402Y-112464799D01*
D43*
X138583098Y-98602800D02*
X139141200Y-98602800D01*
D46*
X152928402Y-92049600D02*
X153581100Y-92049600D01*
X143534374Y-98450400D02*
X142798800Y-99185974D01*
X154914600Y-99403225D02*
X154914600Y-99071999D01*
D43*
X142646400Y-104546400D02*
X142798800Y-104698800D01*
X156659723Y-100360601D02*
X156742721Y-100443600D01*
X131105897Y-100142799D02*
X130759200Y-99796102D01*
D46*
X153949400Y-105613200D02*
X153949400Y-105328774D01*
D45*
%TO.N,GND*%
X134533054Y-93137200D02*
X133772053Y-92376199D01*
X126139996Y-93878400D02*
X127224200Y-93878400D01*
X134569200Y-93137200D02*
X134533054Y-93137200D01*
X169153600Y-104710799D02*
X169761601Y-104710799D01*
D43*
X128320800Y-105918000D02*
X127863600Y-105460800D01*
D45*
X156673303Y-111562903D02*
X156673303Y-112766000D01*
D43*
X129103600Y-99669600D02*
X128016000Y-99669600D01*
D45*
X153259000Y-102729599D02*
X152259599Y-102729599D01*
X169087800Y-102424799D02*
X169792818Y-102424799D01*
X145542000Y-99517200D02*
X144454400Y-99517200D01*
D43*
X144454400Y-104982800D02*
X145389600Y-105918000D01*
D45*
X136895304Y-101142800D02*
X138833704Y-99204400D01*
D43*
X138226800Y-109880400D02*
X137617200Y-110490000D01*
D45*
X152259599Y-102729599D02*
X152247600Y-102717600D01*
D43*
X136550400Y-93137200D02*
X136550400Y-92423876D01*
X144454400Y-104698800D02*
X144454400Y-104982800D01*
D45*
X155388399Y-78578799D02*
X155295600Y-78486000D01*
D43*
X129103600Y-104089200D02*
X128526070Y-104089200D01*
D45*
X162413950Y-112731550D02*
X162306000Y-112623600D01*
D43*
X168965798Y-107056002D02*
X168965798Y-108005798D01*
X131368800Y-109296200D02*
X131368800Y-110490000D01*
X136093200Y-109402400D02*
X136093200Y-110490000D01*
X136261600Y-89474800D02*
X136245600Y-89458800D01*
X151252002Y-93268800D02*
X151252002Y-93959598D01*
D45*
X137826801Y-97739200D02*
X137826801Y-98430980D01*
X169761601Y-104710799D02*
X170094365Y-104378035D01*
X153259000Y-100900799D02*
X152259599Y-100900799D01*
X162363150Y-110394750D02*
X162306000Y-110337600D01*
X137826801Y-98430980D02*
X137624064Y-98633717D01*
X144475200Y-113842800D02*
X145694400Y-113842800D01*
X162413950Y-113609202D02*
X162413950Y-112731550D01*
X153259000Y-99071999D02*
X152259599Y-99071999D01*
X144867086Y-78038800D02*
X144867086Y-78856114D01*
D43*
X168965798Y-108005798D02*
X169011600Y-108051600D01*
X169016598Y-109189602D02*
X169016598Y-110037798D01*
X136261600Y-90678000D02*
X136261600Y-89474800D01*
D45*
X152259599Y-99071999D02*
X152247600Y-99060000D01*
D43*
X160781299Y-88391299D02*
X160782000Y-88392000D01*
X147675600Y-84710798D02*
X147675600Y-85801200D01*
X169016598Y-110037798D02*
X169468800Y-110490000D01*
X133502400Y-109362000D02*
X133502400Y-110145030D01*
D45*
X156874657Y-111099600D02*
X156874657Y-111361549D01*
X139003885Y-78578799D02*
X140453199Y-78578799D01*
X140453199Y-78578799D02*
X140512800Y-78638400D01*
X154904200Y-96926400D02*
X156057600Y-96926400D01*
D43*
X150558500Y-107365800D02*
X150558500Y-106387900D01*
D45*
X155295600Y-82810350D02*
X155295600Y-84105750D01*
X151267086Y-79371818D02*
X151267086Y-78038800D01*
X154193199Y-88738649D02*
X154228800Y-88774250D01*
X165165999Y-112506801D02*
X165049200Y-112623600D01*
X156834685Y-78578799D02*
X155388399Y-78578799D01*
D43*
X136550400Y-92423876D02*
X136295123Y-92168599D01*
D45*
X154193199Y-87782400D02*
X154193199Y-88738649D01*
D43*
X150558500Y-106387900D02*
X150571200Y-106375200D01*
D45*
X136826800Y-101142800D02*
X136895304Y-101142800D01*
D43*
X138226800Y-90678000D02*
X138226800Y-91547529D01*
D45*
X169792818Y-102424799D02*
X170066320Y-102151297D01*
X147993100Y-103976970D02*
X148768835Y-103201235D01*
D44*
X151028400Y-84112100D02*
X151028400Y-82905600D01*
D45*
X152259599Y-100900799D02*
X152247600Y-100888800D01*
D43*
X129103600Y-105918000D02*
X128320800Y-105918000D01*
D45*
X162363150Y-111475602D02*
X162363150Y-110394750D01*
X147993100Y-104698800D02*
X147993100Y-103976970D01*
D43*
X133502400Y-110145030D02*
X133177515Y-110469915D01*
D45*
X144867086Y-78856114D02*
X144170400Y-79552800D01*
X156874657Y-111361549D02*
X156673303Y-111562903D01*
D43*
X166116000Y-94334899D02*
X166116000Y-92811600D01*
X140208000Y-109423200D02*
X140208000Y-110490000D01*
X138226800Y-91547529D02*
X137773600Y-92000729D01*
X146799300Y-96926400D02*
X146913600Y-96926400D01*
X159486600Y-88391299D02*
X160781299Y-88391299D01*
D45*
X151600468Y-79705200D02*
X151267086Y-79371818D01*
D43*
X146913600Y-96926400D02*
X148132800Y-95707200D01*
X151252002Y-93959598D02*
X150571200Y-94640400D01*
X138226800Y-109423200D02*
X138226800Y-109880400D01*
D45*
X151638000Y-79705200D02*
X151600468Y-79705200D01*
X153162000Y-84194650D02*
X153162000Y-82835750D01*
D43*
X128526070Y-104089200D02*
X127890035Y-104725235D01*
D45*
X166287450Y-112506801D02*
X165165999Y-112506801D01*
D46*
%TO.N,+5V*%
X170383200Y-114452400D02*
X170383200Y-106159610D01*
X151325268Y-80460200D02*
X157131400Y-80460200D01*
X157276800Y-75133200D02*
X138836400Y-75133200D01*
X150467085Y-79602017D02*
X151325268Y-80460200D01*
X145667085Y-79123847D02*
X144483132Y-80307800D01*
X170383200Y-106159610D02*
X171558365Y-104984444D01*
X163963350Y-111475602D02*
X166206252Y-111475602D01*
X149809200Y-79763386D02*
X149809200Y-88368425D01*
X159071400Y-83854200D02*
X159071400Y-82400200D01*
X171558365Y-101332379D02*
X171240392Y-101014406D01*
X158191200Y-76047600D02*
X157276800Y-75133200D01*
X156895800Y-86029800D02*
X155143200Y-87782400D01*
X156610050Y-85744050D02*
X153162000Y-85744050D01*
X155376798Y-85787148D02*
X155295600Y-85705950D01*
X159071400Y-83854200D02*
X156895800Y-86029800D01*
X145667085Y-78038800D02*
X145667085Y-79123847D01*
X155321000Y-85731350D02*
X155295600Y-85705950D01*
X137617200Y-79393400D02*
X138531600Y-80307800D01*
X137617200Y-80307800D02*
X126027800Y-80307800D01*
X144483132Y-80307800D02*
X137617200Y-80307800D01*
X166287450Y-113456802D02*
X166287450Y-114829250D01*
X166287450Y-113456802D02*
X164115750Y-113456802D01*
X138836400Y-75133200D02*
X137617200Y-76352400D01*
X149809200Y-88368425D02*
X150747175Y-89306400D01*
X150467085Y-79105501D02*
X150467085Y-79602017D01*
X137617200Y-76352400D02*
X137617200Y-79393400D01*
X171240392Y-101014406D02*
X171240392Y-86405082D01*
X150467085Y-79105501D02*
X150467085Y-78038800D01*
X159071400Y-82400200D02*
X157131400Y-80460200D01*
X150467085Y-79105501D02*
X149809200Y-79763386D01*
X171558365Y-104984444D02*
X171558365Y-101332379D01*
X158191200Y-79400400D02*
X158191200Y-76047600D01*
X169568200Y-115267400D02*
X170383200Y-114452400D01*
X164115750Y-113456802D02*
X163963350Y-113609202D01*
X163963350Y-113609202D02*
X163963350Y-111475602D01*
X150747175Y-89306400D02*
X151028400Y-89306400D01*
X126027800Y-80307800D02*
X120091200Y-74371200D01*
X168689510Y-83854200D02*
X159071400Y-83854200D01*
X156895800Y-86029800D02*
X156610050Y-85744050D01*
X171240392Y-86405082D02*
X168689510Y-83854200D01*
X166725600Y-115267400D02*
X169568200Y-115267400D01*
X166287450Y-114829250D02*
X166725600Y-115267400D01*
X166206252Y-111475602D02*
X166287450Y-111556800D01*
X155257500Y-85744050D02*
X155295600Y-85705950D01*
X157131400Y-80460200D02*
X158191200Y-79400400D01*
D43*
%TO.N,+1V2*%
X156492297Y-100764801D02*
X155050598Y-100764801D01*
D46*
X167432200Y-102756025D02*
X167432200Y-102424799D01*
X170849365Y-104065303D02*
X170849365Y-104690767D01*
X170263662Y-103479600D02*
X170849365Y-104065303D01*
D43*
X167432200Y-102424799D02*
X166951002Y-101943601D01*
X166951002Y-101943601D02*
X164668200Y-101943601D01*
D46*
X151492600Y-102404868D02*
X152141669Y-101755799D01*
X152141669Y-101755799D02*
X154390826Y-101755799D01*
X168155775Y-103479600D02*
X167432200Y-102756025D01*
X158038800Y-107442000D02*
X154533600Y-103936800D01*
X154390826Y-101755799D02*
X154914600Y-101232025D01*
X154533600Y-103936800D02*
X152399068Y-103936800D01*
X167416398Y-106598802D02*
X168097200Y-105918000D01*
X168992550Y-111090075D02*
X167416398Y-109513923D01*
X152399068Y-103936800D02*
X151492600Y-103030332D01*
X170849365Y-104690767D02*
X169622132Y-105918000D01*
X168155775Y-103479600D02*
X170263662Y-103479600D01*
X169622132Y-105918000D02*
X168097200Y-105918000D01*
D43*
X157810200Y-100943600D02*
X156671096Y-100943600D01*
D46*
X168992550Y-111556800D02*
X168992550Y-111090075D01*
X167416398Y-107056002D02*
X167416398Y-106598802D01*
X154914600Y-101232025D02*
X154914600Y-100900799D01*
X167030400Y-107442000D02*
X158038800Y-107442000D01*
D43*
X155050598Y-100764801D02*
X154914600Y-100900799D01*
D46*
X151492600Y-103030332D02*
X151492600Y-102404868D01*
D43*
X156671096Y-100943600D02*
X156492297Y-100764801D01*
D46*
X167416398Y-107056002D02*
X167030400Y-107442000D01*
X167416398Y-107056002D02*
X167416398Y-109189602D01*
D43*
X154957401Y-100943600D02*
X154914600Y-100900799D01*
D46*
X167416398Y-109513923D02*
X167416398Y-109189602D01*
D43*
%TO.N,/RP2040/VREG_VOUT*%
X135026801Y-103845899D02*
X134821000Y-103640098D01*
X136222600Y-96446200D02*
X136222600Y-97739200D01*
X134821000Y-99358327D02*
X134780147Y-99317474D01*
X135286662Y-103586038D02*
X135026801Y-103845899D01*
X137039841Y-103738549D02*
X137039841Y-103837456D01*
D45*
X136226801Y-98453608D02*
X136054442Y-98625967D01*
D43*
X137026800Y-105995974D02*
X138168026Y-107137200D01*
X134821000Y-103640098D02*
X134821000Y-99364800D01*
X138168026Y-107137200D02*
X139293600Y-107137200D01*
X134569200Y-94792800D02*
X136222600Y-96446200D01*
X137026800Y-104546400D02*
X137026800Y-105995974D01*
X134821000Y-99364800D02*
X134821000Y-99358327D01*
X139924000Y-107767600D02*
X140208000Y-107767600D01*
X139293600Y-107137200D02*
X139924000Y-107767600D01*
X133502400Y-107812600D02*
X133502400Y-106984800D01*
X137039841Y-103837456D02*
X137026800Y-103850497D01*
X135026801Y-105460399D02*
X135026801Y-104546400D01*
X135026801Y-103845899D02*
X135026801Y-104546400D01*
X137026800Y-103850497D02*
X137026800Y-104546400D01*
D45*
X136226801Y-97739200D02*
X136226801Y-98453608D01*
D43*
X135635974Y-103586038D02*
X135286662Y-103586038D01*
X133502400Y-106984800D02*
X135026801Y-105460399D01*
D45*
%TO.N,/RP2040/XIN*%
X137426799Y-97739200D02*
X137426799Y-96659601D01*
X137818200Y-96268200D02*
X137818200Y-92771000D01*
X139758800Y-90830400D02*
X139766800Y-90830400D01*
X137426799Y-96659601D02*
X137818200Y-96268200D01*
X137818200Y-92771000D02*
X139758800Y-90830400D01*
X142798800Y-87509600D02*
X142798800Y-86258400D01*
X139766800Y-90541600D02*
X142798800Y-87509600D01*
X139766800Y-90830400D02*
X139766800Y-90541600D01*
%TO.N,/RP2040/XOUT*%
X137026800Y-97739200D02*
X137026800Y-96297600D01*
X137464800Y-92506800D02*
X136550400Y-91592400D01*
X134721600Y-90678000D02*
X132740400Y-90678000D01*
X137464800Y-95859600D02*
X137464800Y-92506800D01*
X136550400Y-91592400D02*
X135483600Y-91592400D01*
X134721600Y-90830400D02*
X134721600Y-90678000D01*
X137026800Y-96297600D02*
X137464800Y-95859600D01*
X135483600Y-91592400D02*
X134721600Y-90830400D01*
%TO.N,Net-(D1-Pad1)*%
X144627600Y-93268800D02*
X144627600Y-91199900D01*
X144627600Y-91199900D02*
X144620800Y-91193100D01*
%TO.N,Net-(D1-Pad2)*%
X142494000Y-93268800D02*
X142494000Y-91199900D01*
X142494000Y-91199900D02*
X142500800Y-91193100D01*
%TO.N,Net-(D1-Pad4)*%
X141610292Y-91804267D02*
X141610295Y-91950650D01*
X141610292Y-91149248D02*
X141610292Y-91804267D01*
X141610292Y-92012558D02*
X140366750Y-93256100D01*
X140366750Y-93256100D02*
X140360400Y-93256100D01*
X142500800Y-90493100D02*
X142266440Y-90493100D01*
X141610292Y-91950656D02*
X141610292Y-92012558D01*
X142266440Y-90493100D02*
X141610292Y-91149248D01*
X141610295Y-91950650D02*
X141610292Y-91950656D01*
%TO.N,Net-(J1-CC1)*%
X156834685Y-77023201D02*
X155554284Y-75742800D01*
X155554284Y-75742800D02*
X150418800Y-75742800D01*
X149317085Y-76844515D02*
X149317085Y-78038800D01*
X150418800Y-75742800D02*
X149317085Y-76844515D01*
%TO.N,/Power/USB_DP*%
X136575800Y-112115600D02*
X136067800Y-112623600D01*
X144128440Y-82505744D02*
X144129855Y-82505744D01*
X130302000Y-112090200D02*
X130302000Y-111002483D01*
X147795600Y-76384800D02*
X148622400Y-76384800D01*
X144467970Y-82167629D02*
X144467970Y-82166214D01*
X126138600Y-81735000D02*
X142542600Y-81735000D01*
X142542600Y-81735000D02*
X143664600Y-82857000D01*
X147642285Y-76538115D02*
X147795600Y-76384800D01*
X147642285Y-77201085D02*
X147642285Y-76538115D01*
X144129855Y-82505744D02*
X144467970Y-82167629D01*
X130835400Y-112623600D02*
X130302000Y-112090200D01*
X136575800Y-111556800D02*
X136575800Y-112115600D01*
X124766000Y-83107600D02*
X126138600Y-81735000D01*
X147817085Y-77375885D02*
X147642285Y-77201085D01*
X143777184Y-82857000D02*
X144128440Y-82505744D01*
X147817085Y-78038800D02*
X147817085Y-77375885D01*
X124766000Y-105466483D02*
X124766000Y-83107600D01*
X144467970Y-82166214D02*
X147817085Y-78817099D01*
X136067800Y-112623600D02*
X130835400Y-112623600D01*
X143664600Y-82857000D02*
X143777184Y-82857000D01*
X147817085Y-78817099D02*
X147817085Y-78038800D01*
X148817086Y-76579486D02*
X148817086Y-78038800D01*
X148622400Y-76384800D02*
X148817086Y-76579486D01*
X130302000Y-111002483D02*
X124766000Y-105466483D01*
%TO.N,/Power/USB_DN*%
X147246685Y-77157319D02*
X147246685Y-77968401D01*
X126284984Y-82088400D02*
X142286400Y-82088400D01*
X148317085Y-78911315D02*
X148317085Y-78038800D01*
X125119400Y-105320100D02*
X125119400Y-83253984D01*
X142286400Y-82088400D02*
X143408400Y-83210400D01*
X147066085Y-76976719D02*
X147246685Y-77157319D01*
X148317085Y-77059600D02*
X148219485Y-76962000D01*
X144018000Y-83210400D02*
X148317085Y-78911315D01*
X131356100Y-111556800D02*
X125119400Y-105320100D01*
X148317085Y-78038800D02*
X148317085Y-77059600D01*
X147246685Y-77968401D02*
X147317084Y-78038800D01*
X143408400Y-83210400D02*
X144018000Y-83210400D01*
X125119400Y-83253984D02*
X126284984Y-82088400D01*
%TO.N,Net-(J1-CC2)*%
X140284286Y-75742800D02*
X145237200Y-75742800D01*
X139003885Y-77023201D02*
X140284286Y-75742800D01*
X146317086Y-76822686D02*
X146317086Y-78038800D01*
X145237200Y-75742800D02*
X146317086Y-76822686D01*
%TO.N,/RP2040/SWDIO*%
X135426800Y-96685888D02*
X134801512Y-96060600D01*
X133855800Y-96060600D02*
X133149000Y-95353799D01*
X134801512Y-96060600D02*
X133855800Y-96060600D01*
X129082800Y-92506800D02*
X127863600Y-91287600D01*
X133149000Y-93067800D02*
X132588000Y-92506800D01*
X132588000Y-92506800D02*
X129082800Y-92506800D01*
X133149000Y-95353799D02*
X133149000Y-93067800D01*
X127863600Y-91287600D02*
X127863600Y-90068400D01*
X135426800Y-97739200D02*
X135426800Y-96685888D01*
%TO.N,/RP2040/SWCLK*%
X133502400Y-92921416D02*
X132734383Y-92153400D01*
X133502400Y-95207416D02*
X133502400Y-92921416D01*
X134947895Y-95707200D02*
X134002184Y-95707200D01*
X134002184Y-95707200D02*
X133502400Y-95207416D01*
X132734383Y-92153400D02*
X129643800Y-92153400D01*
X129643800Y-92153400D02*
X129082800Y-91592400D01*
X135826799Y-97739200D02*
X135826799Y-96586103D01*
X135826799Y-96586103D02*
X134947895Y-95707200D01*
X129082800Y-91592400D02*
X129082800Y-86207600D01*
X129082800Y-86207600D02*
X127863600Y-84988400D01*
%TO.N,/IO/GPIO27*%
X133423200Y-102542800D02*
X126291967Y-102542800D01*
X126291967Y-102542800D02*
X125711882Y-103122885D01*
X120091200Y-109762406D02*
X120091200Y-109931200D01*
X124173518Y-103098018D02*
X123139200Y-104132336D01*
X125711882Y-103122885D02*
X125695600Y-103122885D01*
X124189800Y-103098018D02*
X124173518Y-103098018D01*
X123139200Y-104132336D02*
X123139200Y-106883200D01*
X123139200Y-106883200D02*
X120091200Y-109931200D01*
%TO.N,/IO/GPIO22*%
X121958003Y-99098003D02*
X120091200Y-97231200D01*
X125695599Y-99122871D02*
X125711882Y-99139154D01*
X124189800Y-99098003D02*
X121958003Y-99098003D01*
X133423200Y-100542801D02*
X128072916Y-100542801D01*
X128072916Y-100542801D02*
X126652986Y-99122871D01*
X126652986Y-99122871D02*
X125695599Y-99122871D01*
%TO.N,/IO/GPIO14*%
X142105368Y-89202600D02*
X145341000Y-89202600D01*
X138626799Y-97739200D02*
X138626799Y-93063785D01*
X145341000Y-89202600D02*
X145664600Y-88879000D01*
X124104400Y-80924400D02*
X120091200Y-76911200D01*
X140903492Y-90404476D02*
X142105368Y-89202600D01*
X139592385Y-92098200D02*
X140525082Y-92098200D01*
X140903489Y-91719793D02*
X140903486Y-91511515D01*
X144456457Y-81362857D02*
X144018000Y-80924400D01*
X145664600Y-88879000D02*
X145664600Y-82506426D01*
X140903492Y-91511504D02*
X140903492Y-90404476D01*
X138626799Y-93063785D02*
X139592385Y-92098200D01*
X144018000Y-80924400D02*
X124104400Y-80924400D01*
X145664600Y-82506426D02*
X145600722Y-82442548D01*
X140903486Y-91511515D02*
X140903492Y-91511504D01*
X140525082Y-92098200D02*
X140903489Y-91719793D01*
%TO.N,/IO/GPIO15*%
X139446002Y-91744800D02*
X140378698Y-91744800D01*
X138226800Y-97739200D02*
X138226800Y-92964000D01*
X141958984Y-88849200D02*
X145084800Y-88849200D01*
X138226800Y-92964000D02*
X139446002Y-91744800D01*
X122021600Y-81381600D02*
X120091200Y-79451200D01*
X140550092Y-91365125D02*
X140550092Y-90258092D01*
X140378698Y-91744800D02*
X140550086Y-91573412D01*
X145084800Y-88849200D02*
X145311200Y-88622800D01*
X145311200Y-83284400D02*
X145035035Y-83008235D01*
X140550084Y-91365137D02*
X140550092Y-91365125D01*
X145311200Y-88622800D02*
X145311200Y-83284400D01*
X143890770Y-81928544D02*
X143343826Y-81381600D01*
X143343826Y-81381600D02*
X122021600Y-81381600D01*
X140550092Y-90258092D02*
X141958984Y-88849200D01*
X140550086Y-91573412D02*
X140550084Y-91365137D01*
%TO.N,/IO/GPIO25*%
X123444388Y-101498012D02*
X120091200Y-104851200D01*
X124189800Y-101498012D02*
X123444388Y-101498012D01*
X133423200Y-101742799D02*
X125915520Y-101742799D01*
X125915520Y-101742799D02*
X125695600Y-101522879D01*
%TO.N,/IO/GPIO19*%
X131508000Y-97827600D02*
X129692400Y-97827600D01*
X129692400Y-97827600D02*
X126848730Y-97827599D01*
X133423200Y-98942799D02*
X132623199Y-98942799D01*
X126848730Y-97827599D02*
X125695600Y-96674469D01*
X132179400Y-98499000D02*
X131508000Y-97827600D01*
X122905800Y-95391885D02*
X122905800Y-92425800D01*
X122905800Y-92425800D02*
X120091200Y-89611200D01*
X124173518Y-96659603D02*
X122905800Y-95391885D01*
X124189800Y-96659603D02*
X124173518Y-96659603D01*
X132623199Y-98942799D02*
X132179400Y-98499000D01*
%TO.N,/IO/GPIO28*%
X133423200Y-102942799D02*
X126691971Y-102942799D01*
X123596400Y-104467173D02*
X123596400Y-108966000D01*
X124165552Y-103898021D02*
X123596400Y-104467173D01*
X125711882Y-103922888D02*
X125695600Y-103922888D01*
X124189800Y-103898021D02*
X124165552Y-103898021D01*
X126691971Y-102942799D02*
X125711882Y-103922888D01*
X123596400Y-108966000D02*
X120091200Y-112471200D01*
%TO.N,/IO/GPIO18*%
X130302000Y-97474199D02*
X127310199Y-97474199D01*
X124189800Y-95859600D02*
X123259200Y-94929000D01*
X123259200Y-94929000D02*
X123259200Y-90239200D01*
X123259200Y-90239200D02*
X120091200Y-87071200D01*
X133423200Y-98542800D02*
X132354600Y-97474200D01*
X127310199Y-97474199D02*
X125695600Y-95859600D01*
X132354600Y-97474200D02*
X130302000Y-97474199D01*
%TO.N,/IO/GPIO17*%
X126310160Y-92051974D02*
X125730102Y-92051974D01*
X127800400Y-95549813D02*
X127800400Y-93542214D01*
X133608400Y-97120800D02*
X129371386Y-97120800D01*
X124189800Y-92087603D02*
X124173518Y-92087603D01*
X129371386Y-97120800D02*
X127800400Y-95549813D01*
X124173518Y-92087603D02*
X123612600Y-91526685D01*
X134226800Y-97739200D02*
X133608400Y-97120800D01*
X123612600Y-88052600D02*
X120091200Y-84531200D01*
X127800400Y-93542214D02*
X126310160Y-92051974D01*
X123612600Y-91526685D02*
X123612600Y-88052600D01*
%TO.N,/IO/GPIO21*%
X125925791Y-98534399D02*
X125714483Y-98323091D01*
X132313816Y-99742800D02*
X131804708Y-99233692D01*
X131804708Y-99233692D02*
X131105416Y-98534400D01*
X128168400Y-98534399D02*
X125925791Y-98534399D01*
X133423200Y-99742800D02*
X132313816Y-99742800D01*
X124189800Y-98298000D02*
X123698000Y-98298000D01*
X123698000Y-98298000D02*
X120091200Y-94691200D01*
X131105416Y-98534400D02*
X128168400Y-98534399D01*
%TO.N,/IO/GPIO26*%
X122785800Y-103680600D02*
X122785800Y-104696600D01*
X124189800Y-102298015D02*
X124168385Y-102298015D01*
X133423200Y-102142801D02*
X125875681Y-102142801D01*
X125875681Y-102142801D02*
X125695600Y-102322882D01*
X124168385Y-102298015D02*
X122785800Y-103680600D01*
X124189800Y-102298015D02*
X124040803Y-102447012D01*
X122785800Y-104696600D02*
X120091200Y-107391200D01*
%TO.N,/IO/GPIO23*%
X133389300Y-100976700D02*
X133423200Y-100942800D01*
X127460400Y-100942800D02*
X126440473Y-99922873D01*
X124189800Y-99898006D02*
X124062994Y-99771200D01*
X124062994Y-99771200D02*
X120091200Y-99771200D01*
X126440473Y-99922873D02*
X125695600Y-99922873D01*
X133423200Y-100942800D02*
X127460400Y-100942800D01*
%TO.N,/IO/GPIO29*%
X127238399Y-103342801D02*
X125858309Y-104722891D01*
X125858309Y-104722891D02*
X125695600Y-104722891D01*
X124053600Y-104826258D02*
X124053600Y-111048800D01*
X124181874Y-104697984D02*
X124053600Y-104826258D01*
X133423200Y-103342801D02*
X127238399Y-103342801D01*
X124053600Y-111048800D02*
X120091200Y-115011200D01*
%TO.N,/IO/GPIO24*%
X126777412Y-101342800D02*
X126157488Y-100722876D01*
X126157488Y-100722876D02*
X125695600Y-100722876D01*
X133423200Y-101342800D02*
X126777412Y-101342800D01*
X124189800Y-100698009D02*
X121704391Y-100698009D01*
X121704391Y-100698009D02*
X120091200Y-102311200D01*
%TO.N,/IO/GPIO20*%
X124189800Y-97459606D02*
X124173518Y-97459606D01*
X127711200Y-98180999D02*
X126387261Y-98180999D01*
X133423200Y-99342801D02*
X132413601Y-99342801D01*
X126387261Y-98180999D02*
X125695600Y-97489338D01*
X131251800Y-98181000D02*
X127711200Y-98180999D01*
X124173518Y-97459606D02*
X122552400Y-95838488D01*
X122552400Y-94612400D02*
X120091200Y-92151200D01*
X131923200Y-98852400D02*
X131251800Y-98181000D01*
X122552400Y-95838488D02*
X122552400Y-94612400D01*
X132413601Y-99342801D02*
X131923200Y-98852400D01*
%TO.N,/IO/GPIO16*%
X128153800Y-95403430D02*
X128153800Y-93395830D01*
X126010685Y-91252716D02*
X125695600Y-91252716D01*
X134204915Y-96767400D02*
X129517770Y-96767400D01*
X134626799Y-97739200D02*
X134626799Y-97189284D01*
X123966000Y-91063800D02*
X123966000Y-85866000D01*
X128153800Y-93395830D02*
X126010685Y-91252716D01*
X129517770Y-96767400D02*
X128153800Y-95403430D01*
X134626799Y-97189284D02*
X134204915Y-96767400D01*
X123966000Y-85866000D02*
X120091200Y-81991200D01*
X124189800Y-91287600D02*
X123966000Y-91063800D01*
%TO.N,/IO/FPGA_IO45*%
X158061287Y-118200600D02*
X153731800Y-118200600D01*
X161439155Y-113932082D02*
X161450872Y-113943799D01*
X162528029Y-105974201D02*
X162528029Y-104661429D01*
X160810088Y-115451799D02*
X158061287Y-118200600D01*
X161439155Y-108200800D02*
X161439155Y-113932082D01*
X153731800Y-118200600D02*
X151841200Y-120091200D01*
X162528029Y-104661429D02*
X162489200Y-104622600D01*
%TO.N,/IO/FPGA_IO34*%
X154982800Y-113943799D02*
X154982800Y-111260000D01*
X156071827Y-102943599D02*
X157810200Y-102943599D01*
X155752800Y-106222800D02*
X155753041Y-106222559D01*
X155949113Y-103066313D02*
X156071827Y-102943599D01*
X154926209Y-115451799D02*
X138700601Y-115451799D01*
X138700601Y-115451799D02*
X134061200Y-120091200D01*
X155752800Y-110490000D02*
X155752800Y-106222800D01*
X154982800Y-111260000D02*
X155752800Y-110490000D01*
%TO.N,/IO/FPGA_IO44*%
X160629600Y-108209568D02*
X160629600Y-113922530D01*
X161989201Y-105696062D02*
X161989201Y-104622600D01*
X161718427Y-105974200D02*
X161718427Y-105966836D01*
X159938315Y-115451799D02*
X157542914Y-117847200D01*
X160629600Y-113922530D02*
X160650869Y-113943799D01*
X151545200Y-117847200D02*
X149301200Y-120091200D01*
X157542914Y-117847200D02*
X151545200Y-117847200D01*
X161718427Y-105966836D02*
X161989201Y-105696062D01*
%TO.N,/IO/FPGA_IO36*%
X157810200Y-103943600D02*
X157810200Y-104470200D01*
X156329241Y-106798758D02*
X156329241Y-110827959D01*
X157810200Y-104470200D02*
X157734000Y-104546400D01*
X155782803Y-111374397D02*
X155782803Y-113943799D01*
X155726212Y-115451799D02*
X155726212Y-115468081D01*
X155726212Y-115468081D02*
X155165294Y-116028999D01*
X156329241Y-110827959D02*
X155782803Y-111374397D01*
X155165294Y-116028999D02*
X140663401Y-116028999D01*
X140663401Y-116028999D02*
X136601200Y-120091200D01*
%TO.N,/IO/FPGA_IO48*%
X167170768Y-110032799D02*
X167993400Y-110855432D01*
X166192886Y-110032800D02*
X167170768Y-110032799D01*
X168706800Y-116735200D02*
X167771400Y-117670600D01*
X164972806Y-108812720D02*
X166192886Y-110032800D01*
X163989200Y-104622600D02*
X164942419Y-105575819D01*
X166364202Y-117670600D02*
X164629401Y-115935799D01*
X159461200Y-118711384D02*
X159461200Y-120091200D01*
X167993400Y-110855432D02*
X167993400Y-113739000D01*
X167771400Y-117670600D02*
X166364202Y-117670600D01*
X162236785Y-115935799D02*
X159461200Y-118711384D01*
X164942419Y-105575819D02*
X164942419Y-105979000D01*
X164972806Y-108210400D02*
X164972806Y-108812720D01*
X164982406Y-108200800D02*
X164972806Y-108210400D01*
X167993400Y-113739000D02*
X168706800Y-114452400D01*
X164629401Y-115935799D02*
X162236785Y-115935799D01*
%TO.N,/IO/FPGA_IO46*%
X167286600Y-111245900D02*
X166835500Y-110794800D01*
X163337631Y-105960730D02*
X162989199Y-105612298D01*
X158619016Y-118554000D02*
X155918400Y-118554000D01*
X161944017Y-115228999D02*
X158619016Y-118554000D01*
X163363368Y-108212474D02*
X163363560Y-108212282D01*
X163337631Y-105974200D02*
X163337631Y-105960730D01*
X167030400Y-116735200D02*
X166428370Y-116735200D01*
X165945694Y-110794800D02*
X163363368Y-108212474D01*
X166428370Y-116735200D02*
X164922169Y-115228999D01*
X162989199Y-105612298D02*
X162989199Y-104622600D01*
X166835500Y-110794800D02*
X165945694Y-110794800D01*
X163363560Y-108212282D02*
X163372800Y-108212282D01*
X167286600Y-114212050D02*
X167286600Y-111245900D01*
X164922169Y-115228999D02*
X161944017Y-115228999D01*
X155918400Y-118554000D02*
X154381200Y-120091200D01*
X167046250Y-114452400D02*
X167286600Y-114212050D01*
%TO.N,/IO/FPGA_IO47*%
X167640000Y-114294701D02*
X167853899Y-114508600D01*
X163489201Y-104622600D02*
X163489201Y-105272401D01*
X162090401Y-115582399D02*
X157581600Y-120091200D01*
X166510586Y-117317200D02*
X164775785Y-115582399D01*
X167840003Y-116735200D02*
X167840003Y-116748670D01*
X166981884Y-110441400D02*
X167640000Y-111099516D01*
X163489201Y-105272401D02*
X164142416Y-105925616D01*
X167640000Y-111099516D02*
X167640000Y-114294701D01*
X164142416Y-105925616D02*
X164142416Y-105979000D01*
X164775785Y-115582399D02*
X162090401Y-115582399D01*
X166092078Y-110441400D02*
X166981884Y-110441400D01*
X167271473Y-117317200D02*
X166510586Y-117317200D01*
X164172803Y-108196000D02*
X164172803Y-108522125D01*
X167840003Y-116748670D02*
X167271473Y-117317200D01*
X157581600Y-120091200D02*
X156921200Y-120091200D01*
X164172803Y-108522125D02*
X166092078Y-110441400D01*
%TO.N,/IO/FPGA_IO43*%
X159068838Y-115451799D02*
X157026837Y-117493800D01*
X149358600Y-117493800D02*
X146761200Y-120091200D01*
X157026837Y-117493800D02*
X149358600Y-117493800D01*
X161329662Y-105532528D02*
X161489200Y-105372990D01*
X159810381Y-113903314D02*
X159850866Y-113943799D01*
X159810381Y-108207079D02*
X159810381Y-113903314D01*
X160666270Y-105974200D02*
X160896769Y-105974200D01*
X161489200Y-105372990D02*
X161489200Y-104622600D01*
X161329662Y-105541307D02*
X161329662Y-105532528D01*
X160896769Y-105974200D02*
X161329662Y-105541307D01*
%TO.N,/IO/FPGA_IO42*%
X159000803Y-108200800D02*
X159000803Y-113893739D01*
X158189135Y-115451799D02*
X156500534Y-117140400D01*
X160989200Y-105065484D02*
X160989200Y-104631100D01*
X160989200Y-105065484D02*
X160989200Y-104622600D01*
X159856667Y-105974200D02*
X159856667Y-105916318D01*
X160427185Y-105345800D02*
X160708884Y-105345800D01*
X156500534Y-117140400D02*
X147172000Y-117140400D01*
X159856667Y-105916318D02*
X160427185Y-105345800D01*
X159000803Y-113893739D02*
X159050863Y-113943799D01*
X160708884Y-105345800D02*
X160989200Y-105065484D01*
X147172000Y-117140400D02*
X144221200Y-120091200D01*
%TO.N,/IO/FPGA_IO38*%
X157326218Y-115468081D02*
X156007299Y-116787000D01*
X157326218Y-115451799D02*
X157326218Y-115468081D01*
X159047064Y-105764000D02*
X158989199Y-105706135D01*
X156007299Y-116787000D02*
X144985400Y-116787000D01*
X158250860Y-113943799D02*
X158250860Y-108260460D01*
X158989199Y-105706135D02*
X158989199Y-104622600D01*
X159047064Y-105974200D02*
X159047064Y-105764000D01*
X144985400Y-116787000D02*
X141681200Y-120091200D01*
X158250860Y-108260460D02*
X158191200Y-108200800D01*
%TO.N,/IO/FPGA_IO37*%
X155560696Y-116433600D02*
X142798800Y-116433600D01*
X156905441Y-107374957D02*
X157450857Y-107920373D01*
X142798800Y-116433600D02*
X139141200Y-120091200D01*
X158331741Y-105595035D02*
X158331741Y-105502239D01*
X156526215Y-115468081D02*
X155560696Y-116433600D01*
X157450857Y-107920373D02*
X157450857Y-113943799D01*
X158331741Y-105502239D02*
X158489200Y-105344780D01*
X158489200Y-105344780D02*
X158489200Y-104622600D01*
X156526215Y-115451799D02*
X156526215Y-115468081D01*
%TO.N,/IO/FPGA_IO31*%
X172669200Y-90431059D02*
X172669200Y-80264000D01*
X163579427Y-90778886D02*
X168722888Y-90778886D01*
X172669200Y-80264000D02*
X176022000Y-76911200D01*
X171999192Y-91087597D02*
X172012662Y-91087597D01*
X156244107Y-101368817D02*
X156318890Y-101443600D01*
X156318890Y-101443600D02*
X157810200Y-101443600D01*
X172012662Y-91087597D02*
X172669200Y-90431059D01*
X156244107Y-101367402D02*
X156244107Y-101368817D01*
X168722888Y-90778886D02*
X169031599Y-91087597D01*
%TO.N,/IO/FPGA_IO11*%
X174758394Y-98507594D02*
X176022000Y-99771200D01*
X168797314Y-97992517D02*
X168813596Y-97992517D01*
X165385233Y-98943599D02*
X166488032Y-97840800D01*
X164668200Y-98943599D02*
X165385233Y-98943599D01*
X166488032Y-97840800D02*
X168645597Y-97840800D01*
X171999192Y-98507594D02*
X174758394Y-98507594D01*
X168645597Y-97840800D02*
X168797314Y-97992517D01*
X168813596Y-97992517D02*
X169036399Y-98215320D01*
X169020117Y-98215320D02*
X169036399Y-98215320D01*
%TO.N,/IO/FPGA_IO6*%
X171142000Y-106623328D02*
X175254128Y-106623328D01*
X170799565Y-102068257D02*
X170799565Y-102942399D01*
X175254128Y-106623328D02*
X176022000Y-107391200D01*
X164676700Y-101443600D02*
X170174908Y-101443600D01*
X176022000Y-107290692D02*
X176022000Y-107391200D01*
X170174908Y-101443600D02*
X170799565Y-102068257D01*
%TO.N,/IO/FPGA_IO19*%
X171999192Y-95269182D02*
X172012662Y-95269182D01*
X172012662Y-95269182D02*
X174470244Y-92811600D01*
X160989200Y-97764600D02*
X160989200Y-97276082D01*
X174498000Y-91135200D02*
X176022000Y-89611200D01*
X164065400Y-95959131D02*
X164551489Y-95473042D01*
X161396719Y-96083595D02*
X161413001Y-96083595D01*
X164551489Y-95473042D02*
X167819099Y-95473042D01*
X160835801Y-96644513D02*
X161396719Y-96083595D01*
X174470244Y-92811600D02*
X174498000Y-92811600D01*
X167819099Y-95473042D02*
X168041899Y-95250242D01*
X160835801Y-97122683D02*
X160835801Y-96644513D01*
X174498000Y-92811600D02*
X174498000Y-91135200D01*
X160989200Y-97276082D02*
X160835801Y-97122683D01*
%TO.N,/IO/FPGA_IO32*%
X172315800Y-78077400D02*
X176022000Y-74371200D01*
X171999192Y-90277994D02*
X172315800Y-89961386D01*
X155600090Y-101842000D02*
X155701691Y-101943601D01*
X163903713Y-90047558D02*
X168801163Y-90047558D01*
X172315800Y-89961386D02*
X172315800Y-78077400D01*
X155701691Y-101943601D02*
X157810200Y-101943601D01*
X168801163Y-90047558D02*
X169031599Y-90277994D01*
%TO.N,/IO/FPGA_IO10*%
X168231435Y-98281434D02*
X168961840Y-99011839D01*
X171999192Y-99317197D02*
X173027997Y-99317197D01*
X166547182Y-98281434D02*
X168231435Y-98281434D01*
X165385015Y-99443601D02*
X166547182Y-98281434D01*
X173027997Y-99317197D02*
X176022000Y-102311200D01*
X164668200Y-99443601D02*
X165385015Y-99443601D01*
%TO.N,/IO/FPGA_IO2*%
X166004600Y-103443601D02*
X166670198Y-104109199D01*
X164668200Y-103443601D02*
X166004600Y-103443601D01*
X171142000Y-109061206D02*
X171142000Y-110131200D01*
X171142000Y-110131200D02*
X176022000Y-115011200D01*
%TO.N,/IO/FPGA_IO21*%
X160575983Y-94527482D02*
X159989200Y-95114265D01*
X171999192Y-93649976D02*
X172012662Y-93649976D01*
X159989200Y-95114265D02*
X159989200Y-97764600D01*
X161185900Y-94527482D02*
X160575983Y-94527482D01*
X172012662Y-93649976D02*
X173736000Y-91926638D01*
X173736000Y-86817200D02*
X176022000Y-84531200D01*
X173736000Y-91926638D02*
X173736000Y-86817200D01*
%TO.N,/IO/FPGA_IO23*%
X158446762Y-96621600D02*
X158989199Y-97164037D01*
X158343600Y-96621600D02*
X158446762Y-96621600D01*
X158989199Y-97164037D02*
X158989199Y-97764600D01*
X173376000Y-84637200D02*
X176022000Y-81991200D01*
X171999192Y-92840373D02*
X173376000Y-91463565D01*
X160876202Y-93727479D02*
X161185900Y-93727479D01*
X159413001Y-95884842D02*
X159413001Y-95190680D01*
X159413001Y-95190680D02*
X160876202Y-93727479D01*
X173376000Y-91463565D02*
X173376000Y-84637200D01*
%TO.N,/IO/FPGA_IO12*%
X164668200Y-98443600D02*
X165165816Y-98443600D01*
X166274417Y-97335000D02*
X168956082Y-97335000D01*
X165165816Y-98443600D02*
X166274417Y-97335000D01*
X168956082Y-97335000D02*
X169036399Y-97415317D01*
X175555209Y-97697991D02*
X176022000Y-97231200D01*
X171999192Y-97697991D02*
X175555209Y-97697991D01*
%TO.N,/IO/FPGA_IO20*%
X161153556Y-95326830D02*
X161048344Y-95326830D01*
X161048344Y-95326830D02*
X160482401Y-95892773D01*
X172012662Y-94459579D02*
X174089400Y-92382841D01*
X174089400Y-89003800D02*
X176022000Y-87071200D01*
X171999192Y-94459579D02*
X172012662Y-94459579D01*
X160482401Y-97757802D02*
X160489199Y-97764600D01*
X160482401Y-95892773D02*
X160482401Y-97757802D01*
X174089400Y-92382841D02*
X174089400Y-89003800D01*
%TO.N,/IO/FPGA_IO28*%
X168415663Y-91586064D02*
X163571735Y-91586064D01*
X168720463Y-91586064D02*
X169031599Y-91897200D01*
X172012662Y-91897200D02*
X173022600Y-90887262D01*
X157801700Y-99943600D02*
X156907800Y-99943600D01*
X171999192Y-91897200D02*
X172012662Y-91897200D01*
X173022600Y-90887262D02*
X173022600Y-82450600D01*
X173022600Y-82450600D02*
X176022000Y-79451200D01*
X168415663Y-91586064D02*
X168720463Y-91586064D01*
X156907800Y-99943600D02*
X156633800Y-99669600D01*
%TO.N,/IO/FPGA_IO4*%
X171142000Y-107442000D02*
X173532800Y-107442000D01*
X173532800Y-107442000D02*
X176022000Y-109931200D01*
X164668200Y-102443600D02*
X166451600Y-102443600D01*
X166451600Y-102443600D02*
X166573200Y-102565200D01*
%TO.N,/IO/FPGA_IO13*%
X165138486Y-96615314D02*
X169036399Y-96615314D01*
X171999192Y-96888388D02*
X173824812Y-96888388D01*
X173824812Y-96888388D02*
X176022000Y-94691200D01*
X163989200Y-97764600D02*
X165138486Y-96615314D01*
%TO.N,/IO/FPGA_IO18*%
X165012959Y-95826442D02*
X168903425Y-95826442D01*
X172094415Y-96078785D02*
X176022000Y-92151200D01*
X161489200Y-97764600D02*
X161489200Y-96959797D01*
X164065401Y-96774000D02*
X165012959Y-95826442D01*
X171999192Y-96078785D02*
X172094415Y-96078785D01*
X161489200Y-96959797D02*
X161413001Y-96883598D01*
%TO.N,/IO/FPGA_IO3*%
X166909283Y-103531999D02*
X167188083Y-103810799D01*
X171142000Y-108251603D02*
X171802403Y-108251603D01*
X167188083Y-103810799D02*
X167420656Y-103810799D01*
X171802403Y-108251603D02*
X176022000Y-112471200D01*
X166625599Y-103531999D02*
X166909283Y-103531999D01*
X164668200Y-102943599D02*
X166037199Y-102943599D01*
X166037199Y-102943599D02*
X166625599Y-103531999D01*
%TO.N,/IO/FPGA_IO9*%
X171999192Y-100828392D02*
X176022000Y-104851200D01*
X171999192Y-100126800D02*
X171999192Y-100828392D01*
X166469766Y-98858634D02*
X167993764Y-98858634D01*
X165384800Y-99943600D02*
X166469766Y-98858634D01*
X165384800Y-99943600D02*
X164668200Y-99943600D01*
%TO.N,Net-(LED1-Pad2)*%
X152400000Y-105613200D02*
X152247600Y-105613200D01*
X152247600Y-105613200D02*
X151333200Y-104698800D01*
X151333200Y-104698800D02*
X150101300Y-104698800D01*
%TO.N,/RP2040/RUN*%
X134351299Y-96414000D02*
X133709416Y-96413999D01*
X131978400Y-93237202D02*
X130181198Y-93237202D01*
X132795600Y-93781200D02*
X132251602Y-93237202D01*
X130181198Y-93237202D02*
X129540000Y-93878400D01*
X132795600Y-95500182D02*
X132795600Y-93781200D01*
X133709416Y-96413999D02*
X132795600Y-95500182D01*
X132251602Y-93237202D02*
X131978400Y-93237202D01*
X135026801Y-97089502D02*
X134351299Y-96414000D01*
X135026801Y-97739200D02*
X135026801Y-97089502D01*
%TO.N,/RP2040/BOOT*%
X152105200Y-112766000D02*
X151028400Y-113842800D01*
X149775583Y-111175800D02*
X144365383Y-105765600D01*
X150558500Y-111175800D02*
X151683099Y-111175800D01*
X151683099Y-111175800D02*
X153273299Y-112766000D01*
X153273299Y-112766000D02*
X152105200Y-112766000D01*
X139871800Y-104991400D02*
X139426800Y-104546400D01*
X144365383Y-105765600D02*
X142189200Y-105765600D01*
X150558500Y-111175800D02*
X149775583Y-111175800D01*
X141415000Y-104991400D02*
X139871800Y-104991400D01*
X142189200Y-105765600D02*
X141415000Y-104991400D01*
%TO.N,/RP2040/SQPI_SD1*%
X141268616Y-105344800D02*
X139175500Y-105344800D01*
X142042816Y-106119000D02*
X141268616Y-105344800D01*
X146276349Y-108186635D02*
X144208714Y-106119000D01*
X148127656Y-110342744D02*
X148127656Y-110027657D01*
X149320454Y-109905800D02*
X150558500Y-109905800D01*
X152952602Y-109905800D02*
X153282802Y-109575600D01*
X150558500Y-109905800D02*
X152952602Y-109905800D01*
X146286635Y-108186635D02*
X146276349Y-108186635D01*
X148127656Y-110027657D02*
X146286635Y-108186635D01*
X139026801Y-105196101D02*
X139026801Y-104546400D01*
X139175500Y-105344800D02*
X139026801Y-105196101D01*
X144208714Y-106119000D02*
X142042816Y-106119000D01*
%TO.N,/RP2040/SQPI_SD2*%
X144062330Y-106472400D02*
X146731370Y-109141440D01*
X141896432Y-106472400D02*
X141122232Y-105698200D01*
X152257201Y-108635800D02*
X153298601Y-107594400D01*
X150558500Y-108635800D02*
X152257201Y-108635800D01*
X146731370Y-109141440D02*
X146731370Y-109453030D01*
X146731370Y-109453030D02*
X146734765Y-109449635D01*
X138626799Y-105295882D02*
X138626799Y-104546400D01*
X144062330Y-106472400D02*
X141896432Y-106472400D01*
X148050454Y-108635800D02*
X150558500Y-108635800D01*
X141122232Y-105698200D02*
X139029116Y-105698200D01*
X139029116Y-105698200D02*
X138626799Y-105295882D01*
%TO.N,Net-(U3-USB_DP)*%
X135026400Y-106832400D02*
X135826799Y-106032001D01*
X135026400Y-111556800D02*
X135026400Y-106832400D01*
X135826799Y-106032001D02*
X135826799Y-104546400D01*
%TO.N,Net-(U3-USB_DM)*%
X135426800Y-105822400D02*
X135426800Y-104546400D01*
X134569200Y-109893100D02*
X134569200Y-106680000D01*
X134569200Y-106680000D02*
X135426800Y-105822400D01*
X132905500Y-111556800D02*
X134569200Y-109893100D01*
%TO.N,/RP2040/SQPI_SD3*%
X137426799Y-105860269D02*
X138324930Y-106758400D01*
X138324930Y-106758400D02*
X140591008Y-106758400D01*
X141537200Y-107704592D02*
X141537200Y-108703600D01*
X141537200Y-110227600D02*
X140208000Y-111556800D01*
X137426799Y-104546400D02*
X137426799Y-105860269D01*
X142739400Y-109905800D02*
X143268700Y-109905800D01*
X140591008Y-106758400D02*
X141537200Y-107704592D01*
X141537200Y-108703600D02*
X142739400Y-109905800D01*
X141537200Y-108703600D02*
X141537200Y-110227600D01*
%TO.N,Net-(U5-{slash}WP(IO2))*%
X168935400Y-93236501D02*
X167900899Y-92202000D01*
X165506400Y-92202000D02*
X164846000Y-92862400D01*
X167900899Y-92202000D02*
X165506400Y-92202000D01*
X164846000Y-92862400D02*
X164846000Y-94334899D01*
%TO.N,/RP2040/FPGA_CDONE*%
X146748500Y-94805500D02*
X146913600Y-94805500D01*
X155045750Y-89708650D02*
X152762950Y-89708650D01*
X152762950Y-89708650D02*
X151180800Y-91290800D01*
X169428595Y-100943600D02*
X170321599Y-100050596D01*
X160015600Y-84738800D02*
X155045750Y-89708650D01*
X144691100Y-97078800D02*
X144691100Y-97028000D01*
X143408400Y-96926400D02*
X144691100Y-96926400D01*
X140230400Y-99342801D02*
X140991999Y-99342801D01*
X144691100Y-96862900D02*
X146748500Y-94805500D01*
X170321599Y-100050596D02*
X170321599Y-86737302D01*
X149961600Y-92803600D02*
X147959700Y-94805500D01*
X147959700Y-94805500D02*
X146913600Y-94805500D01*
X140991999Y-99342801D02*
X143408400Y-96926400D01*
X170321599Y-86737302D02*
X168323097Y-84738800D01*
X164668200Y-100943600D02*
X169428595Y-100943600D01*
X168323097Y-84738800D02*
X160015600Y-84738800D01*
X144691100Y-96926400D02*
X144691100Y-96862900D01*
%TO.N,/RP2040/FPGA_CRESET*%
X166116000Y-100443599D02*
X166116000Y-100027270D01*
X164668200Y-100443599D02*
X166116000Y-100443599D01*
X159869216Y-84385400D02*
X168469480Y-84385400D01*
X150386195Y-91262332D02*
X152293277Y-89355250D01*
X149961600Y-95629098D02*
X149961600Y-93618471D01*
X167040800Y-100443599D02*
X167498000Y-99986399D01*
X143025200Y-97919200D02*
X147671498Y-97919200D01*
X140230400Y-99742800D02*
X141201600Y-99742800D01*
X170674999Y-86590918D02*
X170674999Y-100512067D01*
X147671498Y-97919200D02*
X149961600Y-95629098D01*
X152293277Y-89355250D02*
X154899366Y-89355250D01*
X166116000Y-100443599D02*
X167040800Y-100443599D01*
X170674999Y-100512067D02*
X170485392Y-100701674D01*
X141201600Y-99742800D02*
X143025200Y-97919200D01*
X149961600Y-93618471D02*
X149969034Y-93611037D01*
X168469480Y-84385400D02*
X170674999Y-86590918D01*
X150376501Y-91262332D02*
X150386195Y-91262332D01*
X166116000Y-100027270D02*
X166294835Y-99848435D01*
X154899366Y-89355250D02*
X159869216Y-84385400D01*
%TO.N,Net-(U5-{slash}HOLD_OR_{slash}RESET(IO3))*%
X163576000Y-88290400D02*
X163576000Y-87045099D01*
X165422200Y-88243740D02*
X165707530Y-88243740D01*
X165712371Y-88238899D02*
X168935400Y-88238899D01*
X165707530Y-88243740D02*
X165712371Y-88238899D01*
%TO.N,/IO/USER_BTN*%
X141256889Y-91866177D02*
X141256889Y-91804272D01*
X148453399Y-90830400D02*
X148453399Y-88888601D01*
X139738768Y-92451600D02*
X140671466Y-92451600D01*
X139026801Y-97739200D02*
X139026801Y-93163567D01*
X141256889Y-91657891D02*
X141256892Y-91657888D01*
X141256892Y-91657888D02*
X141256892Y-90550860D01*
X146175202Y-89611200D02*
X147675600Y-88110802D01*
X148453399Y-88888601D02*
X147675600Y-88110802D01*
X141256892Y-90550860D02*
X142196552Y-89611200D01*
X141256892Y-91804269D02*
X141256889Y-91657891D01*
X142196552Y-89611200D02*
X146175202Y-89611200D01*
X141256889Y-91804272D02*
X141256892Y-91804269D01*
X140671466Y-92451600D02*
X141256889Y-91866177D01*
X139026801Y-93163567D02*
X139738768Y-92451600D01*
%TO.N,/IO/LED_R*%
X140782401Y-98942799D02*
X144627600Y-95097600D01*
X144627600Y-95097600D02*
X144627600Y-94818200D01*
X140230400Y-98942799D02*
X140782401Y-98942799D01*
%TO.N,/IO/LED_G*%
X140230400Y-98542800D02*
X140230400Y-97081800D01*
X140230400Y-97081800D02*
X142494000Y-94818200D01*
%TO.N,/IO/LED_B*%
X139426800Y-97739200D02*
X139426800Y-95739100D01*
X139426800Y-95739100D02*
X140360400Y-94805500D01*
%TO.N,/RP2040/SQPI_SD0*%
X140951200Y-106051600D02*
X142265400Y-107365800D01*
X138226800Y-104546400D02*
X138226800Y-105660702D01*
X138226800Y-105660702D02*
X138617699Y-106051600D01*
X138617699Y-106051600D02*
X140951200Y-106051600D01*
X142265400Y-107365800D02*
X143268700Y-107365800D01*
%TO.N,/RP2040/FPGA_CLK*%
X147086378Y-100230600D02*
X145528820Y-100230600D01*
X147432889Y-99884089D02*
X147086378Y-100230600D01*
X145528820Y-100230600D02*
X145216619Y-100542801D01*
X156439066Y-103707734D02*
X156703199Y-103443601D01*
X145216619Y-100542801D02*
X140230400Y-100542801D01*
X156703199Y-103443601D02*
X157810200Y-103443601D01*
X149607035Y-102363035D02*
X149607035Y-102905029D01*
X149607035Y-102905029D02*
X150029608Y-103327602D01*
%TO.N,/RP2040/UART_RX*%
X148047634Y-102108000D02*
X150571200Y-99584434D01*
X157055000Y-97688400D02*
X157810200Y-98443600D01*
X146536001Y-102942799D02*
X147370800Y-102108000D01*
X140230400Y-102942799D02*
X146536001Y-102942799D01*
X150571200Y-99584434D02*
X150571200Y-98645383D01*
X151528584Y-97687999D02*
X152863217Y-97687999D01*
X147370800Y-102108000D02*
X148047634Y-102108000D01*
X150571200Y-98645383D02*
X151528584Y-97687999D01*
X152857200Y-97688400D02*
X157055000Y-97688400D01*
%TO.N,/iCE40UP5K/SPI_SS*%
X158476100Y-95521400D02*
X161185900Y-92811600D01*
X162305299Y-94335600D02*
X162306000Y-94334899D01*
X162306000Y-94334899D02*
X162306000Y-92843900D01*
X161086800Y-92811600D02*
X161185900Y-92811600D01*
X162489200Y-97764600D02*
X162489200Y-94518099D01*
X162489200Y-94518099D02*
X162306000Y-94334899D01*
X162306000Y-92843900D02*
X162338300Y-92811600D01*
%TO.N,/RP2040/SQPI_SCLK*%
X138471314Y-106405000D02*
X137826801Y-105760487D01*
X137826801Y-105760487D02*
X137826801Y-104546400D01*
X140737392Y-106405000D02*
X138471314Y-106405000D01*
X142968192Y-108635800D02*
X140737392Y-106405000D01*
X143268700Y-108635800D02*
X142968192Y-108635800D01*
%TO.N,/iCE40UP5K/SPI_SCK*%
X161169618Y-92011597D02*
X161185900Y-92011597D01*
X153229600Y-96096800D02*
X154381200Y-94945200D01*
X146436216Y-102542800D02*
X147224417Y-101754600D01*
X158236015Y-94945200D02*
X161169618Y-92011597D01*
X149352000Y-99364801D02*
X152620000Y-96096800D01*
X152620000Y-96096800D02*
X153229600Y-96096800D01*
X147224417Y-101754600D02*
X147876600Y-101754600D01*
X147876600Y-101754600D02*
X149352000Y-100279200D01*
X162989199Y-97764600D02*
X162989199Y-92964000D01*
X149352000Y-100279200D02*
X149352000Y-99364801D01*
X161147211Y-92011597D02*
X161185900Y-92011597D01*
X164846000Y-88290400D02*
X164846000Y-87045099D01*
X154381200Y-94945200D02*
X158236015Y-94945200D01*
X162493996Y-92011597D02*
X162989199Y-92506800D01*
X162338300Y-92011597D02*
X162493996Y-92011597D01*
X140230400Y-102542800D02*
X146436216Y-102542800D01*
X162989199Y-92964000D02*
X162989199Y-92506800D01*
X162989199Y-90147201D02*
X164846000Y-88290400D01*
X162989199Y-92506800D02*
X162989199Y-90147201D01*
%TO.N,/iCE40UP5K/SPI_SI*%
X166116000Y-86106000D02*
X166116000Y-87045099D01*
X161762100Y-89354299D02*
X162915600Y-88200799D01*
X161451697Y-91434397D02*
X161762100Y-91744800D01*
X153021251Y-95744400D02*
X153022251Y-95743400D01*
X147078034Y-101401200D02*
X147730216Y-101401200D01*
X146336431Y-102142801D02*
X147078034Y-101401200D01*
X152472621Y-95744400D02*
X153021251Y-95744400D01*
X153083215Y-95743400D02*
X154338615Y-94488000D01*
X161989201Y-97764600D02*
X161989201Y-95695201D01*
X161989201Y-95695201D02*
X161762100Y-95468100D01*
X161424985Y-91435397D02*
X161425985Y-91434397D01*
X148894800Y-99322221D02*
X152472621Y-95744400D01*
X147730216Y-101401200D02*
X148894800Y-100236616D01*
X148894800Y-100236616D02*
X148894800Y-99322221D01*
X162915600Y-88200799D02*
X162915600Y-86106000D01*
X163220400Y-85801200D02*
X165811200Y-85801200D01*
X153022251Y-95743400D02*
X153083215Y-95743400D01*
X154338615Y-94488000D02*
X157894212Y-94488000D01*
X157894212Y-94488000D02*
X160946815Y-91435397D01*
X161762100Y-95468100D02*
X161762100Y-91744800D01*
X140230400Y-102142801D02*
X146336431Y-102142801D01*
X160946815Y-91435397D02*
X161424985Y-91435397D01*
X161425985Y-91434397D02*
X161451697Y-91434397D01*
X162915600Y-86106000D02*
X163220400Y-85801200D01*
X165811200Y-85801200D02*
X166116000Y-86106000D01*
X161762100Y-91744800D02*
X161762100Y-89354299D01*
%TO.N,/RP2040/UART_TX*%
X147287983Y-103343801D02*
X147766153Y-103343801D01*
X151485600Y-98755200D02*
X151846001Y-98394799D01*
X147812399Y-103342801D02*
X151485600Y-99669600D01*
X147286983Y-103342801D02*
X147287983Y-103343801D01*
X151485600Y-99669600D02*
X151485600Y-98755200D01*
X140230400Y-103342801D02*
X147286983Y-103342801D01*
X156199000Y-98394799D02*
X157247802Y-99443601D01*
X151846001Y-98394799D02*
X156199000Y-98394799D01*
X157247802Y-99443601D02*
X157810200Y-99443601D01*
X147766153Y-103343801D02*
X147767153Y-103342801D01*
X147767153Y-103342801D02*
X147812399Y-103342801D01*
%TO.N,/RP2040/SPI_CS_FPGA*%
X145908889Y-101166600D02*
X145732689Y-101342800D01*
X152710817Y-98041800D02*
X156345785Y-98041800D01*
X145928482Y-101166600D02*
X145908889Y-101166600D01*
X156667200Y-98363000D02*
X157247799Y-98943599D01*
X156345785Y-98041800D02*
X156666985Y-98363000D01*
X156666985Y-98363000D02*
X156667200Y-98363000D01*
X151028400Y-98687966D02*
X151674967Y-98041399D01*
X152710416Y-98041399D02*
X152710817Y-98041800D01*
X145732689Y-101342800D02*
X140230400Y-101342800D01*
X151028400Y-99627017D02*
X151028400Y-98687966D01*
X147888816Y-102766601D02*
X151028400Y-99627017D01*
X151674967Y-98041399D02*
X152710416Y-98041399D01*
X157247799Y-98943599D02*
X157810200Y-98943599D01*
X147527068Y-102766601D02*
X147888816Y-102766601D01*
%TO.N,/iCE40UP5K/SPI_S0*%
X163576000Y-92817017D02*
X163576000Y-94334899D01*
X163489201Y-97764600D02*
X163489201Y-94421698D01*
X160754203Y-90858197D02*
X157581600Y-94030800D01*
X152875867Y-95390000D02*
X152874867Y-95391000D01*
X152874867Y-95391000D02*
X152396697Y-95391000D01*
X161185900Y-90858197D02*
X160754203Y-90858197D01*
X152396697Y-95391000D02*
X152395697Y-95390000D01*
X152395697Y-95390000D02*
X152327237Y-95390000D01*
X148486200Y-99231037D02*
X148486200Y-100145431D01*
X147583832Y-101047800D02*
X146931652Y-101047800D01*
X163489201Y-94421698D02*
X163576000Y-94334899D01*
X152327237Y-95390000D02*
X148486200Y-99231037D01*
X163565399Y-92806416D02*
X163576000Y-92817017D01*
X146931652Y-101047800D02*
X146236651Y-101742799D01*
X152936832Y-95390000D02*
X152875867Y-95390000D01*
X146236651Y-101742799D02*
X140230400Y-101742799D01*
X148486200Y-100145431D02*
X147583832Y-101047800D01*
X154296032Y-94030800D02*
X152936832Y-95390000D01*
X157581600Y-94030800D02*
X154296032Y-94030800D01*
%TO.N,Net-(U1-EN)*%
X151028400Y-87750802D02*
X151028400Y-85661500D01*
X153243198Y-87782400D02*
X151059998Y-87782400D01*
X151059998Y-87782400D02*
X151028400Y-87750802D01*
%TO.N,Net-(R7-Pad1)*%
X131191000Y-90830400D02*
X131191000Y-88112600D01*
X131191000Y-88112600D02*
X133045200Y-86258400D01*
%TD*%
M02*
